<?xml version="1.0" encoding="UTF-8" standalone="no"?>
<!DOCTYPE svg PUBLIC "-//W3C//DTD SVG 1.1//EN" 
  "http://www.w3.org/Graphics/SVG/1.1/DTD/svg11.dtd">
<svg width="64" height="64"
	 xmlns="http://www.w3.org/2000/svg" version="1.1">
 <path d="  M 3,7  L 2,7  L 2,8  L 3,8  Z  " style="fill:rgb(103, 152, 18); fill-opacity:0.165; stroke:none;" />
 <path d="  M 3,8  L 4,8  L 4,7  L 3,7  Z  " style="fill:rgb(104, 155, 16); fill-opacity:0.251; stroke:none;" />
 <path d="  M 6,30  L 7,30  L 7,29  L 6,29  Z  " style="fill:rgb(104, 155, 16); fill-opacity:0.251; stroke:none;" />
 <path d="  M 8,12  L 9,12  L 9,11  L 8,11  Z  " style="fill:rgb(104, 155, 16); fill-opacity:0.251; stroke:none;" />
 <path d="  M 12,13  L 11,13  L 11,14  L 12,14  Z  " style="fill:rgb(104, 155, 16); fill-opacity:0.251; stroke:none;" />
 <path d="  M 12,26  L 11,26  L 11,27  L 12,27  Z  " style="fill:rgb(104, 155, 16); fill-opacity:0.251; stroke:none;" />
 <path d="  M 14,16  L 15,16  L 15,15  L 14,15  Z  " style="fill:rgb(104, 155, 16); fill-opacity:0.251; stroke:none;" />
 <path d="  M 14,38  L 14,39  L 15,39  L 15,38  Z  " style="fill:rgb(104, 155, 16); fill-opacity:0.251; stroke:none;" />
 <path d="  M 16,23  L 15,23  L 15,24  L 16,24  Z  " style="fill:rgb(104, 155, 16); fill-opacity:0.251; stroke:none;" />
 <path d="  M 17,35  L 18,35  L 18,34  L 17,34  Z  " style="fill:rgb(104, 155, 16); fill-opacity:0.251; stroke:none;" />
 <path d="  M 17,40  L 17,41  L 18,41  L 18,40  Z  " style="fill:rgb(104, 155, 16); fill-opacity:0.251; stroke:none;" />
 <path d="  M 20,32  L 20,31  L 19,31  L 19,32  Z  " style="fill:rgb(104, 155, 16); fill-opacity:0.251; stroke:none;" />
 <path d="  M 22,39  L 21,39  L 21,40  L 22,40  Z  " style="fill:rgb(104, 155, 16); fill-opacity:0.251; stroke:none;" />
 <path d="  M 23,55  L 23,54  L 22,54  L 22,55  Z  " style="fill:rgb(104, 155, 16); fill-opacity:0.251; stroke:none;" />
 <path d="  M 26,52  L 26,53  L 27,53  L 27,52  Z  " style="fill:rgb(104, 155, 16); fill-opacity:0.251; stroke:none;" />
 <path d="  M 31,7  L 31,6  L 28,6  L 28,7  Z  " style="fill:rgb(104, 155, 16); fill-opacity:0.251; stroke:none;" />
 <path d="  M 32,17  L 32,16  L 29,16  L 29,17  Z  " style="fill:rgb(104, 155, 16); fill-opacity:0.251; stroke:none;" />
 <path d="  M 30,49  L 31,49  L 31,48  L 30,48  Z  " style="fill:rgb(104, 155, 16); fill-opacity:0.251; stroke:none;" />
 <path d="  M 31,38  L 32,38  L 32,37  L 31,37  Z  " style="fill:rgb(104, 155, 16); fill-opacity:0.251; stroke:none;" />
 <path d="  M 31,48  L 32,48  L 32,47  L 31,47  Z  " style="fill:rgb(104, 155, 16); fill-opacity:0.251; stroke:none;" />
 <path d="  M 34,37  L 33,37  L 33,38  L 34,38  Z  " style="fill:rgb(104, 155, 16); fill-opacity:0.251; stroke:none;" />
 <path d="  M 34,45  L 34,44  L 33,44  L 33,45  Z  " style="fill:rgb(104, 155, 16); fill-opacity:0.251; stroke:none;" />
 <path d="  M 45,34  L 45,32  L 44,32  L 44,34  Z  " style="fill:rgb(104, 155, 16); fill-opacity:0.251; stroke:none;" />
 <path d="  M 57,5  L 57,6  L 60,6  L 60,5  Z  " style="fill:rgb(104, 155, 16); fill-opacity:0.251; stroke:none;" />
 <path d="  M 61,24  L 61,25  L 62,25  L 62,24  Z  " style="fill:rgb(104, 155, 16); fill-opacity:0.251; stroke:none;" />
 <path d="  M 3,9  L 4,9  L 4,8  L 3,8  Z  " style="fill:rgb(104, 155, 15); fill-opacity:0.518; stroke:none;" />
 <path d="  M 4,8  L 6,8  L 6,7  L 4,7  Z  " style="fill:rgb(104, 154, 16); fill-opacity:0.376; stroke:none;" />
 <path d="  M 6,30  L 5,30  L 5,31  L 6,31  Z  " style="fill:rgb(104, 154, 16); fill-opacity:0.376; stroke:none;" />
 <path d="  M 6,53  L 7,53  L 7,52  L 6,52  Z  " style="fill:rgb(104, 154, 16); fill-opacity:0.376; stroke:none;" />
 <path d="  M 9,29  L 9,28  L 8,28  L 8,29  Z  " style="fill:rgb(104, 154, 16); fill-opacity:0.376; stroke:none;" />
 <path d="  M 9,54  L 8,54  L 8,55  L 9,55  Z  " style="fill:rgb(104, 154, 16); fill-opacity:0.376; stroke:none;" />
 <path d="  M 19,41  L 19,40  L 18,40  L 18,41  Z  " style="fill:rgb(104, 154, 16); fill-opacity:0.376; stroke:none;" />
 <path d="  M 21,22  L 20,22  L 20,23  L 21,23  Z  " style="fill:rgb(104, 154, 16); fill-opacity:0.376; stroke:none;" />
 <path d="  M 22,39  L 22,40  L 23,40  L 23,39  Z  " style="fill:rgb(104, 154, 16); fill-opacity:0.376; stroke:none;" />
 <path d="  M 26,38  L 26,39  L 27,39  L 27,38  Z  " style="fill:rgb(104, 154, 16); fill-opacity:0.376; stroke:none;" />
 <path d="  M 28,52  L 28,51  L 27,51  L 27,52  Z  " style="fill:rgb(104, 154, 16); fill-opacity:0.376; stroke:none;" />
 <path d="  M 35,7  L 35,6  L 31,6  L 31,7  Z  " style="fill:rgb(104, 154, 16); fill-opacity:0.376; stroke:none;" />
 <path d="  M 32,17  L 34,17  L 34,16  L 32,16  Z  " style="fill:rgb(104, 154, 16); fill-opacity:0.376; stroke:none;" />
 <path d="  M 33,37  L 32,37  L 32,38  L 33,38  Z  " style="fill:rgb(104, 154, 16); fill-opacity:0.376; stroke:none;" />
 <path d="  M 34,42  L 34,43  L 35,43  L 35,42  Z  " style="fill:rgb(104, 154, 16); fill-opacity:0.376; stroke:none;" />
 <path d="  M 45,30  L 44,30  L 44,32  L 45,32  Z  " style="fill:rgb(104, 154, 16); fill-opacity:0.376; stroke:none;" />
 <path d="  M 59,7  L 59,8  L 60,8  L 60,7  Z  " style="fill:rgb(104, 154, 16); fill-opacity:0.376; stroke:none;" />
 <path d="  M 60,18  L 61,18  L 61,16  L 60,16  Z  " style="fill:rgb(104, 154, 16); fill-opacity:0.376; stroke:none;" />
 <path d="  M 61,28  L 62,28  L 62,25  L 61,25  Z  " style="fill:rgb(104, 154, 16); fill-opacity:0.376; stroke:none;" />
 <path d="  M 5,8  L 4,8  L 4,9  L 5,9  Z  " style="fill:rgb(104, 155, 16); fill-opacity:0.890; stroke:none;" />
 <path d="  M 5,10  L 5,9  L 4,9  L 4,10  Z  " style="fill:rgb(102, 153, 17); fill-opacity:0.059; stroke:none;" />
 <path d="  M 5,39  L 4,39  L 4,41  L 5,41  Z  " style="fill:rgb(104, 151, 16); fill-opacity:0.125; stroke:none;" />
 <path d="  M 5,52  L 6,52  L 6,51  L 5,51  Z  " style="fill:rgb(104, 151, 16); fill-opacity:0.125; stroke:none;" />
 <path d="  M 13,25  L 12,25  L 12,26  L 13,26  Z  " style="fill:rgb(104, 151, 16); fill-opacity:0.125; stroke:none;" />
 <path d="  M 14,40  L 14,41  L 15,41  L 15,40  Z  " style="fill:rgb(104, 151, 16); fill-opacity:0.125; stroke:none;" />
 <path d="  M 17,22  L 16,22  L 16,23  L 17,23  Z  " style="fill:rgb(104, 151, 16); fill-opacity:0.125; stroke:none;" />
 <path d="  M 19,21  L 20,21  L 20,20  L 19,20  Z  " style="fill:rgb(104, 151, 16); fill-opacity:0.125; stroke:none;" />
 <path d="  M 20,21  L 20,22  L 21,22  L 21,21  Z  " style="fill:rgb(104, 151, 16); fill-opacity:0.125; stroke:none;" />
 <path d="  M 22,24  L 21,24  L 21,25  L 22,25  Z  " style="fill:rgb(104, 151, 16); fill-opacity:0.125; stroke:none;" />
 <path d="  M 24,6  L 24,7  L 28,7  L 28,6  Z  " style="fill:rgb(104, 151, 16); fill-opacity:0.125; stroke:none;" />
 <path d="  M 25,54  L 26,54  L 26,53  L 25,53  Z  " style="fill:rgb(104, 151, 16); fill-opacity:0.125; stroke:none;" />
 <path d="  M 26,17  L 29,17  L 29,16  L 26,16  Z  " style="fill:rgb(104, 151, 16); fill-opacity:0.125; stroke:none;" />
 <path d="  M 34,38  L 34,39  L 35,39  L 35,38  Z  " style="fill:rgb(104, 151, 16); fill-opacity:0.125; stroke:none;" />
 <path d="  M 44,35  L 45,35  L 45,34  L 44,34  Z  " style="fill:rgb(104, 151, 16); fill-opacity:0.125; stroke:none;" />
 <path d="  M 46,59  L 47,59  L 47,58  L 46,58  Z  " style="fill:rgb(104, 151, 16); fill-opacity:0.125; stroke:none;" />
 <path d="  M 50,62  L 50,61  L 49,61  L 49,62  Z  " style="fill:rgb(104, 151, 16); fill-opacity:0.125; stroke:none;" />
 <path d="  M 51,63  L 52,63  L 52,62  L 51,62  Z  " style="fill:rgb(104, 151, 16); fill-opacity:0.125; stroke:none;" />
 <path d="  M 57,6  L 57,5  L 54,5  L 54,6  Z  " style="fill:rgb(104, 151, 16); fill-opacity:0.125; stroke:none;" />
 <path d="  M 61,14  L 60,14  L 60,16  L 61,16  Z  " style="fill:rgb(104, 151, 16); fill-opacity:0.125; stroke:none;" />
 <path d="  M 62,24  L 62,22  L 61,22  L 61,24  Z  " style="fill:rgb(104, 151, 16); fill-opacity:0.125; stroke:none;" />
 <path d="  M 46,57  L 47,57  L 47,58  L 48,58  L 48,60  L 50,60  L 50,61  L 52,61  L 52,62  L 54,62  L 54,63  L 55,63  L 55,62  L 60,62  L 60,61  L 61,61  L 61,60  L 62,60  L 62,34  L 61,34  L 61,21  L 60,21  L 60,14  L 59,14  L 59,6  L 50,6  L 50,7  L 20,7  L 20,8  L 5,8  L 5,9  L 7,9  L 7,10  L 8,10  L 8,11  L 10,11  L 10,12  L 12,12  L 12,13  L 13,13  L 13,14  L 15,14  L 15,15  L 21,15  L 21,16  L 45,16  L 45,38  L 46,38  Z  " style="fill:rgb(104, 154, 16); fill-opacity:1.000; stroke:none;" />
 <path d="  M 20,40  L 20,41  L 17,41  L 17,42  L 14,42  L 14,41  L 13,41  L 13,39  L 14,39  L 14,37  L 15,37  L 15,36  L 16,36  L 16,35  L 17,35  L 17,33  L 18,33  L 18,32  L 19,32  L 19,30  L 20,30  L 20,26  L 21,26  L 21,24  L 20,24  L 20,21  L 19,21  L 19,22  L 18,22  L 18,23  L 16,23  L 16,24  L 15,24  L 15,25  L 14,25  L 14,26  L 12,26  L 12,27  L 11,27  L 11,28  L 10,28  L 10,29  L 8,29  L 8,30  L 6,30  L 6,34  L 5,34  L 5,44  L 6,44  L 6,51  L 7,51  L 7,52  L 8,52  L 8,54  L 16,54  L 16,55  L 21,55  L 21,54  L 24,54  L 24,53  L 26,53  L 26,52  L 27,52  L 27,51  L 28,51  L 28,50  L 29,50  L 29,49  L 30,49  L 30,48  L 31,48  L 31,46  L 32,46  L 32,45  L 33,45  L 33,43  L 34,43  L 34,41  L 35,41  L 35,40  L 34,40  L 34,38  L 29,38  L 29,39  L 25,39  L 25,40  Z  " style="fill:rgb(104, 154, 16); fill-opacity:1.000; stroke:none;" />
 <path d="  M 5,9  L 5,10  L 6,10  L 6,9  Z  " style="fill:rgb(105, 154, 16); fill-opacity:0.733; stroke:none;" />
 <path d="  M 6,31  L 5,31  L 5,32  L 6,32  Z  " style="fill:rgb(104, 155, 16); fill-opacity:0.498; stroke:none;" />
 <path d="  M 6,8  L 9,8  L 9,7  L 6,7  Z  " style="fill:rgb(104, 155, 16); fill-opacity:0.498; stroke:none;" />
 <path d="  M 7,53  L 7,54  L 8,54  L 8,53  Z  " style="fill:rgb(104, 155, 16); fill-opacity:0.498; stroke:none;" />
 <path d="  M 10,55  L 10,54  L 9,54  L 9,55  Z  " style="fill:rgb(104, 155, 16); fill-opacity:0.498; stroke:none;" />
 <path d="  M 13,15  L 14,15  L 14,14  L 13,14  Z  " style="fill:rgb(104, 155, 16); fill-opacity:0.498; stroke:none;" />
 <path d="  M 13,39  L 13,41  L 14,41  L 14,39  Z  " style="fill:rgb(104, 155, 16); fill-opacity:0.498; stroke:none;" />
 <path d="  M 14,24  L 14,25  L 15,25  L 15,24  Z  " style="fill:rgb(104, 155, 16); fill-opacity:0.498; stroke:none;" />
 <path d="  M 17,36  L 17,35  L 16,35  L 16,36  Z  " style="fill:rgb(104, 155, 16); fill-opacity:0.498; stroke:none;" />
 <path d="  M 19,30  L 19,31  L 20,31  L 20,30  Z  " style="fill:rgb(104, 155, 16); fill-opacity:0.498; stroke:none;" />
 <path d="  M 21,29  L 21,28  L 20,28  L 20,29  Z  " style="fill:rgb(104, 155, 16); fill-opacity:0.498; stroke:none;" />
 <path d="  M 37,16  L 34,16  L 34,17  L 37,17  Z  " style="fill:rgb(104, 155, 16); fill-opacity:0.498; stroke:none;" />
 <path d="  M 34,40  L 35,40  L 35,39  L 34,39  Z  " style="fill:rgb(104, 155, 16); fill-opacity:0.498; stroke:none;" />
 <path d="  M 35,6  L 35,7  L 38,7  L 38,6  Z  " style="fill:rgb(104, 155, 16); fill-opacity:0.498; stroke:none;" />
 <path d="  M 44,30  L 45,30  L 45,19  L 44,19  Z  " style="fill:rgb(104, 155, 16); fill-opacity:0.498; stroke:none;" />
 <path d="  M 45,57  L 46,57  L 46,56  L 45,56  Z  " style="fill:rgb(104, 155, 16); fill-opacity:0.498; stroke:none;" />
 <path d="  M 47,60  L 48,60  L 48,59  L 47,59  Z  " style="fill:rgb(104, 155, 16); fill-opacity:0.498; stroke:none;" />
 <path d="  M 49,60  L 48,60  L 48,61  L 49,61  Z  " style="fill:rgb(104, 155, 16); fill-opacity:0.498; stroke:none;" />
 <path d="  M 59,6  L 59,7  L 60,7  L 60,6  Z  " style="fill:rgb(104, 155, 16); fill-opacity:0.498; stroke:none;" />
 <path d="  M 60,8  L 59,8  L 59,10  L 60,10  Z  " style="fill:rgb(104, 155, 16); fill-opacity:0.498; stroke:none;" />
 <path d="  M 60,62  L 59,62  L 59,63  L 60,63  Z  " style="fill:rgb(104, 155, 16); fill-opacity:0.498; stroke:none;" />
 <path d="  M 62,28  L 61,28  L 61,29  L 62,29  Z  " style="fill:rgb(104, 155, 16); fill-opacity:0.498; stroke:none;" />
 <path d="  M 5,32  L 5,33  L 6,33  L 6,32  Z  " style="fill:rgb(104, 154, 16); fill-opacity:0.624; stroke:none;" />
 <path d="  M 5,51  L 6,51  L 6,49  L 5,49  Z  " style="fill:rgb(104, 154, 16); fill-opacity:0.624; stroke:none;" />
 <path d="  M 9,7  L 9,8  L 13,8  L 13,7  Z  " style="fill:rgb(104, 154, 16); fill-opacity:0.624; stroke:none;" />
 <path d="  M 11,13  L 11,12  L 10,12  L 10,13  Z  " style="fill:rgb(104, 154, 16); fill-opacity:0.624; stroke:none;" />
 <path d="  M 10,54  L 10,55  L 11,55  L 11,54  Z  " style="fill:rgb(104, 154, 16); fill-opacity:0.624; stroke:none;" />
 <path d="  M 16,42  L 16,41  L 15,41  L 15,42  Z  " style="fill:rgb(104, 154, 16); fill-opacity:0.624; stroke:none;" />
 <path d="  M 19,41  L 20,41  L 20,40  L 19,40  Z  " style="fill:rgb(104, 154, 16); fill-opacity:0.624; stroke:none;" />
 <path d="  M 21,24  L 21,23  L 20,23  L 20,24  Z  " style="fill:rgb(104, 154, 16); fill-opacity:0.624; stroke:none;" />
 <path d="  M 21,55  L 22,55  L 22,54  L 21,54  Z  " style="fill:rgb(104, 154, 16); fill-opacity:0.624; stroke:none;" />
 <path d="  M 23,39  L 23,40  L 24,40  L 24,39  Z  " style="fill:rgb(104, 154, 16); fill-opacity:0.624; stroke:none;" />
 <path d="  M 25,54  L 25,53  L 24,53  L 24,54  Z  " style="fill:rgb(104, 154, 16); fill-opacity:0.624; stroke:none;" />
 <path d="  M 28,39  L 28,38  L 27,38  L 27,39  Z  " style="fill:rgb(104, 154, 16); fill-opacity:0.624; stroke:none;" />
 <path d="  M 28,51  L 29,51  L 29,50  L 28,50  Z  " style="fill:rgb(104, 154, 16); fill-opacity:0.624; stroke:none;" />
 <path d="  M 29,50  L 30,50  L 30,49  L 29,49  Z  " style="fill:rgb(104, 154, 16); fill-opacity:0.624; stroke:none;" />
 <path d="  M 38,16  L 37,16  L 37,17  L 38,17  Z  " style="fill:rgb(104, 154, 16); fill-opacity:0.624; stroke:none;" />
 <path d="  M 38,6  L 38,7  L 43,7  L 43,6  Z  " style="fill:rgb(104, 154, 16); fill-opacity:0.624; stroke:none;" />
 <path d="  M 41,16  L 41,17  L 44,17  L 44,16  Z  " style="fill:rgb(104, 154, 16); fill-opacity:0.624; stroke:none;" />
 <path d="  M 45,19  L 45,17  L 44,17  L 44,19  Z  " style="fill:rgb(104, 154, 16); fill-opacity:0.624; stroke:none;" />
 <path d="  M 50,62  L 51,62  L 51,61  L 50,61  Z  " style="fill:rgb(104, 154, 16); fill-opacity:0.624; stroke:none;" />
 <path d="  M 53,62  L 52,62  L 52,63  L 53,63  Z  " style="fill:rgb(104, 154, 16); fill-opacity:0.624; stroke:none;" />
 <path d="  M 59,12  L 60,12  L 60,10  L 59,10  Z  " style="fill:rgb(104, 154, 16); fill-opacity:0.624; stroke:none;" />
 <path d="  M 60,18  L 60,19  L 61,19  L 61,18  Z  " style="fill:rgb(104, 154, 16); fill-opacity:0.624; stroke:none;" />
 <path d="  M 62,29  L 61,29  L 61,31  L 62,31  Z  " style="fill:rgb(104, 154, 16); fill-opacity:0.624; stroke:none;" />
 <path d="  M 6,33  L 5,33  L 5,34  L 6,34  Z  " style="fill:rgb(104, 154, 16); fill-opacity:0.749; stroke:none;" />
 <path d="  M 6,49  L 6,47  L 5,47  L 5,49  Z  " style="fill:rgb(104, 154, 16); fill-opacity:0.749; stroke:none;" />
 <path d="  M 8,30  L 8,29  L 7,29  L 7,30  Z  " style="fill:rgb(104, 154, 16); fill-opacity:0.749; stroke:none;" />
 <path d="  M 10,27  L 10,28  L 11,28  L 11,27  Z  " style="fill:rgb(104, 154, 16); fill-opacity:0.749; stroke:none;" />
 <path d="  M 11,54  L 11,55  L 14,55  L 14,54  Z  " style="fill:rgb(104, 154, 16); fill-opacity:0.749; stroke:none;" />
 <path d="  M 13,7  L 13,8  L 16,8  L 16,7  Z  " style="fill:rgb(104, 154, 16); fill-opacity:0.749; stroke:none;" />
 <path d="  M 14,26  L 14,25  L 13,25  L 13,26  Z  " style="fill:rgb(104, 154, 16); fill-opacity:0.749; stroke:none;" />
 <path d="  M 15,42  L 15,41  L 14,41  L 14,42  Z  " style="fill:rgb(104, 154, 16); fill-opacity:0.749; stroke:none;" />
 <path d="  M 17,16  L 17,15  L 15,15  L 15,16  Z  " style="fill:rgb(104, 154, 16); fill-opacity:0.749; stroke:none;" />
 <path d="  M 16,37  L 16,36  L 15,36  L 15,37  Z  " style="fill:rgb(104, 154, 16); fill-opacity:0.749; stroke:none;" />
 <path d="  M 18,22  L 17,22  L 17,23  L 18,23  Z  " style="fill:rgb(104, 154, 16); fill-opacity:0.749; stroke:none;" />
 <path d="  M 18,21  L 18,22  L 19,22  L 19,21  Z  " style="fill:rgb(104, 154, 16); fill-opacity:0.749; stroke:none;" />
 <path d="  M 19,33  L 19,32  L 18,32  L 18,33  Z  " style="fill:rgb(104, 154, 16); fill-opacity:0.749; stroke:none;" />
 <path d="  M 21,27  L 20,27  L 20,28  L 21,28  Z  " style="fill:rgb(104, 154, 16); fill-opacity:0.749; stroke:none;" />
 <path d="  M 32,46  L 33,46  L 33,45  L 32,45  Z  " style="fill:rgb(104, 154, 16); fill-opacity:0.749; stroke:none;" />
 <path d="  M 38,16  L 38,17  L 41,17  L 41,16  Z  " style="fill:rgb(104, 154, 16); fill-opacity:0.749; stroke:none;" />
 <path d="  M 46,7  L 46,6  L 43,6  L 43,7  Z  " style="fill:rgb(104, 154, 16); fill-opacity:0.749; stroke:none;" />
 <path d="  M 46,41  L 45,41  L 45,50  L 46,50  Z  " style="fill:rgb(104, 154, 16); fill-opacity:0.749; stroke:none;" />
 <path d="  M 46,53  L 45,53  L 45,56  L 46,56  Z  " style="fill:rgb(104, 154, 16); fill-opacity:0.749; stroke:none;" />
 <path d="  M 57,62  L 57,63  L 59,63  L 59,62  Z  " style="fill:rgb(104, 154, 16); fill-opacity:0.749; stroke:none;" />
 <path d="  M 59,13  L 60,13  L 60,12  L 59,12  Z  " style="fill:rgb(104, 154, 16); fill-opacity:0.749; stroke:none;" />
 <path d="  M 60,19  L 60,21  L 61,21  L 61,19  Z  " style="fill:rgb(104, 154, 16); fill-opacity:0.749; stroke:none;" />
 <path d="  M 61,62  L 61,61  L 60,61  L 60,62  Z  " style="fill:rgb(104, 154, 16); fill-opacity:0.749; stroke:none;" />
 <path d="  M 61,33  L 62,33  L 62,31  L 61,31  Z  " style="fill:rgb(104, 154, 16); fill-opacity:0.749; stroke:none;" />
 <path d="  M 5,47  L 6,47  L 6,44  L 5,44  Z  " style="fill:rgb(104, 154, 16); fill-opacity:0.875; stroke:none;" />
 <path d="  M 7,9  L 6,9  L 6,10  L 7,10  Z  " style="fill:rgb(104, 154, 16); fill-opacity:0.875; stroke:none;" />
 <path d="  M 6,52  L 7,52  L 7,51  L 6,51  Z  " style="fill:rgb(104, 154, 16); fill-opacity:0.875; stroke:none;" />
 <path d="  M 7,52  L 7,53  L 8,53  L 8,52  Z  " style="fill:rgb(104, 154, 16); fill-opacity:0.875; stroke:none;" />
 <path d="  M 10,12  L 10,11  L 9,11  L 9,12  Z  " style="fill:rgb(104, 154, 16); fill-opacity:0.875; stroke:none;" />
 <path d="  M 9,29  L 10,29  L 10,28  L 9,28  Z  " style="fill:rgb(104, 154, 16); fill-opacity:0.875; stroke:none;" />
 <path d="  M 11,13  L 12,13  L 12,12  L 11,12  Z  " style="fill:rgb(104, 154, 16); fill-opacity:0.875; stroke:none;" />
 <path d="  M 12,13  L 12,14  L 13,14  L 13,13  Z  " style="fill:rgb(104, 154, 16); fill-opacity:0.875; stroke:none;" />
 <path d="  M 15,14  L 14,14  L 14,15  L 15,15  Z  " style="fill:rgb(104, 154, 16); fill-opacity:0.875; stroke:none;" />
 <path d="  M 15,38  L 15,37  L 14,37  L 14,38  Z  " style="fill:rgb(104, 154, 16); fill-opacity:0.875; stroke:none;" />
 <path d="  M 16,54  L 14,54  L 14,55  L 16,55  Z  " style="fill:rgb(104, 154, 16); fill-opacity:0.875; stroke:none;" />
 <path d="  M 20,7  L 16,7  L 16,8  L 20,8  Z  " style="fill:rgb(104, 154, 16); fill-opacity:0.875; stroke:none;" />
 <path d="  M 16,41  L 16,42  L 17,42  L 17,41  Z  " style="fill:rgb(104, 154, 16); fill-opacity:0.875; stroke:none;" />
 <path d="  M 17,15  L 17,16  L 21,16  L 21,15  Z  " style="fill:rgb(104, 154, 16); fill-opacity:0.875; stroke:none;" />
 <path d="  M 18,33  L 17,33  L 17,34  L 18,34  Z  " style="fill:rgb(104, 154, 16); fill-opacity:0.875; stroke:none;" />
 <path d="  M 20,27  L 21,27  L 21,26  L 20,26  Z  " style="fill:rgb(104, 154, 16); fill-opacity:0.875; stroke:none;" />
 <path d="  M 25,39  L 24,39  L 24,40  L 25,40  Z  " style="fill:rgb(104, 154, 16); fill-opacity:0.875; stroke:none;" />
 <path d="  M 28,38  L 28,39  L 29,39  L 29,38  Z  " style="fill:rgb(104, 154, 16); fill-opacity:0.875; stroke:none;" />
 <path d="  M 32,46  L 31,46  L 31,47  L 32,47  Z  " style="fill:rgb(104, 154, 16); fill-opacity:0.875; stroke:none;" />
 <path d="  M 33,44  L 34,44  L 34,43  L 33,43  Z  " style="fill:rgb(104, 154, 16); fill-opacity:0.875; stroke:none;" />
 <path d="  M 34,42  L 35,42  L 35,41  L 34,41  Z  " style="fill:rgb(104, 154, 16); fill-opacity:0.875; stroke:none;" />
 <path d="  M 45,16  L 44,16  L 44,17  L 45,17  Z  " style="fill:rgb(104, 154, 16); fill-opacity:0.875; stroke:none;" />
 <path d="  M 45,41  L 46,41  L 46,38  L 45,38  Z  " style="fill:rgb(104, 154, 16); fill-opacity:0.875; stroke:none;" />
 <path d="  M 46,53  L 46,50  L 45,50  L 45,53  Z  " style="fill:rgb(104, 154, 16); fill-opacity:0.875; stroke:none;" />
 <path d="  M 50,6  L 46,6  L 46,7  L 50,7  Z  " style="fill:rgb(104, 154, 16); fill-opacity:0.875; stroke:none;" />
 <path d="  M 47,58  L 47,57  L 46,57  L 46,58  Z  " style="fill:rgb(104, 154, 16); fill-opacity:0.875; stroke:none;" />
 <path d="  M 47,58  L 47,59  L 48,59  L 48,58  Z  " style="fill:rgb(104, 154, 16); fill-opacity:0.875; stroke:none;" />
 <path d="  M 50,61  L 50,60  L 49,60  L 49,61  Z  " style="fill:rgb(104, 154, 16); fill-opacity:0.875; stroke:none;" />
 <path d="  M 51,61  L 51,62  L 52,62  L 52,61  Z  " style="fill:rgb(104, 154, 16); fill-opacity:0.875; stroke:none;" />
 <path d="  M 53,62  L 53,63  L 54,63  L 54,62  Z  " style="fill:rgb(104, 154, 16); fill-opacity:0.875; stroke:none;" />
 <path d="  M 57,63  L 57,62  L 55,62  L 55,63  Z  " style="fill:rgb(104, 154, 16); fill-opacity:0.875; stroke:none;" />
 <path d="  M 59,14  L 60,14  L 60,13  L 59,13  Z  " style="fill:rgb(104, 154, 16); fill-opacity:0.875; stroke:none;" />
 <path d="  M 62,34  L 62,33  L 61,33  L 61,34  Z  " style="fill:rgb(104, 154, 16); fill-opacity:0.875; stroke:none;" />
 <path d="  M 62,61  L 62,60  L 61,60  L 61,61  Z  " style="fill:rgb(104, 154, 16); fill-opacity:0.875; stroke:none;" />
 <path d="  M 6,11  L 7,11  L 7,10  L 6,10  Z  " style="fill:rgb(104, 151, 16); fill-opacity:0.384; stroke:none;" />
 <path d="  M 7,11  L 8,11  L 8,10  L 7,10  Z  " style="fill:rgb(105, 154, 16); fill-opacity:0.812; stroke:none;" />
</svg>
