<?xml version="1.0" encoding="UTF-8" standalone="no"?>
<!DOCTYPE svg PUBLIC "-//W3C//DTD SVG 1.1//EN" 
  "http://www.w3.org/Graphics/SVG/1.1/DTD/svg11.dtd">
<svg width="64" height="64"
	 xmlns="http://www.w3.org/2000/svg" version="1.1">
 <path d="  M 1,50  L 1,51  L 2,51  L 2,50  Z  " style="fill:rgb(112, 0, 223); fill-opacity:0.063; stroke:none;" />
 <path d="  M 2,48  L 3,48  L 3,47  L 2,47  Z  " style="fill:rgb(112, 0, 223); fill-opacity:0.063; stroke:none;" />
 <path d="  M 7,62  L 7,61  L 6,61  L 6,62  Z  " style="fill:rgb(112, 0, 223); fill-opacity:0.063; stroke:none;" />
 <path d="  M 17,8  L 18,8  L 18,7  L 17,7  Z  " style="fill:rgb(112, 0, 223); fill-opacity:0.063; stroke:none;" />
 <path d="  M 25,3  L 25,2  L 24,2  L 24,3  Z  " style="fill:rgb(112, 0, 223); fill-opacity:0.063; stroke:none;" />
 <path d="  M 27,1  L 26,1  L 26,2  L 27,2  Z  " style="fill:rgb(112, 0, 223); fill-opacity:0.063; stroke:none;" />
 <path d="  M 51,57  L 50,57  L 50,58  L 51,58  Z  " style="fill:rgb(112, 0, 223); fill-opacity:0.063; stroke:none;" />
 <path d="  M 53,5  L 52,5  L 52,6  L 53,6  Z  " style="fill:rgb(112, 0, 223); fill-opacity:0.063; stroke:none;" />
 <path d="  M 60,12  L 60,11  L 59,11  L 59,12  Z  " style="fill:rgb(112, 0, 223); fill-opacity:0.063; stroke:none;" />
 <path d="  M 61,14  L 61,13  L 60,13  L 60,14  Z  " style="fill:rgb(112, 0, 223); fill-opacity:0.063; stroke:none;" />
 <path d="  M 2,52  L 2,51  L 1,51  L 1,52  Z  " style="fill:rgb(117, 5, 215); fill-opacity:0.376; stroke:none;" />
 <path d="  M 2,48  L 2,49  L 3,49  L 3,48  Z  " style="fill:rgb(117, 5, 215); fill-opacity:0.376; stroke:none;" />
 <path d="  M 2,55  L 2,56  L 3,56  L 3,55  Z  " style="fill:rgb(117, 5, 215); fill-opacity:0.376; stroke:none;" />
 <path d="  M 5,38  L 4,38  L 4,39  L 5,39  Z  " style="fill:rgb(117, 5, 215); fill-opacity:0.376; stroke:none;" />
 <path d="  M 6,60  L 5,60  L 5,61  L 6,61  Z  " style="fill:rgb(117, 5, 215); fill-opacity:0.376; stroke:none;" />
 <path d="  M 8,61  L 7,61  L 7,62  L 8,62  Z  " style="fill:rgb(117, 5, 215); fill-opacity:0.376; stroke:none;" />
 <path d="  M 13,12  L 12,12  L 12,13  L 13,13  Z  " style="fill:rgb(117, 5, 215); fill-opacity:0.376; stroke:none;" />
 <path d="  M 13,12  L 14,12  L 14,11  L 13,11  Z  " style="fill:rgb(117, 5, 215); fill-opacity:0.376; stroke:none;" />
 <path d="  M 14,10  L 14,11  L 15,11  L 15,10  Z  " style="fill:rgb(117, 5, 215); fill-opacity:0.376; stroke:none;" />
 <path d="  M 22,5  L 23,5  L 23,4  L 22,4  Z  " style="fill:rgb(117, 5, 215); fill-opacity:0.376; stroke:none;" />
 <path d="  M 56,8  L 56,7  L 55,7  L 55,8  Z  " style="fill:rgb(117, 5, 215); fill-opacity:0.376; stroke:none;" />
 <path d="  M 57,50  L 57,51  L 58,51  L 58,50  Z  " style="fill:rgb(117, 5, 215); fill-opacity:0.376; stroke:none;" />
 <path d="  M 60,15  L 61,15  L 61,14  L 60,14  Z  " style="fill:rgb(117, 5, 215); fill-opacity:0.376; stroke:none;" />
 <path d="  M 2,52  L 1,52  L 1,54  L 2,54  Z  " style="fill:rgb(118, 6, 215); fill-opacity:0.502; stroke:none;" />
 <path d="  M 4,44  L 3,44  L 3,45  L 4,45  Z  " style="fill:rgb(118, 6, 215); fill-opacity:0.502; stroke:none;" />
 <path d="  M 6,33  L 5,33  L 5,34  L 6,34  Z  " style="fill:rgb(118, 6, 215); fill-opacity:0.502; stroke:none;" />
 <path d="  M 49,58  L 50,58  L 50,57  L 49,57  Z  " style="fill:rgb(118, 6, 215); fill-opacity:0.502; stroke:none;" />
 <path d="  M 53,55  L 52,55  L 52,56  L 53,56  Z  " style="fill:rgb(118, 6, 215); fill-opacity:0.502; stroke:none;" />
 <path d="  M 61,37  L 62,37  L 62,30  L 61,30  Z  " style="fill:rgb(118, 6, 215); fill-opacity:0.502; stroke:none;" />
 <path d="  M 1,55  L 2,55  L 2,54  L 1,54  Z  " style="fill:rgb(120, 0, 215); fill-opacity:0.125; stroke:none;" />
 <path d="  M 6,31  L 5,31  L 5,32  L 6,32  Z  " style="fill:rgb(120, 0, 215); fill-opacity:0.125; stroke:none;" />
 <path d="  M 7,22  L 7,23  L 8,23  L 8,22  Z  " style="fill:rgb(120, 0, 215); fill-opacity:0.125; stroke:none;" />
 <path d="  M 8,19  L 8,20  L 9,20  L 9,19  Z  " style="fill:rgb(120, 0, 215); fill-opacity:0.125; stroke:none;" />
 <path d="  M 9,18  L 10,18  L 10,17  L 9,17  Z  " style="fill:rgb(120, 0, 215); fill-opacity:0.125; stroke:none;" />
 <path d="  M 14,63  L 14,62  L 12,62  L 12,63  Z  " style="fill:rgb(120, 0, 215); fill-opacity:0.125; stroke:none;" />
 <path d="  M 16,62  L 15,62  L 15,63  L 16,63  Z  " style="fill:rgb(120, 0, 215); fill-opacity:0.125; stroke:none;" />
 <path d="  M 20,6  L 19,6  L 19,7  L 20,7  Z  " style="fill:rgb(120, 0, 215); fill-opacity:0.125; stroke:none;" />
 <path d="  M 38,2  L 38,1  L 37,1  L 37,2  Z  " style="fill:rgb(120, 0, 215); fill-opacity:0.125; stroke:none;" />
 <path d="  M 41,2  L 40,2  L 40,3  L 41,3  Z  " style="fill:rgb(120, 0, 215); fill-opacity:0.125; stroke:none;" />
 <path d="  M 45,60  L 44,60  L 44,61  L 45,61  Z  " style="fill:rgb(120, 0, 215); fill-opacity:0.125; stroke:none;" />
 <path d="  M 46,60  L 47,60  L 47,59  L 46,59  Z  " style="fill:rgb(120, 0, 215); fill-opacity:0.125; stroke:none;" />
 <path d="  M 49,58  L 48,58  L 48,59  L 49,59  Z  " style="fill:rgb(120, 0, 215); fill-opacity:0.125; stroke:none;" />
 <path d="  M 55,6  L 54,6  L 54,7  L 55,7  Z  " style="fill:rgb(120, 0, 215); fill-opacity:0.125; stroke:none;" />
 <path d="  M 58,50  L 59,50  L 59,49  L 58,49  Z  " style="fill:rgb(120, 0, 215); fill-opacity:0.125; stroke:none;" />
 <path d="  M 61,17  L 61,18  L 62,18  L 62,17  Z  " style="fill:rgb(120, 0, 215); fill-opacity:0.125; stroke:none;" />
 <path d="  M 2,50  L 3,50  L 3,49  L 2,49  Z  " style="fill:rgb(117, 6, 216); fill-opacity:0.690; stroke:none;" />
 <path d="  M 3,46  L 4,46  L 4,45  L 3,45  Z  " style="fill:rgb(117, 6, 216); fill-opacity:0.690; stroke:none;" />
 <path d="  M 5,34  L 5,35  L 6,35  L 6,34  Z  " style="fill:rgb(117, 6, 216); fill-opacity:0.690; stroke:none;" />
 <path d="  M 8,25  L 8,24  L 7,24  L 7,25  Z  " style="fill:rgb(117, 6, 216); fill-opacity:0.690; stroke:none;" />
 <path d="  M 59,47  L 60,47  L 60,46  L 59,46  Z  " style="fill:rgb(117, 6, 216); fill-opacity:0.690; stroke:none;" />
 <path d="  M 60,15  L 60,16  L 61,16  L 61,15  Z  " style="fill:rgb(117, 6, 216); fill-opacity:0.690; stroke:none;" />
 <path d="  M 21,57  L 23,57  L 23,56  L 16,56  L 16,55  L 14,55  L 14,54  L 12,54  L 12,52  L 11,52  L 11,45  L 12,45  L 12,44  L 13,44  L 13,43  L 14,43  L 14,42  L 15,42  L 15,41  L 18,41  L 18,40  L 21,40  L 21,39  L 25,39  L 25,37  L 21,37  L 21,36  L 19,36  L 19,35  L 17,35  L 17,34  L 15,34  L 15,33  L 14,33  L 14,32  L 13,32  L 13,30  L 12,30  L 12,24  L 13,24  L 13,22  L 14,22  L 14,20  L 15,20  L 15,19  L 17,19  L 17,18  L 19,18  L 19,17  L 22,17  L 22,16  L 34,16  L 34,15  L 33,15  L 33,14  L 18,14  L 18,13  L 17,13  L 17,10  L 15,10  L 15,11  L 14,11  L 14,12  L 13,12  L 13,13  L 12,13  L 12,15  L 11,15  L 11,17  L 10,17  L 10,19  L 9,19  L 9,22  L 8,22  L 8,25  L 7,25  L 7,30  L 6,30  L 6,36  L 5,36  L 5,41  L 4,41  L 4,47  L 3,47  L 3,50  L 2,50  L 2,55  L 3,55  L 3,56  L 4,56  L 4,58  L 5,58  L 5,60  L 7,60  L 7,61  L 10,61  L 10,62  L 21,62  Z  " style="fill:rgb(118, 7, 216); fill-opacity:1.000; stroke:none;" />
 <path d="  M 18,10  L 18,9  L 17,9  L 17,10  Z  " style="fill:rgb(118, 7, 216); fill-opacity:1.000; stroke:none;" />
 <path d="  M 47,36  L 47,39  L 46,39  L 46,41  L 45,41  L 45,42  L 42,42  L 42,43  L 38,43  L 38,44  L 35,44  L 35,45  L 32,45  L 32,46  L 28,46  L 28,47  L 24,47  L 24,48  L 35,48  L 35,49  L 38,49  L 38,50  L 39,50  L 39,51  L 41,51  L 41,52  L 42,52  L 42,54  L 43,54  L 43,59  L 42,59  L 42,60  L 45,60  L 45,59  L 47,59  L 47,58  L 49,58  L 49,57  L 50,57  L 50,56  L 51,56  L 51,55  L 53,55  L 53,54  L 54,54  L 54,53  L 55,53  L 55,52  L 56,52  L 56,51  L 57,51  L 57,49  L 58,49  L 58,48  L 59,48  L 59,46  L 60,46  L 60,40  L 61,40  L 61,17  L 60,17  L 60,14  L 59,14  L 59,12  L 58,12  L 58,10  L 57,10  L 57,9  L 56,9  L 56,8  L 54,8  L 54,7  L 53,7  L 53,6  L 50,6  L 50,5  L 47,5  L 47,4  L 41,4  L 41,3  L 38,3  L 38,2  L 32,2  L 32,1  L 31,1  L 31,2  L 26,2  L 26,3  L 25,3  L 25,4  L 23,4  L 23,5  L 22,5  L 22,7  L 19,7  L 19,8  L 18,8  L 18,9  L 32,9  L 32,8  L 34,8  L 34,9  L 38,9  L 38,10  L 39,10  L 39,11  L 40,11  L 40,13  L 41,13  L 41,21  L 40,21  L 40,22  L 39,22  L 39,23  L 37,23  L 37,24  L 26,24  L 26,25  L 23,25  L 23,26  L 21,26  L 21,27  L 23,27  L 23,28  L 25,28  L 25,29  L 34,29  L 34,30  L 36,30  L 36,31  L 40,31  L 40,32  L 42,32  L 42,33  L 44,33  L 44,34  L 46,34  L 46,36  Z  " style="fill:rgb(118, 7, 216); fill-opacity:1.000; stroke:none;" />
 <path d="  M 4,42  L 3,42  L 3,43  L 4,43  Z  " style="fill:rgb(117, 5, 218); fill-opacity:0.188; stroke:none;" />
 <path d="  M 5,37  L 4,37  L 4,38  L 5,38  Z  " style="fill:rgb(117, 5, 218); fill-opacity:0.188; stroke:none;" />
 <path d="  M 10,15  L 10,16  L 11,16  L 11,15  Z  " style="fill:rgb(117, 5, 218); fill-opacity:0.188; stroke:none;" />
 <path d="  M 12,13  L 11,13  L 11,14  L 12,14  Z  " style="fill:rgb(117, 5, 218); fill-opacity:0.188; stroke:none;" />
 <path d="  M 17,8  L 16,8  L 16,9  L 17,9  Z  " style="fill:rgb(117, 5, 218); fill-opacity:0.188; stroke:none;" />
 <path d="  M 46,3  L 45,3  L 45,4  L 46,4  Z  " style="fill:rgb(117, 5, 218); fill-opacity:0.188; stroke:none;" />
 <path d="  M 50,4  L 49,4  L 49,5  L 50,5  Z  " style="fill:rgb(117, 5, 218); fill-opacity:0.188; stroke:none;" />
 <path d="  M 51,56  L 51,57  L 52,57  L 52,56  Z  " style="fill:rgb(117, 5, 218); fill-opacity:0.188; stroke:none;" />
 <path d="  M 61,44  L 60,44  L 60,45  L 61,45  Z  " style="fill:rgb(117, 5, 218); fill-opacity:0.188; stroke:none;" />
 <path d="  M 4,44  L 4,43  L 3,43  L 3,44  Z  " style="fill:rgb(116, 4, 215); fill-opacity:0.251; stroke:none;" />
 <path d="  M 4,57  L 3,57  L 3,58  L 4,58  Z  " style="fill:rgb(116, 4, 215); fill-opacity:0.251; stroke:none;" />
 <path d="  M 7,26  L 6,26  L 6,27  L 7,27  Z  " style="fill:rgb(116, 4, 215); fill-opacity:0.251; stroke:none;" />
 <path d="  M 16,10  L 16,9  L 15,9  L 15,10  Z  " style="fill:rgb(116, 4, 215); fill-opacity:0.251; stroke:none;" />
 <path d="  M 21,63  L 21,62  L 16,62  L 16,63  Z  " style="fill:rgb(116, 4, 215); fill-opacity:0.251; stroke:none;" />
 <path d="  M 24,4  L 24,3  L 23,3  L 23,4  Z  " style="fill:rgb(116, 4, 215); fill-opacity:0.251; stroke:none;" />
 <path d="  M 59,10  L 58,10  L 58,11  L 59,11  Z  " style="fill:rgb(116, 4, 215); fill-opacity:0.251; stroke:none;" />
 <path d="  M 61,43  L 60,43  L 60,44  L 61,44  Z  " style="fill:rgb(116, 4, 215); fill-opacity:0.251; stroke:none;" />
 <path d="  M 62,18  L 61,18  L 61,29  L 62,29  Z  " style="fill:rgb(116, 4, 215); fill-opacity:0.251; stroke:none;" />
 <path d="  M 61,37  L 61,39  L 62,39  L 62,37  Z  " style="fill:rgb(116, 4, 215); fill-opacity:0.251; stroke:none;" />
 <path d="  M 4,47  L 4,46  L 3,46  L 3,47  Z  " style="fill:rgb(117, 6, 216); fill-opacity:0.937; stroke:none;" />
 <path d="  M 16,10  L 17,10  L 17,9  L 16,9  Z  " style="fill:rgb(117, 6, 216); fill-opacity:0.937; stroke:none;" />
 <path d="  M 22,6  L 21,6  L 21,7  L 22,7  Z  " style="fill:rgb(117, 6, 216); fill-opacity:0.937; stroke:none;" />
 <path d="  M 31,2  L 31,1  L 30,1  L 30,2  Z  " style="fill:rgb(117, 6, 216); fill-opacity:0.937; stroke:none;" />
 <path d="  M 55,8  L 55,7  L 54,7  L 54,8  Z  " style="fill:rgb(117, 6, 216); fill-opacity:0.937; stroke:none;" />
 <path d="  M 59,11  L 58,11  L 58,12  L 59,12  Z  " style="fill:rgb(117, 6, 216); fill-opacity:0.937; stroke:none;" />
 <path d="  M 59,14  L 60,14  L 60,13  L 59,13  Z  " style="fill:rgb(117, 6, 216); fill-opacity:0.937; stroke:none;" />
 <path d="  M 61,17  L 61,16  L 60,16  L 60,17  Z  " style="fill:rgb(117, 6, 216); fill-opacity:0.937; stroke:none;" />
 <path d="  M 4,57  L 4,56  L 3,56  L 3,57  Z  " style="fill:rgb(118, 6, 217); fill-opacity:0.314; stroke:none;" />
 <path d="  M 4,60  L 5,60  L 5,59  L 4,59  Z  " style="fill:rgb(118, 6, 217); fill-opacity:0.314; stroke:none;" />
 <path d="  M 5,32  L 5,33  L 6,33  L 6,32  Z  " style="fill:rgb(118, 6, 217); fill-opacity:0.314; stroke:none;" />
 <path d="  M 22,5  L 21,5  L 21,6  L 22,6  Z  " style="fill:rgb(118, 6, 217); fill-opacity:0.314; stroke:none;" />
 <path d="  M 41,61  L 41,62  L 42,62  L 42,61  Z  " style="fill:rgb(118, 6, 217); fill-opacity:0.314; stroke:none;" />
 <path d="  M 59,47  L 59,48  L 60,48  L 60,47  Z  " style="fill:rgb(118, 6, 217); fill-opacity:0.314; stroke:none;" />
 <path d="  M 60,42  L 60,43  L 61,43  L 61,42  Z  " style="fill:rgb(118, 6, 217); fill-opacity:0.314; stroke:none;" />
 <path d="  M 4,39  L 4,40  L 5,40  L 5,39  Z  " style="fill:rgb(117, 5, 216); fill-opacity:0.565; stroke:none;" />
 <path d="  M 57,52  L 57,51  L 56,51  L 56,52  Z  " style="fill:rgb(117, 5, 216); fill-opacity:0.565; stroke:none;" />
 <path d="  M 60,42  L 61,42  L 61,41  L 60,41  Z  " style="fill:rgb(117, 5, 216); fill-opacity:0.565; stroke:none;" />
 <path d="  M 5,41  L 5,40  L 4,40  L 4,41  Z  " style="fill:rgb(117, 7, 215); fill-opacity:0.753; stroke:none;" />
 <path d="  M 6,36  L 6,35  L 5,35  L 5,36  Z  " style="fill:rgb(117, 7, 215); fill-opacity:0.753; stroke:none;" />
 <path d="  M 9,61  L 9,62  L 10,62  L 10,61  Z  " style="fill:rgb(117, 7, 215); fill-opacity:0.753; stroke:none;" />
 <path d="  M 61,40  L 60,40  L 60,41  L 61,41  Z  " style="fill:rgb(117, 7, 215); fill-opacity:0.753; stroke:none;" />
 <path d="  M 5,59  L 5,58  L 4,58  L 4,59  Z  " style="fill:rgb(117, 7, 215); fill-opacity:0.878; stroke:none;" />
 <path d="  M 50,57  L 51,57  L 51,56  L 50,56  Z  " style="fill:rgb(117, 7, 215); fill-opacity:0.878; stroke:none;" />
 <path d="  M 7,28  L 7,27  L 6,27  L 6,28  Z  " style="fill:rgb(118, 7, 216); fill-opacity:0.439; stroke:none;" />
 <path d="  M 7,24  L 8,24  L 8,23  L 7,23  Z  " style="fill:rgb(118, 7, 216); fill-opacity:0.439; stroke:none;" />
 <path d="  M 9,20  L 8,20  L 8,21  L 9,21  Z  " style="fill:rgb(118, 7, 216); fill-opacity:0.439; stroke:none;" />
 <path d="  M 57,10  L 58,10  L 58,9  L 57,9  Z  " style="fill:rgb(118, 7, 216); fill-opacity:0.439; stroke:none;" />
 <path d="  M 61,29  L 61,30  L 62,30  L 62,29  Z  " style="fill:rgb(118, 7, 216); fill-opacity:0.439; stroke:none;" />
 <path d="  M 6,28  L 6,29  L 7,29  L 7,28  Z  " style="fill:rgb(118, 6, 215); fill-opacity:0.627; stroke:none;" />
 <path d="  M 8,61  L 8,62  L 9,62  L 9,61  Z  " style="fill:rgb(118, 6, 215); fill-opacity:0.627; stroke:none;" />
 <path d="  M 10,18  L 9,18  L 9,19  L 10,19  Z  " style="fill:rgb(118, 6, 215); fill-opacity:0.627; stroke:none;" />
 <path d="  M 11,17  L 11,16  L 10,16  L 10,17  Z  " style="fill:rgb(118, 6, 215); fill-opacity:0.627; stroke:none;" />
 <path d="  M 44,60  L 43,60  L 43,61  L 44,61  Z  " style="fill:rgb(118, 6, 215); fill-opacity:0.627; stroke:none;" />
 <path d="  M 46,59  L 45,59  L 45,60  L 46,60  Z  " style="fill:rgb(118, 6, 215); fill-opacity:0.627; stroke:none;" />
 <path d="  M 47,58  L 47,59  L 48,59  L 48,58  Z  " style="fill:rgb(118, 6, 215); fill-opacity:0.627; stroke:none;" />
 <path d="  M 53,54  L 53,55  L 54,55  L 54,54  Z  " style="fill:rgb(118, 6, 215); fill-opacity:0.627; stroke:none;" />
 <path d="  M 55,53  L 54,53  L 54,54  L 55,54  Z  " style="fill:rgb(118, 6, 215); fill-opacity:0.627; stroke:none;" />
 <path d="  M 55,52  L 55,53  L 56,53  L 56,52  Z  " style="fill:rgb(118, 6, 215); fill-opacity:0.627; stroke:none;" />
 <path d="  M 59,13  L 60,13  L 60,12  L 59,12  Z  " style="fill:rgb(118, 6, 215); fill-opacity:0.627; stroke:none;" />
 <path d="  M 6,30  L 7,30  L 7,29  L 6,29  Z  " style="fill:rgb(117, 6, 216); fill-opacity:0.812; stroke:none;" />
 <path d="  M 8,22  L 9,22  L 9,21  L 8,21  Z  " style="fill:rgb(117, 6, 216); fill-opacity:0.812; stroke:none;" />
 <path d="  M 17,8  L 17,9  L 18,9  L 18,8  Z  " style="fill:rgb(117, 6, 216); fill-opacity:0.812; stroke:none;" />
 <path d="  M 47,4  L 47,5  L 48,5  L 48,4  Z  " style="fill:rgb(117, 6, 216); fill-opacity:0.812; stroke:none;" />
 <path d="  M 51,6  L 51,5  L 50,5  L 50,6  Z  " style="fill:rgb(117, 6, 216); fill-opacity:0.812; stroke:none;" />
 <path d="  M 6,60  L 6,61  L 7,61  L 7,60  Z  " style="fill:rgb(118, 6, 216); fill-opacity:0.941; stroke:none;" />
 <path d="  M 42,61  L 43,61  L 43,60  L 42,60  Z  " style="fill:rgb(118, 6, 216); fill-opacity:0.941; stroke:none;" />
 <path d="  M 51,56  L 52,56  L 52,55  L 51,55  Z  " style="fill:rgb(118, 6, 216); fill-opacity:0.941; stroke:none;" />
 <path d="  M 58,49  L 57,49  L 57,50  L 58,50  Z  " style="fill:rgb(118, 6, 216); fill-opacity:0.941; stroke:none;" />
 <path d="  M 11,14  L 11,15  L 12,15  L 12,14  Z  " style="fill:rgb(117, 7, 216); fill-opacity:0.749; stroke:none;" />
 <path d="  M 29,1  L 29,2  L 30,2  L 30,1  Z  " style="fill:rgb(117, 7, 216); fill-opacity:0.749; stroke:none;" />
 <path d="  M 33,2  L 35,2  L 35,1  L 33,1  Z  " style="fill:rgb(117, 7, 216); fill-opacity:0.749; stroke:none;" />
 <path d="  M 12,45  L 11,45  L 11,46  L 12,46  Z  " style="fill:rgb(126, 22, 218); fill-opacity:1.000; stroke:none;" />
 <path d="  M 13,54  L 13,53  L 12,53  L 12,54  Z  " style="fill:rgb(126, 22, 218); fill-opacity:1.000; stroke:none;" />
 <path d="  M 15,20  L 14,20  L 14,21  L 15,21  Z  " style="fill:rgb(126, 22, 218); fill-opacity:1.000; stroke:none;" />
 <path d="  M 15,19  L 15,20  L 16,20  L 16,19  Z  " style="fill:rgb(126, 22, 218); fill-opacity:1.000; stroke:none;" />
 <path d="  M 17,55  L 16,55  L 16,56  L 17,56  Z  " style="fill:rgb(126, 22, 218); fill-opacity:1.000; stroke:none;" />
 <path d="  M 17,11  L 18,11  L 18,10  L 17,10  Z  " style="fill:rgb(126, 22, 218); fill-opacity:1.000; stroke:none;" />
 <path d="  M 22,58  L 22,57  L 21,57  L 21,58  Z  " style="fill:rgb(126, 22, 218); fill-opacity:1.000; stroke:none;" />
 <path d="  M 23,25  L 22,25  L 22,26  L 23,26  Z  " style="fill:rgb(126, 22, 218); fill-opacity:1.000; stroke:none;" />
 <path d="  M 24,48  L 24,47  L 23,47  L 23,48  Z  " style="fill:rgb(126, 22, 218); fill-opacity:1.000; stroke:none;" />
 <path d="  M 26,25  L 26,24  L 25,24  L 25,25  Z  " style="fill:rgb(126, 22, 218); fill-opacity:1.000; stroke:none;" />
 <path d="  M 28,46  L 27,46  L 27,47  L 28,47  Z  " style="fill:rgb(126, 22, 218); fill-opacity:1.000; stroke:none;" />
 <path d="  M 32,9  L 33,9  L 33,8  L 32,8  Z  " style="fill:rgb(126, 22, 218); fill-opacity:1.000; stroke:none;" />
 <path d="  M 33,29  L 33,30  L 34,30  L 34,29  Z  " style="fill:rgb(126, 22, 218); fill-opacity:1.000; stroke:none;" />
 <path d="  M 37,49  L 37,50  L 38,50  L 38,49  Z  " style="fill:rgb(126, 22, 218); fill-opacity:1.000; stroke:none;" />
 <path d="  M 39,31  L 39,32  L 40,32  L 40,31  Z  " style="fill:rgb(126, 22, 218); fill-opacity:1.000; stroke:none;" />
 <path d="  M 11,46  L 11,47  L 12,47  L 12,46  Z  " style="fill:rgb(169, 100, 231); fill-opacity:1.000; stroke:none;" />
 <path d="  M 13,44  L 12,44  L 12,45  L 13,45  Z  " style="fill:rgb(169, 100, 231); fill-opacity:1.000; stroke:none;" />
 <path d="  M 15,43  L 15,42  L 14,42  L 14,43  Z  " style="fill:rgb(169, 100, 231); fill-opacity:1.000; stroke:none;" />
 <path d="  M 15,54  L 14,54  L 14,55  L 15,55  Z  " style="fill:rgb(169, 100, 231); fill-opacity:1.000; stroke:none;" />
 <path d="  M 19,35  L 19,36  L 20,36  L 20,35  Z  " style="fill:rgb(169, 100, 231); fill-opacity:1.000; stroke:none;" />
 <path d="  M 22,26  L 22,25  L 21,25  L 21,26  Z  " style="fill:rgb(169, 100, 231); fill-opacity:1.000; stroke:none;" />
 <path d="  M 26,14  L 26,13  L 25,13  L 25,14  Z  " style="fill:rgb(169, 100, 231); fill-opacity:1.000; stroke:none;" />
 <path d="  M 27,38  L 27,37  L 26,37  L 26,38  Z  " style="fill:rgb(169, 100, 231); fill-opacity:1.000; stroke:none;" />
 <path d="  M 31,46  L 31,45  L 30,45  L 30,46  Z  " style="fill:rgb(169, 100, 231); fill-opacity:1.000; stroke:none;" />
 <path d="  M 38,44  L 38,43  L 37,43  L 37,44  Z  " style="fill:rgb(169, 100, 231); fill-opacity:1.000; stroke:none;" />
 <path d="  M 40,12  L 40,11  L 39,11  L 39,12  Z  " style="fill:rgb(169, 100, 231); fill-opacity:1.000; stroke:none;" />
 <path d="  M 40,22  L 40,21  L 39,21  L 39,22  Z  " style="fill:rgb(169, 100, 231); fill-opacity:1.000; stroke:none;" />
 <path d="  M 12,48  L 12,47  L 11,47  L 11,48  Z  " style="fill:rgb(212, 178, 243); fill-opacity:1.000; stroke:none;" />
 <path d="  M 13,26  L 12,26  L 12,28  L 13,28  Z  " style="fill:rgb(212, 178, 243); fill-opacity:1.000; stroke:none;" />
 <path d="  M 13,54  L 14,54  L 14,53  L 13,53  Z  " style="fill:rgb(212, 178, 243); fill-opacity:1.000; stroke:none;" />
 <path d="  M 25,46  L 24,46  L 24,47  L 25,47  Z  " style="fill:rgb(212, 178, 243); fill-opacity:1.000; stroke:none;" />
 <path d="  M 29,13  L 29,14  L 30,14  L 30,13  Z  " style="fill:rgb(212, 178, 243); fill-opacity:1.000; stroke:none;" />
 <path d="  M 29,37  L 29,38  L 30,38  L 30,37  Z  " style="fill:rgb(212, 178, 243); fill-opacity:1.000; stroke:none;" />
 <path d="  M 31,24  L 31,23  L 30,23  L 30,24  Z  " style="fill:rgb(212, 178, 243); fill-opacity:1.000; stroke:none;" />
 <path d="  M 37,43  L 36,43  L 36,44  L 37,44  Z  " style="fill:rgb(212, 178, 243); fill-opacity:1.000; stroke:none;" />
 <path d="  M 40,42  L 39,42  L 39,43  L 40,43  Z  " style="fill:rgb(212, 178, 243); fill-opacity:1.000; stroke:none;" />
 <path d="  M 41,16  L 41,15  L 40,15  L 40,16  Z  " style="fill:rgb(212, 178, 243); fill-opacity:1.000; stroke:none;" />
 <path d="  M 12,48  L 11,48  L 11,50  L 12,50  Z  " style="fill:rgb(221, 193, 246); fill-opacity:1.000; stroke:none;" />
 <path d="  M 14,31  L 14,30  L 13,30  L 13,31  Z  " style="fill:rgb(221, 193, 246); fill-opacity:1.000; stroke:none;" />
 <path d="  M 17,33  L 16,33  L 16,34  L 17,34  Z  " style="fill:rgb(221, 193, 246); fill-opacity:1.000; stroke:none;" />
 <path d="  M 23,13  L 22,13  L 22,14  L 23,14  Z  " style="fill:rgb(221, 193, 246); fill-opacity:1.000; stroke:none;" />
 <path d="  M 26,56  L 26,55  L 22,55  L 22,56  Z  " style="fill:rgb(221, 193, 246); fill-opacity:1.000; stroke:none;" />
 <path d="  M 27,24  L 30,24  L 30,23  L 27,23  Z  " style="fill:rgb(221, 193, 246); fill-opacity:1.000; stroke:none;" />
 <path d="  M 31,14  L 31,13  L 30,13  L 30,14  Z  " style="fill:rgb(221, 193, 246); fill-opacity:1.000; stroke:none;" />
 <path d="  M 34,15  L 34,16  L 35,16  L 35,15  Z  " style="fill:rgb(221, 193, 246); fill-opacity:1.000; stroke:none;" />
 <path d="  M 37,23  L 38,23  L 38,22  L 37,22  Z  " style="fill:rgb(221, 193, 246); fill-opacity:1.000; stroke:none;" />
 <path d="  M 41,16  L 40,16  L 40,17  L 41,17  Z  " style="fill:rgb(221, 193, 246); fill-opacity:1.000; stroke:none;" />
 <path d="  M 42,59  L 41,59  L 41,60  L 42,60  Z  " style="fill:rgb(221, 193, 246); fill-opacity:1.000; stroke:none;" />
 <path d="  M 12,51  L 12,50  L 11,50  L 11,51  Z  " style="fill:rgb(204, 162, 241); fill-opacity:1.000; stroke:none;" />
 <path d="  M 12,52  L 12,53  L 13,53  L 13,52  Z  " style="fill:rgb(204, 162, 241); fill-opacity:1.000; stroke:none;" />
 <path d="  M 23,24  L 23,25  L 24,25  L 24,24  Z  " style="fill:rgb(204, 162, 241); fill-opacity:1.000; stroke:none;" />
 <path d="  M 41,20  L 41,19  L 40,19  L 40,20  Z  " style="fill:rgb(204, 162, 241); fill-opacity:1.000; stroke:none;" />
 <path d="  M 11,51  L 11,52  L 12,52  L 12,51  Z  " style="fill:rgb(152, 69, 226); fill-opacity:1.000; stroke:none;" />
 <path d="  M 13,25  L 13,24  L 12,24  L 12,25  Z  " style="fill:rgb(152, 69, 226); fill-opacity:1.000; stroke:none;" />
 <path d="  M 13,29  L 12,29  L 12,30  L 13,30  Z  " style="fill:rgb(152, 69, 226); fill-opacity:1.000; stroke:none;" />
 <path d="  M 17,11  L 17,12  L 18,12  L 18,11  Z  " style="fill:rgb(152, 69, 226); fill-opacity:1.000; stroke:none;" />
 <path d="  M 19,55  L 17,55  L 17,56  L 19,56  Z  " style="fill:rgb(152, 69, 226); fill-opacity:1.000; stroke:none;" />
 <path d="  M 22,37  L 22,36  L 21,36  L 21,37  Z  " style="fill:rgb(152, 69, 226); fill-opacity:1.000; stroke:none;" />
 <path d="  M 23,27  L 22,27  L 22,28  L 23,28  Z  " style="fill:rgb(152, 69, 226); fill-opacity:1.000; stroke:none;" />
 <path d="  M 33,14  L 33,15  L 34,15  L 34,14  Z  " style="fill:rgb(152, 69, 226); fill-opacity:1.000; stroke:none;" />
 <path d="  M 34,44  L 34,45  L 35,45  L 35,44  Z  " style="fill:rgb(152, 69, 226); fill-opacity:1.000; stroke:none;" />
 <path d="  M 41,32  L 41,33  L 42,33  L 42,32  Z  " style="fill:rgb(152, 69, 226); fill-opacity:1.000; stroke:none;" />
 <path d="  M 42,43  L 42,42  L 41,42  L 41,43  Z  " style="fill:rgb(152, 69, 226); fill-opacity:1.000; stroke:none;" />
 <path d="  M 47,36  L 46,36  L 46,37  L 47,37  Z  " style="fill:rgb(152, 69, 226); fill-opacity:1.000; stroke:none;" />
 <path d="  M 47,39  L 47,38  L 46,38  L 46,39  Z  " style="fill:rgb(152, 69, 226); fill-opacity:1.000; stroke:none;" />
 <path d="  M 13,25  L 12,25  L 12,26  L 13,26  Z  " style="fill:rgb(187, 131, 236); fill-opacity:1.000; stroke:none;" />
 <path d="  M 13,28  L 12,28  L 12,29  L 13,29  Z  " style="fill:rgb(187, 131, 236); fill-opacity:1.000; stroke:none;" />
 <path d="  M 13,22  L 13,23  L 14,23  L 14,22  Z  " style="fill:rgb(187, 131, 236); fill-opacity:1.000; stroke:none;" />
 <path d="  M 19,14  L 19,13  L 18,13  L 18,14  Z  " style="fill:rgb(187, 131, 236); fill-opacity:1.000; stroke:none;" />
 <path d="  M 21,56  L 21,55  L 19,55  L 19,56  Z  " style="fill:rgb(187, 131, 236); fill-opacity:1.000; stroke:none;" />
 <path d="  M 21,58  L 21,59  L 22,59  L 22,58  Z  " style="fill:rgb(187, 131, 236); fill-opacity:1.000; stroke:none;" />
 <path d="  M 23,47  L 22,47  L 22,48  L 23,48  Z  " style="fill:rgb(187, 131, 236); fill-opacity:1.000; stroke:none;" />
 <path d="  M 24,13  L 23,13  L 23,14  L 24,14  Z  " style="fill:rgb(187, 131, 236); fill-opacity:1.000; stroke:none;" />
 <path d="  M 26,46  L 25,46  L 25,47  L 26,47  Z  " style="fill:rgb(187, 131, 236); fill-opacity:1.000; stroke:none;" />
 <path d="  M 29,14  L 29,13  L 26,13  L 26,14  Z  " style="fill:rgb(187, 131, 236); fill-opacity:1.000; stroke:none;" />
 <path d="  M 29,38  L 29,37  L 27,37  L 27,38  Z  " style="fill:rgb(187, 131, 236); fill-opacity:1.000; stroke:none;" />
 <path d="  M 31,23  L 31,24  L 35,24  L 35,23  Z  " style="fill:rgb(187, 131, 236); fill-opacity:1.000; stroke:none;" />
 <path d="  M 40,14  L 40,15  L 41,15  L 41,14  Z  " style="fill:rgb(187, 131, 236); fill-opacity:1.000; stroke:none;" />
 <path d="  M 41,42  L 40,42  L 40,43  L 41,43  Z  " style="fill:rgb(187, 131, 236); fill-opacity:1.000; stroke:none;" />
 <path d="  M 42,58  L 43,58  L 43,56  L 42,56  Z  " style="fill:rgb(187, 131, 236); fill-opacity:1.000; stroke:none;" />
 <path d="  M 46,37  L 46,38  L 47,38  L 47,37  Z  " style="fill:rgb(187, 131, 236); fill-opacity:1.000; stroke:none;" />
 <path d="  M 12,45  L 12,46  L 13,46  L 13,45  Z  " style="fill:rgb(246, 239, 253); fill-opacity:1.000; stroke:none;" />
 <path d="  M 15,42  L 15,43  L 16,43  L 16,42  Z  " style="fill:rgb(246, 239, 253); fill-opacity:1.000; stroke:none;" />
 <path d="  M 17,42  L 18,42  L 18,41  L 17,41  Z  " style="fill:rgb(246, 239, 253); fill-opacity:1.000; stroke:none;" />
 <path d="  M 20,41  L 21,41  L 21,40  L 20,40  Z  " style="fill:rgb(246, 239, 253); fill-opacity:1.000; stroke:none;" />
 <path d="  M 21,60  L 22,60  L 22,59  L 21,59  Z  " style="fill:rgb(246, 239, 253); fill-opacity:1.000; stroke:none;" />
 <path d="  M 27,29  L 26,29  L 26,30  L 27,30  Z  " style="fill:rgb(246, 239, 253); fill-opacity:1.000; stroke:none;" />
 <path d="  M 28,38  L 28,39  L 29,39  L 29,38  Z  " style="fill:rgb(246, 239, 253); fill-opacity:1.000; stroke:none;" />
 <path d="  M 35,17  L 35,16  L 34,16  L 34,17  Z  " style="fill:rgb(246, 239, 253); fill-opacity:1.000; stroke:none;" />
 <path d="  M 35,9  L 35,10  L 36,10  L 36,9  Z  " style="fill:rgb(246, 239, 253); fill-opacity:1.000; stroke:none;" />
 <path d="  M 40,17  L 40,18  L 41,18  L 41,17  Z  " style="fill:rgb(246, 239, 253); fill-opacity:1.000; stroke:none;" />
 <path d="  M 41,53  L 41,52  L 40,52  L 40,53  Z  " style="fill:rgb(246, 239, 253); fill-opacity:1.000; stroke:none;" />
 <path d="  M 13,30  L 14,30  L 14,31  L 15,31  L 15,32  L 16,32  L 16,33  L 17,33  L 17,34  L 19,34  L 19,35  L 21,35  L 21,36  L 24,36  L 24,37  L 30,37  L 30,38  L 29,38  L 29,39  L 24,39  L 24,40  L 21,40  L 21,41  L 18,41  L 18,42  L 16,42  L 16,43  L 14,43  L 14,44  L 13,44  L 13,46  L 12,46  L 12,52  L 13,52  L 13,53  L 14,53  L 14,54  L 16,54  L 16,55  L 27,55  L 27,56  L 29,56  L 29,57  L 23,57  L 23,58  L 22,58  L 22,60  L 21,60  L 21,61  L 22,61  L 22,63  L 23,63  L 23,64  L 33,64  L 33,63  L 37,63  L 37,62  L 39,62  L 39,61  L 40,61  L 40,60  L 41,60  L 41,59  L 42,59  L 42,54  L 41,54  L 41,53  L 40,53  L 40,52  L 39,52  L 39,51  L 37,51  L 37,50  L 35,50  L 35,49  L 31,49  L 31,48  L 21,48  L 21,47  L 24,47  L 24,46  L 28,46  L 28,45  L 32,45  L 32,44  L 35,44  L 35,43  L 38,43  L 38,42  L 42,42  L 42,41  L 44,41  L 44,40  L 45,40  L 45,39  L 46,39  L 46,36  L 45,36  L 45,35  L 44,35  L 44,34  L 42,34  L 42,33  L 40,33  L 40,32  L 37,32  L 37,31  L 34,31  L 34,30  L 26,30  L 26,29  L 23,29  L 23,28  L 21,28  L 21,27  L 20,27  L 20,25  L 22,25  L 22,24  L 26,24  L 26,23  L 37,23  L 37,22  L 39,22  L 39,21  L 40,21  L 40,13  L 39,13  L 39,11  L 38,11  L 38,10  L 35,10  L 35,9  L 31,9  L 31,10  L 19,10  L 19,11  L 18,11  L 18,13  L 19,13  L 19,14  L 21,14  L 21,13  L 32,13  L 32,14  L 35,14  L 35,17  L 22,17  L 22,18  L 19,18  L 19,19  L 17,19  L 17,20  L 16,20  L 16,21  L 15,21  L 15,22  L 14,22  L 14,24  L 13,24  Z  " style="fill:rgb(255, 255, 255); fill-opacity:1.000; stroke:none;" />
 <path d="  M 14,23  L 13,23  L 13,24  L 14,24  Z  " style="fill:rgb(238, 223, 250); fill-opacity:1.000; stroke:none;" />
 <path d="  M 19,11  L 19,10  L 18,10  L 18,11  Z  " style="fill:rgb(238, 223, 250); fill-opacity:1.000; stroke:none;" />
 <path d="  M 19,19  L 19,18  L 18,18  L 18,19  Z  " style="fill:rgb(238, 223, 250); fill-opacity:1.000; stroke:none;" />
 <path d="  M 22,48  L 22,47  L 21,47  L 21,48  Z  " style="fill:rgb(238, 223, 250); fill-opacity:1.000; stroke:none;" />
 <path d="  M 35,50  L 36,50  L 36,49  L 35,49  Z  " style="fill:rgb(238, 223, 250); fill-opacity:1.000; stroke:none;" />
 <path d="  M 37,50  L 37,51  L 38,51  L 38,50  Z  " style="fill:rgb(238, 223, 250); fill-opacity:1.000; stroke:none;" />
 <path d="  M 40,12  L 39,12  L 39,13  L 40,13  Z  " style="fill:rgb(238, 223, 250); fill-opacity:1.000; stroke:none;" />
 <path d="  M 14,31  L 13,31  L 13,32  L 14,32  Z  " style="fill:rgb(135, 38, 221); fill-opacity:1.000; stroke:none;" />
 <path d="  M 16,33  L 15,33  L 15,34  L 16,34  Z  " style="fill:rgb(135, 38, 221); fill-opacity:1.000; stroke:none;" />
 <path d="  M 16,42  L 16,41  L 15,41  L 15,42  Z  " style="fill:rgb(135, 38, 221); fill-opacity:1.000; stroke:none;" />
 <path d="  M 18,9  L 18,10  L 19,10  L 19,9  Z  " style="fill:rgb(135, 38, 221); fill-opacity:1.000; stroke:none;" />
 <path d="  M 20,17  L 19,17  L 19,18  L 20,18  Z  " style="fill:rgb(135, 38, 221); fill-opacity:1.000; stroke:none;" />
 <path d="  M 22,17  L 23,17  L 23,16  L 22,16  Z  " style="fill:rgb(135, 38, 221); fill-opacity:1.000; stroke:none;" />
 <path d="  M 31,46  L 32,46  L 32,45  L 31,45  Z  " style="fill:rgb(135, 38, 221); fill-opacity:1.000; stroke:none;" />
 <path d="  M 34,8  L 33,8  L 33,9  L 34,9  Z  " style="fill:rgb(135, 38, 221); fill-opacity:1.000; stroke:none;" />
 <path d="  M 36,23  L 36,24  L 37,24  L 37,23  Z  " style="fill:rgb(135, 38, 221); fill-opacity:1.000; stroke:none;" />
 <path d="  M 37,10  L 38,10  L 38,9  L 37,9  Z  " style="fill:rgb(135, 38, 221); fill-opacity:1.000; stroke:none;" />
 <path d="  M 40,52  L 41,52  L 41,51  L 40,51  Z  " style="fill:rgb(135, 38, 221); fill-opacity:1.000; stroke:none;" />
 <path d="  M 42,52  L 41,52  L 41,53  L 42,53  Z  " style="fill:rgb(135, 38, 221); fill-opacity:1.000; stroke:none;" />
 <path d="  M 42,54  L 42,55  L 43,55  L 43,54  Z  " style="fill:rgb(135, 38, 221); fill-opacity:1.000; stroke:none;" />
 <path d="  M 44,42  L 45,42  L 45,41  L 44,41  Z  " style="fill:rgb(135, 38, 221); fill-opacity:1.000; stroke:none;" />
 <path d="  M 46,35  L 46,34  L 45,34  L 45,35  Z  " style="fill:rgb(135, 38, 221); fill-opacity:1.000; stroke:none;" />
 <path d="  M 14,43  L 13,43  L 13,44  L 14,44  Z  " style="fill:rgb(203, 161, 240); fill-opacity:1.000; stroke:none;" />
 <path d="  M 19,41  L 20,41  L 20,40  L 19,40  Z  " style="fill:rgb(203, 161, 240); fill-opacity:1.000; stroke:none;" />
 <path d="  M 24,57  L 25,57  L 25,56  L 24,56  Z  " style="fill:rgb(203, 161, 240); fill-opacity:1.000; stroke:none;" />
 <path d="  M 34,30  L 34,31  L 35,31  L 35,30  Z  " style="fill:rgb(203, 161, 240); fill-opacity:1.000; stroke:none;" />
 <path d="  M 37,10  L 37,9  L 36,9  L 36,10  Z  " style="fill:rgb(203, 161, 240); fill-opacity:1.000; stroke:none;" />
 <path d="  M 41,32  L 40,32  L 40,33  L 41,33  Z  " style="fill:rgb(203, 161, 240); fill-opacity:1.000; stroke:none;" />
 <path d="  M 14,22  L 15,22  L 15,21  L 14,21  Z  " style="fill:rgb(229, 208, 248); fill-opacity:1.000; stroke:none;" />
 <path d="  M 15,20  L 15,21  L 16,21  L 16,20  Z  " style="fill:rgb(229, 208, 248); fill-opacity:1.000; stroke:none;" />
 <path d="  M 16,19  L 16,20  L 17,20  L 17,19  Z  " style="fill:rgb(229, 208, 248); fill-opacity:1.000; stroke:none;" />
 <path d="  M 21,17  L 21,18  L 22,18  L 22,17  Z  " style="fill:rgb(229, 208, 248); fill-opacity:1.000; stroke:none;" />
 <path d="  M 28,57  L 29,57  L 29,56  L 28,56  Z  " style="fill:rgb(229, 208, 248); fill-opacity:1.000; stroke:none;" />
 <path d="  M 31,9  L 30,9  L 30,10  L 31,10  Z  " style="fill:rgb(229, 208, 248); fill-opacity:1.000; stroke:none;" />
 <path d="  M 44,35  L 45,35  L 45,34  L 44,34  Z  " style="fill:rgb(229, 208, 248); fill-opacity:1.000; stroke:none;" />
 <path d="  M 46,36  L 46,35  L 45,35  L 45,36  Z  " style="fill:rgb(229, 208, 248); fill-opacity:1.000; stroke:none;" />
 <path d="  M 15,32  L 15,31  L 14,31  L 14,32  Z  " style="fill:rgb(247, 240, 253); fill-opacity:1.000; stroke:none;" />
 <path d="  M 16,32  L 15,32  L 15,33  L 16,33  Z  " style="fill:rgb(247, 240, 253); fill-opacity:1.000; stroke:none;" />
 <path d="  M 22,24  L 22,25  L 23,25  L 23,24  Z  " style="fill:rgb(247, 240, 253); fill-opacity:1.000; stroke:none;" />
 <path d="  M 31,14  L 32,14  L 32,13  L 31,13  Z  " style="fill:rgb(247, 240, 253); fill-opacity:1.000; stroke:none;" />
 <path d="  M 35,43  L 35,44  L 36,44  L 36,43  Z  " style="fill:rgb(247, 240, 253); fill-opacity:1.000; stroke:none;" />
 <path d="  M 39,43  L 39,42  L 38,42  L 38,43  Z  " style="fill:rgb(247, 240, 253); fill-opacity:1.000; stroke:none;" />
 <path d="  M 40,61  L 41,61  L 41,60  L 40,60  Z  " style="fill:rgb(247, 240, 253); fill-opacity:1.000; stroke:none;" />
 <path d="  M 43,41  L 42,41  L 42,42  L 43,42  Z  " style="fill:rgb(247, 240, 253); fill-opacity:1.000; stroke:none;" />
 <path d="  M 45,41  L 45,40  L 44,40  L 44,41  Z  " style="fill:rgb(247, 240, 253); fill-opacity:1.000; stroke:none;" />
 <path d="  M 45,39  L 45,40  L 46,40  L 46,39  Z  " style="fill:rgb(247, 240, 253); fill-opacity:1.000; stroke:none;" />
 <path d="  M 15,32  L 14,32  L 14,33  L 15,33  Z  " style="fill:rgb(143, 53, 223); fill-opacity:1.000; stroke:none;" />
 <path d="  M 18,12  L 17,12  L 17,13  L 18,13  Z  " style="fill:rgb(143, 53, 223); fill-opacity:1.000; stroke:none;" />
 <path d="  M 22,39  L 21,39  L 21,40  L 22,40  Z  " style="fill:rgb(143, 53, 223); fill-opacity:1.000; stroke:none;" />
 <path d="  M 25,39  L 26,39  L 26,37  L 25,37  Z  " style="fill:rgb(143, 53, 223); fill-opacity:1.000; stroke:none;" />
 <path d="  M 34,49  L 35,49  L 35,48  L 34,48  Z  " style="fill:rgb(143, 53, 223); fill-opacity:1.000; stroke:none;" />
 <path d="  M 39,22  L 38,22  L 38,23  L 39,23  Z  " style="fill:rgb(143, 53, 223); fill-opacity:1.000; stroke:none;" />
 <path d="  M 40,13  L 40,14  L 41,14  L 41,13  Z  " style="fill:rgb(143, 53, 223); fill-opacity:1.000; stroke:none;" />
 <path d="  M 41,21  L 41,20  L 40,20  L 40,21  Z  " style="fill:rgb(143, 53, 223); fill-opacity:1.000; stroke:none;" />
 <path d="  M 41,61  L 42,61  L 42,60  L 41,60  Z  " style="fill:rgb(143, 53, 223); fill-opacity:1.000; stroke:none;" />
 <path d="  M 43,59  L 43,58  L 42,58  L 42,59  Z  " style="fill:rgb(143, 53, 223); fill-opacity:1.000; stroke:none;" />
 <path d="  M 45,40  L 45,41  L 46,41  L 46,40  Z  " style="fill:rgb(143, 53, 223); fill-opacity:1.000; stroke:none;" />
 <path d="  M 15,54  L 15,55  L 16,55  L 16,54  Z  " style="fill:rgb(230, 209, 248); fill-opacity:1.000; stroke:none;" />
 <path d="  M 22,62  L 22,61  L 21,61  L 21,62  Z  " style="fill:rgb(230, 209, 248); fill-opacity:1.000; stroke:none;" />
 <path d="  M 26,24  L 27,24  L 27,23  L 26,23  Z  " style="fill:rgb(230, 209, 248); fill-opacity:1.000; stroke:none;" />
 <path d="  M 26,55  L 26,56  L 27,56  L 27,55  Z  " style="fill:rgb(230, 209, 248); fill-opacity:1.000; stroke:none;" />
 <path d="  M 29,46  L 29,45  L 28,45  L 28,46  Z  " style="fill:rgb(230, 209, 248); fill-opacity:1.000; stroke:none;" />
 <path d="  M 33,44  L 32,44  L 32,45  L 33,45  Z  " style="fill:rgb(230, 209, 248); fill-opacity:1.000; stroke:none;" />
 <path d="  M 16,41  L 16,42  L 17,42  L 17,41  Z  " style="fill:rgb(186, 130, 235); fill-opacity:1.000; stroke:none;" />
 <path d="  M 19,9  L 19,10  L 24,10  L 24,9  Z  " style="fill:rgb(186, 130, 235); fill-opacity:1.000; stroke:none;" />
 <path d="  M 22,39  L 22,40  L 23,40  L 23,39  Z  " style="fill:rgb(186, 130, 235); fill-opacity:1.000; stroke:none;" />
 <path d="  M 25,16  L 24,16  L 24,17  L 25,17  Z  " style="fill:rgb(186, 130, 235); fill-opacity:1.000; stroke:none;" />
 <path d="  M 28,10  L 28,9  L 25,9  L 25,10  Z  " style="fill:rgb(186, 130, 235); fill-opacity:1.000; stroke:none;" />
 <path d="  M 31,30  L 32,30  L 32,29  L 31,29  Z  " style="fill:rgb(186, 130, 235); fill-opacity:1.000; stroke:none;" />
 <path d="  M 18,19  L 18,18  L 17,18  L 17,19  Z  " style="fill:rgb(169, 99, 230); fill-opacity:1.000; stroke:none;" />
 <path d="  M 23,56  L 23,57  L 24,57  L 24,56  Z  " style="fill:rgb(169, 99, 230); fill-opacity:1.000; stroke:none;" />
 <path d="  M 38,31  L 38,32  L 39,32  L 39,31  Z  " style="fill:rgb(169, 99, 230); fill-opacity:1.000; stroke:none;" />
 <path d="  M 38,51  L 39,51  L 39,50  L 38,50  Z  " style="fill:rgb(169, 99, 230); fill-opacity:1.000; stroke:none;" />
 <path d="  M 43,33  L 43,34  L 44,34  L 44,33  Z  " style="fill:rgb(169, 99, 230); fill-opacity:1.000; stroke:none;" />
 <path d="  M 17,35  L 18,35  L 18,34  L 17,34  Z  " style="fill:rgb(161, 84, 228); fill-opacity:1.000; stroke:none;" />
 <path d="  M 24,25  L 25,25  L 25,24  L 24,24  Z  " style="fill:rgb(161, 84, 228); fill-opacity:1.000; stroke:none;" />
 <path d="  M 27,46  L 26,46  L 26,47  L 27,47  Z  " style="fill:rgb(161, 84, 228); fill-opacity:1.000; stroke:none;" />
 <path d="  M 36,24  L 36,23  L 35,23  L 35,24  Z  " style="fill:rgb(161, 84, 228); fill-opacity:1.000; stroke:none;" />
 <path d="  M 18,7  L 18,8  L 19,8  L 19,7  Z  " style="fill:rgb(118, 5, 216); fill-opacity:0.561; stroke:none;" />
 <path d="  M 21,7  L 21,6  L 20,6  L 20,7  Z  " style="fill:rgb(118, 5, 216); fill-opacity:0.561; stroke:none;" />
 <path d="  M 35,2  L 36,2  L 36,1  L 35,1  Z  " style="fill:rgb(118, 5, 216); fill-opacity:0.561; stroke:none;" />
 <path d="  M 49,5  L 49,4  L 48,4  L 48,5  Z  " style="fill:rgb(118, 5, 216); fill-opacity:0.561; stroke:none;" />
 <path d="  M 57,9  L 57,8  L 56,8  L 56,9  Z  " style="fill:rgb(118, 5, 216); fill-opacity:0.561; stroke:none;" />
 <path d="  M 18,34  L 18,35  L 19,35  L 19,34  Z  " style="fill:rgb(238, 224, 251); fill-opacity:1.000; stroke:none;" />
 <path d="  M 21,25  L 20,25  L 20,26  L 21,26  Z  " style="fill:rgb(238, 224, 251); fill-opacity:1.000; stroke:none;" />
 <path d="  M 21,36  L 21,35  L 20,35  L 20,36  Z  " style="fill:rgb(238, 224, 251); fill-opacity:1.000; stroke:none;" />
 <path d="  M 21,14  L 22,14  L 22,13  L 21,13  Z  " style="fill:rgb(238, 224, 251); fill-opacity:1.000; stroke:none;" />
 <path d="  M 24,36  L 23,36  L 23,37  L 24,37  Z  " style="fill:rgb(238, 224, 251); fill-opacity:1.000; stroke:none;" />
 <path d="  M 35,15  L 35,14  L 34,14  L 34,15  Z  " style="fill:rgb(238, 224, 251); fill-opacity:1.000; stroke:none;" />
 <path d="  M 40,18  L 40,19  L 41,19  L 41,18  Z  " style="fill:rgb(238, 224, 251); fill-opacity:1.000; stroke:none;" />
 <path d="  M 19,41  L 19,40  L 18,40  L 18,41  Z  " style="fill:rgb(160, 83, 228); fill-opacity:1.000; stroke:none;" />
 <path d="  M 25,28  L 24,28  L 24,29  L 25,29  Z  " style="fill:rgb(160, 83, 228); fill-opacity:1.000; stroke:none;" />
 <path d="  M 33,29  L 32,29  L 32,30  L 33,30  Z  " style="fill:rgb(160, 83, 228); fill-opacity:1.000; stroke:none;" />
 <path d="  M 36,31  L 36,30  L 35,30  L 35,31  Z  " style="fill:rgb(160, 83, 228); fill-opacity:1.000; stroke:none;" />
 <path d="  M 20,17  L 20,18  L 21,18  L 21,17  Z  " style="fill:rgb(177, 114, 233); fill-opacity:1.000; stroke:none;" />
 <path d="  M 25,10  L 25,9  L 24,9  L 24,10  Z  " style="fill:rgb(177, 114, 233); fill-opacity:1.000; stroke:none;" />
 <path d="  M 26,38  L 26,39  L 27,39  L 27,38  Z  " style="fill:rgb(177, 114, 233); fill-opacity:1.000; stroke:none;" />
 <path d="  M 33,49  L 34,49  L 34,48  L 33,48  Z  " style="fill:rgb(177, 114, 233); fill-opacity:1.000; stroke:none;" />
 <path d="  M 37,50  L 37,49  L 36,49  L 36,50  Z  " style="fill:rgb(177, 114, 233); fill-opacity:1.000; stroke:none;" />
 <path d="  M 20,27  L 21,27  L 21,26  L 20,26  Z  " style="fill:rgb(178, 115, 233); fill-opacity:1.000; stroke:none;" />
 <path d="  M 24,13  L 24,14  L 25,14  L 25,13  Z  " style="fill:rgb(178, 115, 233); fill-opacity:1.000; stroke:none;" />
 <path d="  M 42,56  L 43,56  L 43,55  L 42,55  Z  " style="fill:rgb(178, 115, 233); fill-opacity:1.000; stroke:none;" />
 <path d="  M 22,27  L 21,27  L 21,28  L 22,28  Z  " style="fill:rgb(212, 177, 243); fill-opacity:1.000; stroke:none;" />
 <path d="  M 28,10  L 29,10  L 29,9  L 28,9  Z  " style="fill:rgb(212, 177, 243); fill-opacity:1.000; stroke:none;" />
 <path d="  M 30,29  L 30,30  L 31,30  L 31,29  Z  " style="fill:rgb(212, 177, 243); fill-opacity:1.000; stroke:none;" />
 <path d="  M 33,49  L 33,48  L 32,48  L 32,49  Z  " style="fill:rgb(212, 177, 243); fill-opacity:1.000; stroke:none;" />
 <path d="  M 38,31  L 37,31  L 37,32  L 38,32  Z  " style="fill:rgb(212, 177, 243); fill-opacity:1.000; stroke:none;" />
 <path d="  M 22,55  L 21,55  L 21,56  L 22,56  Z  " style="fill:rgb(195, 147, 238); fill-opacity:1.000; stroke:none;" />
 <path d="  M 23,36  L 22,36  L 22,37  L 23,37  Z  " style="fill:rgb(195, 147, 238); fill-opacity:1.000; stroke:none;" />
 <path d="  M 29,45  L 29,46  L 30,46  L 30,45  Z  " style="fill:rgb(195, 147, 238); fill-opacity:1.000; stroke:none;" />
 <path d="  M 34,45  L 34,44  L 33,44  L 33,45  Z  " style="fill:rgb(195, 147, 238); fill-opacity:1.000; stroke:none;" />
 <path d="  M 43,42  L 44,42  L 44,41  L 43,41  Z  " style="fill:rgb(195, 147, 238); fill-opacity:1.000; stroke:none;" />
 <path d="  M 22,63  L 22,62  L 21,62  L 21,63  Z  " style="fill:rgb(204, 165, 241); fill-opacity:0.486; stroke:none;" />
 <path d="  M 22,57  L 22,58  L 23,58  L 23,57  Z  " style="fill:rgb(220, 192, 245); fill-opacity:1.000; stroke:none;" />
 <path d="  M 23,29  L 24,29  L 24,28  L 23,28  Z  " style="fill:rgb(220, 192, 245); fill-opacity:1.000; stroke:none;" />
 <path d="  M 23,39  L 23,40  L 24,40  L 24,39  Z  " style="fill:rgb(220, 192, 245); fill-opacity:1.000; stroke:none;" />
 <path d="  M 34,17  L 34,16  L 25,16  L 25,17  Z  " style="fill:rgb(220, 192, 245); fill-opacity:1.000; stroke:none;" />
 <path d="  M 28,57  L 28,56  L 25,56  L 25,57  Z  " style="fill:rgb(220, 192, 245); fill-opacity:1.000; stroke:none;" />
 <path d="  M 27,29  L 27,30  L 30,30  L 30,29  Z  " style="fill:rgb(220, 192, 245); fill-opacity:1.000; stroke:none;" />
 <path d="  M 28,39  L 28,38  L 27,38  L 27,39  Z  " style="fill:rgb(220, 192, 245); fill-opacity:1.000; stroke:none;" />
 <path d="  M 30,10  L 30,9  L 29,9  L 29,10  Z  " style="fill:rgb(220, 192, 245); fill-opacity:1.000; stroke:none;" />
 <path d="  M 32,49  L 32,48  L 31,48  L 31,49  Z  " style="fill:rgb(220, 192, 245); fill-opacity:1.000; stroke:none;" />
 <path d="  M 40,51  L 39,51  L 39,52  L 40,52  Z  " style="fill:rgb(220, 192, 245); fill-opacity:1.000; stroke:none;" />
 <path d="  M 42,53  L 41,53  L 41,54  L 42,54  Z  " style="fill:rgb(220, 192, 245); fill-opacity:1.000; stroke:none;" />
 <path d="  M 43,33  L 42,33  L 42,34  L 43,34  Z  " style="fill:rgb(220, 192, 245); fill-opacity:1.000; stroke:none;" />
 <path d="  M 23,64  L 23,63  L 22,63  L 22,64  Z  " style="fill:rgb(255, 255, 255); fill-opacity:0.502; stroke:none;" />
 <path d="  M 35,63  L 34,63  L 34,64  L 35,64  Z  " style="fill:rgb(255, 255, 255); fill-opacity:0.502; stroke:none;" />
 <path d="  M 39,62  L 38,62  L 38,63  L 39,63  Z  " style="fill:rgb(255, 255, 255); fill-opacity:0.502; stroke:none;" />
 <path d="  M 23,16  L 23,17  L 24,17  L 24,16  Z  " style="fill:rgb(151, 68, 225); fill-opacity:1.000; stroke:none;" />
 <path d="  M 24,3  L 24,4  L 25,4  L 25,3  Z  " style="fill:rgb(118, 7, 216); fill-opacity:0.875; stroke:none;" />
 <path d="  M 33,2  L 33,1  L 32,1  L 32,2  Z  " style="fill:rgb(118, 7, 216); fill-opacity:0.875; stroke:none;" />
 <path d="  M 39,3  L 39,2  L 38,2  L 38,3  Z  " style="fill:rgb(118, 7, 216); fill-opacity:0.875; stroke:none;" />
 <path d="  M 25,2  L 25,3  L 26,3  L 26,2  Z  " style="fill:rgb(118, 6, 217); fill-opacity:0.498; stroke:none;" />
 <path d="  M 39,2  L 39,3  L 40,3  L 40,2  Z  " style="fill:rgb(118, 6, 217); fill-opacity:0.498; stroke:none;" />
 <path d="  M 42,3  L 42,4  L 44,4  L 44,3  Z  " style="fill:rgb(118, 6, 217); fill-opacity:0.498; stroke:none;" />
 <path d="  M 27,2  L 28,2  L 28,1  L 27,1  Z  " style="fill:rgb(118, 5, 217); fill-opacity:0.373; stroke:none;" />
 <path d="  M 37,1  L 36,1  L 36,2  L 37,2  Z  " style="fill:rgb(118, 5, 217); fill-opacity:0.373; stroke:none;" />
 <path d="  M 28,2  L 29,2  L 29,1  L 28,1  Z  " style="fill:rgb(117, 6, 217); fill-opacity:0.624; stroke:none;" />
 <path d="  M 54,6  L 53,6  L 53,7  L 54,7  Z  " style="fill:rgb(117, 6, 217); fill-opacity:0.624; stroke:none;" />
 <path d="  M 33,63  L 33,64  L 34,64  L 34,63  Z  " style="fill:rgb(255, 255, 255); fill-opacity:0.753; stroke:none;" />
 <path d="  M 35,64  L 36,64  L 36,63  L 35,63  Z  " style="fill:rgb(255, 255, 255); fill-opacity:0.376; stroke:none;" />
 <path d="  M 36,64  L 37,64  L 37,63  L 36,63  Z  " style="fill:rgb(255, 255, 255); fill-opacity:0.125; stroke:none;" />
 <path d="  M 37,63  L 38,63  L 38,62  L 37,62  Z  " style="fill:rgb(251, 248, 254); fill-opacity:0.902; stroke:none;" />
 <path d="  M 39,10  L 38,10  L 38,11  L 39,11  Z  " style="fill:rgb(195, 146, 238); fill-opacity:1.000; stroke:none;" />
 <path d="  M 39,61  L 39,62  L 40,62  L 40,61  Z  " style="fill:rgb(248, 242, 253); fill-opacity:0.992; stroke:none;" />
 <path d="  M 39,63  L 40,63  L 40,62  L 39,62  Z  " style="fill:rgb(255, 255, 255); fill-opacity:0.063; stroke:none;" />
 <path d="  M 41,61  L 40,61  L 40,62  L 41,62  Z  " style="fill:rgb(159, 84, 226); fill-opacity:0.596; stroke:none;" />
 <path d="  M 42,3  L 41,3  L 41,4  L 42,4  Z  " style="fill:rgb(118, 6, 216); fill-opacity:0.686; stroke:none;" />
 <path d="  M 44,3  L 44,4  L 45,4  L 45,3  Z  " style="fill:rgb(116, 6, 216); fill-opacity:0.310; stroke:none;" />
 <path d="  M 52,5  L 51,5  L 51,6  L 52,6  Z  " style="fill:rgb(117, 7, 216); fill-opacity:0.435; stroke:none;" />
 <path d="  M 58,49  L 59,49  L 59,48  L 58,48  Z  " style="fill:rgb(118, 6, 216); fill-opacity:0.816; stroke:none;" />
</svg>
