<?xml version="1.0" encoding="UTF-8" standalone="no"?>
<!DOCTYPE svg PUBLIC "-//W3C//DTD SVG 1.1//EN" 
  "http://www.w3.org/Graphics/SVG/1.1/DTD/svg11.dtd">
<svg width="64" height="64"
	 xmlns="http://www.w3.org/2000/svg" version="1.1">
 <path d="  M 0,18  L 0,19  L 1,19  L 1,18  Z  " style="fill:rgb(145, 34, 243); fill-opacity:0.498; stroke:none;" />
 <path d="  M 1,35  L 0,35  L 0,36  L 1,36  Z  " style="fill:rgb(145, 34, 243); fill-opacity:0.498; stroke:none;" />
 <path d="  M 3,15  L 2,15  L 2,16  L 3,16  Z  " style="fill:rgb(145, 34, 243); fill-opacity:0.498; stroke:none;" />
 <path d="  M 4,41  L 3,41  L 3,42  L 4,42  Z  " style="fill:rgb(145, 34, 243); fill-opacity:0.498; stroke:none;" />
 <path d="  M 5,12  L 5,13  L 6,13  L 6,12  Z  " style="fill:rgb(145, 34, 243); fill-opacity:0.498; stroke:none;" />
 <path d="  M 5,45  L 6,45  L 6,44  L 5,44  Z  " style="fill:rgb(145, 34, 243); fill-opacity:0.498; stroke:none;" />
 <path d="  M 7,46  L 7,45  L 6,45  L 6,46  Z  " style="fill:rgb(145, 34, 243); fill-opacity:0.498; stroke:none;" />
 <path d="  M 7,12  L 8,12  L 8,11  L 7,11  Z  " style="fill:rgb(145, 34, 243); fill-opacity:0.498; stroke:none;" />
 <path d="  M 9,11  L 10,11  L 10,10  L 9,10  Z  " style="fill:rgb(145, 34, 243); fill-opacity:0.498; stroke:none;" />
 <path d="  M 11,9  L 11,10  L 12,10  L 12,9  Z  " style="fill:rgb(145, 34, 243); fill-opacity:0.498; stroke:none;" />
 <path d="  M 12,51  L 12,50  L 11,50  L 11,51  Z  " style="fill:rgb(145, 34, 243); fill-opacity:0.498; stroke:none;" />
 <path d="  M 14,9  L 15,9  L 15,8  L 14,8  Z  " style="fill:rgb(145, 34, 243); fill-opacity:0.498; stroke:none;" />
 <path d="  M 15,53  L 15,52  L 14,52  L 14,53  Z  " style="fill:rgb(145, 34, 243); fill-opacity:0.498; stroke:none;" />
 <path d="  M 16,53  L 16,54  L 17,54  L 17,53  Z  " style="fill:rgb(145, 34, 243); fill-opacity:0.498; stroke:none;" />
 <path d="  M 17,8  L 18,8  L 18,7  L 17,7  Z  " style="fill:rgb(145, 34, 243); fill-opacity:0.498; stroke:none;" />
 <path d="  M 19,54  L 19,55  L 20,55  L 20,54  Z  " style="fill:rgb(145, 34, 243); fill-opacity:0.498; stroke:none;" />
 <path d="  M 21,7  L 21,6  L 20,6  L 20,7  Z  " style="fill:rgb(145, 34, 243); fill-opacity:0.498; stroke:none;" />
 <path d="  M 24,6  L 24,5  L 22,5  L 22,6  Z  " style="fill:rgb(145, 34, 243); fill-opacity:0.498; stroke:none;" />
 <path d="  M 24,55  L 23,55  L 23,56  L 24,56  Z  " style="fill:rgb(145, 34, 243); fill-opacity:0.498; stroke:none;" />
 <path d="  M 28,5  L 28,4  L 27,4  L 27,5  Z  " style="fill:rgb(145, 34, 243); fill-opacity:0.498; stroke:none;" />
 <path d="  M 34,57  L 34,56  L 33,56  L 33,57  Z  " style="fill:rgb(145, 34, 243); fill-opacity:0.498; stroke:none;" />
 <path d="  M 42,58  L 43,58  L 43,57  L 42,57  Z  " style="fill:rgb(145, 34, 243); fill-opacity:0.498; stroke:none;" />
 <path d="  M 46,8  L 47,8  L 47,7  L 46,7  Z  " style="fill:rgb(145, 34, 243); fill-opacity:0.498; stroke:none;" />
 <path d="  M 48,8  L 48,9  L 49,9  L 49,8  Z  " style="fill:rgb(145, 34, 243); fill-opacity:0.498; stroke:none;" />
 <path d="  M 51,9  L 50,9  L 50,10  L 51,10  Z  " style="fill:rgb(145, 34, 243); fill-opacity:0.498; stroke:none;" />
 <path d="  M 51,56  L 51,55  L 50,55  L 50,56  Z  " style="fill:rgb(145, 34, 243); fill-opacity:0.498; stroke:none;" />
 <path d="  M 53,54  L 54,54  L 54,53  L 53,53  Z  " style="fill:rgb(145, 34, 243); fill-opacity:0.498; stroke:none;" />
 <path d="  M 54,12  L 54,13  L 55,13  L 55,12  Z  " style="fill:rgb(145, 34, 243); fill-opacity:0.498; stroke:none;" />
 <path d="  M 59,19  L 60,19  L 60,18  L 59,18  Z  " style="fill:rgb(145, 34, 243); fill-opacity:0.498; stroke:none;" />
 <path d="  M 61,45  L 62,45  L 62,44  L 61,44  Z  " style="fill:rgb(145, 34, 243); fill-opacity:0.498; stroke:none;" />
 <path d="  M 63,43  L 63,42  L 62,42  L 62,43  Z  " style="fill:rgb(145, 34, 243); fill-opacity:0.498; stroke:none;" />
 <path d="  M 64,41  L 64,40  L 63,40  L 63,41  Z  " style="fill:rgb(145, 34, 243); fill-opacity:0.498; stroke:none;" />
 <path d="  M 46,14  L 47,14  L 47,15  L 48,15  L 48,16  L 49,16  L 49,18  L 50,18  L 50,19  L 51,19  L 51,21  L 52,21  L 52,22  L 53,22  L 53,24  L 54,24  L 54,27  L 55,27  L 55,43  L 54,43  L 54,47  L 53,47  L 53,50  L 52,50  L 52,53  L 50,53  L 50,54  L 49,54  L 49,55  L 41,55  L 41,54  L 42,54  L 42,53  L 43,53  L 43,52  L 44,52  L 44,51  L 45,51  L 45,50  L 46,50  L 46,49  L 47,49  L 47,48  L 48,48  L 48,47  L 49,47  L 49,45  L 50,45  L 50,43  L 51,43  L 51,30  L 50,30  L 50,27  L 49,27  L 49,25  L 48,25  L 48,23  L 47,23  L 47,21  L 46,21  L 46,19  L 45,19  L 45,18  L 44,18  L 44,17  L 43,17  L 43,16  L 42,16  L 42,15  L 41,15  L 41,14  L 40,14  L 40,13  L 36,13  L 36,12  L 34,12  L 34,10  L 33,10  L 33,7  L 35,7  L 35,8  L 39,8  L 39,9  L 41,9  L 41,10  L 43,10  L 43,11  L 44,11  L 44,12  L 45,12  L 45,13  L 46,13  Z  M 10,11  L 8,11  L 8,12  L 6,12  L 6,13  L 4,13  L 4,15  L 3,15  L 3,16  L 2,16  L 2,18  L 1,18  L 1,19  L 0,19  L 0,34  L 1,34  L 1,38  L 2,38  L 2,39  L 3,39  L 3,41  L 4,41  L 4,42  L 5,42  L 5,44  L 6,44  L 6,45  L 7,45  L 7,46  L 8,46  L 8,47  L 9,47  L 9,48  L 10,48  L 10,49  L 11,49  L 11,50  L 12,50  L 12,51  L 14,51  L 14,52  L 15,52  L 15,53  L 17,53  L 17,54  L 21,54  L 21,55  L 25,55  L 25,56  L 37,56  L 37,57  L 48,57  L 48,56  L 49,56  L 49,55  L 51,55  L 51,54  L 53,54  L 53,53  L 54,53  L 54,52  L 55,52  L 55,51  L 57,51  L 57,50  L 58,50  L 58,49  L 59,49  L 59,47  L 60,47  L 60,45  L 61,45  L 61,44  L 62,44  L 62,42  L 63,42  L 63,40  L 64,40  L 64,25  L 63,25  L 63,23  L 62,23  L 62,22  L 61,22  L 61,21  L 60,21  L 60,19  L 59,19  L 59,18  L 58,18  L 58,17  L 57,17  L 57,16  L 56,16  L 56,15  L 55,15  L 55,14  L 54,14  L 54,13  L 53,13  L 53,12  L 52,12  L 52,11  L 51,11  L 51,10  L 49,10  L 49,9  L 47,9  L 47,8  L 45,8  L 45,7  L 42,7  L 42,6  L 39,6  L 39,5  L 24,5  L 24,6  L 21,6  L 21,7  L 19,7  L 19,8  L 16,8  L 16,9  L 12,9  L 12,10  L 10,10  Z  M 30,54  L 30,53  L 31,53  L 31,52  L 32,52  L 32,51  L 33,51  L 33,50  L 34,50  L 34,49  L 35,49  L 35,48  L 37,48  L 37,47  L 38,47  L 38,46  L 39,46  L 39,44  L 40,44  L 40,42  L 41,42  L 41,40  L 42,40  L 42,36  L 41,36  L 41,26  L 40,26  L 40,23  L 39,23  L 39,22  L 38,22  L 38,21  L 37,21  L 37,19  L 36,19  L 36,18  L 35,18  L 35,17  L 34,17  L 34,16  L 33,16  L 33,13  L 34,13  L 34,14  L 36,14  L 36,15  L 39,15  L 39,16  L 40,16  L 40,17  L 41,17  L 41,18  L 42,18  L 42,19  L 43,19  L 43,20  L 44,20  L 44,21  L 45,21  L 45,23  L 46,23  L 46,25  L 47,25  L 47,28  L 48,28  L 48,44  L 47,44  L 47,46  L 46,46  L 46,48  L 45,48  L 45,49  L 44,49  L 44,50  L 43,50  L 43,51  L 42,51  L 42,52  L 41,52  L 41,53  L 40,53  L 40,54  Z  M 36,31  L 34,31  L 34,32  L 32,32  L 32,22  L 34,22  L 34,23  L 35,23  L 35,24  L 36,24  Z  " style="fill:rgb(145, 35, 243); fill-opacity:1.000; stroke:none;" />
 <path d="  M 1,35  L 1,34  L 0,34  L 0,35  Z  " style="fill:rgb(146, 35, 243); fill-opacity:0.749; stroke:none;" />
 <path d="  M 2,17  L 1,17  L 1,18  L 2,18  Z  " style="fill:rgb(146, 35, 243); fill-opacity:0.749; stroke:none;" />
 <path d="  M 3,40  L 3,39  L 2,39  L 2,40  Z  " style="fill:rgb(146, 35, 243); fill-opacity:0.749; stroke:none;" />
 <path d="  M 3,15  L 4,15  L 4,14  L 3,14  Z  " style="fill:rgb(146, 35, 243); fill-opacity:0.749; stroke:none;" />
 <path d="  M 7,46  L 7,47  L 8,47  L 8,46  Z  " style="fill:rgb(146, 35, 243); fill-opacity:0.749; stroke:none;" />
 <path d="  M 21,54  L 20,54  L 20,55  L 21,55  Z  " style="fill:rgb(146, 35, 243); fill-opacity:0.749; stroke:none;" />
 <path d="  M 25,55  L 24,55  L 24,56  L 25,56  Z  " style="fill:rgb(146, 35, 243); fill-opacity:0.749; stroke:none;" />
 <path d="  M 35,56  L 35,57  L 36,57  L 36,56  Z  " style="fill:rgb(146, 35, 243); fill-opacity:0.749; stroke:none;" />
 <path d="  M 46,57  L 45,57  L 45,58  L 46,58  Z  " style="fill:rgb(146, 35, 243); fill-opacity:0.749; stroke:none;" />
 <path d="  M 59,17  L 58,17  L 58,18  L 59,18  Z  " style="fill:rgb(146, 35, 243); fill-opacity:0.749; stroke:none;" />
 <path d="  M 1,36  L 0,36  L 0,37  L 1,37  Z  " style="fill:rgb(143, 32, 239); fill-opacity:0.125; stroke:none;" />
 <path d="  M 3,41  L 3,40  L 2,40  L 2,41  Z  " style="fill:rgb(143, 32, 239); fill-opacity:0.125; stroke:none;" />
 <path d="  M 3,14  L 4,14  L 4,13  L 3,13  Z  " style="fill:rgb(143, 32, 239); fill-opacity:0.125; stroke:none;" />
 <path d="  M 4,42  L 3,42  L 3,43  L 4,43  Z  " style="fill:rgb(143, 32, 239); fill-opacity:0.125; stroke:none;" />
 <path d="  M 4,13  L 5,13  L 5,12  L 4,12  Z  " style="fill:rgb(143, 32, 239); fill-opacity:0.125; stroke:none;" />
 <path d="  M 7,11  L 6,11  L 6,12  L 7,12  Z  " style="fill:rgb(143, 32, 239); fill-opacity:0.125; stroke:none;" />
 <path d="  M 7,46  L 6,46  L 6,47  L 7,47  Z  " style="fill:rgb(143, 32, 239); fill-opacity:0.125; stroke:none;" />
 <path d="  M 7,47  L 7,48  L 8,48  L 8,47  Z  " style="fill:rgb(143, 32, 239); fill-opacity:0.125; stroke:none;" />
 <path d="  M 9,11  L 9,10  L 8,10  L 8,11  Z  " style="fill:rgb(143, 32, 239); fill-opacity:0.125; stroke:none;" />
 <path d="  M 8,49  L 9,49  L 9,48  L 8,48  Z  " style="fill:rgb(143, 32, 239); fill-opacity:0.125; stroke:none;" />
 <path d="  M 9,49  L 9,50  L 10,50  L 10,49  Z  " style="fill:rgb(143, 32, 239); fill-opacity:0.125; stroke:none;" />
 <path d="  M 10,9  L 10,10  L 11,10  L 11,9  Z  " style="fill:rgb(143, 32, 239); fill-opacity:0.125; stroke:none;" />
 <path d="  M 10,51  L 11,51  L 11,50  L 10,50  Z  " style="fill:rgb(143, 32, 239); fill-opacity:0.125; stroke:none;" />
 <path d="  M 12,51  L 12,52  L 13,52  L 13,51  Z  " style="fill:rgb(143, 32, 239); fill-opacity:0.125; stroke:none;" />
 <path d="  M 14,9  L 14,8  L 13,8  L 13,9  Z  " style="fill:rgb(143, 32, 239); fill-opacity:0.125; stroke:none;" />
 <path d="  M 14,52  L 13,52  L 13,53  L 14,53  Z  " style="fill:rgb(143, 32, 239); fill-opacity:0.125; stroke:none;" />
 <path d="  M 16,54  L 16,53  L 15,53  L 15,54  Z  " style="fill:rgb(143, 32, 239); fill-opacity:0.125; stroke:none;" />
 <path d="  M 17,8  L 17,7  L 16,7  L 16,8  Z  " style="fill:rgb(143, 32, 239); fill-opacity:0.125; stroke:none;" />
 <path d="  M 17,55  L 18,55  L 18,54  L 17,54  Z  " style="fill:rgb(143, 32, 239); fill-opacity:0.125; stroke:none;" />
 <path d="  M 20,6  L 19,6  L 19,7  L 20,7  Z  " style="fill:rgb(143, 32, 239); fill-opacity:0.125; stroke:none;" />
 <path d="  M 22,55  L 21,55  L 21,56  L 22,56  Z  " style="fill:rgb(143, 32, 239); fill-opacity:0.125; stroke:none;" />
 <path d="  M 26,5  L 26,4  L 25,4  L 25,5  Z  " style="fill:rgb(143, 32, 239); fill-opacity:0.125; stroke:none;" />
 <path d="  M 29,57  L 29,56  L 26,56  L 26,57  Z  " style="fill:rgb(143, 32, 239); fill-opacity:0.125; stroke:none;" />
 <path d="  M 39,58  L 39,57  L 37,57  L 37,58  Z  " style="fill:rgb(143, 32, 239); fill-opacity:0.125; stroke:none;" />
 <path d="  M 53,11  L 53,10  L 52,10  L 52,11  Z  " style="fill:rgb(143, 32, 239); fill-opacity:0.125; stroke:none;" />
 <path d="  M 53,55  L 53,54  L 52,54  L 52,55  Z  " style="fill:rgb(143, 32, 239); fill-opacity:0.125; stroke:none;" />
 <path d="  M 53,12  L 54,12  L 54,11  L 53,11  Z  " style="fill:rgb(143, 32, 239); fill-opacity:0.125; stroke:none;" />
 <path d="  M 58,15  L 57,15  L 57,16  L 58,16  Z  " style="fill:rgb(143, 32, 239); fill-opacity:0.125; stroke:none;" />
 <path d="  M 61,20  L 61,21  L 62,21  L 62,20  Z  " style="fill:rgb(143, 32, 239); fill-opacity:0.125; stroke:none;" />
 <path d="  M 1,16  L 1,17  L 2,17  L 2,16  Z  " style="fill:rgb(143, 36, 243); fill-opacity:0.251; stroke:none;" />
 <path d="  M 22,56  L 23,56  L 23,55  L 22,55  Z  " style="fill:rgb(143, 36, 243); fill-opacity:0.251; stroke:none;" />
 <path d="  M 31,57  L 31,56  L 29,56  L 29,57  Z  " style="fill:rgb(143, 36, 243); fill-opacity:0.251; stroke:none;" />
 <path d="  M 40,57  L 39,57  L 39,58  L 40,58  Z  " style="fill:rgb(143, 36, 243); fill-opacity:0.251; stroke:none;" />
 <path d="  M 45,7  L 45,6  L 44,6  L 44,7  Z  " style="fill:rgb(143, 36, 243); fill-opacity:0.251; stroke:none;" />
 <path d="  M 48,57  L 47,57  L 47,58  L 48,58  Z  " style="fill:rgb(143, 36, 243); fill-opacity:0.251; stroke:none;" />
 <path d="  M 57,15  L 57,14  L 56,14  L 56,15  Z  " style="fill:rgb(143, 36, 243); fill-opacity:0.251; stroke:none;" />
 <path d="  M 57,52  L 57,51  L 56,51  L 56,52  Z  " style="fill:rgb(143, 36, 243); fill-opacity:0.251; stroke:none;" />
 <path d="  M 58,50  L 59,50  L 59,49  L 58,49  Z  " style="fill:rgb(143, 36, 243); fill-opacity:0.251; stroke:none;" />
 <path d="  M 60,47  L 61,47  L 61,46  L 60,46  Z  " style="fill:rgb(143, 36, 243); fill-opacity:0.251; stroke:none;" />
 <path d="  M 64,23  L 63,23  L 63,24  L 64,24  Z  " style="fill:rgb(143, 36, 243); fill-opacity:0.251; stroke:none;" />
 <path d="  M 1,38  L 1,39  L 2,39  L 2,38  Z  " style="fill:rgb(146, 35, 242); fill-opacity:0.376; stroke:none;" />
 <path d="  M 5,43  L 4,43  L 4,44  L 5,44  Z  " style="fill:rgb(146, 35, 242); fill-opacity:0.376; stroke:none;" />
 <path d="  M 19,54  L 18,54  L 18,55  L 19,55  Z  " style="fill:rgb(146, 35, 242); fill-opacity:0.376; stroke:none;" />
 <path d="  M 27,5  L 27,4  L 26,4  L 26,5  Z  " style="fill:rgb(146, 35, 242); fill-opacity:0.376; stroke:none;" />
 <path d="  M 31,57  L 33,57  L 33,56  L 31,56  Z  " style="fill:rgb(146, 35, 242); fill-opacity:0.376; stroke:none;" />
 <path d="  M 37,4  L 37,5  L 38,5  L 38,4  Z  " style="fill:rgb(146, 35, 242); fill-opacity:0.376; stroke:none;" />
 <path d="  M 42,58  L 42,57  L 40,57  L 40,58  Z  " style="fill:rgb(146, 35, 242); fill-opacity:0.376; stroke:none;" />
 <path d="  M 42,6  L 42,5  L 41,5  L 41,6  Z  " style="fill:rgb(146, 35, 242); fill-opacity:0.376; stroke:none;" />
 <path d="  M 56,14  L 56,13  L 55,13  L 55,14  Z  " style="fill:rgb(146, 35, 242); fill-opacity:0.376; stroke:none;" />
 <path d="  M 57,50  L 57,51  L 58,51  L 58,50  Z  " style="fill:rgb(146, 35, 242); fill-opacity:0.376; stroke:none;" />
 <path d="  M 60,20  L 61,20  L 61,19  L 60,19  Z  " style="fill:rgb(146, 35, 242); fill-opacity:0.376; stroke:none;" />
 <path d="  M 5,43  L 5,42  L 4,42  L 4,43  Z  " style="fill:rgb(145, 35, 242); fill-opacity:0.875; stroke:none;" />
 <path d="  M 8,47  L 8,48  L 9,48  L 9,47  Z  " style="fill:rgb(145, 35, 242); fill-opacity:0.875; stroke:none;" />
 <path d="  M 10,48  L 9,48  L 9,49  L 10,49  Z  " style="fill:rgb(145, 35, 242); fill-opacity:0.875; stroke:none;" />
 <path d="  M 10,49  L 10,50  L 11,50  L 11,49  Z  " style="fill:rgb(145, 35, 242); fill-opacity:0.875; stroke:none;" />
 <path d="  M 13,52  L 14,52  L 14,51  L 13,51  Z  " style="fill:rgb(145, 35, 242); fill-opacity:0.875; stroke:none;" />
 <path d="  M 18,7  L 18,8  L 19,8  L 19,7  Z  " style="fill:rgb(145, 35, 242); fill-opacity:0.875; stroke:none;" />
 <path d="  M 36,56  L 36,57  L 37,57  L 37,56  Z  " style="fill:rgb(145, 35, 242); fill-opacity:0.875; stroke:none;" />
 <path d="  M 39,6  L 40,6  L 40,5  L 39,5  Z  " style="fill:rgb(145, 35, 242); fill-opacity:0.875; stroke:none;" />
 <path d="  M 43,7  L 43,6  L 42,6  L 42,7  Z  " style="fill:rgb(145, 35, 242); fill-opacity:0.875; stroke:none;" />
 <path d="  M 46,7  L 45,7  L 45,8  L 46,8  Z  " style="fill:rgb(145, 35, 242); fill-opacity:0.875; stroke:none;" />
 <path d="  M 47,58  L 47,57  L 46,57  L 46,58  Z  " style="fill:rgb(145, 35, 242); fill-opacity:0.875; stroke:none;" />
 <path d="  M 48,8  L 47,8  L 47,9  L 48,9  Z  " style="fill:rgb(145, 35, 242); fill-opacity:0.875; stroke:none;" />
 <path d="  M 49,10  L 50,10  L 50,9  L 49,9  Z  " style="fill:rgb(145, 35, 242); fill-opacity:0.875; stroke:none;" />
 <path d="  M 50,55  L 49,55  L 49,56  L 50,56  Z  " style="fill:rgb(145, 35, 242); fill-opacity:0.875; stroke:none;" />
 <path d="  M 52,10  L 51,10  L 51,11  L 52,11  Z  " style="fill:rgb(145, 35, 242); fill-opacity:0.875; stroke:none;" />
 <path d="  M 52,55  L 52,54  L 51,54  L 51,55  Z  " style="fill:rgb(145, 35, 242); fill-opacity:0.875; stroke:none;" />
 <path d="  M 52,12  L 53,12  L 53,11  L 52,11  Z  " style="fill:rgb(145, 35, 242); fill-opacity:0.875; stroke:none;" />
 <path d="  M 53,12  L 53,13  L 54,13  L 54,12  Z  " style="fill:rgb(145, 35, 242); fill-opacity:0.875; stroke:none;" />
 <path d="  M 54,13  L 54,14  L 55,14  L 55,13  Z  " style="fill:rgb(145, 35, 242); fill-opacity:0.875; stroke:none;" />
 <path d="  M 54,53  L 55,53  L 55,52  L 54,52  Z  " style="fill:rgb(145, 35, 242); fill-opacity:0.875; stroke:none;" />
 <path d="  M 55,15  L 56,15  L 56,14  L 55,14  Z  " style="fill:rgb(145, 35, 242); fill-opacity:0.875; stroke:none;" />
 <path d="  M 55,52  L 56,52  L 56,51  L 55,51  Z  " style="fill:rgb(145, 35, 242); fill-opacity:0.875; stroke:none;" />
 <path d="  M 57,15  L 56,15  L 56,16  L 57,16  Z  " style="fill:rgb(145, 35, 242); fill-opacity:0.875; stroke:none;" />
 <path d="  M 57,16  L 57,17  L 58,17  L 58,16  Z  " style="fill:rgb(145, 35, 242); fill-opacity:0.875; stroke:none;" />
 <path d="  M 60,20  L 60,21  L 61,21  L 61,20  Z  " style="fill:rgb(145, 35, 242); fill-opacity:0.875; stroke:none;" />
 <path d="  M 61,45  L 60,45  L 60,46  L 61,46  Z  " style="fill:rgb(145, 35, 242); fill-opacity:0.875; stroke:none;" />
 <path d="  M 62,22  L 62,21  L 61,21  L 61,22  Z  " style="fill:rgb(145, 35, 242); fill-opacity:0.875; stroke:none;" />
 <path d="  M 64,24  L 63,24  L 63,25  L 64,25  Z  " style="fill:rgb(145, 35, 242); fill-opacity:0.875; stroke:none;" />
 <path d="  M 16,8  L 15,8  L 15,9  L 16,9  Z  " style="fill:rgb(144, 35, 242); fill-opacity:0.624; stroke:none;" />
 <path d="  M 28,4  L 28,5  L 37,5  L 37,4  Z  " style="fill:rgb(144, 35, 242); fill-opacity:0.624; stroke:none;" />
 <path d="  M 35,56  L 34,56  L 34,57  L 35,57  Z  " style="fill:rgb(144, 35, 242); fill-opacity:0.624; stroke:none;" />
 <path d="  M 41,5  L 40,5  L 40,6  L 41,6  Z  " style="fill:rgb(144, 35, 242); fill-opacity:0.624; stroke:none;" />
 <path d="  M 44,6  L 43,6  L 43,7  L 44,7  Z  " style="fill:rgb(144, 35, 242); fill-opacity:0.624; stroke:none;" />
 <path d="  M 45,57  L 43,57  L 43,58  L 45,58  Z  " style="fill:rgb(144, 35, 242); fill-opacity:0.624; stroke:none;" />
 <path d="  M 48,57  L 49,57  L 49,56  L 48,56  Z  " style="fill:rgb(144, 35, 242); fill-opacity:0.624; stroke:none;" />
 <path d="  M 59,47  L 59,48  L 60,48  L 60,47  Z  " style="fill:rgb(144, 35, 242); fill-opacity:0.624; stroke:none;" />
 <path d="  M 63,23  L 63,22  L 62,22  L 62,23  Z  " style="fill:rgb(144, 35, 242); fill-opacity:0.624; stroke:none;" />
 <path d="  M 30,53  L 30,54  L 31,54  L 31,53  Z  " style="fill:rgb(159, 63, 245); fill-opacity:1.000; stroke:none;" />
 <path d="  M 34,23  L 34,22  L 32,22  L 32,23  Z  " style="fill:rgb(159, 63, 245); fill-opacity:1.000; stroke:none;" />
 <path d="  M 33,14  L 34,14  L 34,13  L 33,13  Z  " style="fill:rgb(159, 63, 245); fill-opacity:1.000; stroke:none;" />
 <path d="  M 35,7  L 34,7  L 34,8  L 35,8  Z  " style="fill:rgb(159, 63, 245); fill-opacity:1.000; stroke:none;" />
 <path d="  M 34,23  L 34,24  L 35,24  L 35,23  Z  " style="fill:rgb(159, 63, 245); fill-opacity:1.000; stroke:none;" />
 <path d="  M 35,15  L 36,15  L 36,14  L 35,14  Z  " style="fill:rgb(159, 63, 245); fill-opacity:1.000; stroke:none;" />
 <path d="  M 35,49  L 36,49  L 36,48  L 35,48  Z  " style="fill:rgb(159, 63, 245); fill-opacity:1.000; stroke:none;" />
 <path d="  M 37,20  L 37,21  L 38,21  L 38,20  Z  " style="fill:rgb(159, 63, 245); fill-opacity:1.000; stroke:none;" />
 <path d="  M 39,9  L 39,8  L 38,8  L 38,9  Z  " style="fill:rgb(159, 63, 245); fill-opacity:1.000; stroke:none;" />
 <path d="  M 38,15  L 38,16  L 39,16  L 39,15  Z  " style="fill:rgb(159, 63, 245); fill-opacity:1.000; stroke:none;" />
 <path d="  M 40,17  L 40,16  L 39,16  L 39,17  Z  " style="fill:rgb(159, 63, 245); fill-opacity:1.000; stroke:none;" />
 <path d="  M 40,45  L 40,44  L 39,44  L 39,45  Z  " style="fill:rgb(159, 63, 245); fill-opacity:1.000; stroke:none;" />
 <path d="  M 40,9  L 40,10  L 41,10  L 41,9  Z  " style="fill:rgb(159, 63, 245); fill-opacity:1.000; stroke:none;" />
 <path d="  M 40,17  L 40,18  L 41,18  L 41,17  Z  " style="fill:rgb(159, 63, 245); fill-opacity:1.000; stroke:none;" />
 <path d="  M 41,42  L 40,42  L 40,43  L 41,43  Z  " style="fill:rgb(159, 63, 245); fill-opacity:1.000; stroke:none;" />
 <path d="  M 41,15  L 42,15  L 42,14  L 41,14  Z  " style="fill:rgb(159, 63, 245); fill-opacity:1.000; stroke:none;" />
 <path d="  M 42,35  L 41,35  L 41,36  L 42,36  Z  " style="fill:rgb(159, 63, 245); fill-opacity:1.000; stroke:none;" />
 <path d="  M 41,40  L 41,41  L 42,41  L 42,40  Z  " style="fill:rgb(159, 63, 245); fill-opacity:1.000; stroke:none;" />
 <path d="  M 42,16  L 43,16  L 43,15  L 42,15  Z  " style="fill:rgb(159, 63, 245); fill-opacity:1.000; stroke:none;" />
 <path d="  M 43,19  L 42,19  L 42,20  L 43,20  Z  " style="fill:rgb(159, 63, 245); fill-opacity:1.000; stroke:none;" />
 <path d="  M 43,16  L 43,17  L 44,17  L 44,16  Z  " style="fill:rgb(159, 63, 245); fill-opacity:1.000; stroke:none;" />
 <path d="  M 43,20  L 43,21  L 44,21  L 44,20  Z  " style="fill:rgb(159, 63, 245); fill-opacity:1.000; stroke:none;" />
 <path d="  M 45,22  L 45,21  L 44,21  L 44,22  Z  " style="fill:rgb(159, 63, 245); fill-opacity:1.000; stroke:none;" />
 <path d="  M 47,26  L 47,25  L 46,25  L 46,26  Z  " style="fill:rgb(159, 63, 245); fill-opacity:1.000; stroke:none;" />
 <path d="  M 48,16  L 48,15  L 47,15  L 47,16  Z  " style="fill:rgb(159, 63, 245); fill-opacity:1.000; stroke:none;" />
 <path d="  M 47,28  L 47,29  L 48,29  L 48,28  Z  " style="fill:rgb(159, 63, 245); fill-opacity:1.000; stroke:none;" />
 <path d="  M 49,17  L 49,16  L 48,16  L 48,17  Z  " style="fill:rgb(159, 63, 245); fill-opacity:1.000; stroke:none;" />
 <path d="  M 50,20  L 51,20  L 51,19  L 50,19  Z  " style="fill:rgb(159, 63, 245); fill-opacity:1.000; stroke:none;" />
 <path d="  M 50,44  L 51,44  L 51,43  L 50,43  Z  " style="fill:rgb(159, 63, 245); fill-opacity:1.000; stroke:none;" />
 <path d="  M 51,36  L 52,36  L 52,35  L 51,35  Z  " style="fill:rgb(159, 63, 245); fill-opacity:1.000; stroke:none;" />
 <path d="  M 51,53  L 52,53  L 52,52  L 51,52  Z  " style="fill:rgb(159, 63, 245); fill-opacity:1.000; stroke:none;" />
 <path d="  M 53,23  L 53,22  L 52,22  L 52,23  Z  " style="fill:rgb(159, 63, 245); fill-opacity:1.000; stroke:none;" />
 <path d="  M 54,25  L 54,24  L 53,24  L 53,25  Z  " style="fill:rgb(159, 63, 245); fill-opacity:1.000; stroke:none;" />
 <path d="  M 54,27  L 54,28  L 55,28  L 55,27  Z  " style="fill:rgb(159, 63, 245); fill-opacity:1.000; stroke:none;" />
 <path d="  M 31,53  L 32,53  L 32,52  L 31,52  Z  " style="fill:rgb(173, 90, 246); fill-opacity:1.000; stroke:none;" />
 <path d="  M 33,23  L 32,23  L 32,24  L 33,24  Z  " style="fill:rgb(173, 90, 246); fill-opacity:1.000; stroke:none;" />
 <path d="  M 32,51  L 32,52  L 33,52  L 33,51  Z  " style="fill:rgb(173, 90, 246); fill-opacity:1.000; stroke:none;" />
 <path d="  M 33,7  L 33,8  L 34,8  L 34,7  Z  " style="fill:rgb(173, 90, 246); fill-opacity:1.000; stroke:none;" />
 <path d="  M 34,9  L 33,9  L 33,10  L 34,10  Z  " style="fill:rgb(173, 90, 246); fill-opacity:1.000; stroke:none;" />
 <path d="  M 34,50  L 33,50  L 33,51  L 34,51  Z  " style="fill:rgb(173, 90, 246); fill-opacity:1.000; stroke:none;" />
 <path d="  M 35,12  L 35,11  L 34,11  L 34,12  Z  " style="fill:rgb(173, 90, 246); fill-opacity:1.000; stroke:none;" />
 <path d="  M 35,15  L 35,14  L 34,14  L 34,15  Z  " style="fill:rgb(173, 90, 246); fill-opacity:1.000; stroke:none;" />
 <path d="  M 34,49  L 34,50  L 35,50  L 35,49  Z  " style="fill:rgb(173, 90, 246); fill-opacity:1.000; stroke:none;" />
 <path d="  M 35,24  L 35,25  L 36,25  L 36,24  Z  " style="fill:rgb(173, 90, 246); fill-opacity:1.000; stroke:none;" />
 <path d="  M 37,13  L 37,12  L 36,12  L 36,13  Z  " style="fill:rgb(173, 90, 246); fill-opacity:1.000; stroke:none;" />
 <path d="  M 37,8  L 37,9  L 38,9  L 38,8  Z  " style="fill:rgb(173, 90, 246); fill-opacity:1.000; stroke:none;" />
 <path d="  M 40,13  L 40,14  L 41,14  L 41,13  Z  " style="fill:rgb(173, 90, 246); fill-opacity:1.000; stroke:none;" />
 <path d="  M 42,35  L 42,31  L 41,31  L 41,35  Z  " style="fill:rgb(173, 90, 246); fill-opacity:1.000; stroke:none;" />
 <path d="  M 43,10  L 42,10  L 42,11  L 43,11  Z  " style="fill:rgb(173, 90, 246); fill-opacity:1.000; stroke:none;" />
 <path d="  M 44,17  L 44,18  L 45,18  L 45,17  Z  " style="fill:rgb(173, 90, 246); fill-opacity:1.000; stroke:none;" />
 <path d="  M 44,51  L 44,52  L 45,52  L 45,51  Z  " style="fill:rgb(173, 90, 246); fill-opacity:1.000; stroke:none;" />
 <path d="  M 46,50  L 45,50  L 45,51  L 46,51  Z  " style="fill:rgb(173, 90, 246); fill-opacity:1.000; stroke:none;" />
 <path d="  M 47,14  L 46,14  L 46,15  L 47,15  Z  " style="fill:rgb(173, 90, 246); fill-opacity:1.000; stroke:none;" />
 <path d="  M 46,50  L 47,50  L 47,49  L 46,49  Z  " style="fill:rgb(173, 90, 246); fill-opacity:1.000; stroke:none;" />
 <path d="  M 48,23  L 48,22  L 47,22  L 47,23  Z  " style="fill:rgb(173, 90, 246); fill-opacity:1.000; stroke:none;" />
 <path d="  M 47,49  L 48,49  L 48,48  L 47,48  Z  " style="fill:rgb(173, 90, 246); fill-opacity:1.000; stroke:none;" />
 <path d="  M 49,55  L 49,54  L 48,54  L 48,55  Z  " style="fill:rgb(173, 90, 246); fill-opacity:1.000; stroke:none;" />
 <path d="  M 50,18  L 49,18  L 49,19  L 50,19  Z  " style="fill:rgb(173, 90, 246); fill-opacity:1.000; stroke:none;" />
 <path d="  M 50,29  L 50,30  L 51,30  L 51,29  Z  " style="fill:rgb(173, 90, 246); fill-opacity:1.000; stroke:none;" />
 <path d="  M 51,21  L 51,22  L 52,22  L 52,21  Z  " style="fill:rgb(173, 90, 246); fill-opacity:1.000; stroke:none;" />
 <path d="  M 51,34  L 51,35  L 52,35  L 52,34  Z  " style="fill:rgb(173, 90, 246); fill-opacity:1.000; stroke:none;" />
 <path d="  M 51,36  L 51,37  L 52,37  L 52,36  Z  " style="fill:rgb(173, 90, 246); fill-opacity:1.000; stroke:none;" />
 <path d="  M 53,50  L 53,49  L 52,49  L 52,50  Z  " style="fill:rgb(173, 90, 246); fill-opacity:1.000; stroke:none;" />
 <path d="  M 54,47  L 54,46  L 53,46  L 53,47  Z  " style="fill:rgb(173, 90, 246); fill-opacity:1.000; stroke:none;" />
 <path d="  M 55,43  L 55,42  L 54,42  L 54,43  Z  " style="fill:rgb(173, 90, 246); fill-opacity:1.000; stroke:none;" />
 <path d="  M 31,53  L 31,54  L 33,54  L 33,53  Z  " style="fill:rgb(241, 227, 253); fill-opacity:1.000; stroke:none;" />
 <path d="  M 32,31  L 33,31  L 33,29  L 32,29  Z  " style="fill:rgb(241, 227, 253); fill-opacity:1.000; stroke:none;" />
 <path d="  M 34,8  L 33,8  L 33,9  L 34,9  Z  " style="fill:rgb(241, 227, 253); fill-opacity:1.000; stroke:none;" />
 <path d="  M 34,16  L 34,15  L 33,15  L 33,16  Z  " style="fill:rgb(241, 227, 253); fill-opacity:1.000; stroke:none;" />
 <path d="  M 34,23  L 33,23  L 33,24  L 34,24  Z  " style="fill:rgb(241, 227, 253); fill-opacity:1.000; stroke:none;" />
 <path d="  M 35,10  L 34,10  L 34,11  L 35,11  Z  " style="fill:rgb(241, 227, 253); fill-opacity:1.000; stroke:none;" />
 <path d="  M 35,17  L 35,16  L 34,16  L 34,17  Z  " style="fill:rgb(241, 227, 253); fill-opacity:1.000; stroke:none;" />
 <path d="  M 35,12  L 36,12  L 36,11  L 35,11  Z  " style="fill:rgb(241, 227, 253); fill-opacity:1.000; stroke:none;" />
 <path d="  M 36,17  L 35,17  L 35,18  L 36,18  Z  " style="fill:rgb(241, 227, 253); fill-opacity:1.000; stroke:none;" />
 <path d="  M 36,15  L 36,16  L 37,16  L 37,15  Z  " style="fill:rgb(241, 227, 253); fill-opacity:1.000; stroke:none;" />
 <path d="  M 38,20  L 38,19  L 37,19  L 37,20  Z  " style="fill:rgb(241, 227, 253); fill-opacity:1.000; stroke:none;" />
 <path d="  M 38,16  L 38,17  L 39,17  L 39,16  Z  " style="fill:rgb(241, 227, 253); fill-opacity:1.000; stroke:none;" />
 <path d="  M 39,21  L 39,20  L 38,20  L 38,21  Z  " style="fill:rgb(241, 227, 253); fill-opacity:1.000; stroke:none;" />
 <path d="  M 40,12  L 39,12  L 39,13  L 40,13  Z  " style="fill:rgb(241, 227, 253); fill-opacity:1.000; stroke:none;" />
 <path d="  M 40,22  L 40,21  L 39,21  L 39,22  Z  " style="fill:rgb(241, 227, 253); fill-opacity:1.000; stroke:none;" />
 <path d="  M 41,23  L 40,23  L 40,24  L 41,24  Z  " style="fill:rgb(241, 227, 253); fill-opacity:1.000; stroke:none;" />
 <path d="  M 41,53  L 41,52  L 40,52  L 40,53  Z  " style="fill:rgb(241, 227, 253); fill-opacity:1.000; stroke:none;" />
 <path d="  M 41,13  L 41,14  L 42,14  L 42,13  Z  " style="fill:rgb(241, 227, 253); fill-opacity:1.000; stroke:none;" />
 <path d="  M 42,27  L 42,26  L 41,26  L 41,27  Z  " style="fill:rgb(241, 227, 253); fill-opacity:1.000; stroke:none;" />
 <path d="  M 42,52  L 42,51  L 41,51  L 41,52  Z  " style="fill:rgb(241, 227, 253); fill-opacity:1.000; stroke:none;" />
 <path d="  M 42,14  L 42,15  L 43,15  L 43,14  Z  " style="fill:rgb(241, 227, 253); fill-opacity:1.000; stroke:none;" />
 <path d="  M 42,20  L 42,21  L 43,21  L 43,20  Z  " style="fill:rgb(241, 227, 253); fill-opacity:1.000; stroke:none;" />
 <path d="  M 43,39  L 43,38  L 42,38  L 42,39  Z  " style="fill:rgb(241, 227, 253); fill-opacity:1.000; stroke:none;" />
 <path d="  M 42,51  L 43,51  L 43,50  L 42,50  Z  " style="fill:rgb(241, 227, 253); fill-opacity:1.000; stroke:none;" />
 <path d="  M 42,54  L 42,55  L 43,55  L 43,54  Z  " style="fill:rgb(241, 227, 253); fill-opacity:1.000; stroke:none;" />
 <path d="  M 43,16  L 44,16  L 44,15  L 43,15  Z  " style="fill:rgb(241, 227, 253); fill-opacity:1.000; stroke:none;" />
 <path d="  M 45,16  L 44,16  L 44,17  L 45,17  Z  " style="fill:rgb(241, 227, 253); fill-opacity:1.000; stroke:none;" />
 <path d="  M 46,18  L 46,17  L 45,17  L 45,18  Z  " style="fill:rgb(241, 227, 253); fill-opacity:1.000; stroke:none;" />
 <path d="  M 45,46  L 45,47  L 46,47  L 46,46  Z  " style="fill:rgb(241, 227, 253); fill-opacity:1.000; stroke:none;" />
 <path d="  M 46,20  L 47,20  L 47,19  L 46,19  Z  " style="fill:rgb(241, 227, 253); fill-opacity:1.000; stroke:none;" />
 <path d="  M 47,17  L 48,17  L 48,16  L 47,16  Z  " style="fill:rgb(241, 227, 253); fill-opacity:1.000; stroke:none;" />
 <path d="  M 47,21  L 47,22  L 48,22  L 48,21  Z  " style="fill:rgb(241, 227, 253); fill-opacity:1.000; stroke:none;" />
 <path d="  M 48,43  L 48,42  L 47,42  L 47,43  Z  " style="fill:rgb(241, 227, 253); fill-opacity:1.000; stroke:none;" />
 <path d="  M 49,23  L 48,23  L 48,24  L 49,24  Z  " style="fill:rgb(241, 227, 253); fill-opacity:1.000; stroke:none;" />
 <path d="  M 50,25  L 49,25  L 49,26  L 50,26  Z  " style="fill:rgb(241, 227, 253); fill-opacity:1.000; stroke:none;" />
 <path d="  M 51,28  L 51,27  L 50,27  L 50,28  Z  " style="fill:rgb(241, 227, 253); fill-opacity:1.000; stroke:none;" />
 <path d="  M 51,45  L 51,44  L 50,44  L 50,45  Z  " style="fill:rgb(241, 227, 253); fill-opacity:1.000; stroke:none;" />
 <path d="  M 50,53  L 51,53  L 51,52  L 50,52  Z  " style="fill:rgb(241, 227, 253); fill-opacity:1.000; stroke:none;" />
 <path d="  M 52,22  L 51,22  L 51,23  L 52,23  Z  " style="fill:rgb(241, 227, 253); fill-opacity:1.000; stroke:none;" />
 <path d="  M 52,32  L 52,30  L 51,30  L 51,32  Z  " style="fill:rgb(241, 227, 253); fill-opacity:1.000; stroke:none;" />
 <path d="  M 51,51  L 52,51  L 52,50  L 51,50  Z  " style="fill:rgb(241, 227, 253); fill-opacity:1.000; stroke:none;" />
 <path d="  M 52,48  L 53,48  L 53,47  L 52,47  Z  " style="fill:rgb(241, 227, 253); fill-opacity:1.000; stroke:none;" />
 <path d="  M 54,45  L 54,44  L 53,44  L 53,45  Z  " style="fill:rgb(241, 227, 253); fill-opacity:1.000; stroke:none;" />
 <path d="  M 55,39  L 54,39  L 54,40  L 55,40  Z  " style="fill:rgb(241, 227, 253); fill-opacity:1.000; stroke:none;" />
 <path d="  M 33,26  L 33,24  L 32,24  L 32,26  Z  " style="fill:rgb(200, 145, 249); fill-opacity:1.000; stroke:none;" />
 <path d="  M 33,14  L 33,15  L 34,15  L 34,14  Z  " style="fill:rgb(200, 145, 249); fill-opacity:1.000; stroke:none;" />
 <path d="  M 36,8  L 36,9  L 37,9  L 37,8  Z  " style="fill:rgb(200, 145, 249); fill-opacity:1.000; stroke:none;" />
 <path d="  M 37,12  L 37,13  L 38,13  L 38,12  Z  " style="fill:rgb(200, 145, 249); fill-opacity:1.000; stroke:none;" />
 <path d="  M 39,47  L 39,46  L 38,46  L 38,47  Z  " style="fill:rgb(200, 145, 249); fill-opacity:1.000; stroke:none;" />
 <path d="  M 38,53  L 38,54  L 39,54  L 39,53  Z  " style="fill:rgb(200, 145, 249); fill-opacity:1.000; stroke:none;" />
 <path d="  M 40,22  L 39,22  L 39,23  L 40,23  Z  " style="fill:rgb(200, 145, 249); fill-opacity:1.000; stroke:none;" />
 <path d="  M 40,46  L 40,45  L 39,45  L 39,46  Z  " style="fill:rgb(200, 145, 249); fill-opacity:1.000; stroke:none;" />
 <path d="  M 40,43  L 40,44  L 41,44  L 41,43  Z  " style="fill:rgb(200, 145, 249); fill-opacity:1.000; stroke:none;" />
 <path d="  M 44,11  L 43,11  L 43,12  L 44,12  Z  " style="fill:rgb(200, 145, 249); fill-opacity:1.000; stroke:none;" />
 <path d="  M 44,52  L 43,52  L 43,53  L 44,53  Z  " style="fill:rgb(200, 145, 249); fill-opacity:1.000; stroke:none;" />
 <path d="  M 44,13  L 45,13  L 45,12  L 44,12  Z  " style="fill:rgb(200, 145, 249); fill-opacity:1.000; stroke:none;" />
 <path d="  M 45,22  L 44,22  L 44,23  L 45,23  Z  " style="fill:rgb(200, 145, 249); fill-opacity:1.000; stroke:none;" />
 <path d="  M 46,14  L 46,13  L 45,13  L 45,14  Z  " style="fill:rgb(200, 145, 249); fill-opacity:1.000; stroke:none;" />
 <path d="  M 45,18  L 45,19  L 46,19  L 46,18  Z  " style="fill:rgb(200, 145, 249); fill-opacity:1.000; stroke:none;" />
 <path d="  M 46,48  L 46,47  L 45,47  L 45,48  Z  " style="fill:rgb(200, 145, 249); fill-opacity:1.000; stroke:none;" />
 <path d="  M 46,20  L 46,21  L 47,21  L 47,20  Z  " style="fill:rgb(200, 145, 249); fill-opacity:1.000; stroke:none;" />
 <path d="  M 46,45  L 46,46  L 47,46  L 47,45  Z  " style="fill:rgb(200, 145, 249); fill-opacity:1.000; stroke:none;" />
 <path d="  M 47,43  L 47,44  L 48,44  L 48,43  Z  " style="fill:rgb(200, 145, 249); fill-opacity:1.000; stroke:none;" />
 <path d="  M 49,18  L 49,17  L 48,17  L 48,18  Z  " style="fill:rgb(200, 145, 249); fill-opacity:1.000; stroke:none;" />
 <path d="  M 49,48  L 49,47  L 48,47  L 48,48  Z  " style="fill:rgb(200, 145, 249); fill-opacity:1.000; stroke:none;" />
 <path d="  M 50,27  L 50,26  L 49,26  L 49,27  Z  " style="fill:rgb(200, 145, 249); fill-opacity:1.000; stroke:none;" />
 <path d="  M 50,46  L 50,45  L 49,45  L 49,46  Z  " style="fill:rgb(200, 145, 249); fill-opacity:1.000; stroke:none;" />
 <path d="  M 50,54  L 50,53  L 49,53  L 49,54  Z  " style="fill:rgb(200, 145, 249); fill-opacity:1.000; stroke:none;" />
 <path d="  M 51,20  L 50,20  L 50,21  L 51,21  Z  " style="fill:rgb(200, 145, 249); fill-opacity:1.000; stroke:none;" />
 <path d="  M 51,29  L 51,28  L 50,28  L 50,29  Z  " style="fill:rgb(200, 145, 249); fill-opacity:1.000; stroke:none;" />
 <path d="  M 52,38  L 51,38  L 51,40  L 52,40  Z  " style="fill:rgb(200, 145, 249); fill-opacity:1.000; stroke:none;" />
 <path d="  M 52,51  L 51,51  L 51,52  L 52,52  Z  " style="fill:rgb(200, 145, 249); fill-opacity:1.000; stroke:none;" />
 <path d="  M 52,24  L 53,24  L 53,23  L 52,23  Z  " style="fill:rgb(200, 145, 249); fill-opacity:1.000; stroke:none;" />
 <path d="  M 52,48  L 52,49  L 53,49  L 53,48  Z  " style="fill:rgb(200, 145, 249); fill-opacity:1.000; stroke:none;" />
 <path d="  M 54,25  L 53,25  L 53,26  L 54,26  Z  " style="fill:rgb(200, 145, 249); fill-opacity:1.000; stroke:none;" />
 <path d="  M 54,45  L 53,45  L 53,46  L 54,46  Z  " style="fill:rgb(200, 145, 249); fill-opacity:1.000; stroke:none;" />
 <path d="  M 54,42  L 55,42  L 55,41  L 54,41  Z  " style="fill:rgb(200, 145, 249); fill-opacity:1.000; stroke:none;" />
 <path d="  M 33,26  L 32,26  L 32,27  L 33,27  Z  " style="fill:rgb(227, 200, 252); fill-opacity:1.000; stroke:none;" />
 <path d="  M 32,31  L 32,32  L 33,32  L 33,31  Z  " style="fill:rgb(227, 200, 252); fill-opacity:1.000; stroke:none;" />
 <path d="  M 36,8  L 35,8  L 35,9  L 36,9  Z  " style="fill:rgb(227, 200, 252); fill-opacity:1.000; stroke:none;" />
 <path d="  M 35,29  L 35,30  L 36,30  L 36,29  Z  " style="fill:rgb(227, 200, 252); fill-opacity:1.000; stroke:none;" />
 <path d="  M 37,48  L 36,48  L 36,49  L 37,49  Z  " style="fill:rgb(227, 200, 252); fill-opacity:1.000; stroke:none;" />
 <path d="  M 37,15  L 37,16  L 38,16  L 38,15  Z  " style="fill:rgb(227, 200, 252); fill-opacity:1.000; stroke:none;" />
 <path d="  M 38,47  L 37,47  L 37,48  L 38,48  Z  " style="fill:rgb(227, 200, 252); fill-opacity:1.000; stroke:none;" />
 <path d="  M 39,13  L 39,12  L 38,12  L 38,13  Z  " style="fill:rgb(227, 200, 252); fill-opacity:1.000; stroke:none;" />
 <path d="  M 41,10  L 41,11  L 42,11  L 42,10  Z  " style="fill:rgb(227, 200, 252); fill-opacity:1.000; stroke:none;" />
 <path d="  M 42,28  L 42,27  L 41,27  L 41,28  Z  " style="fill:rgb(227, 200, 252); fill-opacity:1.000; stroke:none;" />
 <path d="  M 42,55  L 42,54  L 41,54  L 41,55  Z  " style="fill:rgb(227, 200, 252); fill-opacity:1.000; stroke:none;" />
 <path d="  M 42,54  L 43,54  L 43,53  L 42,53  Z  " style="fill:rgb(227, 200, 252); fill-opacity:1.000; stroke:none;" />
 <path d="  M 43,50  L 44,50  L 44,49  L 43,49  Z  " style="fill:rgb(227, 200, 252); fill-opacity:1.000; stroke:none;" />
 <path d="  M 45,49  L 45,48  L 44,48  L 44,49  Z  " style="fill:rgb(227, 200, 252); fill-opacity:1.000; stroke:none;" />
 <path d="  M 48,33  L 48,32  L 47,32  L 47,33  Z  " style="fill:rgb(227, 200, 252); fill-opacity:1.000; stroke:none;" />
 <path d="  M 48,54  L 47,54  L 47,55  L 48,55  Z  " style="fill:rgb(227, 200, 252); fill-opacity:1.000; stroke:none;" />
 <path d="  M 51,41  L 51,42  L 52,42  L 52,41  Z  " style="fill:rgb(227, 200, 252); fill-opacity:1.000; stroke:none;" />
 <path d="  M 53,27  L 54,27  L 54,26  L 53,26  Z  " style="fill:rgb(227, 200, 252); fill-opacity:1.000; stroke:none;" />
 <path d="  M 36,25  L 35,25  L 35,24  L 33,24  L 33,27  L 32,27  L 32,29  L 33,29  L 33,31  L 35,31  L 35,29  L 36,29  Z  " style="fill:rgb(255, 255, 255); fill-opacity:1.000; stroke:none;" />
 <path d="  M 36,16  L 36,15  L 34,15  L 34,16  L 35,16  L 35,17  L 36,17  L 36,18  L 37,18  L 37,19  L 38,19  L 38,20  L 39,20  L 39,21  L 40,21  L 40,23  L 41,23  L 41,26  L 42,26  L 42,38  L 43,38  L 43,39  L 42,39  L 42,42  L 41,42  L 41,44  L 40,44  L 40,46  L 39,46  L 39,47  L 38,47  L 38,48  L 37,48  L 37,49  L 35,49  L 35,50  L 34,50  L 34,51  L 33,51  L 33,52  L 32,52  L 32,53  L 33,53  L 33,54  L 37,54  L 37,53  L 40,53  L 40,52  L 41,52  L 41,51  L 42,51  L 42,50  L 43,50  L 43,49  L 44,49  L 44,48  L 45,48  L 45,46  L 46,46  L 46,45  L 47,45  L 47,42  L 48,42  L 48,33  L 47,33  L 47,28  L 46,28  L 46,25  L 45,25  L 45,23  L 44,23  L 44,22  L 43,22  L 43,21  L 42,21  L 42,19  L 41,19  L 41,18  L 40,18  L 40,17  L 38,17  L 38,16  Z  " style="fill:rgb(255, 255, 255); fill-opacity:1.000; stroke:none;" />
 <path d="  M 52,42  L 51,42  L 51,45  L 50,45  L 50,46  L 49,46  L 49,48  L 48,48  L 48,49  L 47,49  L 47,50  L 46,50  L 46,51  L 45,51  L 45,52  L 44,52  L 44,53  L 43,53  L 43,55  L 47,55  L 47,54  L 49,54  L 49,53  L 50,53  L 50,52  L 51,52  L 51,50  L 52,50  L 52,47  L 53,47  L 53,44  L 54,44  L 54,39  L 55,39  L 55,29  L 54,29  L 54,27  L 53,27  L 53,24  L 52,24  L 52,23  L 51,23  L 51,21  L 50,21  L 50,19  L 49,19  L 49,18  L 48,18  L 48,17  L 47,17  L 47,15  L 46,15  L 46,14  L 45,14  L 45,13  L 44,13  L 44,12  L 43,12  L 43,11  L 41,11  L 41,10  L 39,10  L 39,9  L 35,9  L 35,8  L 34,8  L 34,10  L 35,10  L 35,11  L 36,11  L 36,12  L 40,12  L 40,13  L 42,13  L 42,14  L 43,14  L 43,15  L 44,15  L 44,16  L 45,16  L 45,17  L 46,17  L 46,19  L 47,19  L 47,21  L 48,21  L 48,23  L 49,23  L 49,25  L 50,25  L 50,27  L 51,27  L 51,30  L 52,30  Z  " style="fill:rgb(255, 255, 255); fill-opacity:1.000; stroke:none;" />
 <path d="  M 33,32  L 34,32  L 34,31  L 33,31  Z  " style="fill:rgb(186, 118, 248); fill-opacity:1.000; stroke:none;" />
 <path d="  M 36,31  L 36,30  L 35,30  L 35,31  Z  " style="fill:rgb(186, 118, 248); fill-opacity:1.000; stroke:none;" />
 <path d="  M 38,21  L 38,22  L 39,22  L 39,21  Z  " style="fill:rgb(186, 118, 248); fill-opacity:1.000; stroke:none;" />
 <path d="  M 39,54  L 40,54  L 40,53  L 39,53  Z  " style="fill:rgb(186, 118, 248); fill-opacity:1.000; stroke:none;" />
 <path d="  M 41,26  L 41,25  L 40,25  L 40,26  Z  " style="fill:rgb(186, 118, 248); fill-opacity:1.000; stroke:none;" />
 <path d="  M 42,18  L 41,18  L 41,19  L 42,19  Z  " style="fill:rgb(186, 118, 248); fill-opacity:1.000; stroke:none;" />
 <path d="  M 42,28  L 41,28  L 41,31  L 42,31  Z  " style="fill:rgb(186, 118, 248); fill-opacity:1.000; stroke:none;" />
 <path d="  M 45,23  L 45,24  L 46,24  L 46,23  Z  " style="fill:rgb(186, 118, 248); fill-opacity:1.000; stroke:none;" />
 <path d="  M 47,26  L 46,26  L 46,27  L 47,27  Z  " style="fill:rgb(186, 118, 248); fill-opacity:1.000; stroke:none;" />
 <path d="  M 47,31  L 48,31  L 48,29  L 47,29  Z  " style="fill:rgb(186, 118, 248); fill-opacity:1.000; stroke:none;" />
 <path d="  M 48,25  L 49,25  L 49,24  L 48,24  Z  " style="fill:rgb(186, 118, 248); fill-opacity:1.000; stroke:none;" />
 <path d="  M 52,34  L 52,33  L 51,33  L 51,34  Z  " style="fill:rgb(186, 118, 248); fill-opacity:1.000; stroke:none;" />
 <path d="  M 52,37  L 51,37  L 51,38  L 52,38  Z  " style="fill:rgb(186, 118, 248); fill-opacity:1.000; stroke:none;" />
 <path d="  M 37,18  L 36,18  L 36,19  L 37,19  Z  " style="fill:rgb(214, 172, 250); fill-opacity:1.000; stroke:none;" />
 <path d="  M 38,54  L 38,53  L 37,53  L 37,54  Z  " style="fill:rgb(214, 172, 250); fill-opacity:1.000; stroke:none;" />
 <path d="  M 39,9  L 39,10  L 40,10  L 40,9  Z  " style="fill:rgb(214, 172, 250); fill-opacity:1.000; stroke:none;" />
 <path d="  M 40,24  L 40,25  L 41,25  L 41,24  Z  " style="fill:rgb(214, 172, 250); fill-opacity:1.000; stroke:none;" />
 <path d="  M 42,41  L 41,41  L 41,42  L 42,42  Z  " style="fill:rgb(214, 172, 250); fill-opacity:1.000; stroke:none;" />
 <path d="  M 44,21  L 43,21  L 43,22  L 44,22  Z  " style="fill:rgb(214, 172, 250); fill-opacity:1.000; stroke:none;" />
 <path d="  M 46,24  L 45,24  L 45,25  L 46,25  Z  " style="fill:rgb(214, 172, 250); fill-opacity:1.000; stroke:none;" />
 <path d="  M 46,28  L 47,28  L 47,27  L 46,27  Z  " style="fill:rgb(214, 172, 250); fill-opacity:1.000; stroke:none;" />
 <path d="  M 47,31  L 47,32  L 48,32  L 48,31  Z  " style="fill:rgb(214, 172, 250); fill-opacity:1.000; stroke:none;" />
 <path d="  M 52,32  L 51,32  L 51,33  L 52,33  Z  " style="fill:rgb(214, 172, 250); fill-opacity:1.000; stroke:none;" />
 <path d="  M 52,41  L 52,40  L 51,40  L 51,41  Z  " style="fill:rgb(214, 172, 250); fill-opacity:1.000; stroke:none;" />
 <path d="  M 55,29  L 55,28  L 54,28  L 54,29  Z  " style="fill:rgb(214, 172, 250); fill-opacity:1.000; stroke:none;" />
 <path d="  M 54,41  L 55,41  L 55,40  L 54,40  Z  " style="fill:rgb(214, 172, 250); fill-opacity:1.000; stroke:none;" />
</svg>
