<?xml version="1.0" encoding="UTF-8" standalone="no"?>
<!DOCTYPE svg PUBLIC "-//W3C//DTD SVG 1.1//EN" 
  "http://www.w3.org/Graphics/SVG/1.1/DTD/svg11.dtd">
<svg width="64" height="64"
	 xmlns="http://www.w3.org/2000/svg" version="1.1">
 <path d="  M 0,0  L 0,64  L 64,64  L 64,0  Z  M 42,15  L 42,16  L 43,16  L 43,17  L 44,17  L 44,18  L 45,18  L 45,20  L 46,20  L 46,22  L 47,22  L 47,30  L 46,30  L 46,33  L 45,33  L 45,36  L 44,36  L 44,39  L 43,39  L 43,41  L 42,41  L 42,42  L 41,42  L 41,43  L 33,43  L 33,42  L 22,42  L 22,41  L 20,41  L 20,40  L 18,40  L 18,39  L 17,39  L 17,38  L 15,38  L 15,37  L 14,37  L 14,36  L 13,36  L 13,35  L 12,35  L 12,34  L 11,34  L 11,32  L 10,32  L 10,31  L 9,31  L 9,28  L 8,28  L 8,23  L 9,23  L 9,21  L 10,21  L 10,19  L 11,19  L 11,18  L 12,18  L 12,17  L 13,17  L 13,16  L 14,16  L 14,15  L 17,15  L 17,14  L 20,14  L 20,13  L 26,13  L 26,12  L 36,12  L 36,13  L 37,13  L 37,14  L 40,14  L 40,15  Z  " style="fill:rgb(255, 255, 255); fill-opacity:1.000; stroke:none;" />
 <path d="  M 9,24  L 9,23  L 8,23  L 8,24  Z  " style="fill:rgb(215, 246, 255); fill-opacity:1.000; stroke:none;" />
 <path d="  M 8,27  L 8,28  L 9,28  L 9,27  Z  " style="fill:rgb(215, 246, 255); fill-opacity:1.000; stroke:none;" />
 <path d="  M 23,41  L 22,41  L 22,42  L 23,42  Z  " style="fill:rgb(215, 246, 255); fill-opacity:1.000; stroke:none;" />
 <path d="  M 36,12  L 35,12  L 35,13  L 36,13  Z  " style="fill:rgb(215, 246, 255); fill-opacity:1.000; stroke:none;" />
 <path d="  M 42,41  L 43,41  L 43,40  L 42,40  Z  " style="fill:rgb(215, 246, 255); fill-opacity:1.000; stroke:none;" />
 <path d="  M 8,24  L 8,25  L 9,25  L 9,24  Z  " style="fill:rgb(162, 234, 255); fill-opacity:1.000; stroke:none;" />
 <path d="  M 8,27  L 9,27  L 9,26  L 8,26  Z  " style="fill:rgb(162, 234, 255); fill-opacity:1.000; stroke:none;" />
 <path d="  M 12,18  L 11,18  L 11,19  L 12,19  Z  " style="fill:rgb(162, 234, 255); fill-opacity:1.000; stroke:none;" />
 <path d="  M 13,34  L 12,34  L 12,35  L 13,35  Z  " style="fill:rgb(162, 234, 255); fill-opacity:1.000; stroke:none;" />
 <path d="  M 15,37  L 15,36  L 14,36  L 14,37  Z  " style="fill:rgb(162, 234, 255); fill-opacity:1.000; stroke:none;" />
 <path d="  M 17,38  L 17,39  L 18,39  L 18,38  Z  " style="fill:rgb(162, 234, 255); fill-opacity:1.000; stroke:none;" />
 <path d="  M 46,31  L 45,31  L 45,32  L 46,32  Z  " style="fill:rgb(162, 234, 255); fill-opacity:1.000; stroke:none;" />
 <path d="  M 8,25  L 8,26  L 9,26  L 9,25  Z  " style="fill:rgb(149, 231, 255); fill-opacity:1.000; stroke:none;" />
 <path d="  M 10,30  L 10,29  L 9,29  L 9,30  Z  " style="fill:rgb(149, 231, 255); fill-opacity:1.000; stroke:none;" />
 <path d="  M 14,16  L 13,16  L 13,17  L 14,17  Z  " style="fill:rgb(149, 231, 255); fill-opacity:1.000; stroke:none;" />
 <path d="  M 23,13  L 22,13  L 22,14  L 23,14  Z  " style="fill:rgb(149, 231, 255); fill-opacity:1.000; stroke:none;" />
 <path d="  M 30,12  L 29,12  L 29,13  L 30,13  Z  " style="fill:rgb(149, 231, 255); fill-opacity:1.000; stroke:none;" />
 <path d="  M 35,42  L 35,43  L 37,43  L 37,42  Z  " style="fill:rgb(149, 231, 255); fill-opacity:1.000; stroke:none;" />
 <path d="  M 40,42  L 39,42  L 39,43  L 40,43  Z  " style="fill:rgb(149, 231, 255); fill-opacity:1.000; stroke:none;" />
 <path d="  M 10,21  L 9,21  L 9,22  L 10,22  Z  " style="fill:rgb(188, 240, 255); fill-opacity:1.000; stroke:none;" />
 <path d="  M 10,31  L 10,32  L 11,32  L 11,31  Z  " style="fill:rgb(188, 240, 255); fill-opacity:1.000; stroke:none;" />
 <path d="  M 18,39  L 18,40  L 19,40  L 19,39  Z  " style="fill:rgb(188, 240, 255); fill-opacity:1.000; stroke:none;" />
 <path d="  M 47,22  L 46,22  L 46,23  L 47,23  Z  " style="fill:rgb(188, 240, 255); fill-opacity:1.000; stroke:none;" />
 <path d="  M 9,23  L 10,23  L 10,22  L 9,22  Z  " style="fill:rgb(70, 213, 255); fill-opacity:1.000; stroke:none;" />
 <path d="  M 17,15  L 16,15  L 16,16  L 17,16  Z  " style="fill:rgb(70, 213, 255); fill-opacity:1.000; stroke:none;" />
 <path d="  M 19,15  L 20,15  L 20,14  L 19,14  Z  " style="fill:rgb(70, 213, 255); fill-opacity:1.000; stroke:none;" />
 <path d="  M 45,22  L 46,22  L 46,21  L 45,21  Z  " style="fill:rgb(70, 213, 255); fill-opacity:1.000; stroke:none;" />
 <path d="  M 46,25  L 47,25  L 47,24  L 46,24  Z  " style="fill:rgb(70, 213, 255); fill-opacity:1.000; stroke:none;" />
 <path d="  M 34,25  L 35,25  L 35,32  L 33,32  L 33,33  L 27,33  L 27,25  L 28,25  L 28,23  L 29,23  L 29,20  L 30,20  L 30,19  L 32,19  L 32,21  L 31,21  L 31,23  L 30,23  L 30,24  L 34,24  Z  M 42,39  L 43,39  L 43,36  L 44,36  L 44,33  L 45,33  L 45,30  L 46,30  L 46,27  L 47,27  L 47,25  L 46,25  L 46,22  L 45,22  L 45,20  L 44,20  L 44,19  L 43,19  L 43,18  L 42,18  L 42,17  L 41,17  L 41,16  L 40,16  L 40,15  L 37,15  L 37,14  L 35,14  L 35,13  L 34,13  L 34,12  L 33,12  L 33,13  L 25,13  L 25,14  L 20,14  L 20,15  L 17,15  L 17,16  L 14,16  L 14,17  L 13,17  L 13,18  L 12,18  L 12,20  L 11,20  L 11,21  L 10,21  L 10,23  L 9,23  L 9,28  L 10,28  L 10,30  L 11,30  L 11,32  L 12,32  L 12,33  L 13,33  L 13,35  L 14,35  L 14,36  L 15,36  L 15,37  L 17,37  L 17,38  L 18,38  L 18,39  L 20,39  L 20,40  L 22,40  L 22,41  L 31,41  L 31,42  L 40,42  L 40,41  L 42,41  Z  M 22,38  L 21,38  L 21,39  L 20,39  L 20,38  L 19,38  L 19,34  L 20,34  L 20,30  L 14,30  L 14,28  L 13,28  L 13,24  L 22,24  Z  " style="fill:rgb(43, 207, 255); fill-opacity:1.000; stroke:none;" />
 <path d="  M 18,28  L 18,27  L 19,27  L 19,25  L 16,25  L 16,28  Z  " style="fill:rgb(43, 207, 255); fill-opacity:1.000; stroke:none;" />
 <path d="  M 32,27  L 31,27  L 31,28  L 29,28  L 29,31  L 30,31  L 30,30  L 33,30  L 33,29  L 34,29  L 34,28  L 32,28  Z  " style="fill:rgb(43, 207, 255); fill-opacity:1.000; stroke:none;" />
 <path d="  M 9,29  L 10,29  L 10,28  L 9,28  Z  " style="fill:rgb(69, 213, 255); fill-opacity:1.000; stroke:none;" />
 <path d="  M 10,31  L 11,31  L 11,30  L 10,30  Z  " style="fill:rgb(69, 213, 255); fill-opacity:1.000; stroke:none;" />
 <path d="  M 20,40  L 20,39  L 19,39  L 19,40  Z  " style="fill:rgb(69, 213, 255); fill-opacity:1.000; stroke:none;" />
 <path d="  M 22,41  L 22,40  L 21,40  L 21,41  Z  " style="fill:rgb(69, 213, 255); fill-opacity:1.000; stroke:none;" />
 <path d="  M 46,31  L 46,30  L 45,30  L 45,31  Z  " style="fill:rgb(69, 213, 255); fill-opacity:1.000; stroke:none;" />
 <path d="  M 10,30  L 9,30  L 9,31  L 10,31  Z  " style="fill:rgb(242, 252, 255); fill-opacity:1.000; stroke:none;" />
 <path d="  M 21,13  L 20,13  L 20,14  L 21,14  Z  " style="fill:rgb(242, 252, 255); fill-opacity:1.000; stroke:none;" />
 <path d="  M 39,14  L 39,15  L 40,15  L 40,14  Z  " style="fill:rgb(242, 252, 255); fill-opacity:1.000; stroke:none;" />
 <path d="  M 41,15  L 41,16  L 42,16  L 42,15  Z  " style="fill:rgb(242, 252, 255); fill-opacity:1.000; stroke:none;" />
 <path d="  M 43,17  L 43,16  L 42,16  L 42,17  Z  " style="fill:rgb(242, 252, 255); fill-opacity:1.000; stroke:none;" />
 <path d="  M 44,18  L 44,17  L 43,17  L 43,18  Z  " style="fill:rgb(242, 252, 255); fill-opacity:1.000; stroke:none;" />
 <path d="  M 44,38  L 43,38  L 43,39  L 44,39  Z  " style="fill:rgb(242, 252, 255); fill-opacity:1.000; stroke:none;" />
 <path d="  M 45,19  L 45,18  L 44,18  L 44,19  Z  " style="fill:rgb(242, 252, 255); fill-opacity:1.000; stroke:none;" />
 <path d="  M 45,35  L 44,35  L 44,36  L 45,36  Z  " style="fill:rgb(242, 252, 255); fill-opacity:1.000; stroke:none;" />
 <path d="  M 11,20  L 11,19  L 10,19  L 10,20  Z  " style="fill:rgb(228, 249, 255); fill-opacity:1.000; stroke:none;" />
 <path d="  M 12,34  L 12,33  L 11,33  L 11,34  Z  " style="fill:rgb(228, 249, 255); fill-opacity:1.000; stroke:none;" />
 <path d="  M 14,16  L 15,16  L 15,15  L 14,15  Z  " style="fill:rgb(228, 249, 255); fill-opacity:1.000; stroke:none;" />
 <path d="  M 16,37  L 15,37  L 15,38  L 16,38  Z  " style="fill:rgb(228, 249, 255); fill-opacity:1.000; stroke:none;" />
 <path d="  M 27,12  L 26,12  L 26,13  L 27,13  Z  " style="fill:rgb(228, 249, 255); fill-opacity:1.000; stroke:none;" />
 <path d="  M 34,43  L 34,42  L 33,42  L 33,43  Z  " style="fill:rgb(228, 249, 255); fill-opacity:1.000; stroke:none;" />
 <path d="  M 41,42  L 40,42  L 40,43  L 41,43  Z  " style="fill:rgb(228, 249, 255); fill-opacity:1.000; stroke:none;" />
 <path d="  M 46,33  L 46,32  L 45,32  L 45,33  Z  " style="fill:rgb(228, 249, 255); fill-opacity:1.000; stroke:none;" />
 <path d="  M 11,20  L 10,20  L 10,21  L 11,21  Z  " style="fill:rgb(96, 219, 255); fill-opacity:1.000; stroke:none;" />
 <path d="  M 33,13  L 33,12  L 31,12  L 31,13  Z  " style="fill:rgb(96, 219, 255); fill-opacity:1.000; stroke:none;" />
 <path d="  M 12,19  L 11,19  L 11,20  L 12,20  Z  " style="fill:rgb(56, 210, 255); fill-opacity:1.000; stroke:none;" />
 <path d="  M 36,14  L 36,13  L 35,13  L 35,14  Z  " style="fill:rgb(56, 210, 255); fill-opacity:1.000; stroke:none;" />
 <path d="  M 38,15  L 38,14  L 37,14  L 37,15  Z  " style="fill:rgb(56, 210, 255); fill-opacity:1.000; stroke:none;" />
 <path d="  M 11,32  L 11,33  L 12,33  L 12,32  Z  " style="fill:rgb(109, 222, 255); fill-opacity:1.000; stroke:none;" />
 <path d="  M 43,39  L 42,39  L 42,40  L 43,40  Z  " style="fill:rgb(109, 222, 255); fill-opacity:1.000; stroke:none;" />
 <path d="  M 44,36  L 43,36  L 43,37  L 44,37  Z  " style="fill:rgb(109, 222, 255); fill-opacity:1.000; stroke:none;" />
 <path d="  M 47,29  L 47,28  L 46,28  L 46,29  Z  " style="fill:rgb(109, 222, 255); fill-opacity:1.000; stroke:none;" />
 <path d="  M 13,17  L 12,17  L 12,18  L 13,18  Z  " style="fill:rgb(123, 225, 255); fill-opacity:1.000; stroke:none;" />
 <path d="  M 18,14  L 18,15  L 19,15  L 19,14  Z  " style="fill:rgb(123, 225, 255); fill-opacity:1.000; stroke:none;" />
 <path d="  M 31,13  L 31,12  L 30,12  L 30,13  Z  " style="fill:rgb(123, 225, 255); fill-opacity:1.000; stroke:none;" />
 <path d="  M 12,33  L 12,34  L 13,34  L 13,33  Z  " style="fill:rgb(55, 210, 255); fill-opacity:1.000; stroke:none;" />
 <path d="  M 40,42  L 41,42  L 41,41  L 40,41  Z  " style="fill:rgb(55, 210, 255); fill-opacity:1.000; stroke:none;" />
 <path d="  M 46,28  L 47,28  L 47,27  L 46,27  Z  " style="fill:rgb(55, 210, 255); fill-opacity:1.000; stroke:none;" />
 <path d="  M 13,24  L 13,25  L 14,25  L 14,24  Z  " style="fill:rgb(42, 194, 255); fill-opacity:1.000; stroke:none;" />
 <path d="  M 19,28  L 19,27  L 18,27  L 18,28  Z  " style="fill:rgb(42, 194, 255); fill-opacity:1.000; stroke:none;" />
 <path d="  M 28,23  L 28,24  L 29,24  L 29,23  Z  " style="fill:rgb(42, 194, 255); fill-opacity:1.000; stroke:none;" />
 <path d="  M 31,24  L 30,24  L 30,25  L 31,25  Z  " style="fill:rgb(42, 194, 255); fill-opacity:1.000; stroke:none;" />
 <path d="  M 30,27  L 30,28  L 31,28  L 31,27  Z  " style="fill:rgb(42, 194, 255); fill-opacity:1.000; stroke:none;" />
 <path d="  M 31,31  L 31,30  L 30,30  L 30,31  Z  " style="fill:rgb(42, 194, 255); fill-opacity:1.000; stroke:none;" />
 <path d="  M 34,25  L 34,24  L 33,24  L 33,25  Z  " style="fill:rgb(42, 194, 255); fill-opacity:1.000; stroke:none;" />
 <path d="  M 14,26  L 14,25  L 13,25  L 13,26  Z  " style="fill:rgb(37, 111, 255); fill-opacity:1.000; stroke:none;" />
 <path d="  M 16,29  L 16,30  L 17,30  L 17,29  Z  " style="fill:rgb(37, 111, 255); fill-opacity:1.000; stroke:none;" />
 <path d="  M 22,32  L 21,32  L 21,33  L 22,33  Z  " style="fill:rgb(37, 111, 255); fill-opacity:1.000; stroke:none;" />
 <path d="  M 31,32  L 30,32  L 30,33  L 31,33  Z  " style="fill:rgb(37, 111, 255); fill-opacity:1.000; stroke:none;" />
 <path d="  M 33,32  L 34,32  L 34,31  L 33,31  Z  " style="fill:rgb(37, 111, 255); fill-opacity:1.000; stroke:none;" />
 <path d="  M 34,28  L 35,28  L 35,27  L 34,27  Z  " style="fill:rgb(37, 111, 255); fill-opacity:1.000; stroke:none;" />
 <path d="  M 13,27  L 14,27  L 14,26  L 13,26  Z  " style="fill:rgb(36, 105, 255); fill-opacity:1.000; stroke:none;" />
 <path d="  M 15,27  L 14,27  L 14,28  L 15,28  Z  " style="fill:rgb(36, 105, 255); fill-opacity:1.000; stroke:none;" />
 <path d="  M 15,28  L 15,29  L 17,29  L 17,30  L 19,30  L 19,29  L 21,29  L 21,32  L 22,32  L 22,25  L 21,25  L 21,27  L 20,27  L 20,28  Z  " style="fill:rgb(36, 105, 255); fill-opacity:1.000; stroke:none;" />
 <path d="  M 16,25  L 21,25  L 21,24  L 16,24  Z  " style="fill:rgb(36, 105, 255); fill-opacity:1.000; stroke:none;" />
 <path d="  M 21,33  L 20,33  L 20,38  L 21,38  Z  " style="fill:rgb(36, 105, 255); fill-opacity:1.000; stroke:none;" />
 <path d="  M 30,26  L 28,26  L 28,28  L 29,28  L 29,27  L 31,27  L 31,26  L 32,26  L 32,27  L 35,27  L 35,26  L 34,26  L 34,25  L 30,25  Z  " style="fill:rgb(36, 105, 255); fill-opacity:1.000; stroke:none;" />
 <path d="  M 28,31  L 28,32  L 29,32  L 29,31  Z  " style="fill:rgb(36, 105, 255); fill-opacity:1.000; stroke:none;" />
 <path d="  M 29,33  L 30,33  L 30,32  L 29,32  Z  " style="fill:rgb(36, 105, 255); fill-opacity:1.000; stroke:none;" />
 <path d="  M 30,21  L 31,21  L 31,20  L 30,20  Z  " style="fill:rgb(36, 105, 255); fill-opacity:1.000; stroke:none;" />
 <path d="  M 33,32  L 33,31  L 30,31  L 30,32  Z  " style="fill:rgb(36, 105, 255); fill-opacity:1.000; stroke:none;" />
 <path d="  M 34,29  L 34,30  L 33,30  L 33,31  L 35,31  L 35,29  Z  " style="fill:rgb(36, 105, 255); fill-opacity:1.000; stroke:none;" />
 <path d="  M 13,27  L 13,28  L 14,28  L 14,27  Z  " style="fill:rgb(39, 149, 255); fill-opacity:1.000; stroke:none;" />
 <path d="  M 21,32  L 21,31  L 20,31  L 20,32  Z  " style="fill:rgb(39, 149, 255); fill-opacity:1.000; stroke:none;" />
 <path d="  M 29,21  L 29,22  L 30,22  L 30,21  Z  " style="fill:rgb(39, 149, 255); fill-opacity:1.000; stroke:none;" />
 <path d="  M 14,35  L 13,35  L 13,36  L 14,36  Z  " style="fill:rgb(122, 225, 255); fill-opacity:1.000; stroke:none;" />
 <path d="  M 46,24  L 47,24  L 47,23  L 46,23  Z  " style="fill:rgb(122, 225, 255); fill-opacity:1.000; stroke:none;" />
 <path d="  M 14,24  L 14,25  L 15,25  L 15,24  Z  " style="fill:rgb(40, 163, 255); fill-opacity:1.000; stroke:none;" />
 <path d="  M 33,25  L 33,24  L 32,24  L 32,25  Z  " style="fill:rgb(40, 163, 255); fill-opacity:1.000; stroke:none;" />
 <path d="  M 14,25  L 14,26  L 15,26  L 15,25  Z  " style="fill:rgb(38, 130, 255); fill-opacity:1.000; stroke:none;" />
 <path d="  M 20,33  L 21,33  L 21,32  L 20,32  Z  " style="fill:rgb(38, 130, 255); fill-opacity:1.000; stroke:none;" />
 <path d="  M 27,29  L 27,31  L 28,31  L 28,30  L 29,30  L 29,29  Z  " style="fill:rgb(38, 130, 255); fill-opacity:1.000; stroke:none;" />
 <path d="  M 29,32  L 28,32  L 28,33  L 29,33  Z  " style="fill:rgb(38, 130, 255); fill-opacity:1.000; stroke:none;" />
 <path d="  M 30,19  L 30,20  L 31,20  L 31,19  Z  " style="fill:rgb(38, 130, 255); fill-opacity:1.000; stroke:none;" />
 <path d="  M 30,22  L 31,22  L 31,21  L 30,21  Z  " style="fill:rgb(38, 130, 255); fill-opacity:1.000; stroke:none;" />
 <path d="  M 31,27  L 32,27  L 32,26  L 31,26  Z  " style="fill:rgb(38, 130, 255); fill-opacity:1.000; stroke:none;" />
 <path d="  M 34,28  L 34,29  L 35,29  L 35,28  Z  " style="fill:rgb(38, 130, 255); fill-opacity:1.000; stroke:none;" />
 <path d="  M 15,26  L 14,26  L 14,27  L 15,27  Z  " style="fill:rgb(38, 131, 255); fill-opacity:1.000; stroke:none;" />
 <path d="  M 16,25  L 16,24  L 15,24  L 15,25  Z  " style="fill:rgb(38, 131, 255); fill-opacity:1.000; stroke:none;" />
 <path d="  M 34,25  L 34,26  L 35,26  L 35,25  Z  " style="fill:rgb(38, 131, 255); fill-opacity:1.000; stroke:none;" />
 <path d="  M 14,28  L 14,29  L 15,29  L 15,28  Z  " style="fill:rgb(37, 117, 255); fill-opacity:1.000; stroke:none;" />
 <path d="  M 30,24  L 30,22  L 29,22  L 29,24  Z  " style="fill:rgb(37, 117, 255); fill-opacity:1.000; stroke:none;" />
 <path d="  M 15,29  L 14,29  L 14,30  L 15,30  Z  " style="fill:rgb(42, 188, 255); fill-opacity:1.000; stroke:none;" />
 <path d="  M 20,34  L 19,34  L 19,35  L 20,35  Z  " style="fill:rgb(42, 188, 255); fill-opacity:1.000; stroke:none;" />
 <path d="  M 22,37  L 21,37  L 21,38  L 22,38  Z  " style="fill:rgb(42, 188, 255); fill-opacity:1.000; stroke:none;" />
 <path d="  M 29,21  L 30,21  L 30,20  L 29,20  Z  " style="fill:rgb(42, 188, 255); fill-opacity:1.000; stroke:none;" />
 <path d="  M 15,15  L 15,16  L 16,16  L 16,15  Z  " style="fill:rgb(136, 228, 255); fill-opacity:1.000; stroke:none;" />
 <path d="  M 38,15  L 39,15  L 39,14  L 38,14  Z  " style="fill:rgb(136, 228, 255); fill-opacity:1.000; stroke:none;" />
 <path d="  M 41,16  L 41,15  L 40,15  L 40,16  Z  " style="fill:rgb(136, 228, 255); fill-opacity:1.000; stroke:none;" />
 <path d="  M 16,26  L 16,25  L 15,25  L 15,26  Z  " style="fill:rgb(41, 181, 255); fill-opacity:1.000; stroke:none;" />
 <path d="  M 19,25  L 19,26  L 20,26  L 20,25  Z  " style="fill:rgb(41, 181, 255); fill-opacity:1.000; stroke:none;" />
 <path d="  M 19,35  L 19,37  L 20,37  L 20,35  Z  " style="fill:rgb(41, 181, 255); fill-opacity:1.000; stroke:none;" />
 <path d="  M 21,38  L 20,38  L 20,39  L 21,39  Z  " style="fill:rgb(41, 181, 255); fill-opacity:1.000; stroke:none;" />
 <path d="  M 22,35  L 21,35  L 21,37  L 22,37  Z  " style="fill:rgb(41, 181, 255); fill-opacity:1.000; stroke:none;" />
 <path d="  M 31,23  L 31,22  L 30,22  L 30,23  Z  " style="fill:rgb(41, 181, 255); fill-opacity:1.000; stroke:none;" />
 <path d="  M 31,21  L 32,21  L 32,20  L 31,20  Z  " style="fill:rgb(41, 181, 255); fill-opacity:1.000; stroke:none;" />
 <path d="  M 16,27  L 16,26  L 15,26  L 15,27  Z  " style="fill:rgb(42, 201, 255); fill-opacity:1.000; stroke:none;" />
 <path d="  M 19,27  L 20,27  L 20,26  L 19,26  Z  " style="fill:rgb(42, 201, 255); fill-opacity:1.000; stroke:none;" />
 <path d="  M 27,26  L 28,26  L 28,25  L 27,25  Z  " style="fill:rgb(42, 201, 255); fill-opacity:1.000; stroke:none;" />
 <path d="  M 27,32  L 27,33  L 28,33  L 28,32  Z  " style="fill:rgb(42, 201, 255); fill-opacity:1.000; stroke:none;" />
 <path d="  M 33,27  L 32,27  L 32,28  L 33,28  Z  " style="fill:rgb(42, 201, 255); fill-opacity:1.000; stroke:none;" />
 <path d="  M 16,27  L 15,27  L 15,28  L 16,28  Z  " style="fill:rgb(38, 137, 255); fill-opacity:1.000; stroke:none;" />
 <path d="  M 29,25  L 29,26  L 30,26  L 30,25  Z  " style="fill:rgb(38, 137, 255); fill-opacity:1.000; stroke:none;" />
 <path d="  M 16,30  L 16,29  L 15,29  L 15,30  Z  " style="fill:rgb(38, 136, 255); fill-opacity:1.000; stroke:none;" />
 <path d="  M 21,29  L 19,29  L 19,30  L 21,30  Z  " style="fill:rgb(38, 136, 255); fill-opacity:1.000; stroke:none;" />
 <path d="  M 21,25  L 20,25  L 20,26  L 21,26  Z  " style="fill:rgb(38, 136, 255); fill-opacity:1.000; stroke:none;" />
 <path d="  M 22,33  L 21,33  L 21,34  L 22,34  Z  " style="fill:rgb(38, 136, 255); fill-opacity:1.000; stroke:none;" />
 <path d="  M 31,32  L 31,33  L 32,33  L 32,32  Z  " style="fill:rgb(38, 136, 255); fill-opacity:1.000; stroke:none;" />
 <path d="  M 17,38  L 17,37  L 16,37  L 16,38  Z  " style="fill:rgb(95, 219, 255); fill-opacity:1.000; stroke:none;" />
 <path d="  M 25,41  L 25,42  L 31,42  L 31,41  Z  " style="fill:rgb(95, 219, 255); fill-opacity:1.000; stroke:none;" />
 <path d="  M 37,42  L 37,43  L 39,43  L 39,42  Z  " style="fill:rgb(95, 219, 255); fill-opacity:1.000; stroke:none;" />
 <path d="  M 18,14  L 17,14  L 17,15  L 18,15  Z  " style="fill:rgb(189, 240, 255); fill-opacity:1.000; stroke:none;" />
 <path d="  M 37,13  L 36,13  L 36,14  L 37,14  Z  " style="fill:rgb(189, 240, 255); fill-opacity:1.000; stroke:none;" />
 <path d="  M 19,28  L 20,28  L 20,27  L 19,27  Z  " style="fill:rgb(37, 124, 255); fill-opacity:1.000; stroke:none;" />
 <path d="  M 20,27  L 21,27  L 21,26  L 20,26  Z  " style="fill:rgb(37, 124, 255); fill-opacity:1.000; stroke:none;" />
 <path d="  M 22,24  L 21,24  L 21,25  L 22,25  Z  " style="fill:rgb(37, 124, 255); fill-opacity:1.000; stroke:none;" />
 <path d="  M 28,28  L 28,29  L 29,29  L 29,28  Z  " style="fill:rgb(37, 124, 255); fill-opacity:1.000; stroke:none;" />
 <path d="  M 29,31  L 29,30  L 28,30  L 28,31  Z  " style="fill:rgb(37, 124, 255); fill-opacity:1.000; stroke:none;" />
 <path d="  M 29,28  L 30,28  L 30,27  L 29,27  Z  " style="fill:rgb(37, 124, 255); fill-opacity:1.000; stroke:none;" />
 <path d="  M 30,32  L 30,31  L 29,31  L 29,32  Z  " style="fill:rgb(37, 124, 255); fill-opacity:1.000; stroke:none;" />
 <path d="  M 19,37  L 19,38  L 20,38  L 20,37  Z  " style="fill:rgb(41, 168, 255); fill-opacity:1.000; stroke:none;" />
 <path d="  M 27,27  L 28,27  L 28,26  L 27,26  Z  " style="fill:rgb(41, 168, 255); fill-opacity:1.000; stroke:none;" />
 <path d="  M 33,32  L 32,32  L 32,33  L 33,33  Z  " style="fill:rgb(41, 168, 255); fill-opacity:1.000; stroke:none;" />
 <path d="  M 21,30  L 20,30  L 20,31  L 21,31  Z  " style="fill:rgb(39, 156, 255); fill-opacity:1.000; stroke:none;" />
 <path d="  M 27,29  L 28,29  L 28,27  L 27,27  Z  " style="fill:rgb(39, 156, 255); fill-opacity:1.000; stroke:none;" />
 <path d="  M 27,32  L 28,32  L 28,31  L 27,31  Z  " style="fill:rgb(39, 156, 255); fill-opacity:1.000; stroke:none;" />
 <path d="  M 29,25  L 30,25  L 30,24  L 29,24  Z  " style="fill:rgb(39, 156, 255); fill-opacity:1.000; stroke:none;" />
 <path d="  M 35,32  L 35,31  L 34,31  L 34,32  Z  " style="fill:rgb(39, 156, 255); fill-opacity:1.000; stroke:none;" />
 <path d="  M 20,41  L 21,41  L 21,40  L 20,40  Z  " style="fill:rgb(175, 237, 255); fill-opacity:1.000; stroke:none;" />
 <path d="  M 23,41  L 23,42  L 24,42  L 24,41  Z  " style="fill:rgb(175, 237, 255); fill-opacity:1.000; stroke:none;" />
 <path d="  M 42,41  L 41,41  L 41,42  L 42,42  Z  " style="fill:rgb(175, 237, 255); fill-opacity:1.000; stroke:none;" />
 <path d="  M 43,38  L 44,38  L 44,37  L 43,37  Z  " style="fill:rgb(175, 237, 255); fill-opacity:1.000; stroke:none;" />
 <path d="  M 44,35  L 45,35  L 45,34  L 44,34  Z  " style="fill:rgb(175, 237, 255); fill-opacity:1.000; stroke:none;" />
 <path d="  M 47,29  L 46,29  L 46,30  L 47,30  Z  " style="fill:rgb(175, 237, 255); fill-opacity:1.000; stroke:none;" />
 <path d="  M 21,14  L 22,14  L 22,13  L 21,13  Z  " style="fill:rgb(203, 243, 255); fill-opacity:1.000; stroke:none;" />
 <path d="  M 28,12  L 27,12  L 27,13  L 28,13  Z  " style="fill:rgb(203, 243, 255); fill-opacity:1.000; stroke:none;" />
 <path d="  M 21,34  L 21,35  L 22,35  L 22,34  Z  " style="fill:rgb(40, 162, 255); fill-opacity:1.000; stroke:none;" />
 <path d="  M 28,24  L 28,25  L 29,25  L 29,24  Z  " style="fill:rgb(40, 162, 255); fill-opacity:1.000; stroke:none;" />
 <path d="  M 32,19  L 31,19  L 31,20  L 32,20  Z  " style="fill:rgb(40, 162, 255); fill-opacity:1.000; stroke:none;" />
 <path d="  M 33,29  L 33,30  L 34,30  L 34,29  Z  " style="fill:rgb(40, 162, 255); fill-opacity:1.000; stroke:none;" />
 <path d="  M 24,13  L 23,13  L 23,14  L 24,14  Z  " style="fill:rgb(110, 222, 255); fill-opacity:1.000; stroke:none;" />
 <path d="  M 24,13  L 24,14  L 25,14  L 25,13  Z  " style="fill:rgb(83, 216, 255); fill-opacity:1.000; stroke:none;" />
 <path d="  M 34,13  L 35,13  L 35,12  L 34,12  Z  " style="fill:rgb(83, 216, 255); fill-opacity:1.000; stroke:none;" />
 <path d="  M 41,16  L 41,17  L 42,17  L 42,16  Z  " style="fill:rgb(83, 216, 255); fill-opacity:1.000; stroke:none;" />
 <path d="  M 42,17  L 42,18  L 43,18  L 43,17  Z  " style="fill:rgb(83, 216, 255); fill-opacity:1.000; stroke:none;" />
 <path d="  M 44,18  L 43,18  L 43,19  L 44,19  Z  " style="fill:rgb(83, 216, 255); fill-opacity:1.000; stroke:none;" />
 <path d="  M 24,42  L 25,42  L 25,41  L 24,41  Z  " style="fill:rgb(135, 228, 255); fill-opacity:1.000; stroke:none;" />
 <path d="  M 45,19  L 44,19  L 44,20  L 45,20  Z  " style="fill:rgb(135, 228, 255); fill-opacity:1.000; stroke:none;" />
 <path d="  M 28,13  L 29,13  L 29,12  L 28,12  Z  " style="fill:rgb(176, 237, 255); fill-opacity:1.000; stroke:none;" />
 <path d="  M 29,26  L 29,25  L 28,25  L 28,26  Z  " style="fill:rgb(36, 118, 255); fill-opacity:1.000; stroke:none;" />
 <path d="  M 32,31  L 33,31  L 33,30  L 32,30  Z  " style="fill:rgb(36, 118, 255); fill-opacity:1.000; stroke:none;" />
 <path d="  M 32,24  L 31,24  L 31,25  L 32,25  Z  " style="fill:rgb(40, 156, 255); fill-opacity:1.000; stroke:none;" />
 <path d="  M 31,30  L 31,31  L 32,31  L 32,30  Z  " style="fill:rgb(40, 156, 255); fill-opacity:1.000; stroke:none;" />
 <path d="  M 34,27  L 33,27  L 33,28  L 34,28  Z  " style="fill:rgb(41, 175, 255); fill-opacity:1.000; stroke:none;" />
 <path d="  M 34,42  L 34,43  L 35,43  L 35,42  Z  " style="fill:rgb(202, 243, 255); fill-opacity:1.000; stroke:none;" />
 <path d="  M 46,21  L 46,20  L 45,20  L 45,21  Z  " style="fill:rgb(202, 243, 255); fill-opacity:1.000; stroke:none;" />
 <path d="  M 44,34  L 45,34  L 45,33  L 44,33  Z  " style="fill:rgb(82, 216, 255); fill-opacity:1.000; stroke:none;" />
</svg>
