<?xml version="1.0" encoding="UTF-8" standalone="no"?>
<!DOCTYPE svg PUBLIC "-//W3C//DTD SVG 1.1//EN" 
  "http://www.w3.org/Graphics/SVG/1.1/DTD/svg11.dtd">
<svg width="64" height="64"
	 xmlns="http://www.w3.org/2000/svg" version="1.1">
 <path d="  M 4,36  L 4,37  L 5,37  L 5,36  Z  " style="fill:rgb(131, 183, 36); fill-opacity:0.251; stroke:none;" />
 <path d="  M 5,43  L 4,43  L 4,44  L 5,44  Z  " style="fill:rgb(131, 183, 36); fill-opacity:0.251; stroke:none;" />
 <path d="  M 5,48  L 6,48  L 6,47  L 5,47  Z  " style="fill:rgb(131, 183, 36); fill-opacity:0.251; stroke:none;" />
 <path d="  M 7,51  L 7,50  L 6,50  L 6,51  Z  " style="fill:rgb(131, 183, 36); fill-opacity:0.251; stroke:none;" />
 <path d="  M 13,12  L 12,12  L 12,13  L 13,13  Z  " style="fill:rgb(131, 183, 36); fill-opacity:0.251; stroke:none;" />
 <path d="  M 13,57  L 13,56  L 12,56  L 12,57  Z  " style="fill:rgb(131, 183, 36); fill-opacity:0.251; stroke:none;" />
 <path d="  M 13,12  L 14,12  L 14,11  L 13,11  Z  " style="fill:rgb(131, 183, 36); fill-opacity:0.251; stroke:none;" />
 <path d="  M 14,10  L 14,11  L 15,11  L 15,10  Z  " style="fill:rgb(131, 183, 36); fill-opacity:0.251; stroke:none;" />
 <path d="  M 23,7  L 23,6  L 22,6  L 22,7  Z  " style="fill:rgb(131, 183, 36); fill-opacity:0.251; stroke:none;" />
 <path d="  M 30,4  L 29,4  L 29,5  L 30,5  Z  " style="fill:rgb(131, 183, 36); fill-opacity:0.251; stroke:none;" />
 <path d="  M 36,4  L 34,4  L 34,5  L 36,5  Z  " style="fill:rgb(131, 183, 36); fill-opacity:0.251; stroke:none;" />
 <path d="  M 42,6  L 42,5  L 41,5  L 41,6  Z  " style="fill:rgb(131, 183, 36); fill-opacity:0.251; stroke:none;" />
 <path d="  M 43,55  L 44,55  L 44,54  L 43,54  Z  " style="fill:rgb(131, 183, 36); fill-opacity:0.251; stroke:none;" />
 <path d="  M 45,7  L 46,7  L 46,6  L 45,6  Z  " style="fill:rgb(131, 183, 36); fill-opacity:0.251; stroke:none;" />
 <path d="  M 52,9  L 52,10  L 53,10  L 53,9  Z  " style="fill:rgb(131, 183, 36); fill-opacity:0.251; stroke:none;" />
 <path d="  M 53,51  L 52,51  L 52,52  L 53,52  Z  " style="fill:rgb(131, 183, 36); fill-opacity:0.251; stroke:none;" />
 <path d="  M 54,13  L 54,14  L 55,14  L 55,13  Z  " style="fill:rgb(131, 183, 36); fill-opacity:0.251; stroke:none;" />
 <path d="  M 55,21  L 55,22  L 56,22  L 56,21  Z  " style="fill:rgb(131, 183, 36); fill-opacity:0.251; stroke:none;" />
 <path d="  M 55,49  L 56,49  L 56,48  L 55,48  Z  " style="fill:rgb(131, 183, 36); fill-opacity:0.251; stroke:none;" />
 <path d="  M 57,26  L 57,25  L 56,25  L 56,26  Z  " style="fill:rgb(131, 183, 36); fill-opacity:0.251; stroke:none;" />
 <path d="  M 58,30  L 58,29  L 57,29  L 57,30  Z  " style="fill:rgb(131, 183, 36); fill-opacity:0.251; stroke:none;" />
 <path d="  M 5,39  L 5,37  L 4,37  L 4,39  Z  " style="fill:rgb(130, 186, 37); fill-opacity:0.376; stroke:none;" />
 <path d="  M 5,43  L 5,42  L 4,42  L 4,43  Z  " style="fill:rgb(130, 186, 37); fill-opacity:0.376; stroke:none;" />
 <path d="  M 5,30  L 6,30  L 6,28  L 5,28  Z  " style="fill:rgb(130, 186, 37); fill-opacity:0.376; stroke:none;" />
 <path d="  M 7,24  L 6,24  L 6,25  L 7,25  Z  " style="fill:rgb(130, 186, 37); fill-opacity:0.376; stroke:none;" />
 <path d="  M 8,22  L 8,21  L 7,21  L 7,22  Z  " style="fill:rgb(130, 186, 37); fill-opacity:0.376; stroke:none;" />
 <path d="  M 8,19  L 8,20  L 9,20  L 9,19  Z  " style="fill:rgb(130, 186, 37); fill-opacity:0.376; stroke:none;" />
 <path d="  M 15,58  L 16,58  L 16,57  L 15,57  Z  " style="fill:rgb(130, 186, 37); fill-opacity:0.376; stroke:none;" />
 <path d="  M 17,8  L 17,9  L 18,9  L 18,8  Z  " style="fill:rgb(130, 186, 37); fill-opacity:0.376; stroke:none;" />
 <path d="  M 30,4  L 30,5  L 34,5  L 34,4  Z  " style="fill:rgb(130, 186, 37); fill-opacity:0.376; stroke:none;" />
 <path d="  M 41,5  L 40,5  L 40,6  L 41,6  Z  " style="fill:rgb(130, 186, 37); fill-opacity:0.376; stroke:none;" />
 <path d="  M 57,45  L 56,45  L 56,46  L 57,46  Z  " style="fill:rgb(130, 186, 37); fill-opacity:0.376; stroke:none;" />
 <path d="  M 58,33  L 58,30  L 57,30  L 57,33  Z  " style="fill:rgb(130, 186, 37); fill-opacity:0.376; stroke:none;" />
 <path d="  M 57,39  L 58,39  L 58,37  L 57,37  Z  " style="fill:rgb(130, 186, 37); fill-opacity:0.376; stroke:none;" />
 <path d="  M 5,39  L 4,39  L 4,42  L 5,42  Z  " style="fill:rgb(131, 185, 36); fill-opacity:0.498; stroke:none;" />
 <path d="  M 6,46  L 5,46  L 5,47  L 6,47  Z  " style="fill:rgb(131, 185, 36); fill-opacity:0.498; stroke:none;" />
 <path d="  M 9,18  L 10,18  L 10,17  L 9,17  Z  " style="fill:rgb(131, 185, 36); fill-opacity:0.498; stroke:none;" />
 <path d="  M 10,15  L 10,16  L 11,16  L 11,15  Z  " style="fill:rgb(131, 185, 36); fill-opacity:0.498; stroke:none;" />
 <path d="  M 20,8  L 20,7  L 19,7  L 19,8  Z  " style="fill:rgb(131, 185, 36); fill-opacity:0.498; stroke:none;" />
 <path d="  M 23,7  L 24,7  L 24,6  L 23,6  Z  " style="fill:rgb(131, 185, 36); fill-opacity:0.498; stroke:none;" />
 <path d="  M 25,5  L 25,6  L 26,6  L 26,5  Z  " style="fill:rgb(131, 185, 36); fill-opacity:0.498; stroke:none;" />
 <path d="  M 35,57  L 35,58  L 37,58  L 37,57  Z  " style="fill:rgb(131, 185, 36); fill-opacity:0.498; stroke:none;" />
 <path d="  M 39,57  L 39,56  L 38,56  L 38,57  Z  " style="fill:rgb(131, 185, 36); fill-opacity:0.498; stroke:none;" />
 <path d="  M 40,56  L 41,56  L 41,55  L 40,55  Z  " style="fill:rgb(131, 185, 36); fill-opacity:0.498; stroke:none;" />
 <path d="  M 42,54  L 42,55  L 43,55  L 43,54  Z  " style="fill:rgb(131, 185, 36); fill-opacity:0.498; stroke:none;" />
 <path d="  M 45,7  L 45,6  L 44,6  L 44,7  Z  " style="fill:rgb(131, 185, 36); fill-opacity:0.498; stroke:none;" />
 <path d="  M 46,53  L 46,54  L 48,54  L 48,53  Z  " style="fill:rgb(131, 185, 36); fill-opacity:0.498; stroke:none;" />
 <path d="  M 48,7  L 48,8  L 49,8  L 49,7  Z  " style="fill:rgb(131, 185, 36); fill-opacity:0.498; stroke:none;" />
 <path d="  M 50,53  L 51,53  L 51,52  L 50,52  Z  " style="fill:rgb(131, 185, 36); fill-opacity:0.498; stroke:none;" />
 <path d="  M 53,12  L 54,12  L 54,11  L 53,11  Z  " style="fill:rgb(131, 185, 36); fill-opacity:0.498; stroke:none;" />
 <path d="  M 55,15  L 55,14  L 54,14  L 54,15  Z  " style="fill:rgb(131, 185, 36); fill-opacity:0.498; stroke:none;" />
 <path d="  M 54,50  L 55,50  L 55,49  L 54,49  Z  " style="fill:rgb(131, 185, 36); fill-opacity:0.498; stroke:none;" />
 <path d="  M 55,23  L 56,23  L 56,22  L 55,22  Z  " style="fill:rgb(131, 185, 36); fill-opacity:0.498; stroke:none;" />
 <path d="  M 57,26  L 56,26  L 56,27  L 57,27  Z  " style="fill:rgb(131, 185, 36); fill-opacity:0.498; stroke:none;" />
 <path d="  M 57,37  L 58,37  L 58,33  L 57,33  Z  " style="fill:rgb(131, 185, 36); fill-opacity:0.498; stroke:none;" />
 <path d="  M 4,45  L 5,45  L 5,44  L 4,44  Z  " style="fill:rgb(128, 183, 40); fill-opacity:0.125; stroke:none;" />
 <path d="  M 5,28  L 6,28  L 6,27  L 5,27  Z  " style="fill:rgb(128, 183, 40); fill-opacity:0.125; stroke:none;" />
 <path d="  M 5,48  L 5,49  L 6,49  L 6,48  Z  " style="fill:rgb(128, 183, 40); fill-opacity:0.125; stroke:none;" />
 <path d="  M 7,52  L 7,53  L 8,53  L 8,52  Z  " style="fill:rgb(128, 183, 40); fill-opacity:0.125; stroke:none;" />
 <path d="  M 8,54  L 9,54  L 9,53  L 8,53  Z  " style="fill:rgb(128, 183, 40); fill-opacity:0.125; stroke:none;" />
 <path d="  M 10,55  L 10,54  L 9,54  L 9,55  Z  " style="fill:rgb(128, 183, 40); fill-opacity:0.125; stroke:none;" />
 <path d="  M 10,56  L 11,56  L 11,55  L 10,55  Z  " style="fill:rgb(128, 183, 40); fill-opacity:0.125; stroke:none;" />
 <path d="  M 12,13  L 11,13  L 11,14  L 12,14  Z  " style="fill:rgb(128, 183, 40); fill-opacity:0.125; stroke:none;" />
 <path d="  M 14,58  L 15,58  L 15,57  L 14,57  Z  " style="fill:rgb(128, 183, 40); fill-opacity:0.125; stroke:none;" />
 <path d="  M 16,10  L 16,9  L 15,9  L 15,10  Z  " style="fill:rgb(128, 183, 40); fill-opacity:0.125; stroke:none;" />
 <path d="  M 18,7  L 18,8  L 19,8  L 19,7  Z  " style="fill:rgb(128, 183, 40); fill-opacity:0.125; stroke:none;" />
 <path d="  M 22,6  L 21,6  L 21,7  L 22,7  Z  " style="fill:rgb(128, 183, 40); fill-opacity:0.125; stroke:none;" />
 <path d="  M 28,5  L 29,5  L 29,4  L 28,4  Z  " style="fill:rgb(128, 183, 40); fill-opacity:0.125; stroke:none;" />
 <path d="  M 36,5  L 37,5  L 37,4  L 36,4  Z  " style="fill:rgb(128, 183, 40); fill-opacity:0.125; stroke:none;" />
 <path d="  M 51,9  L 52,9  L 52,8  L 51,8  Z  " style="fill:rgb(128, 183, 40); fill-opacity:0.125; stroke:none;" />
 <path d="  M 55,20  L 55,21  L 56,21  L 56,20  Z  " style="fill:rgb(128, 183, 40); fill-opacity:0.125; stroke:none;" />
 <path d="  M 56,47  L 57,47  L 57,46  L 56,46  Z  " style="fill:rgb(128, 183, 40); fill-opacity:0.125; stroke:none;" />
 <path d="  M 58,40  L 58,39  L 57,39  L 57,40  Z  " style="fill:rgb(128, 183, 40); fill-opacity:0.125; stroke:none;" />
 <path d="  M 5,33  L 6,33  L 6,30  L 5,30  Z  " style="fill:rgb(132, 184, 37); fill-opacity:0.624; stroke:none;" />
 <path d="  M 7,26  L 7,25  L 6,25  L 6,26  Z  " style="fill:rgb(132, 184, 37); fill-opacity:0.624; stroke:none;" />
 <path d="  M 7,49  L 6,49  L 6,50  L 7,50  Z  " style="fill:rgb(132, 184, 37); fill-opacity:0.624; stroke:none;" />
 <path d="  M 7,22  L 7,23  L 8,23  L 8,22  Z  " style="fill:rgb(132, 184, 37); fill-opacity:0.624; stroke:none;" />
 <path d="  M 12,55  L 11,55  L 11,56  L 12,56  Z  " style="fill:rgb(132, 184, 37); fill-opacity:0.624; stroke:none;" />
 <path d="  M 17,58  L 17,57  L 16,57  L 16,58  Z  " style="fill:rgb(132, 184, 37); fill-opacity:0.624; stroke:none;" />
 <path d="  M 27,5  L 26,5  L 26,6  L 27,6  Z  " style="fill:rgb(132, 184, 37); fill-opacity:0.624; stroke:none;" />
 <path d="  M 39,6  L 40,6  L 40,5  L 39,5  Z  " style="fill:rgb(132, 184, 37); fill-opacity:0.624; stroke:none;" />
 <path d="  M 50,8  L 50,9  L 51,9  L 51,8  Z  " style="fill:rgb(132, 184, 37); fill-opacity:0.624; stroke:none;" />
 <path d="  M 54,50  L 53,50  L 53,51  L 54,51  Z  " style="fill:rgb(132, 184, 37); fill-opacity:0.624; stroke:none;" />
 <path d="  M 56,45  L 57,45  L 57,43  L 56,43  Z  " style="fill:rgb(132, 184, 37); fill-opacity:0.624; stroke:none;" />
 <path d="  M 5,35  L 6,35  L 6,33  L 5,33  Z  " style="fill:rgb(132, 185, 37); fill-opacity:0.875; stroke:none;" />
 <path d="  M 9,20  L 8,20  L 8,21  L 9,21  Z  " style="fill:rgb(132, 185, 37); fill-opacity:0.875; stroke:none;" />
 <path d="  M 11,14  L 11,15  L 12,15  L 12,14  Z  " style="fill:rgb(132, 185, 37); fill-opacity:0.875; stroke:none;" />
 <path d="  M 33,57  L 33,58  L 35,58  L 35,57  Z  " style="fill:rgb(132, 185, 37); fill-opacity:0.875; stroke:none;" />
 <path d="  M 37,5  L 37,6  L 38,6  L 38,5  Z  " style="fill:rgb(132, 185, 37); fill-opacity:0.875; stroke:none;" />
 <path d="  M 38,56  L 37,56  L 37,57  L 38,57  Z  " style="fill:rgb(132, 185, 37); fill-opacity:0.875; stroke:none;" />
 <path d="  M 40,56  L 40,55  L 39,55  L 39,56  Z  " style="fill:rgb(132, 185, 37); fill-opacity:0.875; stroke:none;" />
 <path d="  M 42,55  L 42,54  L 41,54  L 41,55  Z  " style="fill:rgb(132, 185, 37); fill-opacity:0.875; stroke:none;" />
 <path d="  M 43,7  L 43,6  L 42,6  L 42,7  Z  " style="fill:rgb(132, 185, 37); fill-opacity:0.875; stroke:none;" />
 <path d="  M 45,53  L 45,54  L 46,54  L 46,53  Z  " style="fill:rgb(132, 185, 37); fill-opacity:0.875; stroke:none;" />
 <path d="  M 46,8  L 47,8  L 47,7  L 46,7  Z  " style="fill:rgb(132, 185, 37); fill-opacity:0.875; stroke:none;" />
 <path d="  M 49,8  L 49,9  L 50,9  L 50,8  Z  " style="fill:rgb(132, 185, 37); fill-opacity:0.875; stroke:none;" />
 <path d="  M 49,53  L 50,53  L 50,52  L 49,52  Z  " style="fill:rgb(132, 185, 37); fill-opacity:0.875; stroke:none;" />
 <path d="  M 51,9  L 51,10  L 52,10  L 52,9  Z  " style="fill:rgb(132, 185, 37); fill-opacity:0.875; stroke:none;" />
 <path d="  M 52,51  L 51,51  L 51,52  L 52,52  Z  " style="fill:rgb(132, 185, 37); fill-opacity:0.875; stroke:none;" />
 <path d="  M 53,11  L 53,10  L 52,10  L 52,11  Z  " style="fill:rgb(132, 185, 37); fill-opacity:0.875; stroke:none;" />
 <path d="  M 53,12  L 53,13  L 54,13  L 54,12  Z  " style="fill:rgb(132, 185, 37); fill-opacity:0.875; stroke:none;" />
 <path d="  M 55,16  L 54,16  L 54,18  L 55,18  Z  " style="fill:rgb(132, 185, 37); fill-opacity:0.875; stroke:none;" />
 <path d="  M 56,25  L 56,24  L 55,24  L 55,25  Z  " style="fill:rgb(132, 185, 37); fill-opacity:0.875; stroke:none;" />
 <path d="  M 57,28  L 56,28  L 56,29  L 57,29  Z  " style="fill:rgb(132, 185, 37); fill-opacity:0.875; stroke:none;" />
 <path d="  M 35,33  L 35,34  L 40,34  L 40,35  L 43,35  L 43,36  L 44,36  L 44,38  L 45,38  L 45,40  L 41,40  L 41,39  L 37,39  L 37,38  L 26,38  L 26,39  L 20,39  L 20,40  L 17,40  L 17,41  L 16,41  L 16,42  L 14,42  L 14,43  L 12,43  L 12,41  L 13,41  L 13,40  L 14,40  L 14,39  L 15,39  L 15,38  L 16,38  L 16,37  L 17,37  L 17,36  L 18,36  L 18,35  L 20,35  L 20,34  L 23,34  L 23,33  Z  M 37,6  L 37,5  L 27,5  L 27,6  L 24,6  L 24,7  L 21,7  L 21,8  L 18,8  L 18,9  L 17,9  L 17,10  L 15,10  L 15,11  L 14,11  L 14,12  L 13,12  L 13,13  L 12,13  L 12,15  L 11,15  L 11,16  L 10,16  L 10,18  L 9,18  L 9,21  L 8,21  L 8,23  L 7,23  L 7,26  L 6,26  L 6,35  L 5,35  L 5,45  L 6,45  L 6,49  L 7,49  L 7,51  L 8,51  L 8,53  L 9,53  L 9,54  L 10,54  L 10,55  L 12,55  L 12,56  L 14,56  L 14,57  L 18,57  L 18,58  L 33,58  L 33,57  L 37,57  L 37,56  L 39,56  L 39,55  L 41,55  L 41,54  L 45,54  L 45,53  L 49,53  L 49,52  L 51,52  L 51,51  L 53,51  L 53,50  L 54,50  L 54,49  L 55,49  L 55,47  L 56,47  L 56,42  L 57,42  L 57,29  L 56,29  L 56,25  L 55,25  L 55,18  L 54,18  L 54,13  L 53,13  L 53,11  L 52,11  L 52,10  L 51,10  L 51,9  L 49,9  L 49,8  L 46,8  L 46,7  L 42,7  L 42,6  Z  M 42,14  L 42,15  L 44,15  L 44,16  L 46,16  L 46,18  L 45,18  L 45,19  L 44,19  L 44,20  L 41,20  L 41,19  L 35,19  L 35,18  L 30,18  L 30,19  L 24,19  L 24,20  L 21,20  L 21,21  L 18,21  L 18,22  L 16,22  L 16,23  L 14,23  L 14,24  L 13,24  L 13,21  L 14,21  L 14,19  L 16,19  L 16,18  L 17,18  L 17,17  L 19,17  L 19,16  L 21,16  L 21,15  L 27,15  L 27,14  Z  M 43,24  L 43,25  L 45,25  L 45,26  L 46,26  L 46,27  L 45,27  L 45,29  L 44,29  L 44,30  L 43,30  L 43,31  L 40,31  L 40,30  L 24,30  L 24,31  L 18,31  L 18,32  L 15,32  L 15,33  L 12,33  L 12,34  L 10,34  L 10,32  L 11,32  L 11,31  L 12,31  L 12,30  L 13,30  L 13,29  L 14,29  L 14,28  L 16,28  L 16,27  L 18,27  L 18,26  L 22,26  L 22,25  L 26,25  L 26,24  Z  " style="fill:rgb(131, 185, 37); fill-opacity:1.000; stroke:none;" />
 <path d="  M 5,46  L 6,46  L 6,45  L 5,45  Z  " style="fill:rgb(131, 186, 37); fill-opacity:0.749; stroke:none;" />
 <path d="  M 8,51  L 7,51  L 7,52  L 8,52  Z  " style="fill:rgb(131, 186, 37); fill-opacity:0.749; stroke:none;" />
 <path d="  M 13,57  L 14,57  L 14,56  L 13,56  Z  " style="fill:rgb(131, 186, 37); fill-opacity:0.749; stroke:none;" />
 <path d="  M 16,10  L 17,10  L 17,9  L 16,9  Z  " style="fill:rgb(131, 186, 37); fill-opacity:0.749; stroke:none;" />
 <path d="  M 18,58  L 18,57  L 17,57  L 17,58  Z  " style="fill:rgb(131, 186, 37); fill-opacity:0.749; stroke:none;" />
 <path d="  M 21,7  L 20,7  L 20,8  L 21,8  Z  " style="fill:rgb(131, 186, 37); fill-opacity:0.749; stroke:none;" />
 <path d="  M 39,5  L 38,5  L 38,6  L 39,6  Z  " style="fill:rgb(131, 186, 37); fill-opacity:0.749; stroke:none;" />
 <path d="  M 44,6  L 43,6  L 43,7  L 44,7  Z  " style="fill:rgb(131, 186, 37); fill-opacity:0.749; stroke:none;" />
 <path d="  M 48,8  L 48,7  L 47,7  L 47,8  Z  " style="fill:rgb(131, 186, 37); fill-opacity:0.749; stroke:none;" />
 <path d="  M 55,16  L 55,15  L 54,15  L 54,16  Z  " style="fill:rgb(131, 186, 37); fill-opacity:0.749; stroke:none;" />
 <path d="  M 55,23  L 55,24  L 56,24  L 56,23  Z  " style="fill:rgb(131, 186, 37); fill-opacity:0.749; stroke:none;" />
 <path d="  M 56,48  L 56,47  L 55,47  L 55,48  Z  " style="fill:rgb(131, 186, 37); fill-opacity:0.749; stroke:none;" />
 <path d="  M 56,27  L 56,28  L 57,28  L 57,27  Z  " style="fill:rgb(131, 186, 37); fill-opacity:0.749; stroke:none;" />
 <path d="  M 56,42  L 56,43  L 57,43  L 57,42  Z  " style="fill:rgb(131, 186, 37); fill-opacity:0.749; stroke:none;" />
 <path d="  M 11,32  L 10,32  L 10,33  L 11,33  Z  " style="fill:rgb(94, 127, 35); fill-opacity:1.000; stroke:none;" />
 <path d="  M 12,34  L 12,33  L 11,33  L 11,34  Z  " style="fill:rgb(94, 127, 35); fill-opacity:1.000; stroke:none;" />
 <path d="  M 12,31  L 13,31  L 13,30  L 12,30  Z  " style="fill:rgb(94, 127, 35); fill-opacity:1.000; stroke:none;" />
 <path d="  M 12,41  L 12,42  L 13,42  L 13,41  Z  " style="fill:rgb(94, 127, 35); fill-opacity:1.000; stroke:none;" />
 <path d="  M 13,29  L 13,30  L 14,30  L 14,29  Z  " style="fill:rgb(94, 127, 35); fill-opacity:1.000; stroke:none;" />
 <path d="  M 14,41  L 14,40  L 13,40  L 13,41  Z  " style="fill:rgb(94, 127, 35); fill-opacity:1.000; stroke:none;" />
 <path d="  M 15,40  L 15,39  L 14,39  L 14,40  Z  " style="fill:rgb(94, 127, 35); fill-opacity:1.000; stroke:none;" />
 <path d="  M 16,39  L 16,38  L 15,38  L 15,39  Z  " style="fill:rgb(94, 127, 35); fill-opacity:1.000; stroke:none;" />
 <path d="  M 25,38  L 24,38  L 24,39  L 25,39  Z  " style="fill:rgb(94, 127, 35); fill-opacity:1.000; stroke:none;" />
 <path d="  M 28,25  L 28,24  L 27,24  L 27,25  Z  " style="fill:rgb(94, 127, 35); fill-opacity:1.000; stroke:none;" />
 <path d="  M 30,15  L 30,14  L 29,14  L 29,15  Z  " style="fill:rgb(94, 127, 35); fill-opacity:1.000; stroke:none;" />
 <path d="  M 34,34  L 34,33  L 32,33  L 32,34  Z  " style="fill:rgb(94, 127, 35); fill-opacity:1.000; stroke:none;" />
 <path d="  M 39,14  L 37,14  L 37,15  L 39,15  Z  " style="fill:rgb(94, 127, 35); fill-opacity:1.000; stroke:none;" />
 <path d="  M 38,18  L 38,19  L 39,19  L 39,18  Z  " style="fill:rgb(94, 127, 35); fill-opacity:1.000; stroke:none;" />
 <path d="  M 43,36  L 43,35  L 42,35  L 42,36  Z  " style="fill:rgb(94, 127, 35); fill-opacity:1.000; stroke:none;" />
 <path d="  M 43,16  L 44,16  L 44,15  L 43,15  Z  " style="fill:rgb(94, 127, 35); fill-opacity:1.000; stroke:none;" />
 <path d="  M 44,39  L 44,40  L 45,40  L 45,39  Z  " style="fill:rgb(94, 127, 35); fill-opacity:1.000; stroke:none;" />
 <path d="  M 46,18  L 46,17  L 45,17  L 45,18  Z  " style="fill:rgb(94, 127, 35); fill-opacity:1.000; stroke:none;" />
 <path d="  M 11,34  L 11,33  L 10,33  L 10,34  Z  " style="fill:rgb(106, 147, 36); fill-opacity:1.000; stroke:none;" />
 <path d="  M 14,23  L 13,23  L 13,24  L 14,24  Z  " style="fill:rgb(106, 147, 36); fill-opacity:1.000; stroke:none;" />
 <path d="  M 17,38  L 17,37  L 16,37  L 16,38  Z  " style="fill:rgb(106, 147, 36); fill-opacity:1.000; stroke:none;" />
 <path d="  M 20,40  L 20,39  L 19,39  L 19,40  Z  " style="fill:rgb(106, 147, 36); fill-opacity:1.000; stroke:none;" />
 <path d="  M 21,20  L 20,20  L 20,21  L 21,21  Z  " style="fill:rgb(106, 147, 36); fill-opacity:1.000; stroke:none;" />
 <path d="  M 22,30  L 22,31  L 24,31  L 24,30  Z  " style="fill:rgb(106, 147, 36); fill-opacity:1.000; stroke:none;" />
 <path d="  M 26,39  L 26,38  L 25,38  L 25,39  Z  " style="fill:rgb(106, 147, 36); fill-opacity:1.000; stroke:none;" />
 <path d="  M 28,14  L 28,15  L 29,15  L 29,14  Z  " style="fill:rgb(106, 147, 36); fill-opacity:1.000; stroke:none;" />
 <path d="  M 28,19  L 29,19  L 29,18  L 28,18  Z  " style="fill:rgb(106, 147, 36); fill-opacity:1.000; stroke:none;" />
 <path d="  M 35,34  L 35,33  L 34,33  L 34,34  Z  " style="fill:rgb(106, 147, 36); fill-opacity:1.000; stroke:none;" />
 <path d="  M 38,18  L 37,18  L 37,19  L 38,19  Z  " style="fill:rgb(106, 147, 36); fill-opacity:1.000; stroke:none;" />
 <path d="  M 38,38  L 38,39  L 39,39  L 39,38  Z  " style="fill:rgb(106, 147, 36); fill-opacity:1.000; stroke:none;" />
 <path d="  M 41,15  L 41,14  L 39,14  L 39,15  Z  " style="fill:rgb(106, 147, 36); fill-opacity:1.000; stroke:none;" />
 <path d="  M 39,34  L 39,35  L 40,35  L 40,34  Z  " style="fill:rgb(106, 147, 36); fill-opacity:1.000; stroke:none;" />
 <path d="  M 43,19  L 42,19  L 42,20  L 43,20  Z  " style="fill:rgb(106, 147, 36); fill-opacity:1.000; stroke:none;" />
 <path d="  M 43,31  L 43,30  L 42,30  L 42,31  Z  " style="fill:rgb(106, 147, 36); fill-opacity:1.000; stroke:none;" />
 <path d="  M 43,39  L 42,39  L 42,40  L 43,40  Z  " style="fill:rgb(106, 147, 36); fill-opacity:1.000; stroke:none;" />
 <path d="  M 44,36  L 43,36  L 43,37  L 44,37  Z  " style="fill:rgb(106, 147, 36); fill-opacity:1.000; stroke:none;" />
 <path d="  M 45,19  L 45,18  L 44,18  L 44,19  Z  " style="fill:rgb(106, 147, 36); fill-opacity:1.000; stroke:none;" />
 <path d="  M 44,26  L 45,26  L 45,25  L 44,25  Z  " style="fill:rgb(106, 147, 36); fill-opacity:1.000; stroke:none;" />
 <path d="  M 45,28  L 44,28  L 44,29  L 45,29  Z  " style="fill:rgb(106, 147, 36); fill-opacity:1.000; stroke:none;" />
 <path d="  M 45,27  L 46,27  L 46,26  L 45,26  Z  " style="fill:rgb(106, 147, 36); fill-opacity:1.000; stroke:none;" />
 <path d="  M 11,32  L 12,32  L 12,31  L 11,31  Z  " style="fill:rgb(81, 108, 34); fill-opacity:1.000; stroke:none;" />
 <path d="  M 13,22  L 14,22  L 14,21  L 13,21  Z  " style="fill:rgb(81, 108, 34); fill-opacity:1.000; stroke:none;" />
 <path d="  M 13,32  L 13,33  L 14,33  L 14,32  Z  " style="fill:rgb(81, 108, 34); fill-opacity:1.000; stroke:none;" />
 <path d="  M 14,43  L 14,42  L 13,42  L 13,43  Z  " style="fill:rgb(81, 108, 34); fill-opacity:1.000; stroke:none;" />
 <path d="  M 15,22  L 15,23  L 16,23  L 16,22  Z  " style="fill:rgb(81, 108, 34); fill-opacity:1.000; stroke:none;" />
 <path d="  M 15,29  L 16,29  L 16,28  L 15,28  Z  " style="fill:rgb(81, 108, 34); fill-opacity:1.000; stroke:none;" />
 <path d="  M 17,19  L 17,18  L 16,18  L 16,19  Z  " style="fill:rgb(81, 108, 34); fill-opacity:1.000; stroke:none;" />
 <path d="  M 18,32  L 18,31  L 16,31  L 16,32  Z  " style="fill:rgb(81, 108, 34); fill-opacity:1.000; stroke:none;" />
 <path d="  M 17,40  L 16,40  L 16,41  L 17,41  Z  " style="fill:rgb(81, 108, 34); fill-opacity:1.000; stroke:none;" />
 <path d="  M 17,22  L 18,22  L 18,21  L 17,21  Z  " style="fill:rgb(81, 108, 34); fill-opacity:1.000; stroke:none;" />
 <path d="  M 17,28  L 18,28  L 18,27  L 17,27  Z  " style="fill:rgb(81, 108, 34); fill-opacity:1.000; stroke:none;" />
 <path d="  M 18,39  L 18,40  L 19,40  L 19,39  Z  " style="fill:rgb(81, 108, 34); fill-opacity:1.000; stroke:none;" />
 <path d="  M 19,17  L 20,17  L 20,16  L 19,16  Z  " style="fill:rgb(81, 108, 34); fill-opacity:1.000; stroke:none;" />
 <path d="  M 19,21  L 20,21  L 20,20  L 19,20  Z  " style="fill:rgb(81, 108, 34); fill-opacity:1.000; stroke:none;" />
 <path d="  M 19,27  L 21,27  L 21,26  L 19,26  Z  " style="fill:rgb(81, 108, 34); fill-opacity:1.000; stroke:none;" />
 <path d="  M 22,31  L 22,30  L 20,30  L 20,31  Z  " style="fill:rgb(81, 108, 34); fill-opacity:1.000; stroke:none;" />
 <path d="  M 21,34  L 21,35  L 22,35  L 22,34  Z  " style="fill:rgb(81, 108, 34); fill-opacity:1.000; stroke:none;" />
 <path d="  M 24,20  L 24,19  L 22,19  L 22,20  Z  " style="fill:rgb(81, 108, 34); fill-opacity:1.000; stroke:none;" />
 <path d="  M 23,16  L 25,16  L 25,15  L 23,15  Z  " style="fill:rgb(81, 108, 34); fill-opacity:1.000; stroke:none;" />
 <path d="  M 24,26  L 24,25  L 23,25  L 23,26  Z  " style="fill:rgb(81, 108, 34); fill-opacity:1.000; stroke:none;" />
 <path d="  M 23,39  L 24,39  L 24,38  L 23,38  Z  " style="fill:rgb(81, 108, 34); fill-opacity:1.000; stroke:none;" />
 <path d="  M 25,34  L 25,33  L 24,33  L 24,34  Z  " style="fill:rgb(81, 108, 34); fill-opacity:1.000; stroke:none;" />
 <path d="  M 27,19  L 28,19  L 28,18  L 27,18  Z  " style="fill:rgb(81, 108, 34); fill-opacity:1.000; stroke:none;" />
 <path d="  M 28,24  L 28,25  L 29,25  L 29,24  Z  " style="fill:rgb(81, 108, 34); fill-opacity:1.000; stroke:none;" />
 <path d="  M 32,15  L 32,14  L 30,14  L 30,15  Z  " style="fill:rgb(81, 108, 34); fill-opacity:1.000; stroke:none;" />
 <path d="  M 37,15  L 37,14  L 35,14  L 35,15  Z  " style="fill:rgb(81, 108, 34); fill-opacity:1.000; stroke:none;" />
 <path d="  M 39,34  L 38,34  L 38,35  L 39,35  Z  " style="fill:rgb(81, 108, 34); fill-opacity:1.000; stroke:none;" />
 <path d="  M 40,39  L 40,38  L 39,38  L 39,39  Z  " style="fill:rgb(81, 108, 34); fill-opacity:1.000; stroke:none;" />
 <path d="  M 42,24  L 41,24  L 41,25  L 42,25  Z  " style="fill:rgb(81, 108, 34); fill-opacity:1.000; stroke:none;" />
 <path d="  M 44,30  L 44,29  L 43,29  L 43,30  Z  " style="fill:rgb(81, 108, 34); fill-opacity:1.000; stroke:none;" />
 <path d="  M 44,40  L 44,39  L 43,39  L 43,40  Z  " style="fill:rgb(81, 108, 34); fill-opacity:1.000; stroke:none;" />
 <path d="  M 45,16  L 45,17  L 46,17  L 46,16  Z  " style="fill:rgb(81, 108, 34); fill-opacity:1.000; stroke:none;" />
 <path d="  M 11,32  L 11,33  L 12,33  L 12,32  Z  " style="fill:rgb(31, 31, 31); fill-opacity:1.000; stroke:none;" />
 <path d="  M 42,26  L 42,25  L 25,25  L 25,26  L 21,26  L 21,27  L 18,27  L 18,28  L 16,28  L 16,29  L 14,29  L 14,30  L 13,30  L 13,31  L 12,31  L 12,32  L 15,32  L 15,31  L 19,31  L 19,30  L 25,30  L 25,29  L 38,29  L 38,30  L 43,30  L 43,29  L 44,29  L 44,27  L 45,27  L 45,26  Z  " style="fill:rgb(31, 31, 31); fill-opacity:1.000; stroke:none;" />
 <path d="  M 13,41  L 13,42  L 14,42  L 14,41  Z  " style="fill:rgb(31, 31, 31); fill-opacity:1.000; stroke:none;" />
 <path d="  M 19,17  L 19,18  L 17,18  L 17,19  L 16,19  L 16,20  L 15,20  L 15,21  L 14,21  L 14,22  L 16,22  L 16,21  L 18,21  L 18,20  L 21,20  L 21,19  L 25,19  L 25,18  L 32,18  L 32,17  L 34,17  L 34,18  L 41,18  L 41,19  L 44,19  L 44,18  L 45,18  L 45,17  L 44,17  L 44,16  L 42,16  L 42,15  L 26,15  L 26,16  L 21,16  L 21,17  Z  " style="fill:rgb(31, 31, 31); fill-opacity:1.000; stroke:none;" />
 <path d="  M 36,37  L 36,38  L 41,38  L 41,39  L 43,39  L 43,36  L 40,36  L 40,35  L 36,35  L 36,34  L 23,34  L 23,35  L 20,35  L 20,36  L 19,36  L 19,37  L 17,37  L 17,38  L 16,38  L 16,39  L 15,39  L 15,40  L 14,40  L 14,41  L 16,41  L 16,40  L 17,40  L 17,39  L 21,39  L 21,38  L 27,38  L 27,37  Z  " style="fill:rgb(31, 31, 31); fill-opacity:1.000; stroke:none;" />
 <path d="  M 13,32  L 12,32  L 12,33  L 13,33  Z  " style="fill:rgb(43, 50, 32); fill-opacity:1.000; stroke:none;" />
 <path d="  M 15,23  L 15,22  L 14,22  L 14,23  Z  " style="fill:rgb(43, 50, 32); fill-opacity:1.000; stroke:none;" />
 <path d="  M 15,19  L 15,20  L 16,20  L 16,19  Z  " style="fill:rgb(43, 50, 32); fill-opacity:1.000; stroke:none;" />
 <path d="  M 16,32  L 16,31  L 15,31  L 15,32  Z  " style="fill:rgb(43, 50, 32); fill-opacity:1.000; stroke:none;" />
 <path d="  M 17,22  L 17,21  L 16,21  L 16,22  Z  " style="fill:rgb(43, 50, 32); fill-opacity:1.000; stroke:none;" />
 <path d="  M 17,40  L 18,40  L 18,39  L 17,39  Z  " style="fill:rgb(43, 50, 32); fill-opacity:1.000; stroke:none;" />
 <path d="  M 19,21  L 19,20  L 18,20  L 18,21  Z  " style="fill:rgb(43, 50, 32); fill-opacity:1.000; stroke:none;" />
 <path d="  M 19,30  L 19,31  L 20,31  L 20,30  Z  " style="fill:rgb(43, 50, 32); fill-opacity:1.000; stroke:none;" />
 <path d="  M 21,20  L 22,20  L 22,19  L 21,19  Z  " style="fill:rgb(43, 50, 32); fill-opacity:1.000; stroke:none;" />
 <path d="  M 22,39  L 22,38  L 21,38  L 21,39  Z  " style="fill:rgb(43, 50, 32); fill-opacity:1.000; stroke:none;" />
 <path d="  M 25,18  L 25,19  L 26,19  L 26,18  Z  " style="fill:rgb(43, 50, 32); fill-opacity:1.000; stroke:none;" />
 <path d="  M 27,29  L 25,29  L 25,30  L 27,30  Z  " style="fill:rgb(43, 50, 32); fill-opacity:1.000; stroke:none;" />
 <path d="  M 27,38  L 30,38  L 30,37  L 27,37  Z  " style="fill:rgb(43, 50, 32); fill-opacity:1.000; stroke:none;" />
 <path d="  M 34,18  L 34,17  L 32,17  L 32,18  Z  " style="fill:rgb(43, 50, 32); fill-opacity:1.000; stroke:none;" />
 <path d="  M 38,25  L 38,24  L 34,24  L 34,25  Z  " style="fill:rgb(43, 50, 32); fill-opacity:1.000; stroke:none;" />
 <path d="  M 34,38  L 36,38  L 36,37  L 34,37  Z  " style="fill:rgb(43, 50, 32); fill-opacity:1.000; stroke:none;" />
 <path d="  M 38,30  L 38,29  L 36,29  L 36,30  Z  " style="fill:rgb(43, 50, 32); fill-opacity:1.000; stroke:none;" />
 <path d="  M 37,35  L 37,34  L 36,34  L 36,35  Z  " style="fill:rgb(43, 50, 32); fill-opacity:1.000; stroke:none;" />
 <path d="  M 41,35  L 40,35  L 40,36  L 41,36  Z  " style="fill:rgb(43, 50, 32); fill-opacity:1.000; stroke:none;" />
 <path d="  M 42,16  L 43,16  L 43,15  L 42,15  Z  " style="fill:rgb(43, 50, 32); fill-opacity:1.000; stroke:none;" />
 <path d="  M 43,25  L 42,25  L 42,26  L 43,26  Z  " style="fill:rgb(43, 50, 32); fill-opacity:1.000; stroke:none;" />
 <path d="  M 44,38  L 43,38  L 43,39  L 44,39  Z  " style="fill:rgb(43, 50, 32); fill-opacity:1.000; stroke:none;" />
 <path d="  M 45,16  L 44,16  L 44,17  L 45,17  Z  " style="fill:rgb(43, 50, 32); fill-opacity:1.000; stroke:none;" />
 <path d="  M 13,42  L 12,42  L 12,43  L 13,43  Z  " style="fill:rgb(56, 69, 32); fill-opacity:1.000; stroke:none;" />
 <path d="  M 13,22  L 13,23  L 14,23  L 14,22  Z  " style="fill:rgb(56, 69, 32); fill-opacity:1.000; stroke:none;" />
 <path d="  M 15,20  L 14,20  L 14,21  L 15,21  Z  " style="fill:rgb(56, 69, 32); fill-opacity:1.000; stroke:none;" />
 <path d="  M 15,42  L 15,41  L 14,41  L 14,42  Z  " style="fill:rgb(56, 69, 32); fill-opacity:1.000; stroke:none;" />
 <path d="  M 18,17  L 18,18  L 19,18  L 19,17  Z  " style="fill:rgb(56, 69, 32); fill-opacity:1.000; stroke:none;" />
 <path d="  M 18,37  L 19,37  L 19,36  L 18,36  Z  " style="fill:rgb(56, 69, 32); fill-opacity:1.000; stroke:none;" />
 <path d="  M 20,16  L 20,17  L 21,17  L 21,16  Z  " style="fill:rgb(56, 69, 32); fill-opacity:1.000; stroke:none;" />
 <path d="  M 22,35  L 23,35  L 23,34  L 22,34  Z  " style="fill:rgb(56, 69, 32); fill-opacity:1.000; stroke:none;" />
 <path d="  M 25,26  L 25,25  L 24,25  L 24,26  Z  " style="fill:rgb(56, 69, 32); fill-opacity:1.000; stroke:none;" />
 <path d="  M 26,16  L 26,15  L 25,15  L 25,16  Z  " style="fill:rgb(56, 69, 32); fill-opacity:1.000; stroke:none;" />
 <path d="  M 27,29  L 27,30  L 28,30  L 28,29  Z  " style="fill:rgb(56, 69, 32); fill-opacity:1.000; stroke:none;" />
 <path d="  M 31,34  L 31,33  L 27,33  L 27,34  Z  " style="fill:rgb(56, 69, 32); fill-opacity:1.000; stroke:none;" />
 <path d="  M 34,25  L 34,24  L 29,24  L 29,25  Z  " style="fill:rgb(56, 69, 32); fill-opacity:1.000; stroke:none;" />
 <path d="  M 30,37  L 30,38  L 34,38  L 34,37  Z  " style="fill:rgb(56, 69, 32); fill-opacity:1.000; stroke:none;" />
 <path d="  M 36,30  L 36,29  L 31,29  L 31,30  Z  " style="fill:rgb(56, 69, 32); fill-opacity:1.000; stroke:none;" />
 <path d="  M 37,34  L 37,35  L 38,35  L 38,34  Z  " style="fill:rgb(56, 69, 32); fill-opacity:1.000; stroke:none;" />
 <path d="  M 38,24  L 38,25  L 41,25  L 41,24  Z  " style="fill:rgb(56, 69, 32); fill-opacity:1.000; stroke:none;" />
 <path d="  M 40,18  L 40,19  L 41,19  L 41,18  Z  " style="fill:rgb(56, 69, 32); fill-opacity:1.000; stroke:none;" />
 <path d="  M 41,38  L 40,38  L 40,39  L 41,39  Z  " style="fill:rgb(56, 69, 32); fill-opacity:1.000; stroke:none;" />
 <path d="  M 44,27  L 44,28  L 45,28  L 45,27  Z  " style="fill:rgb(56, 69, 32); fill-opacity:1.000; stroke:none;" />
 <path d="  M 15,19  L 14,19  L 14,20  L 15,20  Z  " style="fill:rgb(119, 166, 36); fill-opacity:1.000; stroke:none;" />
 <path d="  M 14,28  L 14,29  L 15,29  L 15,28  Z  " style="fill:rgb(119, 166, 36); fill-opacity:1.000; stroke:none;" />
 <path d="  M 15,32  L 14,32  L 14,33  L 15,33  Z  " style="fill:rgb(119, 166, 36); fill-opacity:1.000; stroke:none;" />
 <path d="  M 16,42  L 16,41  L 15,41  L 15,42  Z  " style="fill:rgb(119, 166, 36); fill-opacity:1.000; stroke:none;" />
 <path d="  M 16,27  L 16,28  L 17,28  L 17,27  Z  " style="fill:rgb(119, 166, 36); fill-opacity:1.000; stroke:none;" />
 <path d="  M 17,18  L 18,18  L 18,17  L 17,17  Z  " style="fill:rgb(119, 166, 36); fill-opacity:1.000; stroke:none;" />
 <path d="  M 18,37  L 18,36  L 17,36  L 17,37  Z  " style="fill:rgb(119, 166, 36); fill-opacity:1.000; stroke:none;" />
 <path d="  M 18,26  L 18,27  L 19,27  L 19,26  Z  " style="fill:rgb(119, 166, 36); fill-opacity:1.000; stroke:none;" />
 <path d="  M 19,35  L 18,35  L 18,36  L 19,36  Z  " style="fill:rgb(119, 166, 36); fill-opacity:1.000; stroke:none;" />
 <path d="  M 21,34  L 20,34  L 20,35  L 21,35  Z  " style="fill:rgb(119, 166, 36); fill-opacity:1.000; stroke:none;" />
 <path d="  M 23,16  L 23,15  L 21,15  L 21,16  Z  " style="fill:rgb(119, 166, 36); fill-opacity:1.000; stroke:none;" />
 <path d="  M 23,25  L 22,25  L 22,26  L 23,26  Z  " style="fill:rgb(119, 166, 36); fill-opacity:1.000; stroke:none;" />
 <path d="  M 24,33  L 23,33  L 23,34  L 24,34  Z  " style="fill:rgb(119, 166, 36); fill-opacity:1.000; stroke:none;" />
 <path d="  M 26,25  L 27,25  L 27,24  L 26,24  Z  " style="fill:rgb(119, 166, 36); fill-opacity:1.000; stroke:none;" />
 <path d="  M 27,15  L 28,15  L 28,14  L 27,14  Z  " style="fill:rgb(119, 166, 36); fill-opacity:1.000; stroke:none;" />
 <path d="  M 29,18  L 29,19  L 30,19  L 30,18  Z  " style="fill:rgb(119, 166, 36); fill-opacity:1.000; stroke:none;" />
 <path d="  M 37,19  L 37,18  L 35,18  L 35,19  Z  " style="fill:rgb(119, 166, 36); fill-opacity:1.000; stroke:none;" />
 <path d="  M 37,39  L 38,39  L 38,38  L 37,38  Z  " style="fill:rgb(119, 166, 36); fill-opacity:1.000; stroke:none;" />
 <path d="  M 42,30  L 40,30  L 40,31  L 42,31  Z  " style="fill:rgb(119, 166, 36); fill-opacity:1.000; stroke:none;" />
 <path d="  M 41,15  L 42,15  L 42,14  L 41,14  Z  " style="fill:rgb(119, 166, 36); fill-opacity:1.000; stroke:none;" />
 <path d="  M 42,20  L 42,19  L 41,19  L 41,20  Z  " style="fill:rgb(119, 166, 36); fill-opacity:1.000; stroke:none;" />
 <path d="  M 41,39  L 41,40  L 42,40  L 42,39  Z  " style="fill:rgb(119, 166, 36); fill-opacity:1.000; stroke:none;" />
 <path d="  M 42,25  L 43,25  L 43,24  L 42,24  Z  " style="fill:rgb(119, 166, 36); fill-opacity:1.000; stroke:none;" />
 <path d="  M 43,20  L 44,20  L 44,19  L 43,19  Z  " style="fill:rgb(119, 166, 36); fill-opacity:1.000; stroke:none;" />
 <path d="  M 45,38  L 44,38  L 44,39  L 45,39  Z  " style="fill:rgb(119, 166, 36); fill-opacity:1.000; stroke:none;" />
 <path d="  M 19,35  L 19,36  L 20,36  L 20,35  Z  " style="fill:rgb(68, 89, 33); fill-opacity:1.000; stroke:none;" />
 <path d="  M 22,39  L 23,39  L 23,38  L 22,38  Z  " style="fill:rgb(68, 89, 33); fill-opacity:1.000; stroke:none;" />
 <path d="  M 27,34  L 27,33  L 25,33  L 25,34  Z  " style="fill:rgb(68, 89, 33); fill-opacity:1.000; stroke:none;" />
 <path d="  M 26,19  L 27,19  L 27,18  L 26,18  Z  " style="fill:rgb(68, 89, 33); fill-opacity:1.000; stroke:none;" />
 <path d="  M 31,30  L 31,29  L 28,29  L 28,30  Z  " style="fill:rgb(68, 89, 33); fill-opacity:1.000; stroke:none;" />
 <path d="  M 32,33  L 31,33  L 31,34  L 32,34  Z  " style="fill:rgb(68, 89, 33); fill-opacity:1.000; stroke:none;" />
 <path d="  M 32,14  L 32,15  L 35,15  L 35,14  Z  " style="fill:rgb(68, 89, 33); fill-opacity:1.000; stroke:none;" />
 <path d="  M 39,19  L 40,19  L 40,18  L 39,18  Z  " style="fill:rgb(68, 89, 33); fill-opacity:1.000; stroke:none;" />
 <path d="  M 42,35  L 41,35  L 41,36  L 42,36  Z  " style="fill:rgb(68, 89, 33); fill-opacity:1.000; stroke:none;" />
 <path d="  M 43,25  L 43,26  L 44,26  L 44,25  Z  " style="fill:rgb(68, 89, 33); fill-opacity:1.000; stroke:none;" />
 <path d="  M 43,38  L 44,38  L 44,37  L 43,37  Z  " style="fill:rgb(68, 89, 33); fill-opacity:1.000; stroke:none;" />
</svg>
