<?xml version="1.0" encoding="UTF-8" standalone="no"?>
<!DOCTYPE svg PUBLIC "-//W3C//DTD SVG 1.1//EN" 
  "http://www.w3.org/Graphics/SVG/1.1/DTD/svg11.dtd">
<svg width="32" height="16"
	 xmlns="http://www.w3.org/2000/svg" version="1.1">
 <path d="  M 6,7  L 6,6  L 5,6  L 5,7  Z  " style="fill:rgb(30, 88, 36); fill-opacity:0.067; stroke:none;" />
 <path d="  M 6,7  L 5,7  L 5,8  L 6,8  Z  " style="fill:rgb(30, 94, 37); fill-opacity:0.118; stroke:none;" />
 <path d="  M 5,10  L 5,12  L 6,12  L 6,10  Z  " style="fill:rgb(31, 31, 31); fill-opacity:0.004; stroke:none;" />
 <path d="  M 6,4  L 7,4  L 7,3  L 6,3  Z  " style="fill:rgb(55, 55, 55); fill-opacity:0.020; stroke:none;" />
 <path d="  M 6,4  L 6,5  L 7,5  L 7,4  Z  " style="fill:rgb(56, 53, 56); fill-opacity:0.024; stroke:none;" />
 <path d="  M 7,6  L 7,5  L 6,5  L 6,6  Z  " style="fill:rgb(31, 46, 32); fill-opacity:0.031; stroke:none;" />
 <path d="  M 7,6  L 6,6  L 6,7  L 7,7  Z  " style="fill:rgb(27, 160, 42); fill-opacity:0.545; stroke:none;" />
 <path d="  M 6,7  L 6,8  L 7,8  L 7,7  Z  " style="fill:rgb(27, 170, 43); fill-opacity:0.722; stroke:none;" />
 <path d="  M 7,9  L 7,8  L 6,8  L 6,9  Z  " style="fill:rgb(29, 107, 38); fill-opacity:0.118; stroke:none;" />
 <path d="  M 7,12  L 7,10  L 6,10  L 6,12  Z  " style="fill:rgb(31, 31, 31); fill-opacity:0.012; stroke:none;" />
 <path d="  M 8,3  L 7,3  L 7,4  L 8,4  Z  " style="fill:rgb(118, 118, 118); fill-opacity:0.314; stroke:none;" />
 <path d="  M 7,5  L 8,5  L 8,4  L 7,4  Z  " style="fill:rgb(124, 120, 123); fill-opacity:0.412; stroke:none;" />
 <path d="  M 8,5  L 7,5  L 7,6  L 8,6  Z  " style="fill:rgb(25, 129, 37); fill-opacity:0.275; stroke:none;" />
 <path d="  M 7,7  L 8,7  L 8,6  L 7,6  Z  " style="fill:rgb(26, 197, 45); fill-opacity:0.922; stroke:none;" />
 <path d="  M 8,8  L 8,7  L 7,7  L 7,8  Z  " style="fill:rgb(25, 207, 46); fill-opacity:0.996; stroke:none;" />
 <path d="  M 7,8  L 7,9  L 8,9  L 8,8  Z  " style="fill:rgb(27, 152, 42); fill-opacity:0.451; stroke:none;" />
 <path d="  M 9,2  L 8,2  L 8,3  L 9,3  Z  " style="fill:rgb(0, 0, 0); fill-opacity:0.008; stroke:none;" />
 <path d="  M 8,3  L 8,4  L 9,4  L 9,3  Z  " style="fill:rgb(143, 143, 143); fill-opacity:0.549; stroke:none;" />
 <path d="  M 8,5  L 9,5  L 9,4  L 8,4  Z  " style="fill:rgb(151, 152, 151); fill-opacity:0.816; stroke:none;" />
 <path d="  M 8,5  L 8,6  L 9,6  L 9,5  Z  " style="fill:rgb(33, 160, 48); fill-opacity:0.722; stroke:none;" />
 <path d="  M 9,7  L 9,6  L 8,6  L 8,7  Z  " style="fill:rgb(24, 213, 46); fill-opacity:1.000; stroke:none;" />
 <path d="  M 8,7  L 8,8  L 9,8  L 9,7  Z  " style="fill:rgb(25, 215, 47); fill-opacity:1.000; stroke:none;" />
 <path d="  M 23,6  L 23,4  L 22,4  L 22,6  Z  " style="fill:rgb(25, 215, 47); fill-opacity:1.000; stroke:none;" />
 <path d="  M 23,7  L 24,7  L 24,6  L 23,6  Z  " style="fill:rgb(25, 215, 47); fill-opacity:1.000; stroke:none;" />
 <path d="  M 25,8  L 25,7  L 24,7  L 24,8  Z  " style="fill:rgb(25, 215, 47); fill-opacity:1.000; stroke:none;" />
 <path d="  M 9,8  L 8,8  L 8,9  L 9,9  Z  " style="fill:rgb(26, 183, 44); fill-opacity:0.788; stroke:none;" />
 <path d="  M 9,10  L 9,9  L 8,9  L 8,10  Z  " style="fill:rgb(29, 100, 38); fill-opacity:0.114; stroke:none;" />
 <path d="  M 10,3  L 10,2  L 9,2  L 9,3  Z  " style="fill:rgb(0, 0, 0); fill-opacity:0.031; stroke:none;" />
 <path d="  M 9,4  L 10,4  L 10,3  L 9,3  Z  " style="fill:rgb(136, 136, 136); fill-opacity:0.655; stroke:none;" />
 <path d="  M 9,4  L 9,5  L 10,5  L 10,4  Z  " style="fill:rgb(177, 178, 178); fill-opacity:1.000; stroke:none;" />
 <path d="  M 9,6  L 10,6  L 10,5  L 9,5  Z  " style="fill:rgb(93, 170, 102); fill-opacity:0.988; stroke:none;" />
 <path d="  M 10,7  L 10,6  L 9,6  L 9,7  Z  " style="fill:rgb(28, 205, 48); fill-opacity:1.000; stroke:none;" />
 <path d="  M 9,7  L 9,8  L 10,8  L 10,7  Z  " style="fill:rgb(24, 217, 46); fill-opacity:1.000; stroke:none;" />
 <path d="  M 10,8  L 9,8  L 9,9  L 10,9  Z  " style="fill:rgb(25, 205, 46); fill-opacity:0.980; stroke:none;" />
 <path d="  M 9,10  L 10,10  L 10,9  L 9,9  Z  " style="fill:rgb(28, 149, 42); fill-opacity:0.424; stroke:none;" />
 <path d="  M 11,2  L 10,2  L 10,3  L 11,3  Z  " style="fill:rgb(29, 29, 29); fill-opacity:0.078; stroke:none;" />
 <path d="  M 11,3  L 10,3  L 10,4  L 11,4  Z  " style="fill:rgb(134, 134, 134); fill-opacity:0.773; stroke:none;" />
 <path d="  M 11,5  L 11,4  L 10,4  L 10,5  Z  " style="fill:rgb(191, 190, 191); fill-opacity:1.000; stroke:none;" />
 <path d="  M 13,7  L 13,8  L 14,8  L 14,7  Z  " style="fill:rgb(191, 190, 191); fill-opacity:1.000; stroke:none;" />
 <path d="  M 11,5  L 10,5  L 10,6  L 11,6  Z  " style="fill:rgb(179, 183, 179); fill-opacity:1.000; stroke:none;" />
 <path d="  M 16,5  L 16,6  L 17,6  L 17,5  Z  " style="fill:rgb(179, 183, 179); fill-opacity:1.000; stroke:none;" />
 <path d="  M 10,7  L 11,7  L 11,6  L 10,6  Z  " style="fill:rgb(99, 174, 108); fill-opacity:1.000; stroke:none;" />
 <path d="  M 10,7  L 10,8  L 11,8  L 11,7  Z  " style="fill:rgb(35, 198, 53); fill-opacity:1.000; stroke:none;" />
 <path d="  M 10,9  L 11,9  L 11,8  L 10,8  Z  " style="fill:rgb(23, 212, 45); fill-opacity:1.000; stroke:none;" />
 <path d="  M 19,12  L 20,12  L 20,11  L 19,11  Z  " style="fill:rgb(23, 212, 45); fill-opacity:1.000; stroke:none;" />
 <path d="  M 10,9  L 10,10  L 11,10  L 11,9  Z  " style="fill:rgb(25, 182, 43); fill-opacity:0.765; stroke:none;" />
 <path d="  M 10,10  L 10,11  L 11,11  L 11,10  Z  " style="fill:rgb(28, 92, 36); fill-opacity:0.094; stroke:none;" />
 <path d="  M 11,2  L 11,3  L 12,3  L 12,2  Z  " style="fill:rgb(62, 60, 62); fill-opacity:0.145; stroke:none;" />
 <path d="  M 12,4  L 12,3  L 11,3  L 11,4  Z  " style="fill:rgb(152, 152, 152); fill-opacity:0.859; stroke:none;" />
 <path d="  M 11,4  L 11,5  L 12,5  L 12,4  Z  " style="fill:rgb(192, 192, 192); fill-opacity:1.000; stroke:none;" />
 <path d="  M 13,5  L 12,5  L 12,7  L 13,7  Z  " style="fill:rgb(192, 192, 192); fill-opacity:1.000; stroke:none;" />
 <path d="  M 14,9  L 14,8  L 13,8  L 13,9  Z  " style="fill:rgb(192, 192, 192); fill-opacity:1.000; stroke:none;" />
 <path d="  M 15,11  L 14,11  L 14,12  L 15,12  Z  " style="fill:rgb(192, 192, 192); fill-opacity:1.000; stroke:none;" />
 <path d="  M 15,12  L 15,13  L 16,13  L 16,12  Z  " style="fill:rgb(192, 192, 192); fill-opacity:1.000; stroke:none;" />
 <path d="  M 17,11  L 17,10  L 16,10  L 16,11  Z  " style="fill:rgb(192, 192, 192); fill-opacity:1.000; stroke:none;" />
 <path d="  M 12,5  L 11,5  L 11,6  L 12,6  Z  " style="fill:rgb(192, 191, 192); fill-opacity:1.000; stroke:none;" />
 <path d="  M 17,6  L 18,6  L 18,5  L 17,5  Z  " style="fill:rgb(192, 191, 192); fill-opacity:1.000; stroke:none;" />
 <path d="  M 17,8  L 18,8  L 18,7  L 17,7  Z  " style="fill:rgb(192, 191, 192); fill-opacity:1.000; stroke:none;" />
 <path d="  M 12,6  L 11,6  L 11,7  L 12,7  Z  " style="fill:rgb(184, 185, 184); fill-opacity:1.000; stroke:none;" />
 <path d="  M 12,9  L 13,9  L 13,8  L 12,8  Z  " style="fill:rgb(184, 185, 184); fill-opacity:1.000; stroke:none;" />
 <path d="  M 11,7  L 11,8  L 12,8  L 12,7  Z  " style="fill:rgb(141, 174, 145); fill-opacity:1.000; stroke:none;" />
 <path d="  M 12,9  L 12,8  L 11,8  L 11,9  Z  " style="fill:rgb(82, 179, 93); fill-opacity:1.000; stroke:none;" />
 <path d="  M 11,9  L 11,10  L 12,10  L 12,9  Z  " style="fill:rgb(38, 183, 55); fill-opacity:0.965; stroke:none;" />
 <path d="  M 12,10  L 11,10  L 11,11  L 12,11  Z  " style="fill:rgb(25, 132, 38); fill-opacity:0.369; stroke:none;" />
 <path d="  M 12,3  L 13,3  L 13,2  L 12,2  Z  " style="fill:rgb(65, 79, 67); fill-opacity:0.310; stroke:none;" />
 <path d="  M 13,3  L 12,3  L 12,4  L 13,4  Z  " style="fill:rgb(160, 162, 161); fill-opacity:0.941; stroke:none;" />
 <path d="  M 13,4  L 12,4  L 12,5  L 13,5  Z  " style="fill:rgb(193, 192, 193); fill-opacity:1.000; stroke:none;" />
 <path d="  M 17,8  L 17,7  L 16,7  L 16,8  Z  " style="fill:rgb(193, 192, 193); fill-opacity:1.000; stroke:none;" />
 <path d="  M 13,8  L 13,7  L 12,7  L 12,8  Z  " style="fill:rgb(193, 191, 193); fill-opacity:1.000; stroke:none;" />
 <path d="  M 13,10  L 14,10  L 14,9  L 13,9  Z  " style="fill:rgb(193, 191, 193); fill-opacity:1.000; stroke:none;" />
 <path d="  M 17,8  L 17,9  L 18,9  L 18,8  Z  " style="fill:rgb(193, 191, 193); fill-opacity:1.000; stroke:none;" />
 <path d="  M 13,9  L 12,9  L 12,10  L 13,10  Z  " style="fill:rgb(147, 174, 150); fill-opacity:1.000; stroke:none;" />
 <path d="  M 12,10  L 12,11  L 13,11  L 13,10  Z  " style="fill:rgb(125, 151, 128); fill-opacity:0.820; stroke:none;" />
 <path d="  M 13,11  L 12,11  L 12,12  L 13,12  Z  " style="fill:rgb(132, 131, 132); fill-opacity:0.404; stroke:none;" />
 <path d="  M 13,12  L 12,12  L 12,13  L 13,13  Z  " style="fill:rgb(86, 86, 86); fill-opacity:0.090; stroke:none;" />
 <path d="  M 13,2  L 14,2  L 14,1  L 13,1  Z  " style="fill:rgb(12, 85, 20); fill-opacity:0.051; stroke:none;" />
 <path d="  M 13,2  L 13,3  L 14,3  L 14,2  Z  " style="fill:rgb(54, 118, 61); fill-opacity:0.671; stroke:none;" />
 <path d="  M 14,4  L 14,3  L 13,3  L 13,4  Z  " style="fill:rgb(133, 144, 134); fill-opacity:1.000; stroke:none;" />
 <path d="  M 13,4  L 13,5  L 14,5  L 14,4  Z  " style="fill:rgb(153, 166, 154); fill-opacity:1.000; stroke:none;" />
 <path d="  M 13,5  L 13,6  L 14,6  L 14,5  Z  " style="fill:rgb(174, 182, 175); fill-opacity:1.000; stroke:none;" />
 <path d="  M 14,6  L 13,6  L 13,7  L 14,7  Z  " style="fill:rgb(184, 186, 184); fill-opacity:1.000; stroke:none;" />
 <path d="  M 13,10  L 13,11  L 14,11  L 14,10  Z  " style="fill:rgb(190, 190, 190); fill-opacity:1.000; stroke:none;" />
 <path d="  M 13,12  L 14,12  L 14,11  L 13,11  Z  " style="fill:rgb(181, 181, 181); fill-opacity:0.973; stroke:none;" />
 <path d="  M 13,12  L 13,13  L 14,13  L 14,12  Z  " style="fill:rgb(157, 157, 157); fill-opacity:0.714; stroke:none;" />
 <path d="  M 14,14  L 14,13  L 13,13  L 13,14  Z  " style="fill:rgb(119, 119, 119); fill-opacity:0.267; stroke:none;" />
 <path d="  M 13,15  L 14,15  L 14,14  L 13,14  Z  " style="fill:rgb(63, 63, 63); fill-opacity:0.024; stroke:none;" />
 <path d="  M 15,0  L 14,0  L 14,1  L 15,1  Z  " style="fill:rgb(32, 36, 33); fill-opacity:0.020; stroke:none;" />
 <path d="  M 14,1  L 14,2  L 15,2  L 15,1  Z  " style="fill:rgb(24, 152, 39); fill-opacity:0.412; stroke:none;" />
 <path d="  M 15,2  L 14,2  L 14,3  L 15,3  Z  " style="fill:rgb(52, 169, 66); fill-opacity:0.949; stroke:none;" />
 <path d="  M 14,4  L 15,4  L 15,3  L 14,3  Z  " style="fill:rgb(93, 159, 101); fill-opacity:1.000; stroke:none;" />
 <path d="  M 15,5  L 15,4  L 14,4  L 14,5  Z  " style="fill:rgb(43, 187, 60); fill-opacity:1.000; stroke:none;" />
 <path d="  M 14,6  L 15,6  L 15,5  L 14,5  Z  " style="fill:rgb(52, 188, 68); fill-opacity:1.000; stroke:none;" />
 <path d="  M 15,6  L 14,6  L 14,7  L 15,7  Z  " style="fill:rgb(79, 173, 90); fill-opacity:1.000; stroke:none;" />
 <path d="  M 15,8  L 15,7  L 14,7  L 14,8  Z  " style="fill:rgb(133, 162, 136); fill-opacity:1.000; stroke:none;" />
 <path d="  M 14,9  L 15,9  L 15,8  L 14,8  Z  " style="fill:rgb(185, 185, 185); fill-opacity:1.000; stroke:none;" />
 <path d="  M 16,10  L 17,10  L 17,8  L 16,8  L 16,9  L 14,9  L 14,11  L 15,11  L 15,12  L 16,12  Z  " style="fill:rgb(191, 191, 191); fill-opacity:1.000; stroke:none;" />
 <path d="  M 17,6  L 17,7  L 18,7  L 18,6  Z  " style="fill:rgb(191, 191, 191); fill-opacity:1.000; stroke:none;" />
 <path d="  M 15,13  L 15,12  L 14,12  L 14,13  Z  " style="fill:rgb(189, 189, 189); fill-opacity:1.000; stroke:none;" />
 <path d="  M 14,14  L 15,14  L 15,13  L 14,13  Z  " style="fill:rgb(165, 165, 165); fill-opacity:0.855; stroke:none;" />
 <path d="  M 15,14  L 14,14  L 14,15  L 15,15  Z  " style="fill:rgb(103, 103, 103); fill-opacity:0.200; stroke:none;" />
 <path d="  M 16,1  L 16,0  L 15,0  L 15,1  Z  " style="fill:rgb(29, 127, 39); fill-opacity:0.275; stroke:none;" />
 <path d="  M 16,2  L 16,1  L 15,1  L 15,2  Z  " style="fill:rgb(26, 192, 45); fill-opacity:0.882; stroke:none;" />
 <path d="  M 16,2  L 15,2  L 15,3  L 16,3  Z  " style="fill:rgb(28, 206, 49); fill-opacity:1.000; stroke:none;" />
 <path d="  M 16,4  L 16,3  L 15,3  L 15,4  Z  " style="fill:rgb(30, 198, 49); fill-opacity:1.000; stroke:none;" />
 <path d="  M 16,5  L 16,4  L 15,4  L 15,5  Z  " style="fill:rgb(35, 199, 54); fill-opacity:1.000; stroke:none;" />
 <path d="  M 16,5  L 15,5  L 15,6  L 16,6  Z  " style="fill:rgb(65, 184, 79); fill-opacity:1.000; stroke:none;" />
 <path d="  M 15,7  L 16,7  L 16,6  L 15,6  Z  " style="fill:rgb(109, 173, 117); fill-opacity:1.000; stroke:none;" />
 <path d="  M 15,7  L 15,8  L 16,8  L 16,7  Z  " style="fill:rgb(155, 172, 157); fill-opacity:1.000; stroke:none;" />
 <path d="  M 16,8  L 15,8  L 15,9  L 16,9  Z  " style="fill:rgb(188, 188, 188); fill-opacity:1.000; stroke:none;" />
 <path d="  M 15,14  L 16,14  L 16,13  L 15,13  Z  " style="fill:rgb(175, 175, 175); fill-opacity:0.918; stroke:none;" />
 <path d="  M 15,14  L 15,15  L 16,15  L 16,14  Z  " style="fill:rgb(109, 109, 109); fill-opacity:0.216; stroke:none;" />
 <path d="  M 17,1  L 17,0  L 16,0  L 16,1  Z  " style="fill:rgb(28, 125, 40); fill-opacity:0.247; stroke:none;" />
 <path d="  M 16,2  L 17,2  L 17,1  L 16,1  Z  " style="fill:rgb(25, 195, 45); fill-opacity:0.898; stroke:none;" />
 <path d="  M 16,3  L 17,3  L 17,2  L 16,2  Z  " style="fill:rgb(41, 191, 59); fill-opacity:1.000; stroke:none;" />
 <path d="  M 17,3  L 16,3  L 16,4  L 17,4  Z  " style="fill:rgb(103, 173, 111); fill-opacity:1.000; stroke:none;" />
 <path d="  M 16,4  L 16,5  L 17,5  L 17,4  Z  " style="fill:rgb(148, 176, 151); fill-opacity:1.000; stroke:none;" />
 <path d="  M 16,6  L 16,7  L 17,7  L 17,6  Z  " style="fill:rgb(191, 189, 191); fill-opacity:1.000; stroke:none;" />
 <path d="  M 18,10  L 18,9  L 17,9  L 17,10  Z  " style="fill:rgb(191, 189, 191); fill-opacity:1.000; stroke:none;" />
 <path d="  M 17,11  L 16,11  L 16,12  L 17,12  Z  " style="fill:rgb(193, 190, 192); fill-opacity:1.000; stroke:none;" />
 <path d="  M 16,12  L 16,13  L 17,13  L 17,12  Z  " style="fill:rgb(191, 189, 190); fill-opacity:1.000; stroke:none;" />
 <path d="  M 17,14  L 17,13  L 16,13  L 16,14  Z  " style="fill:rgb(171, 170, 171); fill-opacity:0.906; stroke:none;" />
 <path d="  M 16,15  L 17,15  L 17,14  L 16,14  Z  " style="fill:rgb(105, 105, 105); fill-opacity:0.204; stroke:none;" />
 <path d="  M 17,0  L 17,1  L 18,1  L 18,0  Z  " style="fill:rgb(30, 90, 37); fill-opacity:0.082; stroke:none;" />
 <path d="  M 18,2  L 18,1  L 17,1  L 17,2  Z  " style="fill:rgb(25, 182, 43); fill-opacity:0.753; stroke:none;" />
 <path d="  M 18,2  L 17,2  L 17,3  L 18,3  Z  " style="fill:rgb(46, 189, 63); fill-opacity:1.000; stroke:none;" />
 <path d="  M 23,7  L 22,7  L 22,8  L 23,8  Z  " style="fill:rgb(46, 189, 63); fill-opacity:1.000; stroke:none;" />
 <path d="  M 17,3  L 17,4  L 18,4  L 18,3  Z  " style="fill:rgb(165, 176, 166); fill-opacity:1.000; stroke:none;" />
 <path d="  M 18,4  L 17,4  L 17,5  L 18,5  Z  " style="fill:rgb(195, 192, 194); fill-opacity:1.000; stroke:none;" />
 <path d="  M 17,11  L 18,11  L 18,10  L 17,10  Z  " style="fill:rgb(171, 180, 172); fill-opacity:1.000; stroke:none;" />
 <path d="  M 17,11  L 17,12  L 18,12  L 18,11  Z  " style="fill:rgb(125, 174, 131); fill-opacity:1.000; stroke:none;" />
 <path d="  M 18,12  L 17,12  L 17,13  L 18,13  Z  " style="fill:rgb(98, 172, 106); fill-opacity:0.992; stroke:none;" />
 <path d="  M 18,13  L 17,13  L 17,14  L 18,14  Z  " style="fill:rgb(103, 136, 107); fill-opacity:0.624; stroke:none;" />
 <path d="  M 18,14  L 17,14  L 17,15  L 18,15  Z  " style="fill:rgb(90, 76, 88); fill-opacity:0.078; stroke:none;" />
 <path d="  M 19,1  L 19,0  L 18,0  L 18,1  Z  " style="fill:rgb(34, 0, 29); fill-opacity:0.024; stroke:none;" />
 <path d="  M 18,2  L 19,2  L 19,1  L 18,1  Z  " style="fill:rgb(26, 169, 42); fill-opacity:0.588; stroke:none;" />
 <path d="  M 18,2  L 18,3  L 19,3  L 19,2  Z  " style="fill:rgb(38, 193, 56); fill-opacity:1.000; stroke:none;" />
 <path d="  M 19,8  L 19,9  L 20,9  L 20,8  Z  " style="fill:rgb(38, 193, 56); fill-opacity:1.000; stroke:none;" />
 <path d="  M 19,4  L 19,3  L 18,3  L 18,4  Z  " style="fill:rgb(155, 177, 158); fill-opacity:1.000; stroke:none;" />
 <path d="  M 18,5  L 19,5  L 19,4  L 18,4  Z  " style="fill:rgb(195, 192, 195); fill-opacity:1.000; stroke:none;" />
 <path d="  M 19,6  L 19,5  L 18,5  L 18,6  Z  " style="fill:rgb(192, 190, 192); fill-opacity:1.000; stroke:none;" />
 <path d="  M 19,6  L 18,6  L 18,7  L 19,7  Z  " style="fill:rgb(189, 187, 189); fill-opacity:1.000; stroke:none;" />
 <path d="  M 18,7  L 18,8  L 19,8  L 19,7  Z  " style="fill:rgb(178, 183, 178); fill-opacity:1.000; stroke:none;" />
 <path d="  M 19,8  L 18,8  L 18,9  L 19,9  Z  " style="fill:rgb(152, 176, 155); fill-opacity:1.000; stroke:none;" />
 <path d="  M 18,9  L 18,10  L 19,10  L 19,9  Z  " style="fill:rgb(107, 175, 115); fill-opacity:1.000; stroke:none;" />
 <path d="  M 19,11  L 19,10  L 18,10  L 18,11  Z  " style="fill:rgb(58, 186, 73); fill-opacity:1.000; stroke:none;" />
 <path d="  M 19,12  L 19,11  L 18,11  L 18,12  Z  " style="fill:rgb(29, 205, 49); fill-opacity:1.000; stroke:none;" />
 <path d="  M 18,13  L 19,13  L 19,12  L 18,12  Z  " style="fill:rgb(23, 208, 45); fill-opacity:1.000; stroke:none;" />
 <path d="  M 19,14  L 19,13  L 18,13  L 18,14  Z  " style="fill:rgb(24, 166, 40); fill-opacity:0.604; stroke:none;" />
 <path d="  M 18,14  L 18,15  L 19,15  L 19,14  Z  " style="fill:rgb(24, 31, 23); fill-opacity:0.027; stroke:none;" />
 <path d="  M 19,1  L 19,2  L 20,2  L 20,1  Z  " style="fill:rgb(26, 147, 40); fill-opacity:0.349; stroke:none;" />
 <path d="  M 20,3  L 20,2  L 19,2  L 19,3  Z  " style="fill:rgb(39, 183, 55); fill-opacity:0.965; stroke:none;" />
 <path d="  M 19,4  L 20,4  L 20,3  L 19,3  Z  " style="fill:rgb(149, 172, 152); fill-opacity:1.000; stroke:none;" />
 <path d="  M 20,5  L 20,4  L 19,4  L 19,5  Z  " style="fill:rgb(165, 179, 166); fill-opacity:1.000; stroke:none;" />
 <path d="  M 19,6  L 20,6  L 20,5  L 19,5  Z  " style="fill:rgb(123, 174, 129); fill-opacity:1.000; stroke:none;" />
 <path d="  M 20,6  L 19,6  L 19,7  L 20,7  Z  " style="fill:rgb(93, 175, 102); fill-opacity:1.000; stroke:none;" />
 <path d="  M 20,8  L 20,7  L 19,7  L 19,8  Z  " style="fill:rgb(64, 179, 77); fill-opacity:1.000; stroke:none;" />
 <path d="  M 20,9  L 19,9  L 19,10  L 20,10  Z  " style="fill:rgb(25, 203, 46); fill-opacity:1.000; stroke:none;" />
 <path d="  M 19,11  L 20,11  L 20,10  L 19,10  Z  " style="fill:rgb(22, 212, 44); fill-opacity:1.000; stroke:none;" />
 <path d="  M 20,12  L 19,12  L 19,13  L 20,13  Z  " style="fill:rgb(23, 213, 45); fill-opacity:1.000; stroke:none;" />
 <path d="  M 19,14  L 20,14  L 20,13  L 19,13  Z  " style="fill:rgb(24, 191, 43); fill-opacity:0.890; stroke:none;" />
 <path d="  M 19,15  L 20,15  L 20,14  L 19,14  Z  " style="fill:rgb(20, 120, 32); fill-opacity:0.224; stroke:none;" />
 <path d="  M 20,2  L 21,2  L 21,1  L 20,1  Z  " style="fill:rgb(27, 111, 36); fill-opacity:0.125; stroke:none;" />
 <path d="  M 20,2  L 20,3  L 21,3  L 21,2  Z  " style="fill:rgb(35, 168, 50); fill-opacity:0.816; stroke:none;" />
 <path d="  M 20,4  L 21,4  L 21,3  L 20,3  Z  " style="fill:rgb(68, 173, 80); fill-opacity:1.000; stroke:none;" />
 <path d="  M 20,4  L 20,5  L 21,5  L 21,4  Z  " style="fill:rgb(48, 191, 64); fill-opacity:1.000; stroke:none;" />
 <path d="  M 21,5  L 20,5  L 20,6  L 21,6  Z  " style="fill:rgb(27, 206, 47); fill-opacity:1.000; stroke:none;" />
 <path d="  M 21,7  L 21,6  L 20,6  L 20,7  Z  " style="fill:rgb(40, 190, 58); fill-opacity:1.000; stroke:none;" />
 <path d="  M 21,7  L 20,7  L 20,8  L 21,8  Z  " style="fill:rgb(85, 168, 94); fill-opacity:1.000; stroke:none;" />
 <path d="  M 21,8  L 20,8  L 20,9  L 21,9  Z  " style="fill:rgb(41, 185, 58); fill-opacity:1.000; stroke:none;" />
 <path d="  M 21,10  L 21,9  L 20,9  L 20,10  Z  " style="fill:rgb(89, 167, 98); fill-opacity:1.000; stroke:none;" />
 <path d="  M 21,10  L 20,10  L 20,11  L 21,11  Z  " style="fill:rgb(102, 176, 111); fill-opacity:1.000; stroke:none;" />
 <path d="  M 21,12  L 21,11  L 20,11  L 20,12  Z  " style="fill:rgb(99, 178, 108); fill-opacity:1.000; stroke:none;" />
 <path d="  M 21,12  L 20,12  L 20,13  L 21,13  Z  " style="fill:rgb(99, 179, 108); fill-opacity:1.000; stroke:none;" />
 <path d="  M 21,13  L 20,13  L 20,14  L 21,14  Z  " style="fill:rgb(97, 175, 106); fill-opacity:1.000; stroke:none;" />
 <path d="  M 21,15  L 21,14  L 20,14  L 20,15  Z  " style="fill:rgb(102, 138, 106); fill-opacity:0.690; stroke:none;" />
 <path d="  M 20,16  L 21,16  L 21,15  L 20,15  Z  " style="fill:rgb(87, 79, 87); fill-opacity:0.145; stroke:none;" />
 <path d="  M 22,2  L 22,1  L 21,1  L 21,2  Z  " style="fill:rgb(38, 0, 24); fill-opacity:0.012; stroke:none;" />
 <path d="  M 22,3  L 22,2  L 21,2  L 21,3  Z  " style="fill:rgb(27, 158, 42); fill-opacity:0.522; stroke:none;" />
 <path d="  M 22,3  L 21,3  L 21,4  L 22,4  Z  " style="fill:rgb(24, 207, 45); fill-opacity:0.996; stroke:none;" />
 <path d="  M 21,4  L 21,5  L 22,5  L 22,4  Z  " style="fill:rgb(24, 216, 46); fill-opacity:1.000; stroke:none;" />
 <path d="  M 22,5  L 21,5  L 21,6  L 22,6  Z  " style="fill:rgb(23, 216, 45); fill-opacity:1.000; stroke:none;" />
 <path d="  M 22,6  L 21,6  L 21,7  L 22,7  Z  " style="fill:rgb(53, 188, 68); fill-opacity:1.000; stroke:none;" />
 <path d="  M 21,8  L 22,8  L 22,7  L 21,7  Z  " style="fill:rgb(141, 163, 144); fill-opacity:1.000; stroke:none;" />
 <path d="  M 21,9  L 22,9  L 22,8  L 21,8  Z  " style="fill:rgb(60, 172, 73); fill-opacity:1.000; stroke:none;" />
 <path d="  M 21,9  L 21,10  L 22,10  L 22,9  Z  " style="fill:rgb(90, 162, 99); fill-opacity:1.000; stroke:none;" />
 <path d="  M 22,11  L 22,10  L 21,10  L 21,11  Z  " style="fill:rgb(124, 159, 128); fill-opacity:1.000; stroke:none;" />
 <path d="  M 21,11  L 21,12  L 22,12  L 22,11  Z  " style="fill:rgb(131, 154, 134); fill-opacity:0.984; stroke:none;" />
 <path d="  M 21,12  L 21,13  L 22,13  L 22,12  Z  " style="fill:rgb(152, 153, 152); fill-opacity:0.882; stroke:none;" />
 <path d="  M 21,14  L 22,14  L 22,13  L 21,13  Z  " style="fill:rgb(174, 172, 174); fill-opacity:0.925; stroke:none;" />
 <path d="  M 22,14  L 21,14  L 21,15  L 22,15  Z  " style="fill:rgb(155, 155, 155); fill-opacity:0.776; stroke:none;" />
 <path d="  M 22,16  L 22,15  L 21,15  L 21,16  Z  " style="fill:rgb(91, 91, 91); fill-opacity:0.137; stroke:none;" />
 <path d="  M 23,2  L 22,2  L 22,3  L 23,3  Z  " style="fill:rgb(28, 120, 39); fill-opacity:0.184; stroke:none;" />
 <path d="  M 22,4  L 23,4  L 23,3  L 22,3  Z  " style="fill:rgb(26, 190, 45); fill-opacity:0.859; stroke:none;" />
 <path d="  M 23,7  L 23,6  L 22,6  L 22,7  Z  " style="fill:rgb(29, 207, 49); fill-opacity:1.000; stroke:none;" />
 <path d="  M 23,8  L 22,8  L 22,9  L 23,9  Z  " style="fill:rgb(39, 189, 56); fill-opacity:1.000; stroke:none;" />
 <path d="  M 22,10  L 23,10  L 23,9  L 22,9  Z  " style="fill:rgb(115, 166, 121); fill-opacity:1.000; stroke:none;" />
 <path d="  M 22,10  L 22,11  L 23,11  L 23,10  Z  " style="fill:rgb(146, 171, 149); fill-opacity:1.000; stroke:none;" />
 <path d="  M 22,12  L 23,12  L 23,11  L 22,11  Z  " style="fill:rgb(143, 161, 145); fill-opacity:0.988; stroke:none;" />
 <path d="  M 23,13  L 23,12  L 22,12  L 22,13  Z  " style="fill:rgb(139, 141, 139); fill-opacity:0.792; stroke:none;" />
 <path d="  M 23,13  L 22,13  L 22,14  L 23,14  Z  " style="fill:rgb(116, 115, 116); fill-opacity:0.514; stroke:none;" />
 <path d="  M 23,15  L 23,14  L 22,14  L 22,15  Z  " style="fill:rgb(107, 107, 107); fill-opacity:0.227; stroke:none;" />
 <path d="  M 23,15  L 22,15  L 22,16  L 23,16  Z  " style="fill:rgb(38, 39, 38); fill-opacity:0.012; stroke:none;" />
 <path d="  M 23,3  L 24,3  L 24,2  L 23,2  Z  " style="fill:rgb(35, 0, 24); fill-opacity:0.012; stroke:none;" />
 <path d="  M 24,4  L 24,3  L 23,3  L 23,4  Z  " style="fill:rgb(27, 154, 42); fill-opacity:0.475; stroke:none;" />
 <path d="  M 23,4  L 23,5  L 24,5  L 24,4  Z  " style="fill:rgb(25, 205, 46); fill-opacity:0.976; stroke:none;" />
 <path d="  M 24,5  L 23,5  L 23,6  L 24,6  Z  " style="fill:rgb(25, 216, 47); fill-opacity:1.000; stroke:none;" />
 <path d="  M 25,6  L 24,6  L 24,7  L 25,7  Z  " style="fill:rgb(25, 216, 47); fill-opacity:1.000; stroke:none;" />
 <path d="  M 23,8  L 24,8  L 24,7  L 23,7  Z  " style="fill:rgb(23, 217, 45); fill-opacity:1.000; stroke:none;" />
 <path d="  M 24,8  L 23,8  L 23,9  L 24,9  Z  " style="fill:rgb(33, 199, 52); fill-opacity:1.000; stroke:none;" />
 <path d="  M 23,9  L 23,10  L 24,10  L 24,9  Z  " style="fill:rgb(137, 165, 140); fill-opacity:0.957; stroke:none;" />
 <path d="  M 24,11  L 24,10  L 23,10  L 23,11  Z  " style="fill:rgb(173, 169, 172); fill-opacity:0.875; stroke:none;" />
 <path d="  M 23,11  L 23,12  L 24,12  L 24,11  Z  " style="fill:rgb(164, 162, 163); fill-opacity:0.839; stroke:none;" />
 <path d="  M 23,13  L 24,13  L 24,12  L 23,12  Z  " style="fill:rgb(184, 184, 184); fill-opacity:1.000; stroke:none;" />
 <path d="  M 24,13  L 23,13  L 23,14  L 24,14  Z  " style="fill:rgb(158, 158, 158); fill-opacity:0.745; stroke:none;" />
 <path d="  M 23,14  L 23,15  L 24,15  L 24,14  Z  " style="fill:rgb(75, 75, 75); fill-opacity:0.075; stroke:none;" />
 <path d="  M 24,3  L 24,4  L 25,4  L 25,3  Z  " style="fill:rgb(30, 88, 37); fill-opacity:0.078; stroke:none;" />
 <path d="  M 25,5  L 25,4  L 24,4  L 24,5  Z  " style="fill:rgb(27, 170, 43); fill-opacity:0.655; stroke:none;" />
 <path d="  M 25,6  L 25,5  L 24,5  L 24,6  Z  " style="fill:rgb(25, 211, 47); fill-opacity:1.000; stroke:none;" />
 <path d="  M 25,8  L 24,8  L 24,9  L 25,9  Z  " style="fill:rgb(27, 185, 45); fill-opacity:0.863; stroke:none;" />
 <path d="  M 25,10  L 25,9  L 24,9  L 24,10  Z  " style="fill:rgb(98, 120, 100); fill-opacity:0.663; stroke:none;" />
 <path d="  M 25,11  L 25,10  L 24,10  L 24,11  Z  " style="fill:rgb(139, 138, 139); fill-opacity:0.745; stroke:none;" />
 <path d="  M 25,12  L 25,11  L 24,11  L 24,12  Z  " style="fill:rgb(145, 145, 145); fill-opacity:0.765; stroke:none;" />
 <path d="  M 24,13  L 25,13  L 25,12  L 24,12  Z  " style="fill:rgb(185, 185, 185); fill-opacity:0.996; stroke:none;" />
 <path d="  M 24,13  L 24,14  L 25,14  L 25,13  Z  " style="fill:rgb(170, 170, 170); fill-opacity:0.867; stroke:none;" />
 <path d="  M 25,15  L 25,14  L 24,14  L 24,15  Z  " style="fill:rgb(96, 96, 96); fill-opacity:0.145; stroke:none;" />
 <path d="  M 26,5  L 26,4  L 25,4  L 25,5  Z  " style="fill:rgb(29, 115, 39); fill-opacity:0.169; stroke:none;" />
 <path d="  M 25,5  L 25,6  L 26,6  L 26,5  Z  " style="fill:rgb(26, 183, 44); fill-opacity:0.792; stroke:none;" />
 <path d="  M 26,6  L 25,6  L 25,7  L 26,7  Z  " style="fill:rgb(25, 214, 47); fill-opacity:1.000; stroke:none;" />
 <path d="  M 26,7  L 25,7  L 25,8  L 26,8  Z  " style="fill:rgb(26, 198, 46); fill-opacity:0.933; stroke:none;" />
 <path d="  M 26,8  L 25,8  L 25,9  L 26,9  Z  " style="fill:rgb(25, 139, 38); fill-opacity:0.388; stroke:none;" />
 <path d="  M 26,10  L 26,9  L 25,9  L 25,10  Z  " style="fill:rgb(133, 131, 133); fill-opacity:0.565; stroke:none;" />
 <path d="  M 25,10  L 25,11  L 26,11  L 26,10  Z  " style="fill:rgb(154, 154, 154); fill-opacity:0.722; stroke:none;" />
 <path d="  M 26,12  L 26,11  L 25,11  L 25,12  Z  " style="fill:rgb(147, 147, 147); fill-opacity:0.631; stroke:none;" />
 <path d="  M 25,12  L 25,13  L 26,13  L 26,12  Z  " style="fill:rgb(181, 181, 181); fill-opacity:0.961; stroke:none;" />
 <path d="  M 26,14  L 26,13  L 25,13  L 25,14  Z  " style="fill:rgb(173, 173, 173); fill-opacity:0.898; stroke:none;" />
 <path d="  M 25,15  L 26,15  L 26,14  L 25,14  Z  " style="fill:rgb(106, 106, 106); fill-opacity:0.188; stroke:none;" />
 <path d="  M 27,5  L 26,5  L 26,6  L 27,6  Z  " style="fill:rgb(28, 133, 40); fill-opacity:0.267; stroke:none;" />
 <path d="  M 26,6  L 26,7  L 27,7  L 27,6  Z  " style="fill:rgb(26, 175, 44); fill-opacity:0.784; stroke:none;" />
 <path d="  M 27,7  L 26,7  L 26,8  L 27,8  Z  " style="fill:rgb(27, 154, 42); fill-opacity:0.467; stroke:none;" />
 <path d="  M 26,8  L 26,9  L 27,9  L 27,8  Z  " style="fill:rgb(27, 21, 26); fill-opacity:0.031; stroke:none;" />
 <path d="  M 27,10  L 27,9  L 26,9  L 26,10  Z  " style="fill:rgb(86, 85, 86); fill-opacity:0.212; stroke:none;" />
 <path d="  M 26,11  L 27,11  L 27,10  L 26,10  Z  " style="fill:rgb(105, 105, 105); fill-opacity:0.302; stroke:none;" />
 <path d="  M 26,12  L 27,12  L 27,11  L 26,11  Z  " style="fill:rgb(118, 118, 118); fill-opacity:0.388; stroke:none;" />
 <path d="  M 27,12  L 26,12  L 26,13  L 27,13  Z  " style="fill:rgb(170, 170, 170); fill-opacity:0.898; stroke:none;" />
 <path d="  M 26,13  L 26,14  L 27,14  L 27,13  Z  " style="fill:rgb(175, 175, 175); fill-opacity:0.933; stroke:none;" />
 <path d="  M 27,15  L 27,14  L 26,14  L 26,15  Z  " style="fill:rgb(110, 110, 110); fill-opacity:0.224; stroke:none;" />
 <path d="  M 28,5  L 27,5  L 27,6  L 28,6  Z  " style="fill:rgb(35, 0, 28); fill-opacity:0.008; stroke:none;" />
 <path d="  M 27,7  L 28,7  L 28,6  L 27,6  Z  " style="fill:rgb(30, 92, 37); fill-opacity:0.122; stroke:none;" />
 <path d="  M 27,7  L 27,8  L 28,8  L 28,7  Z  " style="fill:rgb(31, 67, 35); fill-opacity:0.039; stroke:none;" />
 <path d="  M 28,9  L 27,9  L 27,10  L 28,10  Z  " style="fill:rgb(103, 103, 103); fill-opacity:0.231; stroke:none;" />
 <path d="  M 28,10  L 27,10  L 27,11  L 28,11  Z  " style="fill:rgb(160, 160, 160); fill-opacity:0.863; stroke:none;" />
 <path d="  M 27,12  L 28,12  L 28,11  L 27,11  Z  " style="fill:rgb(171, 171, 171); fill-opacity:0.929; stroke:none;" />
 <path d="  M 28,12  L 27,12  L 27,13  L 28,13  Z  " style="fill:rgb(163, 163, 163); fill-opacity:0.827; stroke:none;" />
 <path d="  M 27,14  L 28,14  L 28,13  L 27,13  Z  " style="fill:rgb(145, 145, 145); fill-opacity:0.569; stroke:none;" />
 <path d="  M 27,15  L 28,15  L 28,14  L 27,14  Z  " style="fill:rgb(93, 93, 93); fill-opacity:0.102; stroke:none;" />
 <path d="  M 28,10  L 29,10  L 29,9  L 28,9  Z  " style="fill:rgb(92, 92, 92); fill-opacity:0.075; stroke:none;" />
 <path d="  M 29,11  L 29,10  L 28,10  L 28,11  Z  " style="fill:rgb(136, 136, 136); fill-opacity:0.490; stroke:none;" />
 <path d="  M 28,11  L 28,12  L 29,12  L 29,11  Z  " style="fill:rgb(137, 137, 137); fill-opacity:0.396; stroke:none;" />
 <path d="  M 28,13  L 29,13  L 29,12  L 28,12  Z  " style="fill:rgb(101, 101, 101); fill-opacity:0.137; stroke:none;" />
 <path d="  M 28,14  L 29,14  L 29,13  L 28,13  Z  " style="fill:rgb(29, 29, 29); fill-opacity:0.024; stroke:none;" />
 <path d="  M 29,11  L 30,11  L 30,10  L 29,10  Z  " style="fill:rgb(0, 0, 0); fill-opacity:0.012; stroke:none;" />
</svg>
