<?xml version="1.0" encoding="UTF-8" standalone="no"?>
<!DOCTYPE svg PUBLIC "-//W3C//DTD SVG 1.1//EN" 
  "http://www.w3.org/Graphics/SVG/1.1/DTD/svg11.dtd">
<svg width="32" height="32"
	 xmlns="http://www.w3.org/2000/svg" version="1.1">
 <path d="  M 32,0  L 0,0  L 0,32  L 32,32  Z  M 25,28  L 25,29  L 24,29  L 24,30  L 22,30  L 22,31  L 12,31  L 12,30  L 10,30  L 10,29  L 8,29  L 8,28  L 7,28  L 7,27  L 6,27  L 6,25  L 5,25  L 5,24  L 4,24  L 4,21  L 3,21  L 3,14  L 4,14  L 4,11  L 5,11  L 5,9  L 6,9  L 6,8  L 7,8  L 7,7  L 8,7  L 8,6  L 10,6  L 10,5  L 12,5  L 12,4  L 16,4  L 16,3  L 18,3  L 18,4  L 22,4  L 22,5  L 24,5  L 24,6  L 26,6  L 26,7  L 27,7  L 27,8  L 28,8  L 28,10  L 29,10  L 29,11  L 30,11  L 30,14  L 31,14  L 31,21  L 30,21  L 30,24  L 29,24  L 29,25  L 28,25  L 28,27  L 27,27  L 27,28  Z  " style="fill:rgb(255, 255, 255); fill-opacity:1.000; stroke:none;" />
 <path d="  M 17,15  L 17,16  L 16,16  L 16,17  L 15,17  L 15,18  L 13,18  L 13,20  L 16,20  L 16,19  L 17,19  L 17,18  L 20,18  L 20,22  L 19,22  L 19,23  L 21,23  L 21,20  L 22,20  L 22,17  L 23,17  L 23,12  L 22,12  L 22,11  L 21,11  L 21,12  L 20,12  L 20,13  L 19,13  L 19,14  L 18,14  L 18,15  Z  " style="fill:rgb(255, 255, 255); fill-opacity:1.000; stroke:none;" />
 <path d="  M 3,15  L 4,15  L 4,14  L 3,14  Z  " style="fill:rgb(245, 252, 255); fill-opacity:1.000; stroke:none;" />
 <path d="  M 3,15  L 3,16  L 4,16  L 4,15  Z  " style="fill:rgb(236, 248, 255); fill-opacity:1.000; stroke:none;" />
 <path d="  M 15,20  L 15,21  L 16,21  L 16,20  Z  " style="fill:rgb(236, 248, 255); fill-opacity:1.000; stroke:none;" />
 <path d="  M 31,19  L 31,18  L 30,18  L 30,19  Z  " style="fill:rgb(236, 248, 255); fill-opacity:1.000; stroke:none;" />
 <path d="  M 3,17  L 4,17  L 4,16  L 3,16  Z  " style="fill:rgb(227, 244, 255); fill-opacity:1.000; stroke:none;" />
 <path d="  M 4,17  L 3,17  L 3,18  L 4,18  Z  " style="fill:rgb(219, 241, 255); fill-opacity:1.000; stroke:none;" />
 <path d="  M 3,19  L 4,19  L 4,18  L 3,18  Z  " style="fill:rgb(229, 245, 255); fill-opacity:1.000; stroke:none;" />
 <path d="  M 4,20  L 4,19  L 3,19  L 3,20  Z  " style="fill:rgb(237, 249, 255); fill-opacity:1.000; stroke:none;" />
 <path d="  M 3,20  L 3,21  L 4,21  L 4,20  Z  " style="fill:rgb(246, 252, 255); fill-opacity:1.000; stroke:none;" />
 <path d="  M 8,8  L 8,7  L 7,7  L 7,8  Z  " style="fill:rgb(246, 252, 255); fill-opacity:1.000; stroke:none;" />
 <path d="  M 5,12  L 5,11  L 4,11  L 4,12  Z  " style="fill:rgb(250, 253, 255); fill-opacity:1.000; stroke:none;" />
 <path d="  M 7,26  L 6,26  L 6,27  L 7,27  Z  " style="fill:rgb(250, 253, 255); fill-opacity:1.000; stroke:none;" />
 <path d="  M 9,7  L 9,6  L 8,6  L 8,7  Z  " style="fill:rgb(250, 253, 255); fill-opacity:1.000; stroke:none;" />
 <path d="  M 28,9  L 28,8  L 27,8  L 27,9  Z  " style="fill:rgb(250, 253, 255); fill-opacity:1.000; stroke:none;" />
 <path d="  M 4,13  L 5,13  L 5,12  L 4,12  Z  " style="fill:rgb(214, 240, 254); fill-opacity:1.000; stroke:none;" />
 <path d="  M 16,19  L 16,20  L 17,20  L 17,19  Z  " style="fill:rgb(214, 240, 254); fill-opacity:1.000; stroke:none;" />
 <path d="  M 5,13  L 4,13  L 4,14  L 5,14  Z  " style="fill:rgb(160, 218, 253); fill-opacity:1.000; stroke:none;" />
 <path d="  M 5,15  L 5,14  L 4,14  L 4,15  Z  " style="fill:rgb(119, 202, 253); fill-opacity:1.000; stroke:none;" />
 <path d="  M 5,16  L 5,15  L 4,15  L 4,16  Z  " style="fill:rgb(93, 191, 252); fill-opacity:1.000; stroke:none;" />
 <path d="  M 4,16  L 4,17  L 5,17  L 5,16  Z  " style="fill:rgb(85, 185, 252); fill-opacity:1.000; stroke:none;" />
 <path d="  M 13,21  L 12,21  L 12,22  L 13,22  Z  " style="fill:rgb(85, 185, 252); fill-opacity:1.000; stroke:none;" />
 <path d="  M 4,18  L 5,18  L 5,17  L 4,17  Z  " style="fill:rgb(82, 184, 252); fill-opacity:1.000; stroke:none;" />
 <path d="  M 21,5  L 20,5  L 20,6  L 21,6  Z  " style="fill:rgb(82, 184, 252); fill-opacity:1.000; stroke:none;" />
 <path d="  M 5,19  L 5,18  L 4,18  L 4,19  Z  " style="fill:rgb(86, 185, 252); fill-opacity:1.000; stroke:none;" />
 <path d="  M 4,19  L 4,20  L 5,20  L 5,19  Z  " style="fill:rgb(94, 192, 253); fill-opacity:1.000; stroke:none;" />
 <path d="  M 5,20  L 4,20  L 4,21  L 5,21  Z  " style="fill:rgb(123, 203, 253); fill-opacity:1.000; stroke:none;" />
 <path d="  M 4,21  L 4,22  L 5,22  L 5,21  Z  " style="fill:rgb(166, 220, 253); fill-opacity:1.000; stroke:none;" />
 <path d="  M 4,22  L 4,23  L 5,23  L 5,22  Z  " style="fill:rgb(218, 242, 254); fill-opacity:1.000; stroke:none;" />
 <path d="  M 5,24  L 5,23  L 4,23  L 4,24  Z  " style="fill:rgb(251, 254, 255); fill-opacity:1.000; stroke:none;" />
 <path d="  M 21,24  L 21,23  L 20,23  L 20,24  Z  " style="fill:rgb(251, 254, 255); fill-opacity:1.000; stroke:none;" />
 <path d="  M 26,28  L 27,28  L 27,27  L 26,27  Z  " style="fill:rgb(251, 254, 255); fill-opacity:1.000; stroke:none;" />
 <path d="  M 30,21  L 31,21  L 31,20  L 30,20  Z  " style="fill:rgb(251, 254, 255); fill-opacity:1.000; stroke:none;" />
 <path d="  M 5,9  L 5,10  L 6,10  L 6,9  Z  " style="fill:rgb(254, 255, 255); fill-opacity:1.000; stroke:none;" />
 <path d="  M 9,29  L 9,28  L 8,28  L 8,29  Z  " style="fill:rgb(254, 255, 255); fill-opacity:1.000; stroke:none;" />
 <path d="  M 13,19  L 12,19  L 12,20  L 13,20  Z  " style="fill:rgb(254, 255, 255); fill-opacity:1.000; stroke:none;" />
 <path d="  M 17,3  L 16,3  L 16,4  L 17,4  Z  " style="fill:rgb(254, 255, 255); fill-opacity:1.000; stroke:none;" />
 <path d="  M 5,10  L 5,11  L 6,11  L 6,10  Z  " style="fill:rgb(213, 240, 254); fill-opacity:1.000; stroke:none;" />
 <path d="  M 6,12  L 6,11  L 5,11  L 5,12  Z  " style="fill:rgb(135, 208, 253); fill-opacity:1.000; stroke:none;" />
 <path d="  M 5,12  L 5,13  L 6,13  L 6,12  Z  " style="fill:rgb(82, 185, 252); fill-opacity:1.000; stroke:none;" />
 <path d="  M 6,14  L 6,13  L 5,13  L 5,14  Z  " style="fill:rgb(65, 177, 252); fill-opacity:1.000; stroke:none;" />
 <path d="  M 6,23  L 6,24  L 7,24  L 7,23  Z  " style="fill:rgb(65, 177, 252); fill-opacity:1.000; stroke:none;" />
 <path d="  M 27,12  L 28,12  L 28,11  L 27,11  Z  " style="fill:rgb(65, 177, 252); fill-opacity:1.000; stroke:none;" />
 <path d="  M 6,14  L 5,14  L 5,16  L 6,16  Z  " style="fill:rgb(65, 176, 252); fill-opacity:1.000; stroke:none;" />
 <path d="  M 6,20  L 6,19  L 5,19  L 5,20  Z  " style="fill:rgb(65, 176, 252); fill-opacity:1.000; stroke:none;" />
 <path d="  M 7,11  L 6,11  L 6,12  L 7,12  Z  " style="fill:rgb(65, 176, 252); fill-opacity:1.000; stroke:none;" />
 <path d="  M 7,11  L 8,11  L 8,10  L 7,10  Z  " style="fill:rgb(65, 176, 252); fill-opacity:1.000; stroke:none;" />
 <path d="  M 8,25  L 8,24  L 7,24  L 7,25  Z  " style="fill:rgb(65, 176, 252); fill-opacity:1.000; stroke:none;" />
 <path d="  M 9,27  L 10,27  L 10,26  L 9,26  Z  " style="fill:rgb(65, 176, 252); fill-opacity:1.000; stroke:none;" />
 <path d="  M 10,7  L 10,8  L 11,8  L 11,7  Z  " style="fill:rgb(65, 176, 252); fill-opacity:1.000; stroke:none;" />
 <path d="  M 10,27  L 10,28  L 11,28  L 11,27  Z  " style="fill:rgb(65, 176, 252); fill-opacity:1.000; stroke:none;" />
 <path d="  M 12,17  L 11,17  L 11,18  L 12,18  Z  " style="fill:rgb(65, 176, 252); fill-opacity:1.000; stroke:none;" />
 <path d="  M 13,6  L 12,6  L 12,7  L 13,7  Z  " style="fill:rgb(65, 176, 252); fill-opacity:1.000; stroke:none;" />
 <path d="  M 13,17  L 13,16  L 12,16  L 12,17  Z  " style="fill:rgb(65, 176, 252); fill-opacity:1.000; stroke:none;" />
 <path d="  M 14,22  L 14,23  L 16,23  L 16,22  Z  " style="fill:rgb(65, 176, 252); fill-opacity:1.000; stroke:none;" />
 <path d="  M 19,11  L 20,11  L 20,10  L 19,10  Z  " style="fill:rgb(65, 176, 252); fill-opacity:1.000; stroke:none;" />
 <path d="  M 22,6  L 21,6  L 21,7  L 22,7  Z  " style="fill:rgb(65, 176, 252); fill-opacity:1.000; stroke:none;" />
 <path d="  M 23,8  L 24,8  L 24,7  L 23,7  Z  " style="fill:rgb(65, 176, 252); fill-opacity:1.000; stroke:none;" />
 <path d="  M 24,20  L 23,20  L 23,21  L 24,21  Z  " style="fill:rgb(65, 176, 252); fill-opacity:1.000; stroke:none;" />
 <path d="  M 23,28  L 24,28  L 24,27  L 23,27  Z  " style="fill:rgb(65, 176, 252); fill-opacity:1.000; stroke:none;" />
 <path d="  M 25,8  L 24,8  L 24,9  L 25,9  Z  " style="fill:rgb(65, 176, 252); fill-opacity:1.000; stroke:none;" />
 <path d="  M 25,12  L 25,11  L 24,11  L 24,12  Z  " style="fill:rgb(65, 176, 252); fill-opacity:1.000; stroke:none;" />
 <path d="  M 24,18  L 25,18  L 25,17  L 24,17  Z  " style="fill:rgb(65, 176, 252); fill-opacity:1.000; stroke:none;" />
 <path d="  M 25,26  L 24,26  L 24,27  L 25,27  Z  " style="fill:rgb(65, 176, 252); fill-opacity:1.000; stroke:none;" />
 <path d="  M 25,25  L 25,26  L 26,26  L 26,25  Z  " style="fill:rgb(65, 176, 252); fill-opacity:1.000; stroke:none;" />
 <path d="  M 26,11  L 27,11  L 27,10  L 26,10  Z  " style="fill:rgb(65, 176, 252); fill-opacity:1.000; stroke:none;" />
 <path d="  M 26,25  L 27,25  L 27,24  L 26,24  Z  " style="fill:rgb(65, 176, 252); fill-opacity:1.000; stroke:none;" />
 <path d="  M 28,22  L 27,22  L 27,23  L 28,23  Z  " style="fill:rgb(65, 176, 252); fill-opacity:1.000; stroke:none;" />
 <path d="  M 29,16  L 29,15  L 28,15  L 28,16  Z  " style="fill:rgb(65, 176, 252); fill-opacity:1.000; stroke:none;" />
 <path d="  M 29,19  L 28,19  L 28,20  L 29,20  Z  " style="fill:rgb(65, 176, 252); fill-opacity:1.000; stroke:none;" />
 <path d="  M 5,17  L 6,17  L 6,16  L 5,16  Z  " style="fill:rgb(66, 176, 252); fill-opacity:1.000; stroke:none;" />
 <path d="  M 6,19  L 6,18  L 5,18  L 5,19  Z  " style="fill:rgb(66, 176, 252); fill-opacity:1.000; stroke:none;" />
 <path d="  M 6,13  L 7,13  L 7,12  L 6,12  Z  " style="fill:rgb(66, 176, 252); fill-opacity:1.000; stroke:none;" />
 <path d="  M 6,23  L 7,23  L 7,22  L 6,22  Z  " style="fill:rgb(66, 176, 252); fill-opacity:1.000; stroke:none;" />
 <path d="  M 8,25  L 8,26  L 9,26  L 9,25  Z  " style="fill:rgb(66, 176, 252); fill-opacity:1.000; stroke:none;" />
 <path d="  M 10,8  L 9,8  L 9,9  L 10,9  Z  " style="fill:rgb(66, 176, 252); fill-opacity:1.000; stroke:none;" />
 <path d="  M 12,23  L 13,23  L 13,22  L 12,22  Z  " style="fill:rgb(66, 176, 252); fill-opacity:1.000; stroke:none;" />
 <path d="  M 13,15  L 13,16  L 14,16  L 14,15  Z  " style="fill:rgb(66, 176, 252); fill-opacity:1.000; stroke:none;" />
 <path d="  M 13,29  L 14,29  L 14,28  L 13,28  Z  " style="fill:rgb(66, 176, 252); fill-opacity:1.000; stroke:none;" />
 <path d="  M 15,14  L 14,14  L 14,15  L 15,15  Z  " style="fill:rgb(66, 176, 252); fill-opacity:1.000; stroke:none;" />
 <path d="  M 17,22  L 16,22  L 16,23  L 17,23  Z  " style="fill:rgb(66, 176, 252); fill-opacity:1.000; stroke:none;" />
 <path d="  M 17,25  L 18,25  L 18,24  L 17,24  Z  " style="fill:rgb(66, 176, 252); fill-opacity:1.000; stroke:none;" />
 <path d="  M 19,27  L 21,27  L 21,26  L 19,26  Z  " style="fill:rgb(66, 176, 252); fill-opacity:1.000; stroke:none;" />
 <path d="  M 21,7  L 21,6  L 20,6  L 20,7  Z  " style="fill:rgb(66, 176, 252); fill-opacity:1.000; stroke:none;" />
 <path d="  M 21,29  L 21,28  L 20,28  L 20,29  Z  " style="fill:rgb(66, 176, 252); fill-opacity:1.000; stroke:none;" />
 <path d="  M 22,24  L 22,25  L 23,25  L 23,24  Z  " style="fill:rgb(66, 176, 252); fill-opacity:1.000; stroke:none;" />
 <path d="  M 24,21  L 23,21  L 23,22  L 24,22  Z  " style="fill:rgb(66, 176, 252); fill-opacity:1.000; stroke:none;" />
 <path d="  M 26,10  L 26,9  L 25,9  L 25,10  Z  " style="fill:rgb(66, 176, 252); fill-opacity:1.000; stroke:none;" />
 <path d="  M 28,12  L 27,12  L 27,13  L 28,13  Z  " style="fill:rgb(66, 176, 252); fill-opacity:1.000; stroke:none;" />
 <path d="  M 29,16  L 28,16  L 28,19  L 29,19  Z  " style="fill:rgb(66, 176, 252); fill-opacity:1.000; stroke:none;" />
 <path d="  M 6,17  L 5,17  L 5,18  L 6,18  Z  " style="fill:rgb(66, 177, 252); fill-opacity:1.000; stroke:none;" />
 <path d="  M 6,22  L 6,21  L 5,21  L 5,22  Z  " style="fill:rgb(66, 177, 252); fill-opacity:1.000; stroke:none;" />
 <path d="  M 9,10  L 9,9  L 8,9  L 8,10  Z  " style="fill:rgb(66, 177, 252); fill-opacity:1.000; stroke:none;" />
 <path d="  M 11,18  L 10,18  L 10,19  L 11,19  Z  " style="fill:rgb(66, 177, 252); fill-opacity:1.000; stroke:none;" />
 <path d="  M 11,27  L 11,28  L 12,28  L 12,27  Z  " style="fill:rgb(66, 177, 252); fill-opacity:1.000; stroke:none;" />
 <path d="  M 14,6  L 13,6  L 13,7  L 14,7  Z  " style="fill:rgb(66, 177, 252); fill-opacity:1.000; stroke:none;" />
 <path d="  M 13,22  L 13,23  L 14,23  L 14,22  Z  " style="fill:rgb(66, 177, 252); fill-opacity:1.000; stroke:none;" />
 <path d="  M 14,28  L 14,29  L 15,29  L 15,28  Z  " style="fill:rgb(66, 177, 252); fill-opacity:1.000; stroke:none;" />
 <path d="  M 15,14  L 16,14  L 16,13  L 15,13  Z  " style="fill:rgb(66, 177, 252); fill-opacity:1.000; stroke:none;" />
 <path d="  M 19,29  L 20,29  L 20,28  L 19,28  Z  " style="fill:rgb(66, 177, 252); fill-opacity:1.000; stroke:none;" />
 <path d="  M 21,10  L 21,9  L 20,9  L 20,10  Z  " style="fill:rgb(66, 177, 252); fill-opacity:1.000; stroke:none;" />
 <path d="  M 22,10  L 23,10  L 23,9  L 22,9  Z  " style="fill:rgb(66, 177, 252); fill-opacity:1.000; stroke:none;" />
 <path d="  M 23,27  L 22,27  L 22,28  L 23,28  Z  " style="fill:rgb(66, 177, 252); fill-opacity:1.000; stroke:none;" />
 <path d="  M 24,13  L 25,13  L 25,12  L 24,12  Z  " style="fill:rgb(66, 177, 252); fill-opacity:1.000; stroke:none;" />
 <path d="  M 24,18  L 24,19  L 25,19  L 25,18  Z  " style="fill:rgb(66, 177, 252); fill-opacity:1.000; stroke:none;" />
 <path d="  M 27,24  L 28,24  L 28,23  L 27,23  Z  " style="fill:rgb(66, 177, 252); fill-opacity:1.000; stroke:none;" />
 <path d="  M 6,20  L 5,20  L 5,21  L 6,21  Z  " style="fill:rgb(64, 176, 252); fill-opacity:1.000; stroke:none;" />
 <path d="  M 10,21  L 11,21  L 11,19  L 10,19  Z  " style="fill:rgb(64, 176, 252); fill-opacity:1.000; stroke:none;" />
 <path d="  M 13,28  L 12,28  L 12,29  L 13,29  Z  " style="fill:rgb(64, 176, 252); fill-opacity:1.000; stroke:none;" />
 <path d="  M 19,6  L 19,5  L 15,5  L 15,6  Z  " style="fill:rgb(64, 176, 252); fill-opacity:1.000; stroke:none;" />
 <path d="  M 18,30  L 18,29  L 16,29  L 16,30  Z  " style="fill:rgb(64, 176, 252); fill-opacity:1.000; stroke:none;" />
 <path d="  M 18,12  L 17,12  L 17,13  L 18,13  Z  " style="fill:rgb(64, 176, 252); fill-opacity:1.000; stroke:none;" />
 <path d="  M 17,20  L 17,21  L 18,21  L 18,20  Z  " style="fill:rgb(64, 176, 252); fill-opacity:1.000; stroke:none;" />
 <path d="  M 21,28  L 21,29  L 22,29  L 22,28  Z  " style="fill:rgb(64, 176, 252); fill-opacity:1.000; stroke:none;" />
 <path d="  M 22,24  L 23,24  L 23,23  L 22,23  Z  " style="fill:rgb(64, 176, 252); fill-opacity:1.000; stroke:none;" />
 <path d="  M 23,20  L 24,20  L 24,19  L 23,19  Z  " style="fill:rgb(64, 176, 252); fill-opacity:1.000; stroke:none;" />
 <path d="  M 25,16  L 24,16  L 24,17  L 25,17  Z  " style="fill:rgb(64, 176, 252); fill-opacity:1.000; stroke:none;" />
 <path d="  M 28,14  L 28,15  L 29,15  L 29,14  Z  " style="fill:rgb(64, 176, 252); fill-opacity:1.000; stroke:none;" />
 <path d="  M 29,21  L 29,20  L 28,20  L 28,21  Z  " style="fill:rgb(64, 176, 252); fill-opacity:1.000; stroke:none;" />
 <path d="  M 5,23  L 6,23  L 6,22  L 5,22  Z  " style="fill:rgb(85, 187, 252); fill-opacity:1.000; stroke:none;" />
 <path d="  M 5,24  L 6,24  L 6,23  L 5,23  Z  " style="fill:rgb(142, 212, 253); fill-opacity:1.000; stroke:none;" />
 <path d="  M 6,24  L 5,24  L 5,25  L 6,25  Z  " style="fill:rgb(219, 242, 254); fill-opacity:1.000; stroke:none;" />
 <path d="  M 7,9  L 7,8  L 6,8  L 6,9  Z  " style="fill:rgb(247, 252, 255); fill-opacity:1.000; stroke:none;" />
 <path d="  M 19,24  L 20,24  L 20,23  L 19,23  Z  " style="fill:rgb(247, 252, 255); fill-opacity:1.000; stroke:none;" />
 <path d="  M 7,9  L 6,9  L 6,10  L 7,10  Z  " style="fill:rgb(172, 223, 254); fill-opacity:1.000; stroke:none;" />
 <path d="  M 6,11  L 7,11  L 7,10  L 6,10  Z  " style="fill:rgb(88, 188, 253); fill-opacity:1.000; stroke:none;" />
 <path d="  M 7,13  L 6,13  L 6,22  L 7,22  L 7,24  L 8,24  L 8,25  L 9,25  L 9,26  L 10,26  L 10,27  L 12,27  L 12,28  L 15,28  L 15,29  L 19,29  L 19,28  L 22,28  L 22,27  L 24,27  L 24,26  L 25,26  L 25,25  L 26,25  L 26,24  L 27,24  L 27,22  L 28,22  L 28,13  L 27,13  L 27,11  L 26,11  L 26,10  L 25,10  L 25,9  L 24,9  L 24,8  L 23,8  L 23,7  L 20,7  L 20,6  L 14,6  L 14,7  L 11,7  L 11,8  L 10,8  L 10,9  L 9,9  L 9,10  L 8,10  L 8,11  L 7,11  Z  M 19,25  L 17,25  L 17,23  L 12,23  L 12,22  L 11,22  L 11,21  L 10,21  L 10,18  L 11,18  L 11,17  L 12,17  L 12,16  L 13,16  L 13,15  L 14,15  L 14,14  L 15,14  L 15,13  L 17,13  L 17,12  L 18,12  L 18,11  L 19,11  L 19,10  L 20,10  L 20,9  L 23,9  L 23,10  L 24,10  L 24,11  L 25,11  L 25,19  L 24,19  L 24,22  L 23,22  L 23,25  L 21,25  L 21,27  L 19,27  Z  " style="fill:rgb(67, 177, 252); fill-opacity:1.000; stroke:none;" />
 <path d="  M 7,24  L 6,24  L 6,25  L 7,25  Z  " style="fill:rgb(93, 190, 252); fill-opacity:1.000; stroke:none;" />
 <path d="  M 29,23  L 29,22  L 28,22  L 28,23  Z  " style="fill:rgb(93, 190, 252); fill-opacity:1.000; stroke:none;" />
 <path d="  M 7,26  L 7,25  L 6,25  L 6,26  Z  " style="fill:rgb(182, 228, 254); fill-opacity:1.000; stroke:none;" />
 <path d="  M 22,22  L 21,22  L 21,23  L 22,23  Z  " style="fill:rgb(182, 228, 254); fill-opacity:1.000; stroke:none;" />
 <path d="  M 7,8  L 7,9  L 8,9  L 8,8  Z  " style="fill:rgb(153, 215, 253); fill-opacity:1.000; stroke:none;" />
 <path d="  M 8,10  L 8,9  L 7,9  L 7,10  Z  " style="fill:rgb(73, 180, 252); fill-opacity:1.000; stroke:none;" />
 <path d="  M 15,29  L 14,29  L 14,30  L 15,30  Z  " style="fill:rgb(73, 180, 252); fill-opacity:1.000; stroke:none;" />
 <path d="  M 7,26  L 8,26  L 8,25  L 7,25  Z  " style="fill:rgb(75, 181, 252); fill-opacity:1.000; stroke:none;" />
 <path d="  M 24,19  L 24,18  L 23,18  L 23,19  Z  " style="fill:rgb(75, 181, 252); fill-opacity:1.000; stroke:none;" />
 <path d="  M 8,26  L 7,26  L 7,27  L 8,27  Z  " style="fill:rgb(162, 219, 254); fill-opacity:1.000; stroke:none;" />
 <path d="  M 7,28  L 8,28  L 8,27  L 7,27  Z  " style="fill:rgb(248, 253, 255); fill-opacity:1.000; stroke:none;" />
 <path d="  M 27,7  L 26,7  L 26,8  L 27,8  Z  " style="fill:rgb(248, 253, 255); fill-opacity:1.000; stroke:none;" />
 <path d="  M 8,7  L 8,8  L 9,8  L 9,7  Z  " style="fill:rgb(159, 217, 253); fill-opacity:1.000; stroke:none;" />
 <path d="  M 9,8  L 8,8  L 8,9  L 9,9  Z  " style="fill:rgb(71, 179, 252); fill-opacity:1.000; stroke:none;" />
 <path d="  M 12,21  L 11,21  L 11,22  L 12,22  Z  " style="fill:rgb(71, 179, 252); fill-opacity:1.000; stroke:none;" />
 <path d="  M 8,27  L 9,27  L 9,26  L 8,26  Z  " style="fill:rgb(74, 181, 252); fill-opacity:1.000; stroke:none;" />
 <path d="  M 13,22  L 14,22  L 14,21  L 13,21  Z  " style="fill:rgb(74, 181, 252); fill-opacity:1.000; stroke:none;" />
 <path d="  M 20,29  L 19,29  L 19,30  L 20,30  Z  " style="fill:rgb(74, 181, 252); fill-opacity:1.000; stroke:none;" />
 <path d="  M 23,29  L 23,28  L 22,28  L 22,29  Z  " style="fill:rgb(74, 181, 252); fill-opacity:1.000; stroke:none;" />
 <path d="  M 8,27  L 8,28  L 9,28  L 9,27  Z  " style="fill:rgb(170, 222, 254); fill-opacity:1.000; stroke:none;" />
 <path d="  M 10,7  L 10,6  L 9,6  L 9,7  Z  " style="fill:rgb(192, 231, 254); fill-opacity:1.000; stroke:none;" />
 <path d="  M 9,7  L 9,8  L 10,8  L 10,7  Z  " style="fill:rgb(77, 182, 252); fill-opacity:1.000; stroke:none;" />
 <path d="  M 10,27  L 9,27  L 9,28  L 10,28  Z  " style="fill:rgb(83, 186, 252); fill-opacity:1.000; stroke:none;" />
 <path d="  M 21,25  L 20,25  L 20,26  L 21,26  Z  " style="fill:rgb(83, 186, 252); fill-opacity:1.000; stroke:none;" />
 <path d="  M 22,24  L 21,24  L 21,25  L 22,25  Z  " style="fill:rgb(83, 186, 252); fill-opacity:1.000; stroke:none;" />
 <path d="  M 9,29  L 10,29  L 10,28  L 9,28  Z  " style="fill:rgb(205, 237, 254); fill-opacity:1.000; stroke:none;" />
 <path d="  M 11,5  L 10,5  L 10,6  L 11,6  Z  " style="fill:rgb(235, 248, 255); fill-opacity:1.000; stroke:none;" />
 <path d="  M 31,16  L 30,16  L 30,17  L 31,17  Z  " style="fill:rgb(235, 248, 255); fill-opacity:1.000; stroke:none;" />
 <path d="  M 10,7  L 11,7  L 11,6  L 10,6  Z  " style="fill:rgb(106, 196, 253); fill-opacity:1.000; stroke:none;" />
 <path d="  M 11,29  L 11,28  L 10,28  L 10,29  Z  " style="fill:rgb(116, 200, 253); fill-opacity:1.000; stroke:none;" />
 <path d="  M 19,12  L 20,12  L 20,11  L 19,11  Z  " style="fill:rgb(116, 200, 253); fill-opacity:1.000; stroke:none;" />
 <path d="  M 11,29  L 10,29  L 10,30  L 11,30  Z  " style="fill:rgb(241, 250, 255); fill-opacity:1.000; stroke:none;" />
 <path d="  M 18,14  L 17,14  L 17,15  L 18,15  Z  " style="fill:rgb(241, 250, 255); fill-opacity:1.000; stroke:none;" />
 <path d="  M 12,5  L 11,5  L 11,6  L 12,6  Z  " style="fill:rgb(175, 224, 254); fill-opacity:1.000; stroke:none;" />
 <path d="  M 12,6  L 11,6  L 11,7  L 12,7  Z  " style="fill:rgb(68, 178, 252); fill-opacity:1.000; stroke:none;" />
 <path d="  M 28,14  L 29,14  L 29,13  L 28,13  Z  " style="fill:rgb(68, 178, 252); fill-opacity:1.000; stroke:none;" />
 <path d="  M 12,18  L 11,18  L 11,19  L 12,19  Z  " style="fill:rgb(79, 183, 252); fill-opacity:1.000; stroke:none;" />
 <path d="  M 18,24  L 18,25  L 19,25  L 19,24  Z  " style="fill:rgb(79, 183, 252); fill-opacity:1.000; stroke:none;" />
 <path d="  M 12,19  L 11,19  L 11,20  L 12,20  Z  " style="fill:rgb(143, 211, 253); fill-opacity:1.000; stroke:none;" />
 <path d="  M 12,21  L 12,20  L 11,20  L 11,21  Z  " style="fill:rgb(134, 207, 253); fill-opacity:1.000; stroke:none;" />
 <path d="  M 30,15  L 30,14  L 29,14  L 29,15  Z  " style="fill:rgb(134, 207, 253); fill-opacity:1.000; stroke:none;" />
 <path d="  M 12,29  L 12,28  L 11,28  L 11,29  Z  " style="fill:rgb(71, 180, 252); fill-opacity:1.000; stroke:none;" />
 <path d="  M 24,13  L 24,14  L 25,14  L 25,13  Z  " style="fill:rgb(71, 180, 252); fill-opacity:1.000; stroke:none;" />
 <path d="  M 11,30  L 12,30  L 12,29  L 11,29  Z  " style="fill:rgb(185, 229, 254); fill-opacity:1.000; stroke:none;" />
 <path d="  M 13,17  L 13,18  L 14,18  L 14,17  Z  " style="fill:rgb(185, 229, 254); fill-opacity:1.000; stroke:none;" />
 <path d="  M 24,13  L 23,13  L 23,14  L 24,14  Z  " style="fill:rgb(185, 229, 254); fill-opacity:1.000; stroke:none;" />
 <path d="  M 13,4  L 12,4  L 12,5  L 13,5  Z  " style="fill:rgb(242, 251, 255); fill-opacity:1.000; stroke:none;" />
 <path d="  M 13,6  L 13,5  L 12,5  L 12,6  Z  " style="fill:rgb(112, 199, 253); fill-opacity:1.000; stroke:none;" />
 <path d="  M 13,17  L 12,17  L 12,18  L 13,18  Z  " style="fill:rgb(87, 188, 252); fill-opacity:1.000; stroke:none;" />
 <path d="  M 12,18  L 12,19  L 13,19  L 13,18  Z  " style="fill:rgb(188, 230, 254); fill-opacity:1.000; stroke:none;" />
 <path d="  M 12,21  L 13,21  L 13,20  L 12,20  Z  " style="fill:rgb(227, 244, 254); fill-opacity:1.000; stroke:none;" />
 <path d="  M 13,29  L 12,29  L 12,30  L 13,30  Z  " style="fill:rgb(125, 204, 253); fill-opacity:1.000; stroke:none;" />
 <path d="  M 12,31  L 13,31  L 13,30  L 12,30  Z  " style="fill:rgb(247, 253, 255); fill-opacity:1.000; stroke:none;" />
 <path d="  M 13,4  L 13,5  L 14,5  L 14,4  Z  " style="fill:rgb(213, 239, 254); fill-opacity:1.000; stroke:none;" />
 <path d="  M 13,5  L 13,6  L 14,6  L 14,5  Z  " style="fill:rgb(80, 184, 252); fill-opacity:1.000; stroke:none;" />
 <path d="  M 14,16  L 13,16  L 13,17  L 14,17  Z  " style="fill:rgb(78, 184, 252); fill-opacity:1.000; stroke:none;" />
 <path d="  M 14,21  L 14,20  L 13,20  L 13,21  Z  " style="fill:rgb(194, 232, 254); fill-opacity:1.000; stroke:none;" />
 <path d="  M 19,30  L 19,31  L 20,31  L 20,30  Z  " style="fill:rgb(194, 232, 254); fill-opacity:1.000; stroke:none;" />
 <path d="  M 13,29  L 13,30  L 14,30  L 14,29  Z  " style="fill:rgb(87, 187, 252); fill-opacity:1.000; stroke:none;" />
 <path d="  M 14,31  L 14,30  L 13,30  L 13,31  Z  " style="fill:rgb(225, 244, 255); fill-opacity:1.000; stroke:none;" />
 <path d="  M 15,5  L 15,4  L 14,4  L 14,5  Z  " style="fill:rgb(177, 226, 254); fill-opacity:1.000; stroke:none;" />
 <path d="  M 14,6  L 15,6  L 15,5  L 14,5  Z  " style="fill:rgb(68, 179, 252); fill-opacity:1.000; stroke:none;" />
 <path d="  M 14,16  L 15,16  L 15,15  L 14,15  Z  " style="fill:rgb(78, 183, 252); fill-opacity:1.000; stroke:none;" />
 <path d="  M 14,16  L 14,17  L 15,17  L 15,16  Z  " style="fill:rgb(176, 225, 254); fill-opacity:1.000; stroke:none;" />
 <path d="  M 15,18  L 15,17  L 14,17  L 14,18  Z  " style="fill:rgb(252, 254, 255); fill-opacity:1.000; stroke:none;" />
 <path d="  M 16,17  L 16,16  L 15,16  L 15,17  Z  " style="fill:rgb(252, 254, 255); fill-opacity:1.000; stroke:none;" />
 <path d="  M 29,11  L 29,12  L 30,12  L 30,11  Z  " style="fill:rgb(252, 254, 255); fill-opacity:1.000; stroke:none;" />
 <path d="  M 15,20  L 14,20  L 14,21  L 15,21  Z  " style="fill:rgb(230, 246, 255); fill-opacity:1.000; stroke:none;" />
 <path d="  M 14,22  L 15,22  L 15,21  L 14,21  Z  " style="fill:rgb(102, 193, 252); fill-opacity:1.000; stroke:none;" />
 <path d="  M 28,25  L 28,24  L 27,24  L 27,25  Z  " style="fill:rgb(102, 193, 252); fill-opacity:1.000; stroke:none;" />
 <path d="  M 14,30  L 14,31  L 15,31  L 15,30  Z  " style="fill:rgb(191, 231, 254); fill-opacity:1.000; stroke:none;" />
 <path d="  M 16,5  L 16,4  L 15,4  L 15,5  Z  " style="fill:rgb(160, 217, 253); fill-opacity:1.000; stroke:none;" />
 <path d="  M 15,14  L 15,15  L 16,15  L 16,14  Z  " style="fill:rgb(69, 179, 252); fill-opacity:1.000; stroke:none;" />
 <path d="  M 17,14  L 17,13  L 16,13  L 16,14  Z  " style="fill:rgb(69, 179, 252); fill-opacity:1.000; stroke:none;" />
 <path d="  M 17,22  L 17,21  L 16,21  L 16,22  Z  " style="fill:rgb(69, 179, 252); fill-opacity:1.000; stroke:none;" />
 <path d="  M 19,6  L 20,6  L 20,5  L 19,5  Z  " style="fill:rgb(69, 179, 252); fill-opacity:1.000; stroke:none;" />
 <path d="  M 24,11  L 24,10  L 23,10  L 23,11  Z  " style="fill:rgb(69, 179, 252); fill-opacity:1.000; stroke:none;" />
 <path d="  M 28,21  L 28,22  L 29,22  L 29,21  Z  " style="fill:rgb(69, 179, 252); fill-opacity:1.000; stroke:none;" />
 <path d="  M 15,15  L 15,16  L 16,16  L 16,15  Z  " style="fill:rgb(161, 218, 254); fill-opacity:1.000; stroke:none;" />
 <path d="  M 16,22  L 16,21  L 15,21  L 15,22  Z  " style="fill:rgb(125, 203, 253); fill-opacity:1.000; stroke:none;" />
 <path d="  M 16,30  L 16,29  L 15,29  L 15,30  Z  " style="fill:rgb(66, 178, 252); fill-opacity:1.000; stroke:none;" />
 <path d="  M 18,29  L 18,30  L 19,30  L 19,29  Z  " style="fill:rgb(66, 178, 252); fill-opacity:1.000; stroke:none;" />
 <path d="  M 16,31  L 16,30  L 15,30  L 15,31  Z  " style="fill:rgb(168, 223, 254); fill-opacity:1.000; stroke:none;" />
 <path d="  M 16,4  L 16,5  L 17,5  L 17,4  Z  " style="fill:rgb(146, 211, 253); fill-opacity:1.000; stroke:none;" />
 <path d="  M 16,15  L 17,15  L 17,14  L 16,14  Z  " style="fill:rgb(135, 210, 253); fill-opacity:1.000; stroke:none;" />
 <path d="  M 17,15  L 16,15  L 16,16  L 17,16  Z  " style="fill:rgb(243, 251, 255); fill-opacity:1.000; stroke:none;" />
 <path d="  M 19,21  L 19,22  L 20,22  L 20,21  Z  " style="fill:rgb(243, 251, 255); fill-opacity:1.000; stroke:none;" />
 <path d="  M 21,20  L 21,21  L 22,21  L 22,20  Z  " style="fill:rgb(243, 251, 255); fill-opacity:1.000; stroke:none;" />
 <path d="  M 16,20  L 16,21  L 17,21  L 17,20  Z  " style="fill:rgb(115, 199, 253); fill-opacity:1.000; stroke:none;" />
 <path d="  M 17,31  L 17,30  L 16,30  L 16,31  Z  " style="fill:rgb(162, 218, 254); fill-opacity:1.000; stroke:none;" />
 <path d="  M 17,3  L 17,4  L 18,4  L 18,3  Z  " style="fill:rgb(253, 255, 255); fill-opacity:1.000; stroke:none;" />
 <path d="  M 29,23  L 29,24  L 30,24  L 30,23  Z  " style="fill:rgb(253, 255, 255); fill-opacity:1.000; stroke:none;" />
 <path d="  M 18,4  L 17,4  L 17,5  L 18,5  Z  " style="fill:rgb(144, 210, 253); fill-opacity:1.000; stroke:none;" />
 <path d="  M 18,13  L 17,13  L 17,14  L 18,14  Z  " style="fill:rgb(128, 205, 253); fill-opacity:1.000; stroke:none;" />
 <path d="  M 18,19  L 18,18  L 17,18  L 17,19  Z  " style="fill:rgb(217, 241, 254); fill-opacity:1.000; stroke:none;" />
 <path d="  M 20,4  L 20,5  L 21,5  L 21,4  Z  " style="fill:rgb(217, 241, 254); fill-opacity:1.000; stroke:none;" />
 <path d="  M 18,20  L 18,19  L 17,19  L 17,20  Z  " style="fill:rgb(100, 193, 253); fill-opacity:1.000; stroke:none;" />
 <path d="  M 17,22  L 18,22  L 18,21  L 17,21  Z  " style="fill:rgb(67, 178, 252); fill-opacity:1.000; stroke:none;" />
 <path d="  M 19,12  L 19,11  L 18,11  L 18,12  Z  " style="fill:rgb(67, 178, 252); fill-opacity:1.000; stroke:none;" />
 <path d="  M 21,9  L 21,10  L 22,10  L 22,9  Z  " style="fill:rgb(67, 178, 252); fill-opacity:1.000; stroke:none;" />
 <path d="  M 25,16  L 25,15  L 24,15  L 24,16  Z  " style="fill:rgb(67, 178, 252); fill-opacity:1.000; stroke:none;" />
 <path d="  M 18,22  L 17,22  L 17,23  L 18,23  Z  " style="fill:rgb(83, 187, 252); fill-opacity:1.000; stroke:none;" />
 <path d="  M 17,23  L 17,24  L 18,24  L 18,23  Z  " style="fill:rgb(70, 179, 252); fill-opacity:1.000; stroke:none;" />
 <path d="  M 19,21  L 19,20  L 18,20  L 18,21  Z  " style="fill:rgb(70, 179, 252); fill-opacity:1.000; stroke:none;" />
 <path d="  M 23,23  L 23,22  L 22,22  L 22,23  Z  " style="fill:rgb(70, 179, 252); fill-opacity:1.000; stroke:none;" />
 <path d="  M 25,15  L 25,14  L 24,14  L 24,15  Z  " style="fill:rgb(70, 179, 252); fill-opacity:1.000; stroke:none;" />
 <path d="  M 17,31  L 18,31  L 18,30  L 17,30  Z  " style="fill:rgb(163, 218, 254); fill-opacity:1.000; stroke:none;" />
 <path d="  M 18,5  L 19,5  L 19,4  L 18,4  Z  " style="fill:rgb(161, 218, 253); fill-opacity:1.000; stroke:none;" />
 <path d="  M 18,13  L 19,13  L 19,12  L 18,12  Z  " style="fill:rgb(112, 198, 253); fill-opacity:1.000; stroke:none;" />
 <path d="  M 19,14  L 19,13  L 18,13  L 18,14  Z  " style="fill:rgb(221, 242, 255); fill-opacity:1.000; stroke:none;" />
 <path d="  M 19,19  L 19,18  L 18,18  L 18,19  Z  " style="fill:rgb(184, 229, 254); fill-opacity:1.000; stroke:none;" />
 <path d="  M 18,20  L 19,20  L 19,19  L 18,19  Z  " style="fill:rgb(67, 179, 252); fill-opacity:1.000; stroke:none;" />
 <path d="  M 18,21  L 18,22  L 19,22  L 19,21  Z  " style="fill:rgb(137, 210, 253); fill-opacity:1.000; stroke:none;" />
 <path d="  M 18,23  L 19,23  L 19,22  L 18,22  Z  " style="fill:rgb(214, 241, 254); fill-opacity:1.000; stroke:none;" />
 <path d="  M 19,24  L 19,23  L 18,23  L 18,24  Z  " style="fill:rgb(133, 207, 253); fill-opacity:1.000; stroke:none;" />
 <path d="  M 19,31  L 19,30  L 18,30  L 18,31  Z  " style="fill:rgb(169, 224, 254); fill-opacity:1.000; stroke:none;" />
 <path d="  M 20,5  L 20,4  L 19,4  L 19,5  Z  " style="fill:rgb(179, 227, 254); fill-opacity:1.000; stroke:none;" />
 <path d="  M 20,12  L 19,12  L 19,13  L 20,13  Z  " style="fill:rgb(228, 246, 255); fill-opacity:1.000; stroke:none;" />
 <path d="  M 19,19  L 20,19  L 20,18  L 19,18  Z  " style="fill:rgb(240, 250, 255); fill-opacity:1.000; stroke:none;" />
 <path d="  M 31,15  L 30,15  L 30,16  L 31,16  Z  " style="fill:rgb(240, 250, 255); fill-opacity:1.000; stroke:none;" />
 <path d="  M 30,19  L 30,20  L 31,20  L 31,19  Z  " style="fill:rgb(240, 250, 255); fill-opacity:1.000; stroke:none;" />
 <path d="  M 20,19  L 19,19  L 19,20  L 20,20  Z  " style="fill:rgb(163, 219, 254); fill-opacity:1.000; stroke:none;" />
 <path d="  M 26,8  L 26,9  L 27,9  L 27,8  Z  " style="fill:rgb(163, 219, 254); fill-opacity:1.000; stroke:none;" />
 <path d="  M 19,21  L 20,21  L 20,20  L 19,20  Z  " style="fill:rgb(171, 222, 254); fill-opacity:1.000; stroke:none;" />
 <path d="  M 20,25  L 20,24  L 19,24  L 19,25  Z  " style="fill:rgb(204, 236, 254); fill-opacity:1.000; stroke:none;" />
 <path d="  M 19,25  L 19,26  L 20,26  L 20,25  Z  " style="fill:rgb(84, 187, 252); fill-opacity:1.000; stroke:none;" />
 <path d="  M 21,10  L 20,10  L 20,11  L 21,11  Z  " style="fill:rgb(101, 193, 253); fill-opacity:1.000; stroke:none;" />
 <path d="  M 21,12  L 21,11  L 20,11  L 20,12  Z  " style="fill:rgb(216, 240, 255); fill-opacity:1.000; stroke:none;" />
 <path d="  M 20,24  L 20,25  L 21,25  L 21,24  Z  " style="fill:rgb(203, 236, 254); fill-opacity:1.000; stroke:none;" />
 <path d="  M 21,29  L 20,29  L 20,30  L 21,30  Z  " style="fill:rgb(89, 188, 252); fill-opacity:1.000; stroke:none;" />
 <path d="  M 28,13  L 29,13  L 29,12  L 28,12  Z  " style="fill:rgb(89, 188, 252); fill-opacity:1.000; stroke:none;" />
 <path d="  M 21,30  L 20,30  L 20,31  L 21,31  Z  " style="fill:rgb(227, 245, 254); fill-opacity:1.000; stroke:none;" />
 <path d="  M 28,24  L 28,25  L 29,25  L 29,24  Z  " style="fill:rgb(227, 245, 254); fill-opacity:1.000; stroke:none;" />
 <path d="  M 21,4  L 21,5  L 22,5  L 22,4  Z  " style="fill:rgb(244, 252, 255); fill-opacity:1.000; stroke:none;" />
 <path d="  M 22,5  L 21,5  L 21,6  L 22,6  Z  " style="fill:rgb(116, 201, 253); fill-opacity:1.000; stroke:none;" />
 <path d="  M 22,11  L 22,10  L 21,10  L 21,11  Z  " style="fill:rgb(171, 224, 254); fill-opacity:1.000; stroke:none;" />
 <path d="  M 24,16  L 24,15  L 23,15  L 23,16  Z  " style="fill:rgb(171, 224, 254); fill-opacity:1.000; stroke:none;" />
 <path d="  M 22,21  L 21,21  L 21,22  L 22,22  Z  " style="fill:rgb(220, 242, 254); fill-opacity:1.000; stroke:none;" />
 <path d="  M 22,23  L 21,23  L 21,24  L 22,24  Z  " style="fill:rgb(132, 207, 253); fill-opacity:1.000; stroke:none;" />
 <path d="  M 22,30  L 22,29  L 21,29  L 21,30  Z  " style="fill:rgb(130, 206, 253); fill-opacity:1.000; stroke:none;" />
 <path d="  M 21,31  L 22,31  L 22,30  L 21,30  Z  " style="fill:rgb(249, 253, 255); fill-opacity:1.000; stroke:none;" />
 <path d="  M 22,5  L 22,6  L 23,6  L 23,5  Z  " style="fill:rgb(180, 227, 254); fill-opacity:1.000; stroke:none;" />
 <path d="  M 23,7  L 23,6  L 22,6  L 22,7  Z  " style="fill:rgb(70, 180, 252); fill-opacity:1.000; stroke:none;" />
 <path d="  M 22,10  L 22,11  L 23,11  L 23,10  Z  " style="fill:rgb(134, 209, 253); fill-opacity:1.000; stroke:none;" />
 <path d="  M 22,12  L 23,12  L 23,11  L 22,11  Z  " style="fill:rgb(238, 249, 255); fill-opacity:1.000; stroke:none;" />
 <path d="  M 22,17  L 22,18  L 23,18  L 23,17  Z  " style="fill:rgb(239, 249, 255); fill-opacity:1.000; stroke:none;" />
 <path d="  M 24,5  L 23,5  L 23,6  L 24,6  Z  " style="fill:rgb(239, 249, 255); fill-opacity:1.000; stroke:none;" />
 <path d="  M 22,19  L 23,19  L 23,18  L 22,18  Z  " style="fill:rgb(196, 233, 254); fill-opacity:1.000; stroke:none;" />
 <path d="  M 22,19  L 22,20  L 23,20  L 23,19  Z  " style="fill:rgb(151, 214, 253); fill-opacity:1.000; stroke:none;" />
 <path d="  M 23,20  L 22,20  L 22,21  L 23,21  Z  " style="fill:rgb(111, 198, 253); fill-opacity:1.000; stroke:none;" />
 <path d="  M 23,22  L 23,21  L 22,21  L 22,22  Z  " style="fill:rgb(83, 185, 252); fill-opacity:1.000; stroke:none;" />
 <path d="  M 23,30  L 23,29  L 22,29  L 22,30  Z  " style="fill:rgb(192, 232, 254); fill-opacity:1.000; stroke:none;" />
 <path d="  M 23,7  L 24,7  L 24,6  L 23,6  Z  " style="fill:rgb(111, 199, 253); fill-opacity:1.000; stroke:none;" />
 <path d="  M 23,11  L 23,12  L 24,12  L 24,11  Z  " style="fill:rgb(108, 197, 253); fill-opacity:1.000; stroke:none;" />
 <path d="  M 23,13  L 24,13  L 24,12  L 23,12  Z  " style="fill:rgb(163, 220, 253); fill-opacity:1.000; stroke:none;" />
 <path d="  M 23,14  L 23,15  L 24,15  L 24,14  Z  " style="fill:rgb(181, 228, 254); fill-opacity:1.000; stroke:none;" />
 <path d="  M 25,27  L 25,28  L 26,28  L 26,27  Z  " style="fill:rgb(181, 228, 254); fill-opacity:1.000; stroke:none;" />
 <path d="  M 23,16  L 23,17  L 24,17  L 24,16  Z  " style="fill:rgb(149, 213, 253); fill-opacity:1.000; stroke:none;" />
 <path d="  M 24,18  L 24,17  L 23,17  L 23,18  Z  " style="fill:rgb(104, 195, 253); fill-opacity:1.000; stroke:none;" />
 <path d="  M 23,29  L 24,29  L 24,28  L 23,28  Z  " style="fill:rgb(122, 203, 253); fill-opacity:1.000; stroke:none;" />
 <path d="  M 23,29  L 23,30  L 24,30  L 24,29  Z  " style="fill:rgb(244, 251, 255); fill-opacity:1.000; stroke:none;" />
 <path d="  M 25,6  L 24,6  L 24,7  L 25,7  Z  " style="fill:rgb(200, 235, 254); fill-opacity:1.000; stroke:none;" />
 <path d="  M 25,8  L 25,7  L 24,7  L 24,8  Z  " style="fill:rgb(81, 185, 252); fill-opacity:1.000; stroke:none;" />
 <path d="  M 25,27  L 24,27  L 24,28  L 25,28  Z  " style="fill:rgb(88, 189, 252); fill-opacity:1.000; stroke:none;" />
 <path d="  M 25,28  L 24,28  L 24,29  L 25,29  Z  " style="fill:rgb(211, 239, 254); fill-opacity:1.000; stroke:none;" />
 <path d="  M 26,6  L 25,6  L 25,7  L 26,7  Z  " style="fill:rgb(253, 254, 255); fill-opacity:1.000; stroke:none;" />
 <path d="  M 27,27  L 28,27  L 28,26  L 27,26  Z  " style="fill:rgb(253, 254, 255); fill-opacity:1.000; stroke:none;" />
 <path d="  M 26,7  L 25,7  L 25,8  L 26,8  Z  " style="fill:rgb(168, 221, 254); fill-opacity:1.000; stroke:none;" />
 <path d="  M 26,8  L 25,8  L 25,9  L 26,9  Z  " style="fill:rgb(74, 180, 252); fill-opacity:1.000; stroke:none;" />
 <path d="  M 26,27  L 26,26  L 25,26  L 25,27  Z  " style="fill:rgb(77, 183, 252); fill-opacity:1.000; stroke:none;" />
 <path d="  M 27,10  L 27,9  L 26,9  L 26,10  Z  " style="fill:rgb(76, 182, 252); fill-opacity:1.000; stroke:none;" />
 <path d="  M 26,26  L 27,26  L 27,25  L 26,25  Z  " style="fill:rgb(80, 185, 252); fill-opacity:1.000; stroke:none;" />
 <path d="  M 27,27  L 27,26  L 26,26  L 26,27  Z  " style="fill:rgb(174, 224, 254); fill-opacity:1.000; stroke:none;" />
 <path d="  M 28,9  L 27,9  L 27,10  L 28,10  Z  " style="fill:rgb(186, 229, 254); fill-opacity:1.000; stroke:none;" />
 <path d="  M 28,10  L 27,10  L 27,11  L 28,11  Z  " style="fill:rgb(97, 192, 253); fill-opacity:1.000; stroke:none;" />
 <path d="  M 27,26  L 28,26  L 28,25  L 27,25  Z  " style="fill:rgb(195, 233, 254); fill-opacity:1.000; stroke:none;" />
 <path d="  M 29,11  L 29,10  L 28,10  L 28,11  Z  " style="fill:rgb(223, 243, 255); fill-opacity:1.000; stroke:none;" />
 <path d="  M 30,12  L 29,12  L 29,13  L 30,13  Z  " style="fill:rgb(223, 243, 255); fill-opacity:1.000; stroke:none;" />
 <path d="  M 28,11  L 28,12  L 29,12  L 29,11  Z  " style="fill:rgb(147, 214, 253); fill-opacity:1.000; stroke:none;" />
 <path d="  M 28,23  L 28,24  L 29,24  L 29,23  Z  " style="fill:rgb(154, 217, 253); fill-opacity:1.000; stroke:none;" />
 <path d="  M 29,13  L 29,14  L 30,14  L 30,13  Z  " style="fill:rgb(175, 225, 254); fill-opacity:1.000; stroke:none;" />
 <path d="  M 30,15  L 29,15  L 29,16  L 30,16  Z  " style="fill:rgb(103, 196, 253); fill-opacity:1.000; stroke:none;" />
 <path d="  M 30,16  L 29,16  L 29,17  L 30,17  Z  " style="fill:rgb(90, 190, 252); fill-opacity:1.000; stroke:none;" />
 <path d="  M 29,18  L 29,19  L 30,19  L 30,18  Z  " style="fill:rgb(90, 190, 252); fill-opacity:1.000; stroke:none;" />
 <path d="  M 29,18  L 30,18  L 30,17  L 29,17  Z  " style="fill:rgb(88, 186, 252); fill-opacity:1.000; stroke:none;" />
 <path d="  M 29,19  L 29,20  L 30,20  L 30,19  Z  " style="fill:rgb(105, 197, 253); fill-opacity:1.000; stroke:none;" />
 <path d="  M 29,21  L 30,21  L 30,20  L 29,20  Z  " style="fill:rgb(138, 208, 253); fill-opacity:1.000; stroke:none;" />
 <path d="  M 29,21  L 29,22  L 30,22  L 30,21  Z  " style="fill:rgb(178, 226, 254); fill-opacity:1.000; stroke:none;" />
 <path d="  M 29,22  L 29,23  L 30,23  L 30,22  Z  " style="fill:rgb(227, 245, 255); fill-opacity:1.000; stroke:none;" />
 <path d="  M 30,14  L 30,15  L 31,15  L 31,14  Z  " style="fill:rgb(250, 254, 255); fill-opacity:1.000; stroke:none;" />
 <path d="  M 30,17  L 30,18  L 31,18  L 31,17  Z  " style="fill:rgb(235, 247, 255); fill-opacity:1.000; stroke:none;" />
</svg>
