<?xml version="1.0" encoding="UTF-8" standalone="no"?>
<!DOCTYPE svg PUBLIC "-//W3C//DTD SVG 1.1//EN" 
  "http://www.w3.org/Graphics/SVG/1.1/DTD/svg11.dtd">
<svg width="32" height="32"
	 xmlns="http://www.w3.org/2000/svg" version="1.1">
 <path d="  M 2,14  L 1,14  L 1,15  L 2,15  Z  " style="fill:rgb(51, 51, 23); fill-opacity:0.004; stroke:none;" />
 <path d="  M 2,17  L 1,17  L 1,18  L 2,18  Z  " style="fill:rgb(63, 63, 63); fill-opacity:0.035; stroke:none;" />
 <path d="  M 2,19  L 2,18  L 1,18  L 1,19  Z  " style="fill:rgb(62, 62, 62); fill-opacity:0.024; stroke:none;" />
 <path d="  M 2,12  L 3,12  L 3,11  L 2,11  Z  " style="fill:rgb(64, 64, 64); fill-opacity:0.035; stroke:none;" />
 <path d="  M 3,12  L 2,12  L 2,13  L 3,13  Z  " style="fill:rgb(63, 63, 63); fill-opacity:0.122; stroke:none;" />
 <path d="  M 2,14  L 3,14  L 3,13  L 2,13  Z  " style="fill:rgb(63, 63, 63); fill-opacity:0.286; stroke:none;" />
 <path d="  M 3,14  L 2,14  L 2,15  L 3,15  Z  " style="fill:rgb(63, 63, 62); fill-opacity:0.424; stroke:none;" />
 <path d="  M 3,15  L 2,15  L 2,16  L 3,16  Z  " style="fill:rgb(64, 64, 64); fill-opacity:0.357; stroke:none;" />
 <path d="  M 2,17  L 3,17  L 3,16  L 2,16  Z  " style="fill:rgb(63, 63, 63); fill-opacity:0.447; stroke:none;" />
 <path d="  M 3,17  L 2,17  L 2,18  L 3,18  Z  " style="fill:rgb(63, 63, 63); fill-opacity:0.588; stroke:none;" />
 <path d="  M 3,19  L 3,18  L 2,18  L 2,19  Z  " style="fill:rgb(63, 62, 63); fill-opacity:0.369; stroke:none;" />
 <path d="  M 2,20  L 3,20  L 3,19  L 2,19  Z  " style="fill:rgb(24, 0, 91); fill-opacity:0.012; stroke:none;" />
 <path d="  M 2,21  L 3,21  L 3,20  L 2,20  Z  " style="fill:rgb(112, 200, 8); fill-opacity:0.004; stroke:none;" />
 <path d="  M 3,9  L 4,9  L 4,8  L 3,8  Z  " style="fill:rgb(63, 64, 63); fill-opacity:0.008; stroke:none;" />
 <path d="  M 4,9  L 3,9  L 3,10  L 4,10  Z  " style="fill:rgb(63, 63, 63); fill-opacity:0.059; stroke:none;" />
 <path d="  M 3,10  L 3,11  L 4,11  L 4,10  Z  " style="fill:rgb(64, 64, 64); fill-opacity:0.090; stroke:none;" />
 <path d="  M 3,12  L 4,12  L 4,11  L 3,11  Z  " style="fill:rgb(63, 63, 63); fill-opacity:0.357; stroke:none;" />
 <path d="  M 4,12  L 3,12  L 3,13  L 4,13  Z  " style="fill:rgb(63, 63, 63); fill-opacity:0.678; stroke:none;" />
 <path d="  M 3,14  L 4,14  L 4,13  L 3,13  Z  " style="fill:rgb(63, 63, 63); fill-opacity:0.843; stroke:none;" />
 <path d="  M 3,15  L 4,15  L 4,14  L 3,14  Z  " style="fill:rgb(63, 63, 63); fill-opacity:0.961; stroke:none;" />
 <path d="  M 3,15  L 3,16  L 4,16  L 4,15  Z  " style="fill:rgb(63, 63, 63); fill-opacity:0.922; stroke:none;" />
 <path d="  M 3,17  L 4,17  L 4,16  L 3,16  Z  " style="fill:rgb(63, 63, 63); fill-opacity:0.910; stroke:none;" />
 <path d="  M 4,17  L 3,17  L 3,18  L 4,18  Z  " style="fill:rgb(63, 63, 63); fill-opacity:1.000; stroke:none;" />
 <path d="  M 20,9  L 18,9  L 18,8  L 15,8  L 15,9  L 6,9  L 6,10  L 5,10  L 5,13  L 4,13  L 4,16  L 5,16  L 5,15  L 8,15  L 8,17  L 9,17  L 9,15  L 11,15  L 11,17  L 14,17  L 14,16  L 15,16  L 15,17  L 17,17  L 17,16  L 21,16  L 21,17  L 22,17  L 22,16  L 23,16  L 23,17  L 24,17  L 24,16  L 27,16  L 27,15  L 29,15  L 29,16  L 30,16  L 30,13  L 29,13  L 29,12  L 30,12  L 30,11  L 29,11  L 29,9  L 25,9  L 25,8  L 23,8  L 23,9  L 22,9  L 22,8  L 20,8  Z  M 8,10  L 9,10  L 9,11  L 8,11  Z  M 6,14  L 6,13  L 7,13  L 7,14  Z  M 14,14  L 14,13  L 16,13  L 16,12  L 17,12  L 17,13  L 18,13  L 18,12  L 19,12  L 19,14  Z  M 11,14  L 11,13  L 13,13  L 13,14  Z  " style="fill:rgb(63, 63, 63); fill-opacity:1.000; stroke:none;" />
 <path d="  M 3,19  L 4,19  L 4,18  L 3,18  Z  " style="fill:rgb(67, 71, 61); fill-opacity:0.733; stroke:none;" />
 <path d="  M 4,20  L 4,19  L 3,19  L 3,20  Z  " style="fill:rgb(103, 141, 39); fill-opacity:0.306; stroke:none;" />
 <path d="  M 3,20  L 3,21  L 4,21  L 4,20  Z  " style="fill:rgb(109, 153, 32); fill-opacity:0.294; stroke:none;" />
 <path d="  M 4,22  L 4,21  L 3,21  L 3,22  Z  " style="fill:rgb(112, 156, 33); fill-opacity:0.129; stroke:none;" />
 <path d="  M 5,7  L 4,7  L 4,8  L 5,8  Z  " style="fill:rgb(64, 62, 64); fill-opacity:0.039; stroke:none;" />
 <path d="  M 5,8  L 4,8  L 4,9  L 5,9  Z  " style="fill:rgb(63, 63, 63); fill-opacity:0.310; stroke:none;" />
 <path d="  M 5,10  L 5,9  L 4,9  L 4,10  Z  " style="fill:rgb(63, 63, 63); fill-opacity:0.667; stroke:none;" />
 <path d="  M 4,11  L 5,11  L 5,10  L 4,10  Z  " style="fill:rgb(63, 63, 63); fill-opacity:0.757; stroke:none;" />
 <path d="  M 5,12  L 5,11  L 4,11  L 4,12  Z  " style="fill:rgb(63, 63, 63); fill-opacity:0.867; stroke:none;" />
 <path d="  M 4,13  L 5,13  L 5,12  L 4,12  Z  " style="fill:rgb(63, 63, 63); fill-opacity:0.996; stroke:none;" />
 <path d="  M 9,11  L 9,10  L 8,10  L 8,11  Z  " style="fill:rgb(63, 63, 63); fill-opacity:0.996; stroke:none;" />
 <path d="  M 23,8  L 22,8  L 22,9  L 23,9  Z  " style="fill:rgb(63, 63, 63); fill-opacity:0.996; stroke:none;" />
 <path d="  M 31,13  L 31,12  L 30,12  L 30,13  Z  " style="fill:rgb(63, 63, 63); fill-opacity:0.996; stroke:none;" />
 <path d="  M 4,16  L 4,17  L 5,17  L 5,16  Z  " style="fill:rgb(64, 64, 63); fill-opacity:1.000; stroke:none;" />
 <path d="  M 5,15  L 5,16  L 8,16  L 8,15  Z  " style="fill:rgb(64, 64, 63); fill-opacity:1.000; stroke:none;" />
 <path d="  M 9,16  L 10,16  L 10,15  L 9,15  Z  " style="fill:rgb(64, 64, 63); fill-opacity:1.000; stroke:none;" />
 <path d="  M 11,17  L 11,16  L 10,16  L 10,17  Z  " style="fill:rgb(64, 64, 63); fill-opacity:1.000; stroke:none;" />
 <path d="  M 15,14  L 16,14  L 16,13  L 15,13  Z  " style="fill:rgb(64, 64, 63); fill-opacity:1.000; stroke:none;" />
 <path d="  M 18,13  L 19,13  L 19,12  L 18,12  Z  " style="fill:rgb(64, 64, 63); fill-opacity:1.000; stroke:none;" />
 <path d="  M 4,18  L 5,18  L 5,17  L 4,17  Z  " style="fill:rgb(63, 62, 63); fill-opacity:1.000; stroke:none;" />
 <path d="  M 8,17  L 7,17  L 7,18  L 8,18  Z  " style="fill:rgb(63, 62, 63); fill-opacity:1.000; stroke:none;" />
 <path d="  M 14,16  L 14,17  L 15,17  L 15,16  Z  " style="fill:rgb(63, 62, 63); fill-opacity:1.000; stroke:none;" />
 <path d="  M 19,17  L 19,16  L 17,16  L 17,17  Z  " style="fill:rgb(63, 62, 63); fill-opacity:1.000; stroke:none;" />
 <path d="  M 22,17  L 23,17  L 23,16  L 22,16  Z  " style="fill:rgb(63, 62, 63); fill-opacity:1.000; stroke:none;" />
 <path d="  M 25,16  L 24,16  L 24,17  L 25,17  Z  " style="fill:rgb(63, 62, 63); fill-opacity:1.000; stroke:none;" />
 <path d="  M 27,15  L 27,16  L 29,16  L 29,15  Z  " style="fill:rgb(63, 62, 63); fill-opacity:1.000; stroke:none;" />
 <path d="  M 30,12  L 29,12  L 29,13  L 30,13  Z  " style="fill:rgb(63, 62, 63); fill-opacity:1.000; stroke:none;" />
 <path d="  M 30,16  L 29,16  L 29,17  L 30,17  Z  " style="fill:rgb(63, 62, 63); fill-opacity:1.000; stroke:none;" />
 <path d="  M 5,19  L 5,18  L 4,18  L 4,19  Z  " style="fill:rgb(79, 94, 53); fill-opacity:0.961; stroke:none;" />
 <path d="  M 4,19  L 4,20  L 5,20  L 5,19  Z  " style="fill:rgb(110, 153, 35); fill-opacity:0.914; stroke:none;" />
 <path d="  M 5,20  L 4,20  L 4,21  L 5,21  Z  " style="fill:rgb(108, 151, 32); fill-opacity:0.910; stroke:none;" />
 <path d="  M 4,21  L 4,22  L 5,22  L 5,21  Z  " style="fill:rgb(113, 159, 33); fill-opacity:0.722; stroke:none;" />
 <path d="  M 4,22  L 4,23  L 5,23  L 5,22  Z  " style="fill:rgb(128, 182, 36); fill-opacity:0.373; stroke:none;" />
 <path d="  M 5,24  L 5,23  L 4,23  L 4,24  Z  " style="fill:rgb(131, 185, 36); fill-opacity:0.345; stroke:none;" />
 <path d="  M 4,25  L 5,25  L 5,24  L 4,24  Z  " style="fill:rgb(131, 185, 37); fill-opacity:0.180; stroke:none;" />
 <path d="  M 5,25  L 4,25  L 4,26  L 5,26  Z  " style="fill:rgb(131, 185, 38); fill-opacity:0.078; stroke:none;" />
 <path d="  M 5,26  L 4,26  L 4,27  L 5,27  Z  " style="fill:rgb(131, 185, 36); fill-opacity:0.063; stroke:none;" />
 <path d="  M 5,28  L 5,27  L 4,27  L 4,28  Z  " style="fill:rgb(130, 187, 36); fill-opacity:0.035; stroke:none;" />
 <path d="  M 4,28  L 4,29  L 5,29  L 5,28  Z  " style="fill:rgb(129, 187, 35); fill-opacity:0.008; stroke:none;" />
 <path d="  M 6,7  L 5,7  L 5,8  L 6,8  Z  " style="fill:rgb(62, 62, 62); fill-opacity:0.122; stroke:none;" />
 <path d="  M 5,8  L 5,9  L 6,9  L 6,8  Z  " style="fill:rgb(63, 63, 63); fill-opacity:0.663; stroke:none;" />
 <path d="  M 5,9  L 5,10  L 6,10  L 6,9  Z  " style="fill:rgb(63, 63, 63); fill-opacity:0.976; stroke:none;" />
 <path d="  M 14,9  L 15,9  L 15,8  L 14,8  Z  " style="fill:rgb(63, 63, 63); fill-opacity:0.976; stroke:none;" />
 <path d="  M 31,16  L 30,16  L 30,17  L 31,17  Z  " style="fill:rgb(63, 63, 63); fill-opacity:0.976; stroke:none;" />
 <path d="  M 5,16  L 5,17  L 7,17  L 7,16  Z  " style="fill:rgb(65, 66, 62); fill-opacity:1.000; stroke:none;" />
 <path d="  M 10,17  L 10,18  L 11,18  L 11,17  Z  " style="fill:rgb(65, 66, 62); fill-opacity:1.000; stroke:none;" />
 <path d="  M 19,14  L 19,13  L 18,13  L 18,14  Z  " style="fill:rgb(65, 66, 62); fill-opacity:1.000; stroke:none;" />
 <path d="  M 6,17  L 5,17  L 5,18  L 6,18  Z  " style="fill:rgb(63, 62, 64); fill-opacity:1.000; stroke:none;" />
 <path d="  M 6,19  L 6,18  L 5,18  L 5,19  Z  " style="fill:rgb(79, 93, 53); fill-opacity:1.000; stroke:none;" />
 <path d="  M 6,20  L 6,19  L 5,19  L 5,20  Z  " style="fill:rgb(107, 149, 34); fill-opacity:1.000; stroke:none;" />
 <path d="  M 6,20  L 5,20  L 5,21  L 6,21  Z  " style="fill:rgb(107, 150, 32); fill-opacity:1.000; stroke:none;" />
 <path d="  M 8,20  L 7,20  L 7,21  L 8,21  Z  " style="fill:rgb(107, 150, 32); fill-opacity:1.000; stroke:none;" />
 <path d="  M 15,19  L 14,19  L 14,20  L 15,20  Z  " style="fill:rgb(107, 150, 32); fill-opacity:1.000; stroke:none;" />
 <path d="  M 17,21  L 18,21  L 18,19  L 17,19  Z  " style="fill:rgb(107, 150, 32); fill-opacity:1.000; stroke:none;" />
 <path d="  M 21,20  L 20,20  L 20,21  L 21,21  Z  " style="fill:rgb(107, 150, 32); fill-opacity:1.000; stroke:none;" />
 <path d="  M 23,20  L 22,20  L 22,21  L 23,21  Z  " style="fill:rgb(107, 150, 32); fill-opacity:1.000; stroke:none;" />
 <path d="  M 27,20  L 27,19  L 25,19  L 25,20  Z  " style="fill:rgb(107, 150, 32); fill-opacity:1.000; stroke:none;" />
 <path d="  M 28,19  L 29,19  L 29,18  L 28,18  Z  " style="fill:rgb(107, 150, 32); fill-opacity:1.000; stroke:none;" />
 <path d="  M 6,22  L 6,21  L 5,21  L 5,22  Z  " style="fill:rgb(113, 159, 33); fill-opacity:0.992; stroke:none;" />
 <path d="  M 5,23  L 6,23  L 6,22  L 5,22  Z  " style="fill:rgb(127, 180, 36); fill-opacity:0.945; stroke:none;" />
 <path d="  M 5,24  L 6,24  L 6,23  L 5,23  Z  " style="fill:rgb(131, 185, 37); fill-opacity:0.925; stroke:none;" />
 <path d="  M 6,24  L 5,24  L 5,25  L 6,25  Z  " style="fill:rgb(131, 185, 37); fill-opacity:0.784; stroke:none;" />
 <path d="  M 6,25  L 5,25  L 5,26  L 6,26  Z  " style="fill:rgb(131, 185, 37); fill-opacity:0.769; stroke:none;" />
 <path d="  M 6,27  L 6,26  L 5,26  L 5,27  Z  " style="fill:rgb(131, 185, 37); fill-opacity:0.722; stroke:none;" />
 <path d="  M 5,28  L 6,28  L 6,27  L 5,27  Z  " style="fill:rgb(131, 185, 36); fill-opacity:0.525; stroke:none;" />
 <path d="  M 6,29  L 6,28  L 5,28  L 5,29  Z  " style="fill:rgb(130, 184, 37); fill-opacity:0.196; stroke:none;" />
 <path d="  M 6,7  L 6,8  L 7,8  L 7,7  Z  " style="fill:rgb(62, 62, 62); fill-opacity:0.082; stroke:none;" />
 <path d="  M 7,9  L 7,8  L 6,8  L 6,9  Z  " style="fill:rgb(63, 63, 63); fill-opacity:0.745; stroke:none;" />
 <path d="  M 6,13  L 6,14  L 7,14  L 7,13  Z  " style="fill:rgb(64, 63, 63); fill-opacity:1.000; stroke:none;" />
 <path d="  M 6,18  L 7,18  L 7,17  L 6,17  Z  " style="fill:rgb(62, 62, 63); fill-opacity:1.000; stroke:none;" />
 <path d="  M 21,17  L 21,16  L 19,16  L 19,17  Z  " style="fill:rgb(62, 62, 63); fill-opacity:1.000; stroke:none;" />
 <path d="  M 6,18  L 6,19  L 7,19  L 7,18  Z  " style="fill:rgb(79, 94, 53); fill-opacity:0.996; stroke:none;" />
 <path d="  M 7,19  L 6,19  L 6,20  L 7,20  Z  " style="fill:rgb(107, 149, 34); fill-opacity:0.996; stroke:none;" />
 <path d="  M 6,21  L 7,21  L 7,20  L 6,20  Z  " style="fill:rgb(107, 151, 32); fill-opacity:1.000; stroke:none;" />
 <path d="  M 13,19  L 12,19  L 12,20  L 13,20  Z  " style="fill:rgb(107, 151, 32); fill-opacity:1.000; stroke:none;" />
 <path d="  M 18,20  L 19,20  L 19,19  L 18,19  Z  " style="fill:rgb(107, 151, 32); fill-opacity:1.000; stroke:none;" />
 <path d="  M 22,20  L 22,19  L 20,19  L 20,20  Z  " style="fill:rgb(107, 151, 32); fill-opacity:1.000; stroke:none;" />
 <path d="  M 25,20  L 25,19  L 24,19  L 24,20  Z  " style="fill:rgb(107, 151, 32); fill-opacity:1.000; stroke:none;" />
 <path d="  M 6,21  L 6,22  L 7,22  L 7,21  Z  " style="fill:rgb(112, 158, 33); fill-opacity:1.000; stroke:none;" />
 <path d="  M 6,23  L 7,23  L 7,22  L 6,22  Z  " style="fill:rgb(127, 179, 36); fill-opacity:1.000; stroke:none;" />
 <path d="  M 21,28  L 21,30  L 28,30  L 28,26  L 29,26  L 29,22  L 26,22  L 26,23  L 22,23  L 22,22  L 21,22  L 21,23  L 16,23  L 16,24  L 14,24  L 14,23  L 8,23  L 8,24  L 9,24  L 9,26  L 7,26  L 7,23  L 6,23  L 6,27  L 7,27  L 7,28  L 9,28  L 9,27  L 11,27  L 11,28  L 12,28  L 12,27  L 13,27  L 13,28  L 14,28  L 14,27  L 15,27  L 15,26  L 16,26  L 16,27  L 20,27  L 20,28  Z  M 10,25  L 11,25  L 11,26  L 10,26  Z  M 22,25  L 26,25  L 26,27  L 25,27  L 25,28  L 22,28  Z  " style="fill:rgb(131, 185, 37); fill-opacity:1.000; stroke:none;" />
 <path d="  M 9,29  L 9,30  L 15,30  L 15,29  Z  " style="fill:rgb(131, 185, 37); fill-opacity:1.000; stroke:none;" />
 <path d="  M 20,31  L 20,30  L 16,30  L 16,31  Z  " style="fill:rgb(131, 185, 37); fill-opacity:1.000; stroke:none;" />
 <path d="  M 7,28  L 7,27  L 6,27  L 6,28  Z  " style="fill:rgb(131, 184, 37); fill-opacity:0.957; stroke:none;" />
 <path d="  M 6,28  L 6,29  L 7,29  L 7,28  Z  " style="fill:rgb(130, 185, 36); fill-opacity:0.600; stroke:none;" />
 <path d="  M 6,30  L 7,30  L 7,29  L 6,29  Z  " style="fill:rgb(130, 183, 37); fill-opacity:0.039; stroke:none;" />
 <path d="  M 8,8  L 8,7  L 7,7  L 7,8  Z  " style="fill:rgb(62, 62, 62); fill-opacity:0.239; stroke:none;" />
 <path d="  M 7,8  L 7,9  L 8,9  L 8,8  Z  " style="fill:rgb(63, 63, 63); fill-opacity:0.859; stroke:none;" />
 <path d="  M 8,16  L 7,16  L 7,17  L 8,17  Z  " style="fill:rgb(65, 67, 62); fill-opacity:1.000; stroke:none;" />
 <path d="  M 9,18  L 10,18  L 10,17  L 9,17  Z  " style="fill:rgb(65, 67, 62); fill-opacity:1.000; stroke:none;" />
 <path d="  M 16,17  L 15,17  L 15,18  L 16,18  Z  " style="fill:rgb(65, 67, 62); fill-opacity:1.000; stroke:none;" />
 <path d="  M 25,17  L 26,17  L 26,16  L 25,16  Z  " style="fill:rgb(65, 67, 62); fill-opacity:1.000; stroke:none;" />
 <path d="  M 7,19  L 8,19  L 8,18  L 7,18  Z  " style="fill:rgb(82, 100, 50); fill-opacity:0.988; stroke:none;" />
 <path d="  M 7,20  L 8,20  L 8,19  L 7,19  Z  " style="fill:rgb(106, 148, 34); fill-opacity:0.984; stroke:none;" />
 <path d="  M 8,22  L 8,21  L 7,21  L 7,22  Z  " style="fill:rgb(114, 161, 33); fill-opacity:1.000; stroke:none;" />
 <path d="  M 7,22  L 7,23  L 8,23  L 8,22  Z  " style="fill:rgb(128, 181, 36); fill-opacity:1.000; stroke:none;" />
 <path d="  M 7,24  L 8,24  L 8,23  L 7,23  Z  " style="fill:rgb(131, 185, 37); fill-opacity:0.996; stroke:none;" />
 <path d="  M 8,24  L 8,25  L 7,25  L 7,26  L 9,26  L 9,24  Z  " style="fill:rgb(131, 185, 37); fill-opacity:0.996; stroke:none;" />
 <path d="  M 9,27  L 9,28  L 10,28  L 10,29  L 13,29  L 13,28  L 11,28  L 11,27  Z  " style="fill:rgb(131, 185, 37); fill-opacity:0.996; stroke:none;" />
 <path d="  M 11,25  L 10,25  L 10,26  L 11,26  Z  " style="fill:rgb(131, 185, 37); fill-opacity:0.996; stroke:none;" />
 <path d="  M 14,27  L 14,28  L 17,28  L 17,27  Z  " style="fill:rgb(131, 185, 37); fill-opacity:0.996; stroke:none;" />
 <path d="  M 21,30  L 20,30  L 20,31  L 21,31  Z  " style="fill:rgb(131, 185, 37); fill-opacity:0.996; stroke:none;" />
 <path d="  M 8,25  L 8,24  L 7,24  L 7,25  Z  " style="fill:rgb(131, 185, 37); fill-opacity:0.984; stroke:none;" />
 <path d="  M 9,29  L 9,28  L 8,28  L 8,29  Z  " style="fill:rgb(131, 185, 37); fill-opacity:0.984; stroke:none;" />
 <path d="  M 17,28  L 18,28  L 18,27  L 17,27  Z  " style="fill:rgb(131, 185, 37); fill-opacity:0.984; stroke:none;" />
 <path d="  M 21,29  L 20,29  L 20,30  L 21,30  Z  " style="fill:rgb(131, 185, 37); fill-opacity:0.984; stroke:none;" />
 <path d="  M 7,28  L 7,29  L 8,29  L 8,28  Z  " style="fill:rgb(131, 185, 37); fill-opacity:0.875; stroke:none;" />
 <path d="  M 29,25  L 30,25  L 30,24  L 29,24  Z  " style="fill:rgb(131, 185, 37); fill-opacity:0.875; stroke:none;" />
 <path d="  M 8,30  L 8,29  L 7,29  L 7,30  Z  " style="fill:rgb(131, 185, 37); fill-opacity:0.333; stroke:none;" />
 <path d="  M 7,30  L 7,31  L 8,31  L 8,30  Z  " style="fill:rgb(132, 186, 39); fill-opacity:0.047; stroke:none;" />
 <path d="  M 8,7  L 8,8  L 9,8  L 9,7  Z  " style="fill:rgb(63, 63, 63); fill-opacity:0.306; stroke:none;" />
 <path d="  M 9,8  L 8,8  L 8,9  L 9,9  Z  " style="fill:rgb(63, 63, 63); fill-opacity:0.953; stroke:none;" />
 <path d="  M 30,10  L 30,9  L 29,9  L 29,10  Z  " style="fill:rgb(63, 63, 63); fill-opacity:0.953; stroke:none;" />
 <path d="  M 8,17  L 8,18  L 9,18  L 9,17  Z  " style="fill:rgb(66, 69, 61); fill-opacity:1.000; stroke:none;" />
 <path d="  M 8,19  L 9,19  L 9,18  L 8,18  Z  " style="fill:rgb(92, 120, 43); fill-opacity:1.000; stroke:none;" />
 <path d="  M 8,19  L 8,21  L 11,21  L 11,19  Z  " style="fill:rgb(106, 149, 32); fill-opacity:1.000; stroke:none;" />
 <path d="  M 16,20  L 14,20  L 14,21  L 16,21  Z  " style="fill:rgb(106, 149, 32); fill-opacity:1.000; stroke:none;" />
 <path d="  M 20,20  L 18,20  L 18,21  L 20,21  Z  " style="fill:rgb(106, 149, 32); fill-opacity:1.000; stroke:none;" />
 <path d="  M 25,21  L 25,20  L 24,20  L 24,21  Z  " style="fill:rgb(106, 149, 32); fill-opacity:1.000; stroke:none;" />
 <path d="  M 29,19  L 28,19  L 28,20  L 29,20  Z  " style="fill:rgb(106, 149, 32); fill-opacity:1.000; stroke:none;" />
 <path d="  M 8,22  L 9,22  L 9,21  L 8,21  Z  " style="fill:rgb(114, 160, 33); fill-opacity:1.000; stroke:none;" />
 <path d="  M 13,21  L 12,21  L 12,22  L 13,22  Z  " style="fill:rgb(114, 160, 33); fill-opacity:1.000; stroke:none;" />
 <path d="  M 8,22  L 8,23  L 10,23  L 10,22  Z  " style="fill:rgb(129, 183, 37); fill-opacity:1.000; stroke:none;" />
 <path d="  M 9,29  L 8,29  L 8,30  L 9,30  Z  " style="fill:rgb(131, 185, 37); fill-opacity:0.839; stroke:none;" />
 <path d="  M 29,23  L 29,24  L 30,24  L 30,23  Z  " style="fill:rgb(131, 185, 37); fill-opacity:0.839; stroke:none;" />
 <path d="  M 9,30  L 8,30  L 8,31  L 9,31  Z  " style="fill:rgb(131, 185, 37); fill-opacity:0.357; stroke:none;" />
 <path d="  M 8,32  L 9,32  L 9,31  L 8,31  Z  " style="fill:rgb(131, 183, 39); fill-opacity:0.008; stroke:none;" />
 <path d="  M 9,7  L 9,8  L 10,8  L 10,7  Z  " style="fill:rgb(63, 63, 63); fill-opacity:0.263; stroke:none;" />
 <path d="  M 11,9  L 11,8  L 9,8  L 9,9  Z  " style="fill:rgb(63, 63, 63); fill-opacity:0.906; stroke:none;" />
 <path d="  M 9,16  L 9,17  L 10,17  L 10,16  Z  " style="fill:rgb(65, 65, 63); fill-opacity:1.000; stroke:none;" />
 <path d="  M 18,13  L 17,13  L 17,14  L 18,14  Z  " style="fill:rgb(65, 65, 63); fill-opacity:1.000; stroke:none;" />
 <path d="  M 10,18  L 9,18  L 9,19  L 10,19  Z  " style="fill:rgb(92, 119, 43); fill-opacity:1.000; stroke:none;" />
 <path d="  M 10,21  L 9,21  L 9,22  L 10,22  Z  " style="fill:rgb(114, 160, 34); fill-opacity:1.000; stroke:none;" />
 <path d="  M 24,21  L 24,22  L 25,22  L 25,21  Z  " style="fill:rgb(114, 160, 34); fill-opacity:1.000; stroke:none;" />
 <path d="  M 9,29  L 10,29  L 10,28  L 9,28  Z  " style="fill:rgb(131, 186, 37); fill-opacity:1.000; stroke:none;" />
 <path d="  M 10,30  L 9,30  L 9,31  L 10,31  Z  " style="fill:rgb(131, 185, 37); fill-opacity:0.635; stroke:none;" />
 <path d="  M 9,32  L 10,32  L 10,31  L 9,31  Z  " style="fill:rgb(132, 188, 36); fill-opacity:0.039; stroke:none;" />
 <path d="  M 10,7  L 10,8  L 11,8  L 11,7  Z  " style="fill:rgb(63, 63, 63); fill-opacity:0.271; stroke:none;" />
 <path d="  M 10,15  L 10,16  L 11,16  L 11,15  Z  " style="fill:rgb(63, 64, 63); fill-opacity:1.000; stroke:none;" />
 <path d="  M 16,12  L 16,13  L 17,13  L 17,12  Z  " style="fill:rgb(63, 64, 63); fill-opacity:1.000; stroke:none;" />
 <path d="  M 11,18  L 10,18  L 10,19  L 11,19  Z  " style="fill:rgb(88, 112, 47); fill-opacity:1.000; stroke:none;" />
 <path d="  M 11,22  L 11,21  L 10,21  L 10,22  Z  " style="fill:rgb(113, 158, 33); fill-opacity:1.000; stroke:none;" />
 <path d="  M 10,22  L 10,23  L 12,23  L 12,22  Z  " style="fill:rgb(127, 180, 36); fill-opacity:1.000; stroke:none;" />
 <path d="  M 10,31  L 11,31  L 11,30  L 10,30  Z  " style="fill:rgb(131, 186, 37); fill-opacity:0.773; stroke:none;" />
 <path d="  M 10,31  L 10,32  L 11,32  L 11,31  Z  " style="fill:rgb(131, 187, 37); fill-opacity:0.122; stroke:none;" />
 <path d="  M 11,7  L 11,8  L 12,8  L 12,7  Z  " style="fill:rgb(63, 63, 63); fill-opacity:0.369; stroke:none;" />
 <path d="  M 12,9  L 12,8  L 11,8  L 11,9  Z  " style="fill:rgb(63, 63, 63); fill-opacity:0.965; stroke:none;" />
 <path d="  M 12,13  L 11,13  L 11,14  L 12,14  Z  " style="fill:rgb(63, 64, 62); fill-opacity:1.000; stroke:none;" />
 <path d="  M 12,17  L 11,17  L 11,18  L 12,18  Z  " style="fill:rgb(66, 68, 62); fill-opacity:1.000; stroke:none;" />
 <path d="  M 12,18  L 11,18  L 11,19  L 12,19  Z  " style="fill:rgb(90, 113, 48); fill-opacity:1.000; stroke:none;" />
 <path d="  M 11,21  L 12,21  L 12,19  L 11,19  Z  " style="fill:rgb(108, 151, 33); fill-opacity:1.000; stroke:none;" />
 <path d="  M 12,21  L 11,21  L 11,22  L 12,22  Z  " style="fill:rgb(113, 159, 33); fill-opacity:1.000; stroke:none;" />
 <path d="  M 12,31  L 12,30  L 11,30  L 11,31  Z  " style="fill:rgb(131, 185, 37); fill-opacity:0.851; stroke:none;" />
 <path d="  M 19,29  L 19,28  L 18,28  L 18,29  Z  " style="fill:rgb(131, 185, 37); fill-opacity:0.851; stroke:none;" />
 <path d="  M 11,32  L 12,32  L 12,31  L 11,31  Z  " style="fill:rgb(131, 186, 37); fill-opacity:0.212; stroke:none;" />
 <path d="  M 13,8  L 13,7  L 12,7  L 12,8  Z  " style="fill:rgb(63, 63, 63); fill-opacity:0.349; stroke:none;" />
 <path d="  M 12,9  L 13,9  L 13,8  L 12,8  Z  " style="fill:rgb(63, 63, 63); fill-opacity:0.957; stroke:none;" />
 <path d="  M 30,14  L 30,15  L 31,15  L 31,14  Z  " style="fill:rgb(63, 63, 63); fill-opacity:0.957; stroke:none;" />
 <path d="  M 12,13  L 12,14  L 13,14  L 13,13  Z  " style="fill:rgb(64, 64, 62); fill-opacity:1.000; stroke:none;" />
 <path d="  M 14,18  L 14,17  L 12,17  L 12,18  Z  " style="fill:rgb(68, 72, 61); fill-opacity:1.000; stroke:none;" />
 <path d="  M 12,18  L 12,19  L 13,19  L 13,18  Z  " style="fill:rgb(96, 127, 43); fill-opacity:1.000; stroke:none;" />
 <path d="  M 17,19  L 17,18  L 16,18  L 16,19  Z  " style="fill:rgb(96, 127, 43); fill-opacity:1.000; stroke:none;" />
 <path d="  M 12,21  L 13,21  L 13,20  L 12,20  Z  " style="fill:rgb(106, 150, 32); fill-opacity:1.000; stroke:none;" />
 <path d="  M 13,19  L 13,20  L 14,20  L 14,19  Z  " style="fill:rgb(106, 150, 32); fill-opacity:1.000; stroke:none;" />
 <path d="  M 22,19  L 22,20  L 23,20  L 23,19  Z  " style="fill:rgb(106, 150, 32); fill-opacity:1.000; stroke:none;" />
 <path d="  M 12,23  L 13,23  L 13,22  L 12,22  Z  " style="fill:rgb(129, 182, 37); fill-opacity:1.000; stroke:none;" />
 <path d="  M 20,23  L 20,22  L 18,22  L 18,23  Z  " style="fill:rgb(129, 182, 37); fill-opacity:1.000; stroke:none;" />
 <path d="  M 23,22  L 23,23  L 24,23  L 24,22  Z  " style="fill:rgb(129, 182, 37); fill-opacity:1.000; stroke:none;" />
 <path d="  M 12,28  L 13,28  L 13,27  L 12,27  Z  " style="fill:rgb(131, 185, 38); fill-opacity:1.000; stroke:none;" />
 <path d="  M 16,27  L 16,26  L 15,26  L 15,27  Z  " style="fill:rgb(131, 185, 38); fill-opacity:1.000; stroke:none;" />
 <path d="  M 12,31  L 13,31  L 13,30  L 12,30  Z  " style="fill:rgb(131, 184, 37); fill-opacity:0.859; stroke:none;" />
 <path d="  M 12,32  L 13,32  L 13,31  L 12,31  Z  " style="fill:rgb(132, 185, 37); fill-opacity:0.306; stroke:none;" />
 <path d="  M 13,7  L 13,8  L 14,8  L 14,7  Z  " style="fill:rgb(63, 63, 63); fill-opacity:0.322; stroke:none;" />
 <path d="  M 14,9  L 14,8  L 13,8  L 13,9  Z  " style="fill:rgb(63, 63, 63); fill-opacity:0.898; stroke:none;" />
 <path d="  M 14,18  L 13,18  L 13,19  L 14,19  Z  " style="fill:rgb(96, 128, 41); fill-opacity:1.000; stroke:none;" />
 <path d="  M 18,19  L 18,18  L 17,18  L 17,19  Z  " style="fill:rgb(96, 128, 41); fill-opacity:1.000; stroke:none;" />
 <path d="  M 14,21  L 14,20  L 13,20  L 13,21  Z  " style="fill:rgb(107, 149, 32); fill-opacity:1.000; stroke:none;" />
 <path d="  M 13,22  L 14,22  L 14,21  L 13,21  Z  " style="fill:rgb(115, 161, 34); fill-opacity:1.000; stroke:none;" />
 <path d="  M 13,22  L 13,23  L 14,23  L 14,22  Z  " style="fill:rgb(130, 183, 37); fill-opacity:1.000; stroke:none;" />
 <path d="  M 13,29  L 14,29  L 14,28  L 13,28  Z  " style="fill:rgb(131, 185, 37); fill-opacity:0.992; stroke:none;" />
 <path d="  M 23,25  L 22,25  L 22,26  L 23,26  Z  " style="fill:rgb(131, 185, 37); fill-opacity:0.992; stroke:none;" />
 <path d="  M 23,27  L 22,27  L 22,28  L 23,28  Z  " style="fill:rgb(131, 185, 37); fill-opacity:0.992; stroke:none;" />
 <path d="  M 25,25  L 25,26  L 26,26  L 26,25  Z  " style="fill:rgb(131, 185, 37); fill-opacity:0.992; stroke:none;" />
 <path d="  M 28,27  L 29,27  L 29,26  L 28,26  Z  " style="fill:rgb(131, 185, 37); fill-opacity:0.992; stroke:none;" />
 <path d="  M 14,31  L 14,30  L 13,30  L 13,31  Z  " style="fill:rgb(131, 185, 37); fill-opacity:0.902; stroke:none;" />
 <path d="  M 14,31  L 13,31  L 13,32  L 14,32  Z  " style="fill:rgb(131, 186, 38); fill-opacity:0.298; stroke:none;" />
 <path d="  M 15,6  L 14,6  L 14,7  L 15,7  Z  " style="fill:rgb(67, 67, 67); fill-opacity:0.004; stroke:none;" />
 <path d="  M 15,8  L 15,7  L 14,7  L 14,8  Z  " style="fill:rgb(63, 63, 63); fill-opacity:0.506; stroke:none;" />
 <path d="  M 14,14  L 15,14  L 15,13  L 14,13  Z  " style="fill:rgb(64, 65, 63); fill-opacity:1.000; stroke:none;" />
 <path d="  M 15,18  L 15,17  L 14,17  L 14,18  Z  " style="fill:rgb(67, 71, 60); fill-opacity:1.000; stroke:none;" />
 <path d="  M 15,18  L 14,18  L 14,19  L 15,19  Z  " style="fill:rgb(97, 128, 41); fill-opacity:1.000; stroke:none;" />
 <path d="  M 14,22  L 15,22  L 15,21  L 14,21  Z  " style="fill:rgb(113, 159, 34); fill-opacity:1.000; stroke:none;" />
 <path d="  M 18,21  L 18,22  L 19,22  L 19,21  Z  " style="fill:rgb(113, 159, 34); fill-opacity:1.000; stroke:none;" />
 <path d="  M 26,19  L 27,19  L 27,18  L 26,18  Z  " style="fill:rgb(113, 159, 34); fill-opacity:1.000; stroke:none;" />
 <path d="  M 15,23  L 15,22  L 14,22  L 14,23  Z  " style="fill:rgb(129, 182, 36); fill-opacity:0.988; stroke:none;" />
 <path d="  M 14,24  L 15,24  L 15,23  L 14,23  Z  " style="fill:rgb(131, 185, 37); fill-opacity:0.961; stroke:none;" />
 <path d="  M 20,29  L 19,29  L 19,30  L 20,30  Z  " style="fill:rgb(131, 185, 37); fill-opacity:0.961; stroke:none;" />
 <path d="  M 14,28  L 14,29  L 15,29  L 15,28  Z  " style="fill:rgb(131, 185, 37); fill-opacity:0.988; stroke:none;" />
 <path d="  M 16,23  L 15,23  L 15,24  L 16,24  Z  " style="fill:rgb(131, 185, 37); fill-opacity:0.988; stroke:none;" />
 <path d="  M 23,25  L 23,26  L 25,26  L 25,25  Z  " style="fill:rgb(131, 185, 37); fill-opacity:0.988; stroke:none;" />
 <path d="  M 26,27  L 26,26  L 25,26  L 25,27  Z  " style="fill:rgb(131, 185, 37); fill-opacity:0.988; stroke:none;" />
 <path d="  M 14,30  L 14,31  L 15,31  L 15,30  Z  " style="fill:rgb(131, 185, 37); fill-opacity:0.929; stroke:none;" />
 <path d="  M 15,32  L 15,31  L 14,31  L 14,32  Z  " style="fill:rgb(132, 186, 37); fill-opacity:0.361; stroke:none;" />
 <path d="  M 15,7  L 16,7  L 16,6  L 15,6  Z  " style="fill:rgb(67, 67, 68); fill-opacity:0.016; stroke:none;" />
 <path d="  M 15,7  L 15,8  L 16,8  L 16,7  Z  " style="fill:rgb(63, 63, 63); fill-opacity:0.584; stroke:none;" />
 <path d="  M 16,18  L 15,18  L 15,19  L 16,19  Z  " style="fill:rgb(95, 123, 46); fill-opacity:1.000; stroke:none;" />
 <path d="  M 15,19  L 15,20  L 16,20  L 16,19  Z  " style="fill:rgb(109, 153, 32); fill-opacity:0.996; stroke:none;" />
 <path d="  M 16,22  L 16,21  L 15,21  L 15,22  Z  " style="fill:rgb(111, 156, 33); fill-opacity:1.000; stroke:none;" />
 <path d="  M 15,22  L 15,23  L 16,23  L 16,22  Z  " style="fill:rgb(126, 178, 36); fill-opacity:0.996; stroke:none;" />
 <path d="  M 15,29  L 16,29  L 16,28  L 15,28  Z  " style="fill:rgb(131, 185, 37); fill-opacity:0.965; stroke:none;" />
 <path d="  M 23,27  L 23,26  L 22,26  L 22,27  Z  " style="fill:rgb(131, 185, 37); fill-opacity:0.965; stroke:none;" />
 <path d="  M 23,30  L 22,30  L 22,31  L 23,31  Z  " style="fill:rgb(131, 185, 37); fill-opacity:0.965; stroke:none;" />
 <path d="  M 15,31  L 16,31  L 16,30  L 17,30  L 17,29  L 15,29  Z  " style="fill:rgb(131, 185, 37); fill-opacity:0.980; stroke:none;" />
 <path d="  M 24,30  L 24,31  L 26,31  L 26,30  Z  " style="fill:rgb(131, 185, 37); fill-opacity:0.980; stroke:none;" />
 <path d="  M 16,32  L 16,31  L 15,31  L 15,32  Z  " style="fill:rgb(131, 185, 37); fill-opacity:0.659; stroke:none;" />
 <path d="  M 16,6  L 16,7  L 17,7  L 17,6  Z  " style="fill:rgb(66, 64, 67); fill-opacity:0.020; stroke:none;" />
 <path d="  M 18,8  L 18,7  L 16,7  L 16,8  Z  " style="fill:rgb(63, 63, 63); fill-opacity:0.580; stroke:none;" />
 <path d="  M 17,14  L 17,13  L 16,13  L 16,14  Z  " style="fill:rgb(65, 66, 63); fill-opacity:1.000; stroke:none;" />
 <path d="  M 16,18  L 17,18  L 17,17  L 16,17  Z  " style="fill:rgb(67, 70, 61); fill-opacity:1.000; stroke:none;" />
 <path d="  M 16,19  L 16,20  L 17,20  L 17,19  Z  " style="fill:rgb(108, 151, 32); fill-opacity:1.000; stroke:none;" />
 <path d="  M 23,20  L 24,20  L 24,19  L 23,19  Z  " style="fill:rgb(108, 151, 32); fill-opacity:1.000; stroke:none;" />
 <path d="  M 16,20  L 16,21  L 17,21  L 17,20  Z  " style="fill:rgb(108, 152, 33); fill-opacity:1.000; stroke:none;" />
 <path d="  M 17,22  L 17,21  L 16,21  L 16,22  Z  " style="fill:rgb(114, 161, 34); fill-opacity:1.000; stroke:none;" />
 <path d="  M 19,21  L 19,22  L 20,22  L 20,21  Z  " style="fill:rgb(114, 161, 34); fill-opacity:1.000; stroke:none;" />
 <path d="  M 17,22  L 16,22  L 16,23  L 17,23  Z  " style="fill:rgb(128, 180, 36); fill-opacity:1.000; stroke:none;" />
 <path d="  M 17,29  L 17,28  L 16,28  L 16,29  Z  " style="fill:rgb(131, 185, 37); fill-opacity:0.945; stroke:none;" />
 <path d="  M 16,32  L 17,32  L 17,31  L 16,31  Z  " style="fill:rgb(131, 185, 37); fill-opacity:0.871; stroke:none;" />
 <path d="  M 17,6  L 17,7  L 18,7  L 18,6  Z  " style="fill:rgb(62, 61, 61); fill-opacity:0.020; stroke:none;" />
 <path d="  M 17,18  L 18,18  L 18,17  L 17,17  Z  " style="fill:rgb(70, 77, 59); fill-opacity:1.000; stroke:none;" />
 <path d="  M 17,22  L 18,22  L 18,21  L 17,21  Z  " style="fill:rgb(117, 165, 34); fill-opacity:1.000; stroke:none;" />
 <path d="  M 18,22  L 17,22  L 17,23  L 18,23  Z  " style="fill:rgb(130, 184, 37); fill-opacity:0.996; stroke:none;" />
 <path d="  M 17,28  L 17,29  L 18,29  L 18,28  Z  " style="fill:rgb(131, 185, 37); fill-opacity:0.882; stroke:none;" />
 <path d="  M 23,26  L 23,27  L 24,27  L 24,26  Z  " style="fill:rgb(131, 185, 37); fill-opacity:0.882; stroke:none;" />
 <path d="  M 18,29  L 17,29  L 17,30  L 18,30  Z  " style="fill:rgb(131, 185, 37); fill-opacity:0.973; stroke:none;" />
 <path d="  M 23,31  L 24,31  L 24,30  L 23,30  Z  " style="fill:rgb(131, 185, 37); fill-opacity:0.973; stroke:none;" />
 <path d="  M 18,32  L 18,31  L 17,31  L 17,32  Z  " style="fill:rgb(131, 185, 37); fill-opacity:0.906; stroke:none;" />
 <path d="  M 25,26  L 24,26  L 24,27  L 25,27  Z  " style="fill:rgb(131, 185, 37); fill-opacity:0.906; stroke:none;" />
 <path d="  M 19,6  L 18,6  L 18,7  L 19,7  Z  " style="fill:rgb(60, 60, 60); fill-opacity:0.020; stroke:none;" />
 <path d="  M 18,7  L 18,8  L 19,8  L 19,7  Z  " style="fill:rgb(62, 62, 62); fill-opacity:0.537; stroke:none;" />
 <path d="  M 19,8  L 18,8  L 18,9  L 19,9  Z  " style="fill:rgb(63, 63, 63); fill-opacity:0.973; stroke:none;" />
 <path d="  M 18,17  L 18,18  L 19,18  L 19,17  Z  " style="fill:rgb(72, 80, 59); fill-opacity:1.000; stroke:none;" />
 <path d="  M 19,19  L 19,18  L 18,18  L 18,19  Z  " style="fill:rgb(104, 142, 40); fill-opacity:0.996; stroke:none;" />
 <path d="  M 20,27  L 18,27  L 18,28  L 20,28  Z  " style="fill:rgb(131, 185, 37); fill-opacity:0.976; stroke:none;" />
 <path d="  M 18,29  L 18,30  L 19,30  L 19,29  Z  " style="fill:rgb(131, 185, 37); fill-opacity:0.969; stroke:none;" />
 <path d="  M 19,32  L 19,31  L 18,31  L 18,32  Z  " style="fill:rgb(131, 185, 37); fill-opacity:0.969; stroke:none;" />
 <path d="  M 21,29  L 21,28  L 20,28  L 20,29  Z  " style="fill:rgb(131, 185, 37); fill-opacity:0.969; stroke:none;" />
 <path d="  M 26,31  L 27,31  L 27,30  L 26,30  Z  " style="fill:rgb(131, 185, 37); fill-opacity:0.969; stroke:none;" />
 <path d="  M 20,6  L 19,6  L 19,7  L 20,7  Z  " style="fill:rgb(63, 63, 63); fill-opacity:0.051; stroke:none;" />
 <path d="  M 20,8  L 20,7  L 19,7  L 19,8  Z  " style="fill:rgb(62, 62, 62); fill-opacity:0.651; stroke:none;" />
 <path d="  M 19,8  L 19,9  L 20,9  L 20,8  Z  " style="fill:rgb(63, 63, 63); fill-opacity:0.988; stroke:none;" />
 <path d="  M 20,17  L 19,17  L 19,18  L 20,18  Z  " style="fill:rgb(73, 81, 59); fill-opacity:1.000; stroke:none;" />
 <path d="  M 19,19  L 20,19  L 20,18  L 19,18  Z  " style="fill:rgb(103, 141, 40); fill-opacity:0.996; stroke:none;" />
 <path d="  M 20,19  L 19,19  L 19,20  L 20,20  Z  " style="fill:rgb(108, 152, 32); fill-opacity:0.996; stroke:none;" />
 <path d="  M 19,29  L 20,29  L 20,28  L 19,28  Z  " style="fill:rgb(131, 185, 37); fill-opacity:0.831; stroke:none;" />
 <path d="  M 29,25  L 29,26  L 30,26  L 30,25  Z  " style="fill:rgb(131, 185, 37); fill-opacity:0.831; stroke:none;" />
 <path d="  M 20,32  L 20,31  L 19,31  L 19,32  Z  " style="fill:rgb(131, 185, 37); fill-opacity:0.953; stroke:none;" />
 <path d="  M 21,7  L 21,6  L 20,6  L 20,7  Z  " style="fill:rgb(64, 64, 64); fill-opacity:0.133; stroke:none;" />
 <path d="  M 21,7  L 20,7  L 20,8  L 21,8  Z  " style="fill:rgb(63, 63, 63); fill-opacity:0.812; stroke:none;" />
 <path d="  M 20,17  L 20,18  L 21,18  L 21,17  Z  " style="fill:rgb(76, 87, 57); fill-opacity:1.000; stroke:none;" />
 <path d="  M 21,19  L 21,18  L 20,18  L 20,19  Z  " style="fill:rgb(102, 138, 39); fill-opacity:0.996; stroke:none;" />
 <path d="  M 20,21  L 20,22  L 21,22  L 21,21  Z  " style="fill:rgb(115, 163, 34); fill-opacity:1.000; stroke:none;" />
 <path d="  M 21,22  L 20,22  L 20,23  L 21,23  Z  " style="fill:rgb(129, 183, 36); fill-opacity:1.000; stroke:none;" />
 <path d="  M 21,32  L 21,31  L 20,31  L 20,32  Z  " style="fill:rgb(131, 185, 36); fill-opacity:0.875; stroke:none;" />
 <path d="  M 22,6  L 21,6  L 21,7  L 22,7  Z  " style="fill:rgb(65, 65, 65); fill-opacity:0.059; stroke:none;" />
 <path d="  M 21,8  L 22,8  L 22,7  L 21,7  Z  " style="fill:rgb(63, 63, 63); fill-opacity:0.706; stroke:none;" />
 <path d="  M 21,17  L 21,18  L 22,18  L 22,17  Z  " style="fill:rgb(77, 88, 56); fill-opacity:1.000; stroke:none;" />
 <path d="  M 22,19  L 22,18  L 21,18  L 21,19  Z  " style="fill:rgb(104, 142, 38); fill-opacity:0.996; stroke:none;" />
 <path d="  M 21,20  L 21,21  L 22,21  L 22,20  Z  " style="fill:rgb(110, 154, 33); fill-opacity:1.000; stroke:none;" />
 <path d="  M 25,20  L 25,21  L 26,21  L 26,20  Z  " style="fill:rgb(110, 154, 33); fill-opacity:1.000; stroke:none;" />
 <path d="  M 22,21  L 21,21  L 21,22  L 22,22  Z  " style="fill:rgb(122, 171, 35); fill-opacity:1.000; stroke:none;" />
 <path d="  M 21,31  L 22,31  L 22,30  L 21,30  Z  " style="fill:rgb(130, 185, 37); fill-opacity:0.976; stroke:none;" />
 <path d="  M 21,31  L 21,32  L 22,32  L 22,31  Z  " style="fill:rgb(131, 185, 36); fill-opacity:0.714; stroke:none;" />
 <path d="  M 23,7  L 23,6  L 22,6  L 22,7  Z  " style="fill:rgb(63, 63, 63); fill-opacity:0.075; stroke:none;" />
 <path d="  M 23,7  L 22,7  L 22,8  L 23,8  Z  " style="fill:rgb(63, 63, 63); fill-opacity:0.714; stroke:none;" />
 <path d="  M 22,17  L 22,18  L 23,18  L 23,17  Z  " style="fill:rgb(77, 90, 56); fill-opacity:1.000; stroke:none;" />
 <path d="  M 22,19  L 23,19  L 23,18  L 22,18  Z  " style="fill:rgb(108, 150, 36); fill-opacity:0.996; stroke:none;" />
 <path d="  M 23,22  L 23,21  L 22,21  L 22,22  Z  " style="fill:rgb(116, 163, 34); fill-opacity:1.000; stroke:none;" />
 <path d="  M 23,23  L 23,22  L 22,22  L 22,23  Z  " style="fill:rgb(130, 184, 37); fill-opacity:1.000; stroke:none;" />
 <path d="  M 23,32  L 23,31  L 22,31  L 22,32  Z  " style="fill:rgb(131, 185, 36); fill-opacity:0.643; stroke:none;" />
 <path d="  M 23,7  L 24,7  L 24,6  L 23,6  Z  " style="fill:rgb(63, 64, 64); fill-opacity:0.235; stroke:none;" />
 <path d="  M 23,8  L 24,8  L 24,7  L 23,7  Z  " style="fill:rgb(63, 63, 63); fill-opacity:0.882; stroke:none;" />
 <path d="  M 24,18  L 24,17  L 23,17  L 23,18  Z  " style="fill:rgb(78, 91, 57); fill-opacity:1.000; stroke:none;" />
 <path d="  M 24,19  L 24,18  L 23,18  L 23,19  Z  " style="fill:rgb(112, 155, 38); fill-opacity:1.000; stroke:none;" />
 <path d="  M 24,20  L 23,20  L 23,21  L 24,21  Z  " style="fill:rgb(106, 148, 32); fill-opacity:1.000; stroke:none;" />
 <path d="  M 28,20  L 28,19  L 27,19  L 27,20  Z  " style="fill:rgb(106, 148, 32); fill-opacity:1.000; stroke:none;" />
 <path d="  M 24,21  L 23,21  L 23,22  L 24,22  Z  " style="fill:rgb(112, 157, 33); fill-opacity:1.000; stroke:none;" />
 <path d="  M 23,28  L 24,28  L 24,27  L 23,27  Z  " style="fill:rgb(131, 185, 37); fill-opacity:0.937; stroke:none;" />
 <path d="  M 23,31  L 23,32  L 24,32  L 24,31  Z  " style="fill:rgb(132, 185, 37); fill-opacity:0.569; stroke:none;" />
 <path d="  M 25,6  L 24,6  L 24,7  L 25,7  Z  " style="fill:rgb(63, 63, 63); fill-opacity:0.149; stroke:none;" />
 <path d="  M 25,8  L 25,7  L 24,7  L 24,8  Z  " style="fill:rgb(63, 63, 63); fill-opacity:0.773; stroke:none;" />
 <path d="  M 24,18  L 25,18  L 25,17  L 24,17  Z  " style="fill:rgb(76, 86, 58); fill-opacity:1.000; stroke:none;" />
 <path d="  M 24,18  L 24,19  L 25,19  L 25,18  Z  " style="fill:rgb(111, 153, 38); fill-opacity:1.000; stroke:none;" />
 <path d="  M 25,23  L 25,22  L 24,22  L 24,23  Z  " style="fill:rgb(129, 182, 36); fill-opacity:1.000; stroke:none;" />
 <path d="  M 25,27  L 24,27  L 24,28  L 25,28  Z  " style="fill:rgb(131, 185, 37); fill-opacity:0.941; stroke:none;" />
 <path d="  M 24,31  L 24,32  L 25,32  L 25,31  Z  " style="fill:rgb(131, 185, 37); fill-opacity:0.518; stroke:none;" />
 <path d="  M 26,7  L 25,7  L 25,8  L 26,8  Z  " style="fill:rgb(64, 64, 64); fill-opacity:0.396; stroke:none;" />
 <path d="  M 26,8  L 25,8  L 25,9  L 26,9  Z  " style="fill:rgb(63, 63, 63); fill-opacity:0.937; stroke:none;" />
 <path d="  M 26,18  L 26,17  L 25,17  L 25,18  Z  " style="fill:rgb(84, 101, 54); fill-opacity:1.000; stroke:none;" />
 <path d="  M 25,18  L 25,19  L 26,19  L 26,18  Z  " style="fill:rgb(107, 147, 38); fill-opacity:1.000; stroke:none;" />
 <path d="  M 25,22  L 26,22  L 26,21  L 25,21  Z  " style="fill:rgb(119, 167, 35); fill-opacity:1.000; stroke:none;" />
 <path d="  M 26,22  L 25,22  L 25,23  L 26,23  Z  " style="fill:rgb(130, 184, 36); fill-opacity:1.000; stroke:none;" />
 <path d="  M 25,32  L 26,32  L 26,31  L 25,31  Z  " style="fill:rgb(132, 185, 38); fill-opacity:0.541; stroke:none;" />
 <path d="  M 27,7  L 26,7  L 26,8  L 27,8  Z  " style="fill:rgb(63, 63, 62); fill-opacity:0.051; stroke:none;" />
 <path d="  M 26,8  L 26,9  L 27,9  L 27,8  Z  " style="fill:rgb(63, 63, 63); fill-opacity:0.651; stroke:none;" />
 <path d="  M 26,17  L 27,17  L 27,16  L 26,16  Z  " style="fill:rgb(68, 73, 61); fill-opacity:1.000; stroke:none;" />
 <path d="  M 26,18  L 27,18  L 27,17  L 26,17  Z  " style="fill:rgb(103, 137, 46); fill-opacity:1.000; stroke:none;" />
 <path d="  M 26,20  L 26,21  L 27,21  L 27,20  Z  " style="fill:rgb(108, 152, 32); fill-opacity:1.000; stroke:none;" />
 <path d="  M 29,19  L 29,20  L 30,20  L 30,19  Z  " style="fill:rgb(108, 152, 32); fill-opacity:1.000; stroke:none;" />
 <path d="  M 28,22  L 28,21  L 26,21  L 26,22  Z  " style="fill:rgb(119, 168, 35); fill-opacity:1.000; stroke:none;" />
 <path d="  M 27,31  L 26,31  L 26,32  L 27,32  Z  " style="fill:rgb(131, 185, 37); fill-opacity:0.455; stroke:none;" />
 <path d="  M 27,7  L 27,8  L 28,8  L 28,7  Z  " style="fill:rgb(54, 54, 54); fill-opacity:0.008; stroke:none;" />
 <path d="  M 28,9  L 28,8  L 27,8  L 27,9  Z  " style="fill:rgb(63, 63, 63); fill-opacity:0.557; stroke:none;" />
 <path d="  M 28,17  L 28,16  L 27,16  L 27,17  Z  " style="fill:rgb(69, 73, 61); fill-opacity:1.000; stroke:none;" />
 <path d="  M 28,17  L 27,17  L 27,18  L 28,18  Z  " style="fill:rgb(99, 131, 44); fill-opacity:1.000; stroke:none;" />
 <path d="  M 27,19  L 28,19  L 28,18  L 27,18  Z  " style="fill:rgb(109, 153, 32); fill-opacity:1.000; stroke:none;" />
 <path d="  M 29,21  L 29,20  L 27,20  L 27,21  Z  " style="fill:rgb(109, 152, 33); fill-opacity:1.000; stroke:none;" />
 <path d="  M 27,31  L 28,31  L 28,30  L 27,30  Z  " style="fill:rgb(131, 185, 37); fill-opacity:0.835; stroke:none;" />
 <path d="  M 27,32  L 28,32  L 28,31  L 27,31  Z  " style="fill:rgb(131, 185, 36); fill-opacity:0.243; stroke:none;" />
 <path d="  M 28,8  L 29,8  L 29,7  L 28,7  Z  " style="fill:rgb(63, 63, 63); fill-opacity:0.016; stroke:none;" />
 <path d="  M 28,9  L 29,9  L 29,8  L 28,8  Z  " style="fill:rgb(63, 63, 63); fill-opacity:0.573; stroke:none;" />
 <path d="  M 28,17  L 29,17  L 29,16  L 28,16  Z  " style="fill:rgb(67, 69, 62); fill-opacity:1.000; stroke:none;" />
 <path d="  M 29,18  L 29,17  L 28,17  L 28,18  Z  " style="fill:rgb(94, 123, 44); fill-opacity:1.000; stroke:none;" />
 <path d="  M 28,21  L 28,22  L 29,22  L 29,21  Z  " style="fill:rgb(124, 174, 36); fill-opacity:1.000; stroke:none;" />
 <path d="  M 29,28  L 29,27  L 28,27  L 28,28  Z  " style="fill:rgb(131, 185, 37); fill-opacity:0.933; stroke:none;" />
 <path d="  M 28,28  L 28,29  L 29,29  L 29,28  Z  " style="fill:rgb(131, 185, 37); fill-opacity:0.843; stroke:none;" />
 <path d="  M 28,29  L 28,30  L 29,30  L 29,29  Z  " style="fill:rgb(130, 185, 37); fill-opacity:0.761; stroke:none;" />
 <path d="  M 29,31  L 29,30  L 28,30  L 28,31  Z  " style="fill:rgb(131, 186, 37); fill-opacity:0.329; stroke:none;" />
 <path d="  M 28,31  L 28,32  L 29,32  L 29,31  Z  " style="fill:rgb(134, 196, 39); fill-opacity:0.012; stroke:none;" />
 <path d="  M 29,8  L 30,8  L 30,7  L 29,7  Z  " style="fill:rgb(64, 64, 64); fill-opacity:0.016; stroke:none;" />
 <path d="  M 29,8  L 29,9  L 30,9  L 30,8  Z  " style="fill:rgb(63, 63, 63); fill-opacity:0.482; stroke:none;" />
 <path d="  M 29,11  L 30,11  L 30,10  L 29,10  Z  " style="fill:rgb(63, 63, 63); fill-opacity:0.992; stroke:none;" />
 <path d="  M 30,11  L 30,12  L 31,12  L 31,11  Z  " style="fill:rgb(63, 63, 63); fill-opacity:0.992; stroke:none;" />
 <path d="  M 29,18  L 30,18  L 30,17  L 29,17  Z  " style="fill:rgb(87, 109, 49); fill-opacity:1.000; stroke:none;" />
 <path d="  M 29,18  L 29,19  L 30,19  L 30,18  Z  " style="fill:rgb(109, 152, 32); fill-opacity:1.000; stroke:none;" />
 <path d="  M 29,21  L 30,21  L 30,20  L 29,20  Z  " style="fill:rgb(111, 156, 33); fill-opacity:0.925; stroke:none;" />
 <path d="  M 29,21  L 29,22  L 30,22  L 30,21  Z  " style="fill:rgb(126, 179, 36); fill-opacity:0.820; stroke:none;" />
 <path d="  M 29,22  L 29,23  L 30,23  L 30,22  Z  " style="fill:rgb(131, 185, 37); fill-opacity:0.812; stroke:none;" />
 <path d="  M 30,26  L 29,26  L 29,27  L 30,27  Z  " style="fill:rgb(131, 185, 37); fill-opacity:0.639; stroke:none;" />
 <path d="  M 29,28  L 30,28  L 30,27  L 29,27  Z  " style="fill:rgb(131, 185, 37); fill-opacity:0.431; stroke:none;" />
 <path d="  M 29,28  L 29,29  L 30,29  L 30,28  Z  " style="fill:rgb(131, 185, 37); fill-opacity:0.204; stroke:none;" />
 <path d="  M 29,30  L 30,30  L 30,29  L 29,29  Z  " style="fill:rgb(130, 185, 37); fill-opacity:0.118; stroke:none;" />
 <path d="  M 29,31  L 30,31  L 30,30  L 29,30  Z  " style="fill:rgb(129, 200, 37); fill-opacity:0.004; stroke:none;" />
 <path d="  M 31,8  L 30,8  L 30,9  L 31,9  Z  " style="fill:rgb(63, 63, 63); fill-opacity:0.129; stroke:none;" />
 <path d="  M 31,9  L 30,9  L 30,10  L 31,10  Z  " style="fill:rgb(64, 64, 64); fill-opacity:0.525; stroke:none;" />
 <path d="  M 30,10  L 30,11  L 31,11  L 31,10  Z  " style="fill:rgb(63, 63, 63); fill-opacity:0.847; stroke:none;" />
 <path d="  M 31,14  L 31,13  L 30,13  L 30,14  Z  " style="fill:rgb(63, 63, 63); fill-opacity:0.980; stroke:none;" />
 <path d="  M 31,15  L 30,15  L 30,16  L 31,16  Z  " style="fill:rgb(63, 63, 63); fill-opacity:0.969; stroke:none;" />
 <path d="  M 30,17  L 30,18  L 31,18  L 31,17  Z  " style="fill:rgb(89, 111, 51); fill-opacity:0.910; stroke:none;" />
 <path d="  M 31,19  L 31,18  L 30,18  L 30,19  Z  " style="fill:rgb(120, 169, 35); fill-opacity:0.820; stroke:none;" />
 <path d="  M 30,19  L 30,20  L 31,20  L 31,19  Z  " style="fill:rgb(113, 160, 34); fill-opacity:0.651; stroke:none;" />
 <path d="  M 30,21  L 31,21  L 31,20  L 30,20  Z  " style="fill:rgb(113, 160, 33); fill-opacity:0.275; stroke:none;" />
 <path d="  M 30,22  L 31,22  L 31,21  L 30,21  Z  " style="fill:rgb(131, 188, 36); fill-opacity:0.098; stroke:none;" />
 <path d="  M 31,23  L 31,22  L 30,22  L 30,23  Z  " style="fill:rgb(133, 185, 36); fill-opacity:0.129; stroke:none;" />
 <path d="  M 31,24  L 31,23  L 30,23  L 30,24  Z  " style="fill:rgb(131, 186, 36); fill-opacity:0.157; stroke:none;" />
 <path d="  M 31,24  L 30,24  L 30,25  L 31,25  Z  " style="fill:rgb(131, 185, 37); fill-opacity:0.251; stroke:none;" />
 <path d="  M 31,26  L 31,25  L 30,25  L 30,26  Z  " style="fill:rgb(132, 187, 37); fill-opacity:0.196; stroke:none;" />
 <path d="  M 31,27  L 31,26  L 30,26  L 30,27  Z  " style="fill:rgb(131, 186, 37); fill-opacity:0.055; stroke:none;" />
 <path d="  M 30,27  L 30,28  L 31,28  L 31,27  Z  " style="fill:rgb(130, 185, 39); fill-opacity:0.031; stroke:none;" />
 <path d="  M 32,10  L 32,9  L 31,9  L 31,10  Z  " style="fill:rgb(63, 63, 63); fill-opacity:0.090; stroke:none;" />
 <path d="  M 31,11  L 32,11  L 32,10  L 31,10  Z  " style="fill:rgb(63, 63, 63); fill-opacity:0.529; stroke:none;" />
 <path d="  M 32,11  L 31,11  L 31,12  L 32,12  Z  " style="fill:rgb(62, 62, 63); fill-opacity:0.851; stroke:none;" />
 <path d="  M 31,13  L 32,13  L 32,12  L 31,12  Z  " style="fill:rgb(63, 63, 63); fill-opacity:0.831; stroke:none;" />
 <path d="  M 31,14  L 32,14  L 32,13  L 31,13  Z  " style="fill:rgb(63, 63, 63); fill-opacity:0.518; stroke:none;" />
 <path d="  M 32,15  L 32,14  L 31,14  L 31,15  Z  " style="fill:rgb(63, 63, 63); fill-opacity:0.373; stroke:none;" />
 <path d="  M 31,16  L 32,16  L 32,15  L 31,15  Z  " style="fill:rgb(63, 63, 63); fill-opacity:0.478; stroke:none;" />
 <path d="  M 31,17  L 32,17  L 32,16  L 31,16  Z  " style="fill:rgb(64, 66, 61); fill-opacity:0.557; stroke:none;" />
 <path d="  M 31,18  L 32,18  L 32,17  L 31,17  Z  " style="fill:rgb(95, 119, 50); fill-opacity:0.306; stroke:none;" />
 <path d="  M 31,19  L 32,19  L 32,18  L 31,18  Z  " style="fill:rgb(135, 193, 36); fill-opacity:0.173; stroke:none;" />
 <path d="  M 32,19  L 31,19  L 31,20  L 32,20  Z  " style="fill:rgb(127, 182, 38); fill-opacity:0.043; stroke:none;" />
</svg>
