<?xml version="1.0" encoding="UTF-8" standalone="no"?>
<!DOCTYPE svg PUBLIC "-//W3C//DTD SVG 1.1//EN" 
  "http://www.w3.org/Graphics/SVG/1.1/DTD/svg11.dtd">
<svg width="32" height="32"
	 xmlns="http://www.w3.org/2000/svg" version="1.1">
 <path d="  M 32,0  L 0,0  L 0,32  L 32,32  Z  M 3,12  L 4,12  L 4,10  L 5,10  L 5,8  L 6,8  L 6,7  L 8,7  L 8,6  L 13,6  L 13,5  L 18,5  L 18,6  L 20,6  L 20,7  L 21,7  L 21,8  L 22,8  L 22,9  L 23,9  L 23,10  L 24,10  L 24,16  L 23,16  L 23,19  L 22,19  L 22,21  L 21,21  L 21,22  L 11,22  L 11,21  L 9,21  L 9,20  L 8,20  L 8,19  L 6,19  L 6,18  L 5,18  L 5,16  L 4,16  L 4,14  L 3,14  Z  " style="fill:rgb(255, 255, 255); fill-opacity:1.000; stroke:none;" />
 <path d="  M 4,12  L 3,12  L 3,13  L 4,13  Z  " style="fill:rgb(247, 253, 255); fill-opacity:1.000; stroke:none;" />
 <path d="  M 14,6  L 15,6  L 15,5  L 14,5  Z  " style="fill:rgb(247, 253, 255); fill-opacity:1.000; stroke:none;" />
 <path d="  M 3,14  L 4,14  L 4,13  L 3,13  Z  " style="fill:rgb(251, 254, 255); fill-opacity:1.000; stroke:none;" />
 <path d="  M 6,17  L 5,17  L 5,18  L 6,18  Z  " style="fill:rgb(251, 254, 255); fill-opacity:1.000; stroke:none;" />
 <path d="  M 12,21  L 11,21  L 11,22  L 12,22  Z  " style="fill:rgb(251, 254, 255); fill-opacity:1.000; stroke:none;" />
 <path d="  M 20,6  L 19,6  L 19,7  L 20,7  Z  " style="fill:rgb(251, 254, 255); fill-opacity:1.000; stroke:none;" />
 <path d="  M 4,11  L 5,11  L 5,10  L 4,10  Z  " style="fill:rgb(220, 247, 255); fill-opacity:1.000; stroke:none;" />
 <path d="  M 5,12  L 5,11  L 4,11  L 4,12  Z  " style="fill:rgb(149, 231, 255); fill-opacity:1.000; stroke:none;" />
 <path d="  M 6,18  L 7,18  L 7,17  L 6,17  Z  " style="fill:rgb(149, 231, 255); fill-opacity:1.000; stroke:none;" />
 <path d="  M 4,13  L 5,13  L 5,12  L 4,12  Z  " style="fill:rgb(111, 223, 255); fill-opacity:1.000; stroke:none;" />
 <path d="  M 5,13  L 4,13  L 4,14  L 5,14  Z  " style="fill:rgb(124, 225, 255); fill-opacity:1.000; stroke:none;" />
 <path d="  M 20,8  L 20,7  L 19,7  L 19,8  Z  " style="fill:rgb(124, 225, 255); fill-opacity:1.000; stroke:none;" />
 <path d="  M 5,15  L 5,14  L 4,14  L 4,15  Z  " style="fill:rgb(176, 237, 255); fill-opacity:1.000; stroke:none;" />
 <path d="  M 5,16  L 5,15  L 4,15  L 4,16  Z  " style="fill:rgb(238, 251, 255); fill-opacity:1.000; stroke:none;" />
 <path d="  M 13,22  L 14,22  L 14,21  L 13,21  Z  " style="fill:rgb(238, 251, 255); fill-opacity:1.000; stroke:none;" />
 <path d="  M 5,8  L 5,9  L 6,9  L 6,8  Z  " style="fill:rgb(246, 253, 255); fill-opacity:1.000; stroke:none;" />
 <path d="  M 6,18  L 6,19  L 7,19  L 7,18  Z  " style="fill:rgb(246, 253, 255); fill-opacity:1.000; stroke:none;" />
 <path d="  M 5,9  L 5,10  L 6,10  L 6,9  Z  " style="fill:rgb(169, 236, 255); fill-opacity:1.000; stroke:none;" />
 <path d="  M 5,10  L 5,11  L 6,11  L 6,10  Z  " style="fill:rgb(75, 214, 255); fill-opacity:1.000; stroke:none;" />
 <path d="  M 6,12  L 6,11  L 5,11  L 5,12  Z  " style="fill:rgb(42, 207, 255); fill-opacity:1.000; stroke:none;" />
 <path d="  M 9,8  L 8,8  L 8,9  L 9,9  Z  " style="fill:rgb(42, 207, 255); fill-opacity:1.000; stroke:none;" />
 <path d="  M 10,9  L 12,9  L 12,8  L 10,8  Z  " style="fill:rgb(42, 207, 255); fill-opacity:1.000; stroke:none;" />
 <path d="  M 13,8  L 13,7  L 12,7  L 12,8  Z  " style="fill:rgb(42, 207, 255); fill-opacity:1.000; stroke:none;" />
 <path d="  M 16,19  L 16,20  L 20,20  L 20,19  Z  " style="fill:rgb(42, 207, 255); fill-opacity:1.000; stroke:none;" />
 <path d="  M 17,8  L 18,8  L 18,7  L 17,7  Z  " style="fill:rgb(42, 207, 255); fill-opacity:1.000; stroke:none;" />
 <path d="  M 19,8  L 18,8  L 18,9  L 19,9  Z  " style="fill:rgb(42, 207, 255); fill-opacity:1.000; stroke:none;" />
 <path d="  M 20,17  L 20,18  L 21,18  L 21,17  Z  " style="fill:rgb(42, 207, 255); fill-opacity:1.000; stroke:none;" />
 <path d="  M 21,11  L 21,12  L 22,12  L 22,11  Z  " style="fill:rgb(42, 207, 255); fill-opacity:1.000; stroke:none;" />
 <path d="  M 22,14  L 21,14  L 21,15  L 22,15  Z  " style="fill:rgb(42, 207, 255); fill-opacity:1.000; stroke:none;" />
 <path d="  M 5,12  L 5,13  L 6,13  L 6,12  Z  " style="fill:rgb(40, 207, 255); fill-opacity:1.000; stroke:none;" />
 <path d="  M 6,14  L 6,13  L 5,13  L 5,14  Z  " style="fill:rgb(40, 208, 255); fill-opacity:1.000; stroke:none;" />
 <path d="  M 6,15  L 6,14  L 5,14  L 5,15  Z  " style="fill:rgb(48, 209, 255); fill-opacity:1.000; stroke:none;" />
 <path d="  M 5,15  L 5,16  L 6,16  L 6,15  Z  " style="fill:rgb(101, 220, 255); fill-opacity:1.000; stroke:none;" />
 <path d="  M 5,17  L 6,17  L 6,16  L 5,16  Z  " style="fill:rgb(197, 242, 255); fill-opacity:1.000; stroke:none;" />
 <path d="  M 6,7  L 6,8  L 7,8  L 7,7  Z  " style="fill:rgb(250, 254, 255); fill-opacity:1.000; stroke:none;" />
 <path d="  M 7,9  L 7,8  L 6,8  L 6,9  Z  " style="fill:rgb(146, 230, 255); fill-opacity:1.000; stroke:none;" />
 <path d="  M 7,9  L 6,9  L 6,10  L 7,10  Z  " style="fill:rgb(50, 209, 255); fill-opacity:1.000; stroke:none;" />
 <path d="  M 11,7  L 11,8  L 12,8  L 12,7  Z  " style="fill:rgb(50, 209, 255); fill-opacity:1.000; stroke:none;" />
 <path d="  M 6,11  L 7,11  L 7,10  L 6,10  Z  " style="fill:rgb(41, 207, 255); fill-opacity:1.000; stroke:none;" />
 <path d="  M 6,16  L 7,16  L 7,15  L 6,15  Z  " style="fill:rgb(41, 207, 255); fill-opacity:1.000; stroke:none;" />
 <path d="  M 8,10  L 8,9  L 7,9  L 7,10  Z  " style="fill:rgb(41, 207, 255); fill-opacity:1.000; stroke:none;" />
 <path d="  M 8,16  L 7,16  L 7,17  L 8,17  Z  " style="fill:rgb(41, 207, 255); fill-opacity:1.000; stroke:none;" />
 <path d="  M 16,20  L 16,19  L 13,19  L 13,20  Z  " style="fill:rgb(41, 207, 255); fill-opacity:1.000; stroke:none;" />
 <path d="  M 17,8  L 17,7  L 16,7  L 16,8  Z  " style="fill:rgb(41, 207, 255); fill-opacity:1.000; stroke:none;" />
 <path d="  M 23,13  L 23,12  L 22,12  L 22,13  Z  " style="fill:rgb(41, 207, 255); fill-opacity:1.000; stroke:none;" />
 <path d="  M 7,11  L 6,11  L 6,12  L 7,12  Z  " style="fill:rgb(43, 207, 255); fill-opacity:1.000; stroke:none;" />
 <path d="  M 7,11  L 8,11  L 8,10  L 7,10  Z  " style="fill:rgb(43, 207, 255); fill-opacity:1.000; stroke:none;" />
 <path d="  M 8,9  L 8,10  L 11,10  L 11,11  L 12,11  L 12,12  L 14,12  L 14,11  L 13,11  L 13,10  L 14,10  L 14,9  L 15,9  L 15,8  L 12,8  L 12,9  Z  " style="fill:rgb(43, 207, 255); fill-opacity:1.000; stroke:none;" />
 <path d="  M 20,9  L 18,9  L 18,8  L 16,8  L 16,9  L 17,9  L 17,11  L 18,11  L 18,12  L 19,12  L 19,16  L 18,16  L 18,17  L 17,17  L 17,18  L 14,18  L 14,17  L 12,17  L 12,19  L 20,19  L 20,17  L 22,17  L 22,16  L 21,16  L 21,14  L 22,14  L 22,12  L 21,12  L 21,10  L 20,10  Z  " style="fill:rgb(43, 207, 255); fill-opacity:1.000; stroke:none;" />
 <path d="  M 21,20  L 21,19  L 20,19  L 20,20  Z  " style="fill:rgb(43, 207, 255); fill-opacity:1.000; stroke:none;" />
 <path d="  M 6,13  L 7,13  L 7,12  L 6,12  Z  " style="fill:rgb(41, 179, 255); fill-opacity:1.000; stroke:none;" />
 <path d="  M 16,15  L 17,15  L 17,14  L 16,14  Z  " style="fill:rgb(41, 179, 255); fill-opacity:1.000; stroke:none;" />
 <path d="  M 6,13  L 6,14  L 7,14  L 7,13  Z  " style="fill:rgb(40, 167, 255); fill-opacity:1.000; stroke:none;" />
 <path d="  M 18,14  L 17,14  L 17,15  L 18,15  Z  " style="fill:rgb(40, 167, 255); fill-opacity:1.000; stroke:none;" />
 <path d="  M 7,15  L 7,14  L 6,14  L 6,15  Z  " style="fill:rgb(42, 199, 255); fill-opacity:1.000; stroke:none;" />
 <path d="  M 6,16  L 6,17  L 7,17  L 7,16  Z  " style="fill:rgb(60, 211, 255); fill-opacity:1.000; stroke:none;" />
 <path d="  M 8,8  L 8,7  L 7,7  L 7,8  Z  " style="fill:rgb(204, 243, 255); fill-opacity:1.000; stroke:none;" />
 <path d="  M 7,8  L 7,9  L 8,9  L 8,8  Z  " style="fill:rgb(59, 211, 255); fill-opacity:1.000; stroke:none;" />
 <path d="  M 7,12  L 8,12  L 8,11  L 7,11  Z  " style="fill:rgb(43, 200, 255); fill-opacity:1.000; stroke:none;" />
 <path d="  M 7,13  L 8,13  L 8,12  L 7,12  Z  " style="fill:rgb(40, 159, 255); fill-opacity:1.000; stroke:none;" />
 <path d="  M 10,12  L 9,12  L 9,13  L 10,13  Z  " style="fill:rgb(40, 159, 255); fill-opacity:1.000; stroke:none;" />
 <path d="  M 7,13  L 7,14  L 8,14  L 8,13  Z  " style="fill:rgb(39, 144, 255); fill-opacity:1.000; stroke:none;" />
 <path d="  M 10,15  L 10,16  L 11,16  L 11,15  Z  " style="fill:rgb(39, 144, 255); fill-opacity:1.000; stroke:none;" />
 <path d="  M 16,14  L 17,14  L 17,12  L 16,12  Z  " style="fill:rgb(39, 144, 255); fill-opacity:1.000; stroke:none;" />
 <path d="  M 8,15  L 8,14  L 7,14  L 7,15  Z  " style="fill:rgb(39, 147, 255); fill-opacity:1.000; stroke:none;" />
 <path d="  M 7,16  L 8,16  L 8,15  L 7,15  Z  " style="fill:rgb(43, 203, 255); fill-opacity:1.000; stroke:none;" />
 <path d="  M 12,17  L 11,17  L 11,18  L 12,18  Z  " style="fill:rgb(43, 203, 255); fill-opacity:1.000; stroke:none;" />
 <path d="  M 8,17  L 7,17  L 7,18  L 8,18  Z  " style="fill:rgb(49, 208, 255); fill-opacity:1.000; stroke:none;" />
 <path d="  M 20,20  L 18,20  L 18,21  L 20,21  Z  " style="fill:rgb(49, 208, 255); fill-opacity:1.000; stroke:none;" />
 <path d="  M 7,19  L 8,19  L 8,18  L 7,18  Z  " style="fill:rgb(167, 235, 255); fill-opacity:1.000; stroke:none;" />
 <path d="  M 9,7  L 9,6  L 8,6  L 8,7  Z  " style="fill:rgb(254, 255, 255); fill-opacity:1.000; stroke:none;" />
 <path d="  M 13,5  L 13,6  L 14,6  L 14,5  Z  " style="fill:rgb(254, 255, 255); fill-opacity:1.000; stroke:none;" />
 <path d="  M 8,7  L 8,8  L 9,8  L 9,7  Z  " style="fill:rgb(141, 229, 255); fill-opacity:1.000; stroke:none;" />
 <path d="  M 8,10  L 8,11  L 11,11  L 11,10  Z  " style="fill:rgb(43, 208, 255); fill-opacity:1.000; stroke:none;" />
 <path d="  M 8,17  L 9,17  L 9,16  L 8,16  Z  " style="fill:rgb(43, 208, 255); fill-opacity:1.000; stroke:none;" />
 <path d="  M 13,12  L 12,12  L 12,13  L 13,13  Z  " style="fill:rgb(43, 208, 255); fill-opacity:1.000; stroke:none;" />
 <path d="  M 13,17  L 13,16  L 12,16  L 12,17  Z  " style="fill:rgb(43, 208, 255); fill-opacity:1.000; stroke:none;" />
 <path d="  M 13,10  L 13,11  L 14,11  L 14,10  Z  " style="fill:rgb(43, 208, 255); fill-opacity:1.000; stroke:none;" />
 <path d="  M 16,8  L 15,8  L 15,9  L 16,9  Z  " style="fill:rgb(43, 208, 255); fill-opacity:1.000; stroke:none;" />
 <path d="  M 16,18  L 17,18  L 17,17  L 16,17  Z  " style="fill:rgb(43, 208, 255); fill-opacity:1.000; stroke:none;" />
 <path d="  M 17,11  L 17,12  L 18,12  L 18,11  Z  " style="fill:rgb(43, 208, 255); fill-opacity:1.000; stroke:none;" />
 <path d="  M 18,13  L 19,13  L 19,12  L 18,12  Z  " style="fill:rgb(43, 208, 255); fill-opacity:1.000; stroke:none;" />
 <path d="  M 19,14  L 18,14  L 18,16  L 19,16  Z  " style="fill:rgb(43, 208, 255); fill-opacity:1.000; stroke:none;" />
 <path d="  M 10,12  L 10,11  L 8,11  L 8,12  Z  " style="fill:rgb(42, 194, 255); fill-opacity:1.000; stroke:none;" />
 <path d="  M 8,14  L 9,14  L 9,13  L 8,13  Z  " style="fill:rgb(42, 194, 255); fill-opacity:1.000; stroke:none;" />
 <path d="  M 8,13  L 9,13  L 9,12  L 8,12  Z  " style="fill:rgb(40, 169, 255); fill-opacity:1.000; stroke:none;" />
 <path d="  M 15,11  L 14,11  L 14,12  L 15,12  Z  " style="fill:rgb(40, 169, 255); fill-opacity:1.000; stroke:none;" />
 <path d="  M 8,14  L 8,15  L 9,15  L 9,14  Z  " style="fill:rgb(38, 128, 255); fill-opacity:1.000; stroke:none;" />
 <path d="  M 9,15  L 8,15  L 8,16  L 9,16  Z  " style="fill:rgb(42, 196, 255); fill-opacity:1.000; stroke:none;" />
 <path d="  M 11,14  L 11,15  L 12,15  L 12,14  Z  " style="fill:rgb(42, 196, 255); fill-opacity:1.000; stroke:none;" />
 <path d="  M 8,17  L 8,18  L 9,18  L 9,17  Z  " style="fill:rgb(41, 208, 255); fill-opacity:1.000; stroke:none;" />
 <path d="  M 8,19  L 9,19  L 9,18  L 8,18  Z  " style="fill:rgb(73, 215, 255); fill-opacity:1.000; stroke:none;" />
 <path d="  M 8,19  L 8,20  L 9,20  L 9,19  Z  " style="fill:rgb(212, 246, 255); fill-opacity:1.000; stroke:none;" />
 <path d="  M 10,7  L 10,6  L 9,6  L 9,7  Z  " style="fill:rgb(239, 251, 255); fill-opacity:1.000; stroke:none;" />
 <path d="  M 14,22  L 15,22  L 15,21  L 14,21  Z  " style="fill:rgb(239, 251, 255); fill-opacity:1.000; stroke:none;" />
 <path d="  M 24,16  L 24,15  L 23,15  L 23,16  Z  " style="fill:rgb(239, 251, 255); fill-opacity:1.000; stroke:none;" />
 <path d="  M 9,7  L 9,8  L 10,8  L 10,7  Z  " style="fill:rgb(88, 217, 255); fill-opacity:1.000; stroke:none;" />
 <path d="  M 10,8  L 9,8  L 9,9  L 10,9  Z  " style="fill:rgb(41, 206, 255); fill-opacity:1.000; stroke:none;" />
 <path d="  M 13,19  L 12,19  L 12,20  L 13,20  Z  " style="fill:rgb(41, 206, 255); fill-opacity:1.000; stroke:none;" />
 <path d="  M 15,7  L 15,8  L 16,8  L 16,7  Z  " style="fill:rgb(41, 206, 255); fill-opacity:1.000; stroke:none;" />
 <path d="  M 21,10  L 21,9  L 20,9  L 20,10  Z  " style="fill:rgb(41, 206, 255); fill-opacity:1.000; stroke:none;" />
 <path d="  M 10,13  L 9,13  L 9,14  L 10,14  Z  " style="fill:rgb(40, 170, 255); fill-opacity:1.000; stroke:none;" />
 <path d="  M 17,15  L 17,16  L 18,16  L 18,15  Z  " style="fill:rgb(40, 170, 255); fill-opacity:1.000; stroke:none;" />
 <path d="  M 9,14  L 9,15  L 11,15  L 11,14  Z  " style="fill:rgb(37, 126, 255); fill-opacity:1.000; stroke:none;" />
 <path d="  M 17,15  L 16,15  L 16,16  L 17,16  Z  " style="fill:rgb(37, 126, 255); fill-opacity:1.000; stroke:none;" />
 <path d="  M 9,16  L 10,16  L 10,15  L 9,15  Z  " style="fill:rgb(42, 192, 255); fill-opacity:1.000; stroke:none;" />
 <path d="  M 9,16  L 9,17  L 10,17  L 10,16  Z  " style="fill:rgb(42, 197, 255); fill-opacity:1.000; stroke:none;" />
 <path d="  M 13,12  L 13,13  L 14,13  L 14,12  Z  " style="fill:rgb(42, 197, 255); fill-opacity:1.000; stroke:none;" />
 <path d="  M 9,18  L 10,18  L 10,17  L 9,17  Z  " style="fill:rgb(42, 186, 255); fill-opacity:1.000; stroke:none;" />
 <path d="  M 10,18  L 9,18  L 9,19  L 10,19  Z  " style="fill:rgb(40, 184, 255); fill-opacity:1.000; stroke:none;" />
 <path d="  M 9,19  L 9,20  L 10,20  L 10,19  Z  " style="fill:rgb(104, 217, 255); fill-opacity:1.000; stroke:none;" />
 <path d="  M 10,21  L 10,20  L 9,20  L 9,21  Z  " style="fill:rgb(241, 252, 255); fill-opacity:1.000; stroke:none;" />
 <path d="  M 16,5  L 15,5  L 15,6  L 16,6  Z  " style="fill:rgb(241, 252, 255); fill-opacity:1.000; stroke:none;" />
 <path d="  M 10,7  L 11,7  L 11,6  L 10,6  Z  " style="fill:rgb(218, 247, 255); fill-opacity:1.000; stroke:none;" />
 <path d="  M 10,7  L 10,8  L 11,8  L 11,7  Z  " style="fill:rgb(62, 211, 255); fill-opacity:1.000; stroke:none;" />
 <path d="  M 11,12  L 11,11  L 10,11  L 10,12  Z  " style="fill:rgb(42, 198, 255); fill-opacity:1.000; stroke:none;" />
 <path d="  M 11,13  L 12,13  L 12,12  L 11,12  Z  " style="fill:rgb(42, 198, 255); fill-opacity:1.000; stroke:none;" />
 <path d="  M 12,17  L 12,16  L 11,16  L 11,17  Z  " style="fill:rgb(42, 198, 255); fill-opacity:1.000; stroke:none;" />
 <path d="  M 11,13  L 11,12  L 10,12  L 10,13  Z  " style="fill:rgb(38, 139, 255); fill-opacity:1.000; stroke:none;" />
 <path d="  M 10,14  L 11,14  L 11,13  L 10,13  Z  " style="fill:rgb(37, 125, 255); fill-opacity:1.000; stroke:none;" />
 <path d="  M 14,14  L 15,14  L 15,13  L 14,13  Z  " style="fill:rgb(37, 125, 255); fill-opacity:1.000; stroke:none;" />
 <path d="  M 11,17  L 11,16  L 10,16  L 10,17  Z  " style="fill:rgb(39, 141, 255); fill-opacity:1.000; stroke:none;" />
 <path d="  M 15,12  L 15,13  L 16,13  L 16,12  Z  " style="fill:rgb(39, 141, 255); fill-opacity:1.000; stroke:none;" />
 <path d="  M 10,17  L 10,18  L 11,18  L 11,17  Z  " style="fill:rgb(39, 149, 255); fill-opacity:1.000; stroke:none;" />
 <path d="  M 11,18  L 10,18  L 10,19  L 11,19  Z  " style="fill:rgb(39, 159, 255); fill-opacity:1.000; stroke:none;" />
 <path d="  M 11,20  L 11,19  L 10,19  L 10,20  Z  " style="fill:rgb(49, 199, 255); fill-opacity:1.000; stroke:none;" />
 <path d="  M 11,20  L 10,20  L 10,21  L 11,21  Z  " style="fill:rgb(181, 239, 255); fill-opacity:1.000; stroke:none;" />
 <path d="  M 12,6  L 11,6  L 11,7  L 12,7  Z  " style="fill:rgb(184, 239, 255); fill-opacity:1.000; stroke:none;" />
 <path d="  M 12,11  L 11,11  L 11,12  L 12,12  Z  " style="fill:rgb(43, 206, 255); fill-opacity:1.000; stroke:none;" />
 <path d="  M 12,18  L 11,18  L 11,19  L 12,19  Z  " style="fill:rgb(43, 206, 255); fill-opacity:1.000; stroke:none;" />
 <path d="  M 15,14  L 15,15  L 16,15  L 16,14  Z  " style="fill:rgb(43, 206, 255); fill-opacity:1.000; stroke:none;" />
 <path d="  M 17,10  L 16,10  L 16,12  L 17,12  Z  " style="fill:rgb(43, 206, 255); fill-opacity:1.000; stroke:none;" />
 <path d="  M 12,13  L 11,13  L 11,14  L 12,14  Z  " style="fill:rgb(42, 195, 255); fill-opacity:1.000; stroke:none;" />
 <path d="  M 12,16  L 12,15  L 11,15  L 11,16  Z  " style="fill:rgb(42, 195, 255); fill-opacity:1.000; stroke:none;" />
 <path d="  M 12,19  L 11,19  L 11,20  L 12,20  Z  " style="fill:rgb(40, 206, 255); fill-opacity:1.000; stroke:none;" />
 <path d="  M 15,8  L 15,7  L 14,7  L 14,8  Z  " style="fill:rgb(40, 206, 255); fill-opacity:1.000; stroke:none;" />
 <path d="  M 19,8  L 19,9  L 20,9  L 20,8  Z  " style="fill:rgb(40, 206, 255); fill-opacity:1.000; stroke:none;" />
 <path d="  M 21,19  L 21,18  L 20,18  L 20,19  Z  " style="fill:rgb(40, 206, 255); fill-opacity:1.000; stroke:none;" />
 <path d="  M 22,11  L 22,10  L 21,10  L 21,11  Z  " style="fill:rgb(40, 206, 255); fill-opacity:1.000; stroke:none;" />
 <path d="  M 22,16  L 22,15  L 21,15  L 21,16  Z  " style="fill:rgb(40, 206, 255); fill-opacity:1.000; stroke:none;" />
 <path d="  M 23,13  L 22,13  L 22,14  L 23,14  Z  " style="fill:rgb(40, 206, 255); fill-opacity:1.000; stroke:none;" />
 <path d="  M 12,21  L 12,20  L 11,20  L 11,21  Z  " style="fill:rgb(126, 226, 255); fill-opacity:1.000; stroke:none;" />
 <path d="  M 13,6  L 12,6  L 12,7  L 13,7  Z  " style="fill:rgb(157, 233, 255); fill-opacity:1.000; stroke:none;" />
 <path d="  M 13,13  L 12,13  L 12,16  L 13,16  Z  " style="fill:rgb(43, 209, 255); fill-opacity:1.000; stroke:none;" />
 <path d="  M 16,18  L 16,17  L 14,17  L 14,18  Z  " style="fill:rgb(43, 209, 255); fill-opacity:1.000; stroke:none;" />
 <path d="  M 19,14  L 19,13  L 18,13  L 18,14  Z  " style="fill:rgb(43, 209, 255); fill-opacity:1.000; stroke:none;" />
 <path d="  M 12,21  L 13,21  L 13,20  L 12,20  Z  " style="fill:rgb(95, 219, 255); fill-opacity:1.000; stroke:none;" />
 <path d="  M 13,21  L 12,21  L 12,22  L 13,22  Z  " style="fill:rgb(242, 252, 255); fill-opacity:1.000; stroke:none;" />
 <path d="  M 24,11  L 24,10  L 23,10  L 23,11  Z  " style="fill:rgb(242, 252, 255); fill-opacity:1.000; stroke:none;" />
 <path d="  M 14,6  L 13,6  L 13,7  L 14,7  Z  " style="fill:rgb(133, 227, 255); fill-opacity:1.000; stroke:none;" />
 <path d="  M 13,7  L 13,8  L 14,8  L 14,7  Z  " style="fill:rgb(39, 206, 255); fill-opacity:1.000; stroke:none;" />
 <path d="  M 14,14  L 14,13  L 13,13  L 13,14  Z  " style="fill:rgb(41, 180, 255); fill-opacity:1.000; stroke:none;" />
 <path d="  M 13,15  L 14,15  L 14,14  L 13,14  Z  " style="fill:rgb(40, 171, 255); fill-opacity:1.000; stroke:none;" />
 <path d="  M 13,15  L 13,16  L 14,16  L 14,15  Z  " style="fill:rgb(41, 173, 255); fill-opacity:1.000; stroke:none;" />
 <path d="  M 14,16  L 13,16  L 13,17  L 14,17  Z  " style="fill:rgb(42, 200, 255); fill-opacity:1.000; stroke:none;" />
 <path d="  M 14,21  L 14,20  L 13,20  L 13,21  Z  " style="fill:rgb(86, 217, 255); fill-opacity:1.000; stroke:none;" />
 <path d="  M 15,6  L 14,6  L 14,7  L 15,7  Z  " style="fill:rgb(113, 223, 255); fill-opacity:1.000; stroke:none;" />
 <path d="  M 14,10  L 15,10  L 15,9  L 14,9  Z  " style="fill:rgb(43, 201, 255); fill-opacity:1.000; stroke:none;" />
 <path d="  M 14,10  L 14,11  L 15,11  L 15,10  Z  " style="fill:rgb(41, 181, 255); fill-opacity:1.000; stroke:none;" />
 <path d="  M 15,13  L 15,12  L 14,12  L 14,13  Z  " style="fill:rgb(39, 148, 255); fill-opacity:1.000; stroke:none;" />
 <path d="  M 15,14  L 14,14  L 14,15  L 15,15  Z  " style="fill:rgb(40, 164, 255); fill-opacity:1.000; stroke:none;" />
 <path d="  M 14,16  L 14,17  L 15,17  L 15,16  Z  " style="fill:rgb(40, 164, 255); fill-opacity:1.000; stroke:none;" />
 <path d="  M 14,16  L 15,16  L 15,15  L 14,15  Z  " style="fill:rgb(38, 141, 255); fill-opacity:1.000; stroke:none;" />
 <path d="  M 15,20  L 14,20  L 14,21  L 15,21  Z  " style="fill:rgb(87, 217, 255); fill-opacity:1.000; stroke:none;" />
 <path d="  M 15,7  L 16,7  L 16,6  L 15,6  Z  " style="fill:rgb(93, 218, 255); fill-opacity:1.000; stroke:none;" />
 <path d="  M 16,10  L 16,9  L 15,9  L 15,10  Z  " style="fill:rgb(41, 182, 255); fill-opacity:1.000; stroke:none;" />
 <path d="  M 15,11  L 16,11  L 16,10  L 15,10  Z  " style="fill:rgb(40, 163, 255); fill-opacity:1.000; stroke:none;" />
 <path d="  M 18,13  L 17,13  L 17,14  L 18,14  Z  " style="fill:rgb(40, 163, 255); fill-opacity:1.000; stroke:none;" />
 <path d="  M 15,11  L 15,12  L 16,12  L 16,11  Z  " style="fill:rgb(42, 187, 255); fill-opacity:1.000; stroke:none;" />
 <path d="  M 16,17  L 17,17  L 17,16  L 16,16  Z  " style="fill:rgb(42, 187, 255); fill-opacity:1.000; stroke:none;" />
 <path d="  M 15,14  L 16,14  L 16,13  L 15,13  Z  " style="fill:rgb(39, 154, 255); fill-opacity:1.000; stroke:none;" />
 <path d="  M 15,15  L 15,16  L 16,16  L 16,15  Z  " style="fill:rgb(39, 145, 255); fill-opacity:1.000; stroke:none;" />
 <path d="  M 16,17  L 16,16  L 15,16  L 15,17  Z  " style="fill:rgb(40, 162, 255); fill-opacity:1.000; stroke:none;" />
 <path d="  M 15,20  L 15,21  L 16,21  L 16,20  Z  " style="fill:rgb(76, 215, 255); fill-opacity:1.000; stroke:none;" />
 <path d="  M 16,6  L 16,7  L 17,7  L 17,6  Z  " style="fill:rgb(76, 215, 255); fill-opacity:1.000; stroke:none;" />
 <path d="  M 16,22  L 16,21  L 15,21  L 15,22  Z  " style="fill:rgb(236, 251, 255); fill-opacity:1.000; stroke:none;" />
 <path d="  M 16,5  L 16,6  L 17,6  L 17,5  Z  " style="fill:rgb(235, 251, 255); fill-opacity:1.000; stroke:none;" />
 <path d="  M 16,10  L 17,10  L 17,9  L 16,9  Z  " style="fill:rgb(43, 205, 255); fill-opacity:1.000; stroke:none;" />
 <path d="  M 16,20  L 16,21  L 17,21  L 17,20  Z  " style="fill:rgb(64, 212, 255); fill-opacity:1.000; stroke:none;" />
 <path d="  M 17,22  L 17,21  L 16,21  L 16,22  Z  " style="fill:rgb(226, 248, 255); fill-opacity:1.000; stroke:none;" />
 <path d="  M 17,6  L 18,6  L 18,5  L 17,5  Z  " style="fill:rgb(245, 253, 255); fill-opacity:1.000; stroke:none;" />
 <path d="  M 22,19  L 23,19  L 23,18  L 22,18  Z  " style="fill:rgb(245, 253, 255); fill-opacity:1.000; stroke:none;" />
 <path d="  M 17,6  L 17,7  L 18,7  L 18,6  Z  " style="fill:rgb(115, 223, 255); fill-opacity:1.000; stroke:none;" />
 <path d="  M 18,12  L 17,12  L 17,13  L 18,13  Z  " style="fill:rgb(42, 185, 255); fill-opacity:1.000; stroke:none;" />
 <path d="  M 18,17  L 18,16  L 17,16  L 17,17  Z  " style="fill:rgb(43, 204, 255); fill-opacity:1.000; stroke:none;" />
 <path d="  M 17,20  L 17,21  L 18,21  L 18,20  Z  " style="fill:rgb(56, 210, 255); fill-opacity:1.000; stroke:none;" />
 <path d="  M 17,22  L 18,22  L 18,21  L 17,21  Z  " style="fill:rgb(202, 243, 255); fill-opacity:1.000; stroke:none;" />
 <path d="  M 19,6  L 18,6  L 18,7  L 19,7  Z  " style="fill:rgb(215, 246, 255); fill-opacity:1.000; stroke:none;" />
 <path d="  M 18,7  L 18,8  L 19,8  L 19,7  Z  " style="fill:rgb(65, 212, 255); fill-opacity:1.000; stroke:none;" />
 <path d="  M 18,21  L 18,22  L 19,22  L 19,21  Z  " style="fill:rgb(179, 238, 255); fill-opacity:1.000; stroke:none;" />
 <path d="  M 19,21  L 19,22  L 20,22  L 20,21  Z  " style="fill:rgb(182, 239, 255); fill-opacity:1.000; stroke:none;" />
 <path d="  M 21,7  L 20,7  L 20,8  L 21,8  Z  " style="fill:rgb(208, 244, 255); fill-opacity:1.000; stroke:none;" />
 <path d="  M 21,8  L 20,8  L 20,9  L 21,9  Z  " style="fill:rgb(71, 213, 255); fill-opacity:1.000; stroke:none;" />
 <path d="  M 21,9  L 21,10  L 22,10  L 22,9  Z  " style="fill:rgb(71, 213, 255); fill-opacity:1.000; stroke:none;" />
 <path d="  M 21,20  L 20,20  L 20,21  L 21,21  Z  " style="fill:rgb(102, 220, 255); fill-opacity:1.000; stroke:none;" />
 <path d="  M 20,21  L 20,22  L 21,22  L 21,21  Z  " style="fill:rgb(234, 250, 255); fill-opacity:1.000; stroke:none;" />
 <path d="  M 21,9  L 22,9  L 22,8  L 21,8  Z  " style="fill:rgb(190, 240, 255); fill-opacity:1.000; stroke:none;" />
 <path d="  M 21,17  L 21,18  L 22,18  L 22,17  Z  " style="fill:rgb(61, 211, 255); fill-opacity:1.000; stroke:none;" />
 <path d="  M 22,19  L 22,18  L 21,18  L 21,19  Z  " style="fill:rgb(104, 221, 255); fill-opacity:1.000; stroke:none;" />
 <path d="  M 21,20  L 22,20  L 22,19  L 21,19  Z  " style="fill:rgb(161, 234, 255); fill-opacity:1.000; stroke:none;" />
 <path d="  M 21,20  L 21,21  L 22,21  L 22,20  Z  " style="fill:rgb(230, 249, 255); fill-opacity:1.000; stroke:none;" />
 <path d="  M 22,10  L 23,10  L 23,9  L 22,9  Z  " style="fill:rgb(206, 244, 255); fill-opacity:1.000; stroke:none;" />
 <path d="  M 22,10  L 22,11  L 23,11  L 23,10  Z  " style="fill:rgb(106, 221, 255); fill-opacity:1.000; stroke:none;" />
 <path d="  M 22,12  L 23,12  L 23,11  L 22,11  Z  " style="fill:rgb(53, 209, 255); fill-opacity:1.000; stroke:none;" />
 <path d="  M 23,15  L 23,14  L 22,14  L 22,15  Z  " style="fill:rgb(52, 209, 255); fill-opacity:1.000; stroke:none;" />
 <path d="  M 23,15  L 22,15  L 22,16  L 23,16  Z  " style="fill:rgb(94, 219, 255); fill-opacity:1.000; stroke:none;" />
 <path d="  M 22,17  L 23,17  L 23,16  L 22,16  Z  " style="fill:rgb(153, 232, 255); fill-opacity:1.000; stroke:none;" />
 <path d="  M 24,13  L 23,13  L 23,14  L 24,14  Z  " style="fill:rgb(153, 232, 255); fill-opacity:1.000; stroke:none;" />
 <path d="  M 22,17  L 22,18  L 23,18  L 23,17  Z  " style="fill:rgb(212, 245, 255); fill-opacity:1.000; stroke:none;" />
 <path d="  M 23,11  L 23,12  L 24,12  L 24,11  Z  " style="fill:rgb(194, 241, 255); fill-opacity:1.000; stroke:none;" />
 <path d="  M 23,13  L 24,13  L 24,12  L 23,12  Z  " style="fill:rgb(156, 232, 255); fill-opacity:1.000; stroke:none;" />
 <path d="  M 23,14  L 23,15  L 24,15  L 24,14  Z  " style="fill:rgb(189, 240, 255); fill-opacity:1.000; stroke:none;" />
</svg>
