<?xml version="1.0" encoding="UTF-8" standalone="no"?>
<!DOCTYPE svg PUBLIC "-//W3C//DTD SVG 1.1//EN" 
  "http://www.w3.org/Graphics/SVG/1.1/DTD/svg11.dtd">
<svg width="32" height="32"
	 xmlns="http://www.w3.org/2000/svg" version="1.1">
 <path d="  M 1,5  L 1,4  L 0,4  L 0,5  Z  " style="fill:rgb(0, 0, 0); fill-opacity:0.180; stroke:none;" />
 <path d="  M 1,6  L 1,5  L 0,5  L 0,6  Z  " style="fill:rgb(0, 0, 0); fill-opacity:0.682; stroke:none;" />
 <path d="  M 0,6  L 0,7  L 1,7  L 1,6  Z  " style="fill:rgb(7, 5, 0); fill-opacity:0.796; stroke:none;" />
 <path d="  M 1,7  L 0,7  L 0,8  L 1,8  Z  " style="fill:rgb(12, 9, 0); fill-opacity:0.808; stroke:none;" />
 <path d="  M 0,8  L 0,9  L 1,9  L 1,8  Z  " style="fill:rgb(0, 0, 0); fill-opacity:0.671; stroke:none;" />
 <path d="  M 0,10  L 1,10  L 1,9  L 0,9  Z  " style="fill:rgb(0, 0, 0); fill-opacity:0.624; stroke:none;" />
 <path d="  M 0,11  L 1,11  L 1,10  L 0,10  Z  " style="fill:rgb(0, 0, 0); fill-opacity:0.471; stroke:none;" />
 <path d="  M 0,11  L 0,12  L 1,12  L 1,11  Z  " style="fill:rgb(0, 0, 0); fill-opacity:0.349; stroke:none;" />
 <path d="  M 28,4  L 29,4  L 29,3  L 28,3  Z  " style="fill:rgb(0, 0, 0); fill-opacity:0.349; stroke:none;" />
 <path d="  M 1,13  L 1,12  L 0,12  L 0,13  Z  " style="fill:rgb(0, 0, 0); fill-opacity:0.129; stroke:none;" />
 <path d="  M 0,20  L 1,20  L 1,19  L 0,19  Z  " style="fill:rgb(0, 0, 0); fill-opacity:0.129; stroke:none;" />
 <path d="  M 19,32  L 19,31  L 18,31  L 18,32  Z  " style="fill:rgb(0, 0, 0); fill-opacity:0.129; stroke:none;" />
 <path d="  M 1,14  L 1,13  L 0,13  L 0,14  Z  " style="fill:rgb(0, 0, 0); fill-opacity:0.290; stroke:none;" />
 <path d="  M 1,15  L 1,14  L 0,14  L 0,15  Z  " style="fill:rgb(0, 0, 0); fill-opacity:0.271; stroke:none;" />
 <path d="  M 1,15  L 0,15  L 0,16  L 1,16  Z  " style="fill:rgb(0, 0, 0); fill-opacity:0.361; stroke:none;" />
 <path d="  M 31,16  L 32,16  L 32,15  L 31,15  Z  " style="fill:rgb(0, 0, 0); fill-opacity:0.361; stroke:none;" />
 <path d="  M 0,17  L 1,17  L 1,16  L 0,16  Z  " style="fill:rgb(0, 0, 0); fill-opacity:0.141; stroke:none;" />
 <path d="  M 1,17  L 0,17  L 0,19  L 1,19  Z  " style="fill:rgb(0, 0, 0); fill-opacity:0.082; stroke:none;" />
 <path d="  M 23,32  L 23,31  L 22,31  L 22,32  Z  " style="fill:rgb(0, 0, 0); fill-opacity:0.082; stroke:none;" />
 <path d="  M 28,0  L 27,0  L 27,1  L 28,1  Z  " style="fill:rgb(0, 0, 0); fill-opacity:0.082; stroke:none;" />
 <path d="  M 1,20  L 0,20  L 0,21  L 1,21  Z  " style="fill:rgb(0, 0, 0); fill-opacity:0.310; stroke:none;" />
 <path d="  M 1,22  L 1,21  L 0,21  L 0,22  Z  " style="fill:rgb(0, 0, 0); fill-opacity:0.192; stroke:none;" />
 <path d="  M 1,22  L 0,22  L 0,23  L 1,23  Z  " style="fill:rgb(0, 0, 0); fill-opacity:0.086; stroke:none;" />
 <path d="  M 0,25  L 1,25  L 1,24  L 0,24  Z  " style="fill:rgb(0, 0, 0); fill-opacity:0.086; stroke:none;" />
 <path d="  M 0,23  L 0,24  L 1,24  L 1,23  Z  " style="fill:rgb(0, 0, 0); fill-opacity:0.114; stroke:none;" />
 <path d="  M 0,26  L 1,26  L 1,25  L 0,25  Z  " style="fill:rgb(0, 0, 0); fill-opacity:0.243; stroke:none;" />
 <path d="  M 0,27  L 1,27  L 1,26  L 0,26  Z  " style="fill:rgb(0, 0, 0); fill-opacity:0.333; stroke:none;" />
 <path d="  M 31,23  L 31,22  L 30,22  L 30,23  Z  " style="fill:rgb(0, 0, 0); fill-opacity:0.333; stroke:none;" />
 <path d="  M 0,28  L 1,28  L 1,27  L 0,27  Z  " style="fill:rgb(0, 0, 0); fill-opacity:0.224; stroke:none;" />
 <path d="  M 0,29  L 1,29  L 1,28  L 0,28  Z  " style="fill:rgb(0, 0, 0); fill-opacity:0.439; stroke:none;" />
 <path d="  M 1,29  L 0,29  L 0,30  L 1,30  Z  " style="fill:rgb(0, 0, 0); fill-opacity:0.898; stroke:none;" />
 <path d="  M 1,31  L 1,30  L 0,30  L 0,31  Z  " style="fill:rgb(1, 1, 0); fill-opacity:0.514; stroke:none;" />
 <path d="  M 1,4  L 1,5  L 2,5  L 2,4  Z  " style="fill:rgb(0, 0, 0); fill-opacity:0.486; stroke:none;" />
 <path d="  M 1,6  L 2,6  L 2,5  L 1,5  Z  " style="fill:rgb(42, 30, 1); fill-opacity:0.996; stroke:none;" />
 <path d="  M 2,7  L 2,6  L 1,6  L 1,7  Z  " style="fill:rgb(139, 101, 2); fill-opacity:1.000; stroke:none;" />
 <path d="  M 2,7  L 1,7  L 1,8  L 2,8  Z  " style="fill:rgb(147, 107, 2); fill-opacity:1.000; stroke:none;" />
 <path d="  M 2,9  L 2,8  L 1,8  L 1,9  Z  " style="fill:rgb(96, 70, 1); fill-opacity:1.000; stroke:none;" />
 <path d="  M 1,10  L 2,10  L 2,9  L 1,9  Z  " style="fill:rgb(86, 63, 1); fill-opacity:1.000; stroke:none;" />
 <path d="  M 1,11  L 2,11  L 2,10  L 1,10  Z  " style="fill:rgb(91, 66, 1); fill-opacity:0.957; stroke:none;" />
 <path d="  M 1,11  L 1,12  L 2,12  L 2,11  Z  " style="fill:rgb(32, 23, 0); fill-opacity:0.945; stroke:none;" />
 <path d="  M 1,13  L 2,13  L 2,12  L 1,12  Z  " style="fill:rgb(55, 40, 1); fill-opacity:0.796; stroke:none;" />
 <path d="  M 1,13  L 1,14  L 2,14  L 2,13  Z  " style="fill:rgb(34, 25, 0); fill-opacity:0.898; stroke:none;" />
 <path d="  M 2,14  L 1,14  L 1,15  L 2,15  Z  " style="fill:rgb(47, 34, 1); fill-opacity:0.898; stroke:none;" />
 <path d="  M 1,16  L 2,16  L 2,15  L 1,15  Z  " style="fill:rgb(55, 40, 1); fill-opacity:0.933; stroke:none;" />
 <path d="  M 1,16  L 1,17  L 2,17  L 2,16  Z  " style="fill:rgb(19, 14, 0); fill-opacity:0.831; stroke:none;" />
 <path d="  M 2,17  L 1,17  L 1,18  L 2,18  Z  " style="fill:rgb(11, 8, 0); fill-opacity:0.784; stroke:none;" />
 <path d="  M 2,19  L 2,18  L 1,18  L 1,19  Z  " style="fill:rgb(9, 6, 0); fill-opacity:0.780; stroke:none;" />
 <path d="  M 2,19  L 1,19  L 1,20  L 2,20  Z  " style="fill:rgb(8, 6, 0); fill-opacity:0.824; stroke:none;" />
 <path d="  M 2,21  L 2,20  L 1,20  L 1,21  Z  " style="fill:rgb(30, 22, 0); fill-opacity:0.922; stroke:none;" />
 <path d="  M 1,21  L 1,22  L 2,22  L 2,21  Z  " style="fill:rgb(24, 17, 0); fill-opacity:0.847; stroke:none;" />
 <path d="  M 2,23  L 2,22  L 1,22  L 1,23  Z  " style="fill:rgb(23, 17, 0); fill-opacity:0.784; stroke:none;" />
 <path d="  M 2,24  L 2,23  L 1,23  L 1,24  Z  " style="fill:rgb(10, 7, 0); fill-opacity:0.831; stroke:none;" />
 <path d="  M 2,24  L 1,24  L 1,25  L 2,25  Z  " style="fill:rgb(16, 11, 0); fill-opacity:0.761; stroke:none;" />
 <path d="  M 2,25  L 1,25  L 1,26  L 2,26  Z  " style="fill:rgb(20, 14, 0); fill-opacity:0.867; stroke:none;" />
 <path d="  M 1,26  L 1,27  L 2,27  L 2,26  Z  " style="fill:rgb(65, 48, 1); fill-opacity:0.910; stroke:none;" />
 <path d="  M 1,28  L 2,28  L 2,27  L 1,27  Z  " style="fill:rgb(36, 26, 1); fill-opacity:0.878; stroke:none;" />
 <path d="  M 1,28  L 1,29  L 2,29  L 2,28  Z  " style="fill:rgb(39, 29, 1); fill-opacity:0.953; stroke:none;" />
 <path d="  M 1,30  L 2,30  L 2,29  L 1,29  Z  " style="fill:rgb(38, 27, 1); fill-opacity:0.992; stroke:none;" />
 <path d="  M 2,31  L 2,30  L 1,30  L 1,31  Z  " style="fill:rgb(11, 8, 0); fill-opacity:0.847; stroke:none;" />
 <path d="  M 2,31  L 1,31  L 1,32  L 2,32  Z  " style="fill:rgb(0, 0, 0); fill-opacity:0.239; stroke:none;" />
 <path d="  M 8,3  L 7,3  L 7,4  L 8,4  Z  " style="fill:rgb(0, 0, 0); fill-opacity:0.239; stroke:none;" />
 <path d="  M 3,5  L 3,4  L 2,4  L 2,5  Z  " style="fill:rgb(7, 5, 0); fill-opacity:0.494; stroke:none;" />
 <path d="  M 3,6  L 3,5  L 2,5  L 2,6  Z  " style="fill:rgb(107, 78, 2); fill-opacity:1.000; stroke:none;" />
 <path d="  M 31,13  L 31,12  L 30,12  L 30,13  Z  " style="fill:rgb(107, 78, 2); fill-opacity:1.000; stroke:none;" />
 <path d="  M 2,6  L 2,7  L 3,7  L 3,6  Z  " style="fill:rgb(251, 183, 4); fill-opacity:1.000; stroke:none;" />
 <path d="  M 22,2  L 23,2  L 23,1  L 22,1  Z  " style="fill:rgb(251, 183, 4); fill-opacity:1.000; stroke:none;" />
 <path d="  M 30,10  L 30,9  L 29,9  L 29,10  Z  " style="fill:rgb(251, 183, 4); fill-opacity:1.000; stroke:none;" />
 <path d="  M 30,12  L 29,12  L 29,13  L 30,13  Z  " style="fill:rgb(251, 183, 4); fill-opacity:1.000; stroke:none;" />
 <path d="  M 3,7  L 2,7  L 2,8  L 3,8  Z  " style="fill:rgb(255, 189, 4); fill-opacity:1.000; stroke:none;" />
 <path d="  M 4,17  L 3,17  L 3,19  L 4,19  Z  " style="fill:rgb(255, 189, 4); fill-opacity:1.000; stroke:none;" />
 <path d="  M 3,24  L 3,25  L 4,25  L 4,24  Z  " style="fill:rgb(255, 189, 4); fill-opacity:1.000; stroke:none;" />
 <path d="  M 7,6  L 6,6  L 6,7  L 7,7  Z  " style="fill:rgb(255, 189, 4); fill-opacity:1.000; stroke:none;" />
 <path d="  M 8,30  L 8,29  L 7,29  L 7,30  Z  " style="fill:rgb(255, 189, 4); fill-opacity:1.000; stroke:none;" />
 <path d="  M 15,8  L 15,7  L 14,7  L 14,8  Z  " style="fill:rgb(255, 189, 4); fill-opacity:1.000; stroke:none;" />
 <path d="  M 17,8  L 16,8  L 16,9  L 17,9  Z  " style="fill:rgb(255, 189, 4); fill-opacity:1.000; stroke:none;" />
 <path d="  M 19,6  L 19,5  L 18,5  L 18,6  Z  " style="fill:rgb(255, 189, 4); fill-opacity:1.000; stroke:none;" />
 <path d="  M 27,27  L 28,27  L 28,26  L 27,26  Z  " style="fill:rgb(255, 189, 4); fill-opacity:1.000; stroke:none;" />
 <path d="  M 28,9  L 29,9  L 29,8  L 28,8  Z  " style="fill:rgb(255, 189, 4); fill-opacity:1.000; stroke:none;" />
 <path d="  M 29,19  L 28,19  L 28,20  L 29,20  Z  " style="fill:rgb(255, 189, 4); fill-opacity:1.000; stroke:none;" />
 <path d="  M 2,8  L 2,9  L 3,9  L 3,8  Z  " style="fill:rgb(249, 182, 4); fill-opacity:1.000; stroke:none;" />
 <path d="  M 3,9  L 2,9  L 2,11  L 3,11  Z  " style="fill:rgb(246, 179, 4); fill-opacity:1.000; stroke:none;" />
 <path d="  M 28,21  L 28,22  L 29,22  L 29,21  Z  " style="fill:rgb(246, 179, 4); fill-opacity:1.000; stroke:none;" />
 <path d="  M 3,13  L 3,11  L 2,11  L 2,13  Z  " style="fill:rgb(209, 153, 3); fill-opacity:1.000; stroke:none;" />
 <path d="  M 2,14  L 3,14  L 3,13  L 2,13  Z  " style="fill:rgb(206, 151, 3); fill-opacity:1.000; stroke:none;" />
 <path d="  M 3,14  L 2,14  L 2,15  L 3,15  Z  " style="fill:rgb(211, 154, 3); fill-opacity:1.000; stroke:none;" />
 <path d="  M 3,15  L 2,15  L 2,16  L 3,16  Z  " style="fill:rgb(227, 166, 4); fill-opacity:1.000; stroke:none;" />
 <path d="  M 23,29  L 24,29  L 24,28  L 23,28  Z  " style="fill:rgb(227, 166, 4); fill-opacity:1.000; stroke:none;" />
 <path d="  M 2,17  L 3,17  L 3,16  L 2,16  Z  " style="fill:rgb(170, 124, 3); fill-opacity:1.000; stroke:none;" />
 <path d="  M 29,19  L 29,20  L 30,20  L 30,19  Z  " style="fill:rgb(170, 124, 3); fill-opacity:1.000; stroke:none;" />
 <path d="  M 3,17  L 2,17  L 2,18  L 3,18  Z  " style="fill:rgb(159, 116, 3); fill-opacity:1.000; stroke:none;" />
 <path d="  M 3,19  L 3,18  L 2,18  L 2,19  Z  " style="fill:rgb(156, 114, 2); fill-opacity:1.000; stroke:none;" />
 <path d="  M 30,10  L 30,11  L 31,11  L 31,10  Z  " style="fill:rgb(156, 114, 2); fill-opacity:1.000; stroke:none;" />
 <path d="  M 2,20  L 3,20  L 3,19  L 2,19  Z  " style="fill:rgb(158, 115, 2); fill-opacity:1.000; stroke:none;" />
 <path d="  M 2,21  L 3,21  L 3,20  L 2,20  Z  " style="fill:rgb(206, 150, 3); fill-opacity:1.000; stroke:none;" />
 <path d="  M 3,21  L 2,21  L 2,22  L 3,22  Z  " style="fill:rgb(185, 135, 3); fill-opacity:1.000; stroke:none;" />
 <path d="  M 2,23  L 3,23  L 3,22  L 2,22  Z  " style="fill:rgb(175, 128, 3); fill-opacity:1.000; stroke:none;" />
 <path d="  M 19,4  L 19,3  L 18,3  L 18,4  Z  " style="fill:rgb(175, 128, 3); fill-opacity:1.000; stroke:none;" />
 <path d="  M 2,23  L 2,24  L 3,24  L 3,23  Z  " style="fill:rgb(161, 117, 3); fill-opacity:1.000; stroke:none;" />
 <path d="  M 3,25  L 3,24  L 2,24  L 2,25  Z  " style="fill:rgb(163, 119, 2); fill-opacity:1.000; stroke:none;" />
 <path d="  M 3,25  L 2,25  L 2,26  L 3,26  Z  " style="fill:rgb(180, 131, 3); fill-opacity:1.000; stroke:none;" />
 <path d="  M 2,26  L 2,27  L 3,27  L 3,26  Z  " style="fill:rgb(230, 168, 4); fill-opacity:1.000; stroke:none;" />
 <path d="  M 16,29  L 16,30  L 17,30  L 17,29  Z  " style="fill:rgb(230, 168, 4); fill-opacity:1.000; stroke:none;" />
 <path d="  M 21,7  L 21,6  L 20,6  L 20,7  Z  " style="fill:rgb(230, 168, 4); fill-opacity:1.000; stroke:none;" />
 <path d="  M 28,23  L 28,25  L 29,25  L 29,23  Z  " style="fill:rgb(230, 168, 4); fill-opacity:1.000; stroke:none;" />
 <path d="  M 3,28  L 3,27  L 2,27  L 2,28  Z  " style="fill:rgb(202, 147, 3); fill-opacity:1.000; stroke:none;" />
 <path d="  M 26,3  L 26,4  L 27,4  L 27,3  Z  " style="fill:rgb(202, 147, 3); fill-opacity:1.000; stroke:none;" />
 <path d="  M 2,29  L 3,29  L 3,28  L 2,28  Z  " style="fill:rgb(227, 165, 4); fill-opacity:1.000; stroke:none;" />
 <path d="  M 13,29  L 13,30  L 14,30  L 14,29  Z  " style="fill:rgb(227, 165, 4); fill-opacity:1.000; stroke:none;" />
 <path d="  M 23,8  L 22,8  L 22,9  L 23,9  Z  " style="fill:rgb(227, 165, 4); fill-opacity:1.000; stroke:none;" />
 <path d="  M 3,29  L 2,29  L 2,30  L 3,30  Z  " style="fill:rgb(205, 150, 3); fill-opacity:1.000; stroke:none;" />
 <path d="  M 19,6  L 18,6  L 18,7  L 19,7  Z  " style="fill:rgb(205, 150, 3); fill-opacity:1.000; stroke:none;" />
 <path d="  M 25,28  L 24,28  L 24,29  L 25,29  Z  " style="fill:rgb(205, 150, 3); fill-opacity:1.000; stroke:none;" />
 <path d="  M 2,30  L 2,31  L 3,31  L 3,30  Z  " style="fill:rgb(42, 31, 1); fill-opacity:0.957; stroke:none;" />
 <path d="  M 2,32  L 3,32  L 3,31  L 2,31  Z  " style="fill:rgb(0, 0, 0); fill-opacity:0.376; stroke:none;" />
 <path d="  M 16,32  L 17,32  L 17,31  L 16,31  Z  " style="fill:rgb(0, 0, 0); fill-opacity:0.376; stroke:none;" />
 <path d="  M 3,3  L 3,4  L 4,4  L 4,3  Z  " style="fill:rgb(0, 0, 0); fill-opacity:0.067; stroke:none;" />
 <path d="  M 4,5  L 4,4  L 3,4  L 3,5  Z  " style="fill:rgb(31, 23, 0); fill-opacity:0.635; stroke:none;" />
 <path d="  M 3,6  L 4,6  L 4,5  L 3,5  Z  " style="fill:rgb(182, 133, 3); fill-opacity:1.000; stroke:none;" />
 <path d="  M 26,29  L 26,28  L 25,28  L 25,29  Z  " style="fill:rgb(182, 133, 3); fill-opacity:1.000; stroke:none;" />
 <path d="  M 3,7  L 4,7  L 4,6  L 3,6  Z  " style="fill:rgb(255, 187, 4); fill-opacity:1.000; stroke:none;" />
 <path d="  M 4,9  L 3,9  L 3,11  L 4,11  Z  " style="fill:rgb(255, 187, 4); fill-opacity:1.000; stroke:none;" />
 <path d="  M 3,15  L 3,16  L 4,16  L 4,15  Z  " style="fill:rgb(255, 187, 4); fill-opacity:1.000; stroke:none;" />
 <path d="  M 3,27  L 4,27  L 4,26  L 3,26  Z  " style="fill:rgb(255, 187, 4); fill-opacity:1.000; stroke:none;" />
 <path d="  M 9,7  L 9,6  L 8,6  L 8,7  Z  " style="fill:rgb(255, 187, 4); fill-opacity:1.000; stroke:none;" />
 <path d="  M 11,7  L 11,8  L 14,8  L 14,7  Z  " style="fill:rgb(255, 187, 4); fill-opacity:1.000; stroke:none;" />
 <path d="  M 17,29  L 17,28  L 11,28  L 11,29  Z  " style="fill:rgb(255, 187, 4); fill-opacity:1.000; stroke:none;" />
 <path d="  M 17,9  L 17,10  L 19,10  L 19,9  Z  " style="fill:rgb(255, 187, 4); fill-opacity:1.000; stroke:none;" />
 <path d="  M 19,4  L 19,6  L 21,6  L 21,5  L 20,5  L 20,4  Z  " style="fill:rgb(255, 187, 4); fill-opacity:1.000; stroke:none;" />
 <path d="  M 21,10  L 21,9  L 20,9  L 20,10  Z  " style="fill:rgb(255, 187, 4); fill-opacity:1.000; stroke:none;" />
 <path d="  M 21,29  L 21,28  L 20,28  L 20,29  Z  " style="fill:rgb(255, 187, 4); fill-opacity:1.000; stroke:none;" />
 <path d="  M 22,3  L 22,2  L 21,2  L 21,3  Z  " style="fill:rgb(255, 187, 4); fill-opacity:1.000; stroke:none;" />
 <path d="  M 26,9  L 22,9  L 22,10  L 26,10  Z  " style="fill:rgb(255, 187, 4); fill-opacity:1.000; stroke:none;" />
 <path d="  M 23,28  L 24,28  L 24,27  L 23,27  Z  " style="fill:rgb(255, 187, 4); fill-opacity:1.000; stroke:none;" />
 <path d="  M 25,3  L 25,2  L 24,2  L 24,3  Z  " style="fill:rgb(255, 187, 4); fill-opacity:1.000; stroke:none;" />
 <path d="  M 25,6  L 25,5  L 24,5  L 24,6  Z  " style="fill:rgb(255, 187, 4); fill-opacity:1.000; stroke:none;" />
 <path d="  M 26,3  L 25,3  L 25,5  L 26,5  Z  " style="fill:rgb(255, 187, 4); fill-opacity:1.000; stroke:none;" />
 <path d="  M 27,27  L 27,26  L 26,26  L 26,27  Z  " style="fill:rgb(255, 187, 4); fill-opacity:1.000; stroke:none;" />
 <path d="  M 27,21  L 27,25  L 28,25  L 28,21  Z  " style="fill:rgb(255, 187, 4); fill-opacity:1.000; stroke:none;" />
 <path d="  M 29,11  L 30,11  L 30,10  L 29,10  Z  " style="fill:rgb(255, 187, 4); fill-opacity:1.000; stroke:none;" />
 <path d="  M 20,9  L 19,9  L 19,10  L 17,10  L 17,9  L 16,9  L 16,8  L 11,8  L 11,7  L 3,7  L 3,9  L 4,9  L 4,30  L 5,30  L 5,29  L 11,29  L 11,28  L 22,28  L 22,29  L 23,29  L 23,27  L 26,27  L 26,26  L 27,26  L 27,21  L 28,21  L 28,15  L 29,15  L 29,12  L 30,12  L 30,11  L 29,11  L 29,9  L 26,9  L 26,10  L 20,10  Z  " style="fill:rgb(255, 186, 4); fill-opacity:1.000; stroke:none;" />
 <path d="  M 22,2  L 22,3  L 19,3  L 19,4  L 20,4  L 20,5  L 23,5  L 23,6  L 24,6  L 24,5  L 25,5  L 25,3  L 24,3  L 24,2  Z  " style="fill:rgb(255, 186, 4); fill-opacity:1.000; stroke:none;" />
 <path d="  M 25,2  L 25,3  L 26,3  L 26,2  Z  " style="fill:rgb(255, 186, 4); fill-opacity:1.000; stroke:none;" />
 <path d="  M 4,11  L 3,11  L 3,15  L 4,15  Z  " style="fill:rgb(255, 188, 4); fill-opacity:1.000; stroke:none;" />
 <path d="  M 3,17  L 4,17  L 4,16  L 3,16  Z  " style="fill:rgb(255, 188, 4); fill-opacity:1.000; stroke:none;" />
 <path d="  M 4,19  L 3,19  L 3,24  L 4,24  Z  " style="fill:rgb(255, 188, 4); fill-opacity:1.000; stroke:none;" />
 <path d="  M 4,25  L 3,25  L 3,26  L 4,26  Z  " style="fill:rgb(255, 188, 4); fill-opacity:1.000; stroke:none;" />
 <path d="  M 4,29  L 4,27  L 3,27  L 3,29  Z  " style="fill:rgb(255, 188, 4); fill-opacity:1.000; stroke:none;" />
 <path d="  M 6,7  L 6,6  L 4,6  L 4,7  Z  " style="fill:rgb(255, 188, 4); fill-opacity:1.000; stroke:none;" />
 <path d="  M 6,30  L 7,30  L 7,29  L 6,29  Z  " style="fill:rgb(255, 188, 4); fill-opacity:1.000; stroke:none;" />
 <path d="  M 7,7  L 8,7  L 8,6  L 7,6  Z  " style="fill:rgb(255, 188, 4); fill-opacity:1.000; stroke:none;" />
 <path d="  M 10,7  L 10,6  L 9,6  L 9,7  Z  " style="fill:rgb(255, 188, 4); fill-opacity:1.000; stroke:none;" />
 <path d="  M 20,29  L 20,28  L 17,28  L 17,29  Z  " style="fill:rgb(255, 188, 4); fill-opacity:1.000; stroke:none;" />
 <path d="  M 20,2  L 20,3  L 21,3  L 21,2  Z  " style="fill:rgb(255, 188, 4); fill-opacity:1.000; stroke:none;" />
 <path d="  M 23,6  L 23,5  L 21,5  L 21,6  Z  " style="fill:rgb(255, 188, 4); fill-opacity:1.000; stroke:none;" />
 <path d="  M 21,9  L 21,10  L 22,10  L 22,9  Z  " style="fill:rgb(255, 188, 4); fill-opacity:1.000; stroke:none;" />
 <path d="  M 21,28  L 21,29  L 22,29  L 22,28  Z  " style="fill:rgb(255, 188, 4); fill-opacity:1.000; stroke:none;" />
 <path d="  M 26,28  L 26,27  L 24,27  L 24,28  Z  " style="fill:rgb(255, 188, 4); fill-opacity:1.000; stroke:none;" />
 <path d="  M 28,8  L 26,8  L 26,9  L 28,9  Z  " style="fill:rgb(255, 188, 4); fill-opacity:1.000; stroke:none;" />
 <path d="  M 27,26  L 28,26  L 28,25  L 27,25  Z  " style="fill:rgb(255, 188, 4); fill-opacity:1.000; stroke:none;" />
 <path d="  M 29,15  L 28,15  L 28,19  L 29,19  Z  " style="fill:rgb(255, 188, 4); fill-opacity:1.000; stroke:none;" />
 <path d="  M 29,21  L 29,20  L 28,20  L 28,21  Z  " style="fill:rgb(255, 188, 4); fill-opacity:1.000; stroke:none;" />
 <path d="  M 3,29  L 3,30  L 4,30  L 4,29  Z  " style="fill:rgb(237, 173, 4); fill-opacity:1.000; stroke:none;" />
 <path d="  M 4,30  L 3,30  L 3,31  L 4,31  Z  " style="fill:rgb(81, 59, 1); fill-opacity:0.937; stroke:none;" />
 <path d="  M 3,32  L 4,32  L 4,31  L 3,31  Z  " style="fill:rgb(3, 3, 0); fill-opacity:0.369; stroke:none;" />
 <path d="  M 5,3  L 4,3  L 4,4  L 5,4  Z  " style="fill:rgb(0, 0, 0); fill-opacity:0.125; stroke:none;" />
 <path d="  M 21,31  L 21,32  L 22,32  L 22,31  Z  " style="fill:rgb(0, 0, 0); fill-opacity:0.125; stroke:none;" />
 <path d="  M 4,4  L 4,5  L 5,5  L 5,4  Z  " style="fill:rgb(17, 12, 0); fill-opacity:0.851; stroke:none;" />
 <path d="  M 4,5  L 4,6  L 5,6  L 5,5  Z  " style="fill:rgb(177, 130, 3); fill-opacity:1.000; stroke:none;" />
 <path d="  M 4,31  L 5,31  L 5,30  L 4,30  Z  " style="fill:rgb(124, 91, 2); fill-opacity:0.992; stroke:none;" />
 <path d="  M 5,32  L 5,31  L 4,31  L 4,32  Z  " style="fill:rgb(0, 0, 0); fill-opacity:0.749; stroke:none;" />
 <path d="  M 5,3  L 5,4  L 6,4  L 6,3  Z  " style="fill:rgb(0, 0, 0); fill-opacity:0.149; stroke:none;" />
 <path d="  M 31,21  L 32,21  L 32,20  L 31,20  Z  " style="fill:rgb(0, 0, 0); fill-opacity:0.149; stroke:none;" />
 <path d="  M 5,4  L 5,5  L 6,5  L 6,4  Z  " style="fill:rgb(19, 14, 0); fill-opacity:0.875; stroke:none;" />
 <path d="  M 5,5  L 5,6  L 6,6  L 6,5  Z  " style="fill:rgb(181, 132, 3); fill-opacity:1.000; stroke:none;" />
 <path d="  M 28,27  L 29,27  L 29,26  L 28,26  Z  " style="fill:rgb(181, 132, 3); fill-opacity:1.000; stroke:none;" />
 <path d="  M 5,29  L 5,30  L 6,30  L 6,29  Z  " style="fill:rgb(254, 185, 4); fill-opacity:1.000; stroke:none;" />
 <path d="  M 6,30  L 5,30  L 5,31  L 6,31  Z  " style="fill:rgb(118, 86, 2); fill-opacity:1.000; stroke:none;" />
 <path d="  M 11,5  L 10,5  L 10,6  L 11,6  Z  " style="fill:rgb(118, 86, 2); fill-opacity:1.000; stroke:none;" />
 <path d="  M 5,31  L 5,32  L 7,32  L 7,31  Z  " style="fill:rgb(0, 0, 0); fill-opacity:0.753; stroke:none;" />
 <path d="  M 6,4  L 7,4  L 7,3  L 6,3  Z  " style="fill:rgb(0, 0, 0); fill-opacity:0.145; stroke:none;" />
 <path d="  M 6,4  L 6,5  L 7,5  L 7,4  Z  " style="fill:rgb(7, 5, 0); fill-opacity:0.867; stroke:none;" />
 <path d="  M 7,6  L 7,5  L 6,5  L 6,6  Z  " style="fill:rgb(157, 115, 3); fill-opacity:1.000; stroke:none;" />
 <path d="  M 7,31  L 7,30  L 6,30  L 6,31  Z  " style="fill:rgb(133, 97, 2); fill-opacity:1.000; stroke:none;" />
 <path d="  M 7,5  L 8,5  L 8,4  L 7,4  Z  " style="fill:rgb(27, 20, 0); fill-opacity:0.910; stroke:none;" />
 <path d="  M 8,5  L 7,5  L 7,6  L 8,6  Z  " style="fill:rgb(191, 139, 3); fill-opacity:1.000; stroke:none;" />
 <path d="  M 7,30  L 7,31  L 8,31  L 8,30  Z  " style="fill:rgb(148, 108, 2); fill-opacity:0.992; stroke:none;" />
 <path d="  M 8,32  L 8,31  L 7,31  L 7,32  Z  " style="fill:rgb(2, 2, 0); fill-opacity:0.745; stroke:none;" />
 <path d="  M 8,3  L 8,4  L 9,4  L 9,3  Z  " style="fill:rgb(0, 0, 0); fill-opacity:0.196; stroke:none;" />
 <path d="  M 8,5  L 9,5  L 9,4  L 8,4  Z  " style="fill:rgb(63, 46, 1); fill-opacity:0.835; stroke:none;" />
 <path d="  M 8,5  L 8,6  L 9,6  L 9,5  Z  " style="fill:rgb(228, 166, 4); fill-opacity:1.000; stroke:none;" />
 <path d="  M 9,29  L 8,29  L 8,30  L 9,30  Z  " style="fill:rgb(250, 182, 4); fill-opacity:1.000; stroke:none;" />
 <path d="  M 9,30  L 8,30  L 8,31  L 9,31  Z  " style="fill:rgb(126, 92, 2); fill-opacity:0.980; stroke:none;" />
 <path d="  M 8,32  L 9,32  L 9,31  L 8,31  Z  " style="fill:rgb(7, 5, 0); fill-opacity:0.604; stroke:none;" />
 <path d="  M 9,4  L 10,4  L 10,3  L 9,3  Z  " style="fill:rgb(0, 0, 0); fill-opacity:0.298; stroke:none;" />
 <path d="  M 9,4  L 9,5  L 10,5  L 10,4  Z  " style="fill:rgb(12, 9, 0); fill-opacity:0.922; stroke:none;" />
 <path d="  M 9,6  L 10,6  L 10,5  L 9,5  Z  " style="fill:rgb(158, 115, 3); fill-opacity:1.000; stroke:none;" />
 <path d="  M 10,30  L 10,29  L 9,29  L 9,30  Z  " style="fill:rgb(252, 184, 4); fill-opacity:1.000; stroke:none;" />
 <path d="  M 10,30  L 9,30  L 9,31  L 10,31  Z  " style="fill:rgb(106, 77, 2); fill-opacity:1.000; stroke:none;" />
 <path d="  M 9,32  L 10,32  L 10,31  L 9,31  Z  " style="fill:rgb(0, 0, 0); fill-opacity:0.765; stroke:none;" />
 <path d="  M 11,3  L 10,3  L 10,4  L 11,4  Z  " style="fill:rgb(0, 0, 0); fill-opacity:0.286; stroke:none;" />
 <path d="  M 32,8  L 32,7  L 31,7  L 31,8  Z  " style="fill:rgb(0, 0, 0); fill-opacity:0.286; stroke:none;" />
 <path d="  M 11,5  L 11,4  L 10,4  L 10,5  Z  " style="fill:rgb(0, 0, 0); fill-opacity:0.937; stroke:none;" />
 <path d="  M 10,7  L 11,7  L 11,6  L 10,6  Z  " style="fill:rgb(253, 185, 4); fill-opacity:1.000; stroke:none;" />
 <path d="  M 24,1  L 23,1  L 23,2  L 24,2  Z  " style="fill:rgb(253, 185, 4); fill-opacity:1.000; stroke:none;" />
 <path d="  M 25,5  L 25,6  L 26,6  L 26,5  Z  " style="fill:rgb(253, 185, 4); fill-opacity:1.000; stroke:none;" />
 <path d="  M 11,29  L 10,29  L 10,30  L 11,30  Z  " style="fill:rgb(248, 181, 4); fill-opacity:1.000; stroke:none;" />
 <path d="  M 10,31  L 11,31  L 11,30  L 10,30  Z  " style="fill:rgb(95, 69, 1); fill-opacity:0.996; stroke:none;" />
 <path d="  M 10,31  L 10,32  L 11,32  L 11,31  Z  " style="fill:rgb(0, 0, 0); fill-opacity:0.639; stroke:none;" />
 <path d="  M 12,4  L 12,3  L 11,3  L 11,4  Z  " style="fill:rgb(3, 2, 0); fill-opacity:0.192; stroke:none;" />
 <path d="  M 11,4  L 11,5  L 12,5  L 12,4  Z  " style="fill:rgb(0, 0, 0); fill-opacity:0.894; stroke:none;" />
 <path d="  M 12,5  L 11,5  L 11,6  L 12,6  Z  " style="fill:rgb(85, 62, 1); fill-opacity:1.000; stroke:none;" />
 <path d="  M 12,6  L 11,6  L 11,7  L 12,7  Z  " style="fill:rgb(244, 178, 4); fill-opacity:1.000; stroke:none;" />
 <path d="  M 11,30  L 12,30  L 12,29  L 11,29  Z  " style="fill:rgb(240, 175, 4); fill-opacity:1.000; stroke:none;" />
 <path d="  M 20,2  L 21,2  L 21,1  L 20,1  Z  " style="fill:rgb(240, 175, 4); fill-opacity:1.000; stroke:none;" />
 <path d="  M 12,31  L 12,30  L 11,30  L 11,31  Z  " style="fill:rgb(70, 51, 1); fill-opacity:0.984; stroke:none;" />
 <path d="  M 11,32  L 12,32  L 12,31  L 11,31  Z  " style="fill:rgb(0, 0, 0); fill-opacity:0.494; stroke:none;" />
 <path d="  M 13,3  L 12,3  L 12,4  L 13,4  Z  " style="fill:rgb(47, 35, 0); fill-opacity:0.106; stroke:none;" />
 <path d="  M 13,4  L 12,4  L 12,5  L 13,5  Z  " style="fill:rgb(23, 17, 0); fill-opacity:0.831; stroke:none;" />
 <path d="  M 13,6  L 13,5  L 12,5  L 12,6  Z  " style="fill:rgb(78, 57, 1); fill-opacity:1.000; stroke:none;" />
 <path d="  M 13,6  L 12,6  L 12,7  L 13,7  Z  " style="fill:rgb(242, 177, 4); fill-opacity:1.000; stroke:none;" />
 <path d="  M 13,29  L 12,29  L 12,30  L 13,30  Z  " style="fill:rgb(239, 174, 4); fill-opacity:1.000; stroke:none;" />
 <path d="  M 17,8  L 17,9  L 18,9  L 18,8  Z  " style="fill:rgb(239, 174, 4); fill-opacity:1.000; stroke:none;" />
 <path d="  M 12,31  L 13,31  L 13,30  L 12,30  Z  " style="fill:rgb(68, 49, 1); fill-opacity:0.988; stroke:none;" />
 <path d="  M 12,32  L 13,32  L 13,31  L 12,31  Z  " style="fill:rgb(0, 0, 0); fill-opacity:0.525; stroke:none;" />
 <path d="  M 14,4  L 14,3  L 13,3  L 13,4  Z  " style="fill:rgb(100, 72, 2); fill-opacity:0.063; stroke:none;" />
 <path d="  M 13,4  L 13,5  L 14,5  L 14,4  Z  " style="fill:rgb(29, 22, 0); fill-opacity:0.749; stroke:none;" />
 <path d="  M 13,5  L 13,6  L 14,6  L 14,5  Z  " style="fill:rgb(55, 40, 1); fill-opacity:1.000; stroke:none;" />
 <path d="  M 23,7  L 22,7  L 22,8  L 23,8  Z  " style="fill:rgb(55, 40, 1); fill-opacity:1.000; stroke:none;" />
 <path d="  M 14,6  L 13,6  L 13,7  L 14,7  Z  " style="fill:rgb(234, 171, 4); fill-opacity:1.000; stroke:none;" />
 <path d="  M 14,31  L 14,30  L 13,30  L 13,31  Z  " style="fill:rgb(56, 41, 1); fill-opacity:0.961; stroke:none;" />
 <path d="  M 14,31  L 13,31  L 13,32  L 14,32  Z  " style="fill:rgb(0, 0, 0); fill-opacity:0.420; stroke:none;" />
 <path d="  M 14,4  L 15,4  L 15,3  L 14,3  Z  " style="fill:rgb(255, 255, 6); fill-opacity:0.016; stroke:none;" />
 <path d="  M 15,5  L 15,4  L 14,4  L 14,5  Z  " style="fill:rgb(105, 77, 2); fill-opacity:0.616; stroke:none;" />
 <path d="  M 14,6  L 15,6  L 15,5  L 14,5  Z  " style="fill:rgb(39, 29, 1); fill-opacity:1.000; stroke:none;" />
 <path d="  M 15,6  L 14,6  L 14,7  L 15,7  Z  " style="fill:rgb(177, 129, 3); fill-opacity:1.000; stroke:none;" />
 <path d="  M 29,18  L 29,19  L 30,19  L 30,18  Z  " style="fill:rgb(177, 129, 3); fill-opacity:1.000; stroke:none;" />
 <path d="  M 15,29  L 14,29  L 14,30  L 15,30  Z  " style="fill:rgb(229, 167, 4); fill-opacity:1.000; stroke:none;" />
 <path d="  M 24,1  L 24,2  L 25,2  L 25,1  Z  " style="fill:rgb(229, 167, 4); fill-opacity:1.000; stroke:none;" />
 <path d="  M 14,30  L 14,31  L 15,31  L 15,30  Z  " style="fill:rgb(48, 35, 1); fill-opacity:0.933; stroke:none;" />
 <path d="  M 15,32  L 15,31  L 14,31  L 14,32  Z  " style="fill:rgb(0, 0, 0); fill-opacity:0.329; stroke:none;" />
 <path d="  M 16,4  L 16,3  L 15,3  L 15,4  Z  " style="fill:rgb(122, 88, 0); fill-opacity:0.020; stroke:none;" />
 <path d="  M 16,5  L 16,4  L 15,4  L 15,5  Z  " style="fill:rgb(201, 146, 3); fill-opacity:0.592; stroke:none;" />
 <path d="  M 16,5  L 15,5  L 15,6  L 16,6  Z  " style="fill:rgb(71, 52, 1); fill-opacity:1.000; stroke:none;" />
 <path d="  M 15,7  L 16,7  L 16,6  L 15,6  Z  " style="fill:rgb(122, 89, 2); fill-opacity:1.000; stroke:none;" />
 <path d="  M 27,3  L 27,2  L 26,2  L 26,3  Z  " style="fill:rgb(122, 89, 2); fill-opacity:1.000; stroke:none;" />
 <path d="  M 15,7  L 15,8  L 16,8  L 16,7  Z  " style="fill:rgb(253, 184, 4); fill-opacity:1.000; stroke:none;" />
 <path d="  M 29,13  L 29,14  L 30,14  L 30,13  Z  " style="fill:rgb(253, 184, 4); fill-opacity:1.000; stroke:none;" />
 <path d="  M 16,30  L 16,29  L 15,29  L 15,30  Z  " style="fill:rgb(235, 171, 4); fill-opacity:1.000; stroke:none;" />
 <path d="  M 16,31  L 16,30  L 15,30  L 15,31  Z  " style="fill:rgb(62, 45, 1); fill-opacity:0.886; stroke:none;" />
 <path d="  M 16,32  L 16,31  L 15,31  L 15,32  Z  " style="fill:rgb(0, 0, 0); fill-opacity:0.322; stroke:none;" />
 <path d="  M 31,24  L 31,23  L 30,23  L 30,24  Z  " style="fill:rgb(0, 0, 0); fill-opacity:0.322; stroke:none;" />
 <path d="  M 17,3  L 16,3  L 16,4  L 17,4  Z  " style="fill:rgb(0, 0, 0); fill-opacity:0.227; stroke:none;" />
 <path d="  M 29,28  L 29,29  L 30,29  L 30,28  Z  " style="fill:rgb(0, 0, 0); fill-opacity:0.227; stroke:none;" />
 <path d="  M 16,4  L 16,5  L 17,5  L 17,4  Z  " style="fill:rgb(73, 53, 1); fill-opacity:0.831; stroke:none;" />
 <path d="  M 16,5  L 16,6  L 17,6  L 17,5  Z  " style="fill:rgb(145, 106, 2); fill-opacity:1.000; stroke:none;" />
 <path d="  M 16,6  L 16,7  L 17,7  L 17,6  Z  " style="fill:rgb(47, 34, 1); fill-opacity:1.000; stroke:none;" />
 <path d="  M 17,8  L 17,7  L 16,7  L 16,8  Z  " style="fill:rgb(194, 142, 3); fill-opacity:1.000; stroke:none;" />
 <path d="  M 17,31  L 17,30  L 16,30  L 16,31  Z  " style="fill:rgb(44, 32, 1); fill-opacity:0.937; stroke:none;" />
 <path d="  M 17,0  L 17,1  L 18,1  L 18,0  Z  " style="fill:rgb(0, 0, 0); fill-opacity:0.031; stroke:none;" />
 <path d="  M 18,2  L 18,1  L 17,1  L 17,2  Z  " style="fill:rgb(0, 0, 0); fill-opacity:0.165; stroke:none;" />
 <path d="  M 18,2  L 17,2  L 17,3  L 18,3  Z  " style="fill:rgb(10, 7, 0); fill-opacity:0.424; stroke:none;" />
 <path d="  M 17,3  L 17,4  L 18,4  L 18,3  Z  " style="fill:rgb(26, 19, 0); fill-opacity:0.737; stroke:none;" />
 <path d="  M 18,4  L 17,4  L 17,5  L 18,5  Z  " style="fill:rgb(91, 66, 1); fill-opacity:0.996; stroke:none;" />
 <path d="  M 17,6  L 18,6  L 18,5  L 17,5  Z  " style="fill:rgb(218, 159, 3); fill-opacity:1.000; stroke:none;" />
 <path d="  M 17,6  L 17,7  L 18,7  L 18,6  Z  " style="fill:rgb(110, 80, 2); fill-opacity:1.000; stroke:none;" />
 <path d="  M 17,8  L 18,8  L 18,7  L 17,7  Z  " style="fill:rgb(126, 92, 2); fill-opacity:1.000; stroke:none;" />
 <path d="  M 18,29  L 17,29  L 17,30  L 18,30  Z  " style="fill:rgb(207, 151, 3); fill-opacity:1.000; stroke:none;" />
 <path d="  M 17,31  L 18,31  L 18,30  L 17,30  Z  " style="fill:rgb(29, 21, 1); fill-opacity:0.957; stroke:none;" />
 <path d="  M 18,32  L 18,31  L 17,31  L 17,32  Z  " style="fill:rgb(0, 0, 0); fill-opacity:0.412; stroke:none;" />
 <path d="  M 31,8  L 31,9  L 32,9  L 32,8  Z  " style="fill:rgb(0, 0, 0); fill-opacity:0.412; stroke:none;" />
 <path d="  M 19,1  L 19,0  L 18,0  L 18,1  Z  " style="fill:rgb(0, 0, 0); fill-opacity:0.553; stroke:none;" />
 <path d="  M 18,2  L 19,2  L 19,1  L 18,1  Z  " style="fill:rgb(14, 10, 0); fill-opacity:0.863; stroke:none;" />
 <path d="  M 18,2  L 18,3  L 19,3  L 19,2  Z  " style="fill:rgb(85, 62, 1); fill-opacity:0.988; stroke:none;" />
 <path d="  M 18,5  L 19,5  L 19,4  L 18,4  Z  " style="fill:rgb(219, 160, 4); fill-opacity:1.000; stroke:none;" />
 <path d="  M 18,7  L 18,8  L 19,8  L 19,7  Z  " style="fill:rgb(57, 42, 1); fill-opacity:1.000; stroke:none;" />
 <path d="  M 19,8  L 18,8  L 18,9  L 19,9  Z  " style="fill:rgb(190, 138, 3); fill-opacity:1.000; stroke:none;" />
 <path d="  M 18,29  L 18,30  L 19,30  L 19,29  Z  " style="fill:rgb(179, 131, 3); fill-opacity:1.000; stroke:none;" />
 <path d="  M 21,8  L 20,8  L 20,9  L 21,9  Z  " style="fill:rgb(179, 131, 3); fill-opacity:1.000; stroke:none;" />
 <path d="  M 19,31  L 19,30  L 18,30  L 18,31  Z  " style="fill:rgb(23, 17, 0); fill-opacity:0.824; stroke:none;" />
 <path d="  M 20,0  L 19,0  L 19,1  L 20,1  Z  " style="fill:rgb(22, 16, 0); fill-opacity:0.929; stroke:none;" />
 <path d="  M 19,1  L 19,2  L 20,2  L 20,1  Z  " style="fill:rgb(144, 105, 2); fill-opacity:1.000; stroke:none;" />
 <path d="  M 20,3  L 20,2  L 19,2  L 19,3  Z  " style="fill:rgb(232, 169, 4); fill-opacity:1.000; stroke:none;" />
 <path d="  M 20,6  L 19,6  L 19,7  L 20,7  Z  " style="fill:rgb(232, 169, 4); fill-opacity:1.000; stroke:none;" />
 <path d="  M 25,8  L 24,8  L 24,9  L 25,9  Z  " style="fill:rgb(232, 169, 4); fill-opacity:1.000; stroke:none;" />
 <path d="  M 20,8  L 20,7  L 19,7  L 19,8  Z  " style="fill:rgb(69, 50, 1); fill-opacity:1.000; stroke:none;" />
 <path d="  M 19,8  L 19,9  L 20,9  L 20,8  Z  " style="fill:rgb(160, 117, 2); fill-opacity:1.000; stroke:none;" />
 <path d="  M 20,29  L 19,29  L 19,30  L 20,30  Z  " style="fill:rgb(152, 111, 2); fill-opacity:1.000; stroke:none;" />
 <path d="  M 19,30  L 19,31  L 20,31  L 20,30  Z  " style="fill:rgb(9, 7, 0); fill-opacity:0.757; stroke:none;" />
 <path d="  M 20,32  L 20,31  L 19,31  L 19,32  Z  " style="fill:rgb(0, 0, 0); fill-opacity:0.075; stroke:none;" />
 <path d="  M 20,1  L 21,1  L 21,0  L 20,0  Z  " style="fill:rgb(85, 62, 2); fill-opacity:0.953; stroke:none;" />
 <path d="  M 21,7  L 20,7  L 20,8  L 21,8  Z  " style="fill:rgb(73, 54, 1); fill-opacity:1.000; stroke:none;" />
 <path d="  M 21,29  L 20,29  L 20,30  L 21,30  Z  " style="fill:rgb(153, 112, 2); fill-opacity:1.000; stroke:none;" />
 <path d="  M 21,30  L 20,30  L 20,31  L 21,31  Z  " style="fill:rgb(13, 10, 0); fill-opacity:0.718; stroke:none;" />
 <path d="  M 21,32  L 21,31  L 20,31  L 20,32  Z  " style="fill:rgb(0, 0, 0); fill-opacity:0.063; stroke:none;" />
 <path d="  M 28,2  L 28,3  L 29,3  L 29,2  Z  " style="fill:rgb(0, 0, 0); fill-opacity:0.063; stroke:none;" />
 <path d="  M 21,1  L 22,1  L 22,0  L 21,0  Z  " style="fill:rgb(98, 72, 2); fill-opacity:0.976; stroke:none;" />
 <path d="  M 22,2  L 22,1  L 21,1  L 21,2  Z  " style="fill:rgb(243, 177, 4); fill-opacity:1.000; stroke:none;" />
 <path d="  M 22,6  L 21,6  L 21,7  L 22,7  Z  " style="fill:rgb(201, 146, 3); fill-opacity:1.000; stroke:none;" />
 <path d="  M 21,8  L 22,8  L 22,7  L 21,7  Z  " style="fill:rgb(60, 43, 1); fill-opacity:1.000; stroke:none;" />
 <path d="  M 21,9  L 22,9  L 22,8  L 21,8  Z  " style="fill:rgb(210, 153, 3); fill-opacity:1.000; stroke:none;" />
 <path d="  M 22,30  L 22,29  L 21,29  L 21,30  Z  " style="fill:rgb(176, 128, 3); fill-opacity:1.000; stroke:none;" />
 <path d="  M 29,21  L 30,21  L 30,20  L 29,20  Z  " style="fill:rgb(176, 128, 3); fill-opacity:1.000; stroke:none;" />
 <path d="  M 21,31  L 22,31  L 22,30  L 21,30  Z  " style="fill:rgb(22, 16, 0); fill-opacity:0.784; stroke:none;" />
 <path d="  M 22,0  L 22,1  L 23,1  L 23,0  Z  " style="fill:rgb(125, 91, 2); fill-opacity:0.992; stroke:none;" />
 <path d="  M 23,7  L 23,6  L 22,6  L 22,7  Z  " style="fill:rgb(167, 121, 2); fill-opacity:1.000; stroke:none;" />
 <path d="  M 23,30  L 23,29  L 22,29  L 22,30  Z  " style="fill:rgb(125, 91, 2); fill-opacity:1.000; stroke:none;" />
 <path d="  M 23,30  L 22,30  L 22,31  L 23,31  Z  " style="fill:rgb(0, 0, 0); fill-opacity:0.718; stroke:none;" />
 <path d="  M 31,13  L 32,13  L 32,12  L 31,12  Z  " style="fill:rgb(0, 0, 0); fill-opacity:0.718; stroke:none;" />
 <path d="  M 23,1  L 24,1  L 24,0  L 23,0  Z  " style="fill:rgb(141, 103, 2); fill-opacity:0.984; stroke:none;" />
 <path d="  M 23,7  L 24,7  L 24,6  L 23,6  Z  " style="fill:rgb(146, 107, 2); fill-opacity:1.000; stroke:none;" />
 <path d="  M 23,8  L 24,8  L 24,7  L 23,7  Z  " style="fill:rgb(75, 55, 1); fill-opacity:1.000; stroke:none;" />
 <path d="  M 24,8  L 23,8  L 23,9  L 24,9  Z  " style="fill:rgb(238, 174, 4); fill-opacity:1.000; stroke:none;" />
 <path d="  M 26,8  L 25,8  L 25,9  L 26,9  Z  " style="fill:rgb(238, 174, 4); fill-opacity:1.000; stroke:none;" />
 <path d="  M 23,29  L 23,30  L 24,30  L 24,29  Z  " style="fill:rgb(65, 48, 1); fill-opacity:0.976; stroke:none;" />
 <path d="  M 23,31  L 24,31  L 24,30  L 23,30  Z  " style="fill:rgb(5, 4, 0); fill-opacity:0.384; stroke:none;" />
 <path d="  M 24,1  L 25,1  L 25,0  L 24,0  Z  " style="fill:rgb(64, 46, 1); fill-opacity:0.996; stroke:none;" />
 <path d="  M 25,6  L 24,6  L 24,7  L 25,7  Z  " style="fill:rgb(163, 119, 3); fill-opacity:1.000; stroke:none;" />
 <path d="  M 25,8  L 25,7  L 24,7  L 24,8  Z  " style="fill:rgb(81, 59, 1); fill-opacity:1.000; stroke:none;" />
 <path d="  M 24,30  L 25,30  L 25,29  L 24,29  Z  " style="fill:rgb(32, 23, 0); fill-opacity:0.922; stroke:none;" />
 <path d="  M 25,31  L 25,30  L 24,30  L 24,31  Z  " style="fill:rgb(0, 0, 0); fill-opacity:0.255; stroke:none;" />
 <path d="  M 26,1  L 26,0  L 25,0  L 25,1  Z  " style="fill:rgb(29, 21, 0); fill-opacity:0.929; stroke:none;" />
 <path d="  M 25,1  L 25,2  L 26,2  L 26,1  Z  " style="fill:rgb(195, 142, 3); fill-opacity:1.000; stroke:none;" />
 <path d="  M 26,6  L 25,6  L 25,7  L 26,7  Z  " style="fill:rgb(113, 83, 2); fill-opacity:1.000; stroke:none;" />
 <path d="  M 26,7  L 25,7  L 25,8  L 26,8  Z  " style="fill:rgb(70, 51, 1); fill-opacity:1.000; stroke:none;" />
 <path d="  M 26,6  L 26,7  L 27,7  L 27,6  Z  " style="fill:rgb(70, 51, 1); fill-opacity:1.000; stroke:none;" />
 <path d="  M 26,29  L 25,29  L 25,30  L 26,30  Z  " style="fill:rgb(42, 31, 1); fill-opacity:0.796; stroke:none;" />
 <path d="  M 26,30  L 25,30  L 25,31  L 26,31  Z  " style="fill:rgb(0, 0, 0); fill-opacity:0.098; stroke:none;" />
 <path d="  M 26,1  L 27,1  L 27,0  L 26,0  Z  " style="fill:rgb(3, 2, 0); fill-opacity:0.612; stroke:none;" />
 <path d="  M 27,1  L 26,1  L 26,2  L 27,2  Z  " style="fill:rgb(66, 48, 1); fill-opacity:0.910; stroke:none;" />
 <path d="  M 27,5  L 27,4  L 26,4  L 26,5  Z  " style="fill:rgb(242, 176, 4); fill-opacity:1.000; stroke:none;" />
 <path d="  M 27,5  L 26,5  L 26,6  L 27,6  Z  " style="fill:rgb(217, 158, 3); fill-opacity:1.000; stroke:none;" />
 <path d="  M 29,23  L 29,22  L 28,22  L 28,23  Z  " style="fill:rgb(217, 158, 3); fill-opacity:1.000; stroke:none;" />
 <path d="  M 27,7  L 26,7  L 26,8  L 27,8  Z  " style="fill:rgb(150, 110, 2); fill-opacity:1.000; stroke:none;" />
 <path d="  M 26,28  L 27,28  L 27,27  L 26,27  Z  " style="fill:rgb(246, 180, 4); fill-opacity:1.000; stroke:none;" />
 <path d="  M 26,29  L 27,29  L 27,28  L 26,28  Z  " style="fill:rgb(96, 70, 2); fill-opacity:1.000; stroke:none;" />
 <path d="  M 27,29  L 26,29  L 26,30  L 27,30  Z  " style="fill:rgb(0, 0, 0); fill-opacity:0.655; stroke:none;" />
 <path d="  M 26,31  L 27,31  L 27,30  L 26,30  Z  " style="fill:rgb(0, 0, 0); fill-opacity:0.035; stroke:none;" />
 <path d="  M 27,2  L 28,2  L 28,1  L 27,1  Z  " style="fill:rgb(0, 0, 0); fill-opacity:0.325; stroke:none;" />
 <path d="  M 28,3  L 28,2  L 27,2  L 27,3  Z  " style="fill:rgb(1, 1, 0); fill-opacity:0.737; stroke:none;" />
 <path d="  M 28,4  L 28,3  L 27,3  L 27,4  Z  " style="fill:rgb(45, 33, 1); fill-opacity:0.929; stroke:none;" />
 <path d="  M 28,5  L 28,4  L 27,4  L 27,5  Z  " style="fill:rgb(78, 56, 1); fill-opacity:0.965; stroke:none;" />
 <path d="  M 28,5  L 27,5  L 27,6  L 28,6  Z  " style="fill:rgb(45, 33, 1); fill-opacity:0.980; stroke:none;" />
 <path d="  M 27,7  L 28,7  L 28,6  L 27,6  Z  " style="fill:rgb(37, 27, 1); fill-opacity:1.000; stroke:none;" />
 <path d="  M 27,7  L 27,8  L 28,8  L 28,7  Z  " style="fill:rgb(215, 157, 3); fill-opacity:1.000; stroke:none;" />
 <path d="  M 27,27  L 27,28  L 28,28  L 28,27  Z  " style="fill:rgb(225, 164, 4); fill-opacity:1.000; stroke:none;" />
 <path d="  M 27,29  L 28,29  L 28,28  L 27,28  Z  " style="fill:rgb(48, 35, 1); fill-opacity:0.980; stroke:none;" />
 <path d="  M 27,29  L 27,30  L 28,30  L 28,29  Z  " style="fill:rgb(0, 0, 0); fill-opacity:0.443; stroke:none;" />
 <path d="  M 28,5  L 29,5  L 29,4  L 28,4  Z  " style="fill:rgb(0, 0, 0); fill-opacity:0.392; stroke:none;" />
 <path d="  M 29,5  L 28,5  L 28,6  L 29,6  Z  " style="fill:rgb(0, 0, 0); fill-opacity:0.529; stroke:none;" />
 <path d="  M 28,7  L 29,7  L 29,6  L 28,6  Z  " style="fill:rgb(27, 19, 0); fill-opacity:0.961; stroke:none;" />
 <path d="  M 28,8  L 29,8  L 29,7  L 28,7  Z  " style="fill:rgb(209, 152, 3); fill-opacity:1.000; stroke:none;" />
 <path d="  M 29,26  L 29,25  L 28,25  L 28,26  Z  " style="fill:rgb(178, 130, 3); fill-opacity:1.000; stroke:none;" />
 <path d="  M 29,28  L 29,27  L 28,27  L 28,28  Z  " style="fill:rgb(93, 68, 2); fill-opacity:1.000; stroke:none;" />
 <path d="  M 28,28  L 28,29  L 29,29  L 29,28  Z  " style="fill:rgb(34, 25, 0); fill-opacity:0.627; stroke:none;" />
 <path d="  M 28,29  L 28,30  L 29,30  L 29,29  Z  " style="fill:rgb(0, 0, 0); fill-opacity:0.071; stroke:none;" />
 <path d="  M 30,27  L 30,28  L 31,28  L 31,27  Z  " style="fill:rgb(0, 0, 0); fill-opacity:0.071; stroke:none;" />
 <path d="  M 29,5  L 29,6  L 30,6  L 30,5  Z  " style="fill:rgb(0, 0, 0); fill-opacity:0.110; stroke:none;" />
 <path d="  M 30,6  L 29,6  L 29,7  L 30,7  Z  " style="fill:rgb(6, 5, 0); fill-opacity:0.820; stroke:none;" />
 <path d="  M 29,8  L 30,8  L 30,7  L 29,7  Z  " style="fill:rgb(102, 74, 2); fill-opacity:1.000; stroke:none;" />
 <path d="  M 29,8  L 29,9  L 30,9  L 30,8  Z  " style="fill:rgb(233, 170, 4); fill-opacity:1.000; stroke:none;" />
 <path d="  M 30,15  L 30,14  L 29,14  L 29,15  Z  " style="fill:rgb(247, 180, 4); fill-opacity:1.000; stroke:none;" />
 <path d="  M 30,15  L 29,15  L 29,16  L 30,16  Z  " style="fill:rgb(208, 152, 3); fill-opacity:1.000; stroke:none;" />
 <path d="  M 30,16  L 29,16  L 29,17  L 30,17  Z  " style="fill:rgb(197, 144, 3); fill-opacity:1.000; stroke:none;" />
 <path d="  M 29,18  L 30,18  L 30,17  L 29,17  Z  " style="fill:rgb(186, 136, 3); fill-opacity:1.000; stroke:none;" />
 <path d="  M 29,21  L 29,22  L 30,22  L 30,21  Z  " style="fill:rgb(111, 81, 2); fill-opacity:0.996; stroke:none;" />
 <path d="  M 29,22  L 29,23  L 30,23  L 30,22  Z  " style="fill:rgb(42, 30, 1); fill-opacity:0.961; stroke:none;" />
 <path d="  M 29,23  L 29,24  L 30,24  L 30,23  Z  " style="fill:rgb(59, 43, 1); fill-opacity:0.945; stroke:none;" />
 <path d="  M 29,25  L 30,25  L 30,24  L 29,24  Z  " style="fill:rgb(54, 39, 1); fill-opacity:0.965; stroke:none;" />
 <path d="  M 29,25  L 29,26  L 30,26  L 30,25  Z  " style="fill:rgb(17, 12, 0); fill-opacity:0.925; stroke:none;" />
 <path d="  M 30,26  L 29,26  L 29,27  L 30,27  Z  " style="fill:rgb(22, 16, 0); fill-opacity:0.776; stroke:none;" />
 <path d="  M 29,28  L 30,28  L 30,27  L 29,27  Z  " style="fill:rgb(1, 1, 0); fill-opacity:0.725; stroke:none;" />
 <path d="  M 31,6  L 31,5  L 30,5  L 30,6  Z  " style="fill:rgb(0, 0, 0); fill-opacity:0.004; stroke:none;" />
 <path d="  M 30,6  L 30,7  L 31,7  L 31,6  Z  " style="fill:rgb(0, 0, 0); fill-opacity:0.314; stroke:none;" />
 <path d="  M 30,7  L 30,8  L 31,8  L 31,7  Z  " style="fill:rgb(10, 7, 0); fill-opacity:0.859; stroke:none;" />
 <path d="  M 31,8  L 30,8  L 30,9  L 31,9  Z  " style="fill:rgb(81, 59, 1); fill-opacity:0.961; stroke:none;" />
 <path d="  M 31,9  L 30,9  L 30,10  L 31,10  Z  " style="fill:rgb(123, 90, 2); fill-opacity:1.000; stroke:none;" />
 <path d="  M 30,11  L 30,12  L 31,12  L 31,11  Z  " style="fill:rgb(127, 93, 2); fill-opacity:1.000; stroke:none;" />
 <path d="  M 31,14  L 31,13  L 30,13  L 30,14  Z  " style="fill:rgb(138, 101, 2); fill-opacity:0.988; stroke:none;" />
 <path d="  M 30,14  L 30,15  L 31,15  L 31,14  Z  " style="fill:rgb(114, 84, 2); fill-opacity:0.992; stroke:none;" />
 <path d="  M 31,15  L 30,15  L 30,16  L 31,16  Z  " style="fill:rgb(35, 26, 0); fill-opacity:0.929; stroke:none;" />
 <path d="  M 31,16  L 30,16  L 30,17  L 31,17  Z  " style="fill:rgb(30, 22, 0); fill-opacity:0.871; stroke:none;" />
 <path d="  M 30,17  L 30,18  L 31,18  L 31,17  Z  " style="fill:rgb(24, 17, 0); fill-opacity:0.867; stroke:none;" />
 <path d="  M 31,19  L 31,18  L 30,18  L 30,19  Z  " style="fill:rgb(15, 11, 0); fill-opacity:0.867; stroke:none;" />
 <path d="  M 30,19  L 30,20  L 31,20  L 31,19  Z  " style="fill:rgb(13, 9, 0); fill-opacity:0.878; stroke:none;" />
 <path d="  M 30,21  L 31,21  L 31,20  L 30,20  Z  " style="fill:rgb(18, 13, 0); fill-opacity:0.824; stroke:none;" />
 <path d="  M 30,22  L 31,22  L 31,21  L 30,21  Z  " style="fill:rgb(21, 15, 0); fill-opacity:0.502; stroke:none;" />
 <path d="  M 31,24  L 30,24  L 30,25  L 31,25  Z  " style="fill:rgb(0, 0, 0); fill-opacity:0.365; stroke:none;" />
 <path d="  M 31,26  L 31,25  L 30,25  L 30,26  Z  " style="fill:rgb(0, 0, 0); fill-opacity:0.267; stroke:none;" />
 <path d="  M 31,27  L 31,26  L 30,26  L 30,27  Z  " style="fill:rgb(0, 0, 0); fill-opacity:0.090; stroke:none;" />
 <path d="  M 32,7  L 32,6  L 31,6  L 31,7  Z  " style="fill:rgb(0, 0, 0); fill-opacity:0.012; stroke:none;" />
 <path d="  M 32,10  L 32,9  L 31,9  L 31,10  Z  " style="fill:rgb(8, 6, 0); fill-opacity:0.714; stroke:none;" />
 <path d="  M 31,11  L 32,11  L 32,10  L 31,10  Z  " style="fill:rgb(10, 7, 0); fill-opacity:0.937; stroke:none;" />
 <path d="  M 32,11  L 31,11  L 31,12  L 32,12  Z  " style="fill:rgb(6, 5, 0); fill-opacity:0.737; stroke:none;" />
 <path d="  M 31,14  L 32,14  L 32,13  L 31,13  Z  " style="fill:rgb(11, 8, 0); fill-opacity:0.624; stroke:none;" />
 <path d="  M 32,15  L 32,14  L 31,14  L 31,15  Z  " style="fill:rgb(3, 2, 0); fill-opacity:0.686; stroke:none;" />
 <path d="  M 31,17  L 32,17  L 32,16  L 31,16  Z  " style="fill:rgb(0, 0, 0); fill-opacity:0.157; stroke:none;" />
 <path d="  M 31,19  L 32,19  L 32,18  L 31,18  Z  " style="fill:rgb(0, 0, 0); fill-opacity:0.157; stroke:none;" />
 <path d="  M 31,18  L 32,18  L 32,17  L 31,17  Z  " style="fill:rgb(0, 0, 0); fill-opacity:0.137; stroke:none;" />
 <path d="  M 32,19  L 31,19  L 31,20  L 32,20  Z  " style="fill:rgb(0, 0, 0); fill-opacity:0.169; stroke:none;" />
 <path d="  M 32,21  L 31,21  L 31,22  L 32,22  Z  " style="fill:rgb(0, 0, 0); fill-opacity:0.016; stroke:none;" />
</svg>
