<?xml version="1.0" encoding="UTF-8" standalone="no"?>
<!DOCTYPE svg PUBLIC "-//W3C//DTD SVG 1.1//EN" 
  "http://www.w3.org/Graphics/SVG/1.1/DTD/svg11.dtd">
<svg width="32" height="32"
	 xmlns="http://www.w3.org/2000/svg" version="1.1">
 <path d="  M 6,22  L 6,21  L 5,21  L 5,22  Z  " style="fill:rgb(22, 90, 215); fill-opacity:0.133; stroke:none;" />
 <path d="  M 5,23  L 6,23  L 6,22  L 5,22  Z  " style="fill:rgb(23, 89, 215); fill-opacity:0.353; stroke:none;" />
 <path d="  M 5,24  L 6,24  L 6,23  L 5,23  Z  " style="fill:rgb(24, 90, 216); fill-opacity:0.322; stroke:none;" />
 <path d="  M 6,24  L 5,24  L 5,25  L 6,25  Z  " style="fill:rgb(25, 90, 216); fill-opacity:0.204; stroke:none;" />
 <path d="  M 6,25  L 5,25  L 5,26  L 6,26  Z  " style="fill:rgb(26, 92, 216); fill-opacity:0.035; stroke:none;" />
 <path d="  M 7,19  L 6,19  L 6,20  L 7,20  Z  " style="fill:rgb(21, 79, 207); fill-opacity:0.004; stroke:none;" />
 <path d="  M 6,21  L 7,21  L 7,20  L 6,20  Z  " style="fill:rgb(23, 90, 214); fill-opacity:0.200; stroke:none;" />
 <path d="  M 6,21  L 6,22  L 7,22  L 7,21  Z  " style="fill:rgb(23, 89, 215); fill-opacity:0.702; stroke:none;" />
 <path d="  M 6,23  L 7,23  L 7,22  L 6,22  Z  " style="fill:rgb(23, 89, 215); fill-opacity:0.949; stroke:none;" />
 <path d="  M 14,9  L 14,8  L 13,8  L 13,9  Z  " style="fill:rgb(23, 89, 215); fill-opacity:0.949; stroke:none;" />
 <path d="  M 27,7  L 26,7  L 26,8  L 27,8  Z  " style="fill:rgb(23, 89, 215); fill-opacity:0.949; stroke:none;" />
 <path d="  M 6,23  L 6,24  L 7,24  L 7,23  Z  " style="fill:rgb(24, 90, 215); fill-opacity:0.941; stroke:none;" />
 <path d="  M 7,24  L 6,24  L 6,25  L 7,25  Z  " style="fill:rgb(24, 89, 215); fill-opacity:0.863; stroke:none;" />
 <path d="  M 7,26  L 7,25  L 6,25  L 6,26  Z  " style="fill:rgb(23, 89, 215); fill-opacity:0.545; stroke:none;" />
 <path d="  M 7,26  L 6,26  L 6,27  L 7,27  Z  " style="fill:rgb(23, 90, 217); fill-opacity:0.075; stroke:none;" />
 <path d="  M 7,20  L 8,20  L 8,19  L 7,19  Z  " style="fill:rgb(22, 90, 214); fill-opacity:0.051; stroke:none;" />
 <path d="  M 8,20  L 7,20  L 7,21  L 8,21  Z  " style="fill:rgb(23, 90, 215); fill-opacity:0.620; stroke:none;" />
 <path d="  M 8,22  L 8,21  L 7,21  L 7,22  Z  " style="fill:rgb(23, 89, 215); fill-opacity:0.973; stroke:none;" />
 <path d="  M 7,22  L 7,23  L 8,23  L 8,22  Z  " style="fill:rgb(23, 90, 215); fill-opacity:1.000; stroke:none;" />
 <path d="  M 8,25  L 8,24  L 7,24  L 7,25  Z  " style="fill:rgb(23, 90, 215); fill-opacity:1.000; stroke:none;" />
 <path d="  M 9,24  L 9,23  L 8,23  L 8,24  Z  " style="fill:rgb(23, 90, 215); fill-opacity:1.000; stroke:none;" />
 <path d="  M 13,23  L 12,23  L 12,21  L 11,21  L 11,20  L 10,20  L 10,21  L 9,21  L 9,22  L 11,22  L 11,24  L 13,24  Z  " style="fill:rgb(23, 90, 215); fill-opacity:1.000; stroke:none;" />
 <path d="  M 11,25  L 10,25  L 10,27  L 11,27  Z  " style="fill:rgb(23, 90, 215); fill-opacity:1.000; stroke:none;" />
 <path d="  M 14,6  L 13,6  L 13,7  L 14,7  Z  " style="fill:rgb(23, 90, 215); fill-opacity:1.000; stroke:none;" />
 <path d="  M 13,12  L 14,12  L 14,11  L 13,11  Z  " style="fill:rgb(23, 90, 215); fill-opacity:1.000; stroke:none;" />
 <path d="  M 21,5  L 20,5  L 20,6  L 21,6  Z  " style="fill:rgb(23, 90, 215); fill-opacity:1.000; stroke:none;" />
 <path d="  M 25,23  L 24,23  L 24,20  L 23,20  L 23,21  L 22,21  L 22,23  L 23,23  L 23,24  L 25,24  Z  " style="fill:rgb(23, 90, 215); fill-opacity:1.000; stroke:none;" />
 <path d="  M 25,21  L 27,21  L 27,20  L 26,20  L 26,19  L 25,19  Z  " style="fill:rgb(23, 90, 215); fill-opacity:1.000; stroke:none;" />
 <path d="  M 26,25  L 26,24  L 25,24  L 25,25  Z  " style="fill:rgb(23, 90, 215); fill-opacity:1.000; stroke:none;" />
 <path d="  M 28,21  L 27,21  L 27,22  L 26,22  L 26,24  L 27,24  L 27,23  L 28,23  Z  " style="fill:rgb(23, 90, 215); fill-opacity:1.000; stroke:none;" />
 <path d="  M 7,24  L 8,24  L 8,23  L 7,23  Z  " style="fill:rgb(24, 90, 215); fill-opacity:1.000; stroke:none;" />
 <path d="  M 10,22  L 10,23  L 11,23  L 11,22  Z  " style="fill:rgb(24, 90, 215); fill-opacity:1.000; stroke:none;" />
 <path d="  M 22,24  L 23,24  L 23,23  L 22,23  Z  " style="fill:rgb(24, 90, 215); fill-opacity:1.000; stroke:none;" />
 <path d="  M 25,22  L 25,24  L 26,24  L 26,22  Z  " style="fill:rgb(24, 90, 215); fill-opacity:1.000; stroke:none;" />
 <path d="  M 7,26  L 8,26  L 8,25  L 7,25  Z  " style="fill:rgb(23, 90, 215); fill-opacity:0.937; stroke:none;" />
 <path d="  M 8,26  L 7,26  L 7,27  L 8,27  Z  " style="fill:rgb(23, 89, 215); fill-opacity:0.380; stroke:none;" />
 <path d="  M 7,28  L 8,28  L 8,27  L 7,27  Z  " style="fill:rgb(21, 90, 213); fill-opacity:0.016; stroke:none;" />
 <path d="  M 8,19  L 8,20  L 9,20  L 9,19  Z  " style="fill:rgb(23, 89, 214); fill-opacity:0.118; stroke:none;" />
 <path d="  M 9,20  L 8,20  L 8,21  L 9,21  Z  " style="fill:rgb(23, 90, 214); fill-opacity:0.808; stroke:none;" />
 <path d="  M 8,21  L 8,23  L 9,23  L 9,21  Z  " style="fill:rgb(23, 89, 215); fill-opacity:1.000; stroke:none;" />
 <path d="  M 8,24  L 8,25  L 9,25  L 9,24  Z  " style="fill:rgb(23, 89, 215); fill-opacity:1.000; stroke:none;" />
 <path d="  M 10,26  L 10,25  L 9,25  L 9,26  Z  " style="fill:rgb(23, 89, 215); fill-opacity:1.000; stroke:none;" />
 <path d="  M 11,26  L 12,26  L 12,24  L 11,24  Z  " style="fill:rgb(23, 89, 215); fill-opacity:1.000; stroke:none;" />
 <path d="  M 13,20  L 13,17  L 12,17  L 12,20  Z  " style="fill:rgb(23, 89, 215); fill-opacity:1.000; stroke:none;" />
 <path d="  M 13,21  L 12,21  L 12,22  L 13,22  Z  " style="fill:rgb(23, 89, 215); fill-opacity:1.000; stroke:none;" />
 <path d="  M 13,15  L 14,15  L 14,14  L 13,14  Z  " style="fill:rgb(23, 89, 215); fill-opacity:1.000; stroke:none;" />
 <path d="  M 20,5  L 18,5  L 18,6  L 20,6  Z  " style="fill:rgb(23, 89, 215); fill-opacity:1.000; stroke:none;" />
 <path d="  M 24,6  L 24,5  L 22,5  L 22,6  Z  " style="fill:rgb(23, 89, 215); fill-opacity:1.000; stroke:none;" />
 <path d="  M 25,25  L 25,24  L 22,24  L 22,25  Z  " style="fill:rgb(23, 89, 215); fill-opacity:1.000; stroke:none;" />
 <path d="  M 25,21  L 25,20  L 24,20  L 24,21  Z  " style="fill:rgb(23, 89, 215); fill-opacity:1.000; stroke:none;" />
 <path d="  M 25,23  L 25,22  L 24,22  L 24,23  Z  " style="fill:rgb(23, 89, 215); fill-opacity:1.000; stroke:none;" />
 <path d="  M 25,22  L 27,22  L 27,21  L 25,21  Z  " style="fill:rgb(23, 89, 215); fill-opacity:1.000; stroke:none;" />
 <path d="  M 26,8  L 26,9  L 27,9  L 27,8  Z  " style="fill:rgb(23, 89, 215); fill-opacity:1.000; stroke:none;" />
 <path d="  M 26,12  L 27,12  L 27,11  L 26,11  Z  " style="fill:rgb(23, 89, 215); fill-opacity:1.000; stroke:none;" />
 <path d="  M 26,19  L 27,19  L 27,17  L 26,17  Z  " style="fill:rgb(23, 89, 215); fill-opacity:1.000; stroke:none;" />
 <path d="  M 26,25  L 27,25  L 27,24  L 26,24  Z  " style="fill:rgb(23, 89, 215); fill-opacity:1.000; stroke:none;" />
 <path d="  M 8,25  L 8,26  L 9,26  L 9,25  Z  " style="fill:rgb(23, 90, 214); fill-opacity:0.996; stroke:none;" />
 <path d="  M 12,21  L 12,20  L 11,20  L 11,21  Z  " style="fill:rgb(23, 90, 214); fill-opacity:0.996; stroke:none;" />
 <path d="  M 8,27  L 9,27  L 9,26  L 8,26  Z  " style="fill:rgb(23, 90, 215); fill-opacity:0.769; stroke:none;" />
 <path d="  M 8,27  L 8,28  L 9,28  L 9,27  Z  " style="fill:rgb(22, 90, 215); fill-opacity:0.141; stroke:none;" />
 <path d="  M 9,19  L 9,20  L 10,20  L 10,19  Z  " style="fill:rgb(23, 90, 215); fill-opacity:0.263; stroke:none;" />
 <path d="  M 10,21  L 10,20  L 9,20  L 9,21  Z  " style="fill:rgb(23, 90, 215); fill-opacity:0.929; stroke:none;" />
 <path d="  M 9,23  L 10,23  L 10,22  L 9,22  Z  " style="fill:rgb(22, 89, 215); fill-opacity:0.996; stroke:none;" />
 <path d="  M 27,10  L 27,9  L 26,9  L 26,10  Z  " style="fill:rgb(22, 89, 215); fill-opacity:0.996; stroke:none;" />
 <path d="  M 10,23  L 9,23  L 9,24  L 10,24  Z  " style="fill:rgb(23, 90, 215); fill-opacity:0.976; stroke:none;" />
 <path d="  M 13,8  L 13,7  L 12,7  L 12,8  Z  " style="fill:rgb(23, 90, 215); fill-opacity:0.976; stroke:none;" />
 <path d="  M 25,20  L 25,19  L 24,19  L 24,20  Z  " style="fill:rgb(23, 90, 215); fill-opacity:0.976; stroke:none;" />
 <path d="  M 26,11  L 27,11  L 27,10  L 26,10  Z  " style="fill:rgb(23, 90, 215); fill-opacity:0.976; stroke:none;" />
 <path d="  M 9,24  L 9,25  L 11,25  L 11,24  Z  " style="fill:rgb(23, 90, 215); fill-opacity:0.996; stroke:none;" />
 <path d="  M 9,27  L 10,27  L 10,26  L 9,26  Z  " style="fill:rgb(23, 90, 215); fill-opacity:0.941; stroke:none;" />
 <path d="  M 10,27  L 9,27  L 9,28  L 10,28  Z  " style="fill:rgb(23, 90, 215); fill-opacity:0.376; stroke:none;" />
 <path d="  M 11,13  L 12,13  L 12,12  L 11,12  Z  " style="fill:rgb(23, 90, 215); fill-opacity:0.376; stroke:none;" />
 <path d="  M 9,29  L 10,29  L 10,28  L 9,28  Z  " style="fill:rgb(26, 107, 222); fill-opacity:0.008; stroke:none;" />
 <path d="  M 11,5  L 10,5  L 10,6  L 11,6  Z  " style="fill:rgb(21, 90, 217); fill-opacity:0.016; stroke:none;" />
 <path d="  M 10,7  L 11,7  L 11,6  L 10,6  Z  " style="fill:rgb(26, 92, 218); fill-opacity:0.043; stroke:none;" />
 <path d="  M 11,17  L 11,16  L 10,16  L 10,17  Z  " style="fill:rgb(31, 96, 211); fill-opacity:0.004; stroke:none;" />
 <path d="  M 10,17  L 10,18  L 11,18  L 11,17  Z  " style="fill:rgb(25, 89, 215); fill-opacity:0.031; stroke:none;" />
 <path d="  M 11,18  L 10,18  L 10,19  L 11,19  Z  " style="fill:rgb(29, 95, 217); fill-opacity:0.039; stroke:none;" />
 <path d="  M 11,20  L 11,19  L 10,19  L 10,20  Z  " style="fill:rgb(24, 90, 215); fill-opacity:0.537; stroke:none;" />
 <path d="  M 11,23  L 10,23  L 10,24  L 11,24  Z  " style="fill:rgb(24, 90, 215); fill-opacity:0.992; stroke:none;" />
 <path d="  M 10,27  L 10,28  L 11,28  L 11,27  Z  " style="fill:rgb(24, 90, 215); fill-opacity:0.569; stroke:none;" />
 <path d="  M 11,29  L 11,28  L 10,28  L 10,29  Z  " style="fill:rgb(29, 94, 217); fill-opacity:0.020; stroke:none;" />
 <path d="  M 11,4  L 11,5  L 12,5  L 12,4  Z  " style="fill:rgb(23, 89, 215); fill-opacity:0.086; stroke:none;" />
 <path d="  M 12,5  L 11,5  L 11,6  L 12,6  Z  " style="fill:rgb(22, 89, 215); fill-opacity:0.482; stroke:none;" />
 <path d="  M 12,6  L 11,6  L 11,7  L 12,7  Z  " style="fill:rgb(23, 89, 215); fill-opacity:0.604; stroke:none;" />
 <path d="  M 11,7  L 11,8  L 12,8  L 12,7  Z  " style="fill:rgb(24, 89, 215); fill-opacity:0.412; stroke:none;" />
 <path d="  M 12,9  L 12,8  L 11,8  L 11,9  Z  " style="fill:rgb(23, 90, 215); fill-opacity:0.443; stroke:none;" />
 <path d="  M 11,9  L 11,10  L 12,10  L 12,9  Z  " style="fill:rgb(23, 90, 215); fill-opacity:0.306; stroke:none;" />
 <path d="  M 12,10  L 11,10  L 11,11  L 12,11  Z  " style="fill:rgb(24, 90, 214); fill-opacity:0.149; stroke:none;" />
 <path d="  M 12,11  L 11,11  L 11,12  L 12,12  Z  " style="fill:rgb(23, 89, 215); fill-opacity:0.212; stroke:none;" />
 <path d="  M 12,13  L 11,13  L 11,14  L 12,14  Z  " style="fill:rgb(23, 90, 215); fill-opacity:0.373; stroke:none;" />
 <path d="  M 11,14  L 11,15  L 12,15  L 12,14  Z  " style="fill:rgb(22, 89, 214); fill-opacity:0.176; stroke:none;" />
 <path d="  M 12,16  L 12,15  L 11,15  L 11,16  Z  " style="fill:rgb(23, 90, 214); fill-opacity:0.271; stroke:none;" />
 <path d="  M 12,17  L 12,16  L 11,16  L 11,17  Z  " style="fill:rgb(24, 90, 215); fill-opacity:0.522; stroke:none;" />
 <path d="  M 12,17  L 11,17  L 11,18  L 12,18  Z  " style="fill:rgb(24, 90, 215); fill-opacity:0.608; stroke:none;" />
 <path d="  M 20,4  L 20,5  L 21,5  L 21,4  Z  " style="fill:rgb(24, 90, 215); fill-opacity:0.608; stroke:none;" />
 <path d="  M 12,18  L 11,18  L 11,19  L 12,19  Z  " style="fill:rgb(23, 90, 215); fill-opacity:0.616; stroke:none;" />
 <path d="  M 21,4  L 21,5  L 22,5  L 22,4  Z  " style="fill:rgb(23, 90, 215); fill-opacity:0.616; stroke:none;" />
 <path d="  M 12,19  L 11,19  L 11,20  L 12,20  Z  " style="fill:rgb(23, 90, 215); fill-opacity:0.863; stroke:none;" />
 <path d="  M 12,26  L 11,26  L 11,27  L 12,27  Z  " style="fill:rgb(24, 90, 215); fill-opacity:0.824; stroke:none;" />
 <path d="  M 11,27  L 11,28  L 12,28  L 12,27  Z  " style="fill:rgb(24, 90, 215); fill-opacity:0.259; stroke:none;" />
 <path d="  M 13,4  L 12,4  L 12,5  L 13,5  Z  " style="fill:rgb(23, 90, 215); fill-opacity:0.310; stroke:none;" />
 <path d="  M 13,6  L 13,5  L 12,5  L 12,6  Z  " style="fill:rgb(22, 89, 215); fill-opacity:0.918; stroke:none;" />
 <path d="  M 13,6  L 12,6  L 12,7  L 13,7  Z  " style="fill:rgb(23, 89, 215); fill-opacity:0.992; stroke:none;" />
 <path d="  M 16,6  L 16,7  L 17,7  L 17,6  Z  " style="fill:rgb(23, 89, 215); fill-opacity:0.992; stroke:none;" />
 <path d="  M 12,9  L 13,9  L 13,8  L 12,8  Z  " style="fill:rgb(23, 90, 215); fill-opacity:0.980; stroke:none;" />
 <path d="  M 15,7  L 16,7  L 16,6  L 15,6  Z  " style="fill:rgb(23, 90, 215); fill-opacity:0.980; stroke:none;" />
 <path d="  M 27,15  L 26,15  L 26,16  L 27,16  Z  " style="fill:rgb(23, 90, 215); fill-opacity:0.980; stroke:none;" />
 <path d="  M 13,9  L 12,9  L 12,10  L 13,10  Z  " style="fill:rgb(23, 89, 215); fill-opacity:0.875; stroke:none;" />
 <path d="  M 12,10  L 12,11  L 13,11  L 13,10  Z  " style="fill:rgb(23, 89, 215); fill-opacity:0.839; stroke:none;" />
 <path d="  M 13,11  L 12,11  L 12,12  L 13,12  Z  " style="fill:rgb(23, 89, 215); fill-opacity:0.894; stroke:none;" />
 <path d="  M 13,12  L 12,12  L 12,13  L 13,13  Z  " style="fill:rgb(23, 89, 215); fill-opacity:0.969; stroke:none;" />
 <path d="  M 13,10  L 14,10  L 14,9  L 13,9  Z  " style="fill:rgb(23, 89, 215); fill-opacity:0.969; stroke:none;" />
 <path d="  M 12,13  L 12,14  L 13,14  L 13,13  Z  " style="fill:rgb(23, 90, 215); fill-opacity:0.961; stroke:none;" />
 <path d="  M 13,15  L 13,14  L 12,14  L 12,15  Z  " style="fill:rgb(23, 89, 215); fill-opacity:0.831; stroke:none;" />
 <path d="  M 26,6  L 26,7  L 27,7  L 27,6  Z  " style="fill:rgb(23, 89, 215); fill-opacity:0.831; stroke:none;" />
 <path d="  M 26,13  L 26,14  L 27,14  L 27,13  Z  " style="fill:rgb(23, 89, 215); fill-opacity:0.831; stroke:none;" />
 <path d="  M 12,16  L 13,16  L 13,15  L 12,15  Z  " style="fill:rgb(23, 89, 215); fill-opacity:0.886; stroke:none;" />
 <path d="  M 23,7  L 24,7  L 24,6  L 23,6  Z  " style="fill:rgb(23, 89, 215); fill-opacity:0.886; stroke:none;" />
 <path d="  M 13,17  L 13,16  L 12,16  L 12,17  Z  " style="fill:rgb(22, 89, 215); fill-opacity:1.000; stroke:none;" />
 <path d="  M 12,21  L 13,21  L 13,20  L 12,20  Z  " style="fill:rgb(22, 89, 215); fill-opacity:1.000; stroke:none;" />
 <path d="  M 12,23  L 13,23  L 13,22  L 12,22  Z  " style="fill:rgb(22, 89, 215); fill-opacity:1.000; stroke:none;" />
 <path d="  M 13,10  L 13,11  L 14,11  L 14,10  Z  " style="fill:rgb(22, 89, 215); fill-opacity:1.000; stroke:none;" />
 <path d="  M 22,5  L 21,5  L 21,6  L 22,6  Z  " style="fill:rgb(22, 89, 215); fill-opacity:1.000; stroke:none;" />
 <path d="  M 24,21  L 24,22  L 25,22  L 25,21  Z  " style="fill:rgb(22, 89, 215); fill-opacity:1.000; stroke:none;" />
 <path d="  M 26,6  L 25,6  L 25,7  L 26,7  Z  " style="fill:rgb(22, 89, 215); fill-opacity:1.000; stroke:none;" />
 <path d="  M 27,19  L 26,19  L 26,20  L 27,20  Z  " style="fill:rgb(22, 89, 215); fill-opacity:1.000; stroke:none;" />
 <path d="  M 27,14  L 28,14  L 28,13  L 27,13  Z  " style="fill:rgb(22, 89, 215); fill-opacity:1.000; stroke:none;" />
 <path d="  M 13,25  L 13,24  L 12,24  L 12,25  Z  " style="fill:rgb(23, 90, 215); fill-opacity:0.922; stroke:none;" />
 <path d="  M 13,25  L 12,25  L 12,26  L 13,26  Z  " style="fill:rgb(23, 90, 215); fill-opacity:0.718; stroke:none;" />
 <path d="  M 12,27  L 13,27  L 13,26  L 12,26  Z  " style="fill:rgb(25, 92, 215); fill-opacity:0.220; stroke:none;" />
 <path d="  M 13,4  L 13,5  L 14,5  L 14,4  Z  " style="fill:rgb(23, 90, 214); fill-opacity:0.294; stroke:none;" />
 <path d="  M 13,5  L 13,6  L 14,6  L 14,5  Z  " style="fill:rgb(23, 89, 215); fill-opacity:0.937; stroke:none;" />
 <path d="  M 13,7  L 13,8  L 14,8  L 14,7  Z  " style="fill:rgb(24, 89, 215); fill-opacity:0.992; stroke:none;" />
 <path d="  M 13,12  L 13,13  L 14,13  L 14,12  Z  " style="fill:rgb(23, 89, 215); fill-opacity:0.996; stroke:none;" />
 <path d="  M 14,14  L 14,13  L 13,13  L 13,14  Z  " style="fill:rgb(23, 90, 215); fill-opacity:0.984; stroke:none;" />
 <path d="  M 15,6  L 14,6  L 14,7  L 15,7  Z  " style="fill:rgb(23, 90, 215); fill-opacity:0.984; stroke:none;" />
 <path d="  M 13,15  L 13,16  L 14,16  L 14,15  Z  " style="fill:rgb(23, 90, 215); fill-opacity:0.953; stroke:none;" />
 <path d="  M 28,12  L 27,12  L 27,13  L 28,13  Z  " style="fill:rgb(23, 90, 215); fill-opacity:0.953; stroke:none;" />
 <path d="  M 27,15  L 27,16  L 28,16  L 28,15  Z  " style="fill:rgb(23, 90, 215); fill-opacity:0.953; stroke:none;" />
 <path d="  M 14,16  L 13,16  L 13,17  L 14,17  Z  " style="fill:rgb(22, 89, 215); fill-opacity:0.914; stroke:none;" />
 <path d="  M 13,17  L 13,18  L 14,18  L 14,17  Z  " style="fill:rgb(23, 90, 215); fill-opacity:0.914; stroke:none;" />
 <path d="  M 14,18  L 13,18  L 13,19  L 14,19  Z  " style="fill:rgb(23, 90, 215); fill-opacity:0.820; stroke:none;" />
 <path d="  M 26,10  L 26,9  L 25,9  L 25,10  Z  " style="fill:rgb(23, 90, 215); fill-opacity:0.820; stroke:none;" />
 <path d="  M 13,19  L 13,20  L 14,20  L 14,19  Z  " style="fill:rgb(23, 90, 215); fill-opacity:0.835; stroke:none;" />
 <path d="  M 14,21  L 14,20  L 13,20  L 13,21  Z  " style="fill:rgb(22, 89, 215); fill-opacity:0.937; stroke:none;" />
 <path d="  M 13,22  L 14,22  L 14,21  L 13,21  Z  " style="fill:rgb(23, 90, 215); fill-opacity:0.831; stroke:none;" />
 <path d="  M 13,22  L 13,23  L 14,23  L 14,22  Z  " style="fill:rgb(23, 90, 215); fill-opacity:0.737; stroke:none;" />
 <path d="  M 14,23  L 13,23  L 13,24  L 14,24  Z  " style="fill:rgb(24, 90, 215); fill-opacity:0.592; stroke:none;" />
 <path d="  M 13,24  L 13,25  L 14,25  L 14,24  Z  " style="fill:rgb(23, 90, 214); fill-opacity:0.290; stroke:none;" />
 <path d="  M 14,26  L 14,25  L 13,25  L 13,26  Z  " style="fill:rgb(25, 92, 214); fill-opacity:0.075; stroke:none;" />
 <path d="  M 15,5  L 15,4  L 14,4  L 14,5  Z  " style="fill:rgb(22, 90, 215); fill-opacity:0.329; stroke:none;" />
 <path d="  M 14,6  L 15,6  L 15,5  L 14,5  Z  " style="fill:rgb(22, 89, 215); fill-opacity:0.957; stroke:none;" />
 <path d="  M 15,8  L 15,7  L 14,7  L 14,8  Z  " style="fill:rgb(25, 90, 215); fill-opacity:0.639; stroke:none;" />
 <path d="  M 14,9  L 15,9  L 15,8  L 14,8  Z  " style="fill:rgb(24, 90, 215); fill-opacity:0.341; stroke:none;" />
 <path d="  M 29,19  L 28,19  L 28,20  L 29,20  Z  " style="fill:rgb(24, 90, 215); fill-opacity:0.341; stroke:none;" />
 <path d="  M 14,10  L 15,10  L 15,9  L 14,9  Z  " style="fill:rgb(23, 90, 215); fill-opacity:0.486; stroke:none;" />
 <path d="  M 14,10  L 14,11  L 15,11  L 15,10  Z  " style="fill:rgb(23, 90, 215); fill-opacity:0.627; stroke:none;" />
 <path d="  M 26,12  L 26,11  L 25,11  L 25,12  Z  " style="fill:rgb(23, 90, 215); fill-opacity:0.627; stroke:none;" />
 <path d="  M 15,11  L 14,11  L 14,12  L 15,12  Z  " style="fill:rgb(24, 90, 215); fill-opacity:0.545; stroke:none;" />
 <path d="  M 15,13  L 15,12  L 14,12  L 14,13  Z  " style="fill:rgb(23, 90, 215); fill-opacity:0.471; stroke:none;" />
 <path d="  M 14,14  L 15,14  L 15,13  L 14,13  Z  " style="fill:rgb(23, 90, 215); fill-opacity:0.420; stroke:none;" />
 <path d="  M 15,14  L 14,14  L 14,15  L 15,15  Z  " style="fill:rgb(23, 90, 215); fill-opacity:0.549; stroke:none;" />
 <path d="  M 14,16  L 15,16  L 15,15  L 14,15  Z  " style="fill:rgb(23, 90, 216); fill-opacity:0.416; stroke:none;" />
 <path d="  M 14,16  L 14,17  L 15,17  L 15,16  Z  " style="fill:rgb(23, 89, 216); fill-opacity:0.282; stroke:none;" />
 <path d="  M 15,18  L 15,17  L 14,17  L 14,18  Z  " style="fill:rgb(24, 89, 215); fill-opacity:0.275; stroke:none;" />
 <path d="  M 15,18  L 14,18  L 14,19  L 15,19  Z  " style="fill:rgb(23, 90, 215); fill-opacity:0.098; stroke:none;" />
 <path d="  M 15,19  L 14,19  L 14,20  L 15,20  Z  " style="fill:rgb(24, 90, 216); fill-opacity:0.153; stroke:none;" />
 <path d="  M 15,20  L 14,20  L 14,21  L 15,21  Z  " style="fill:rgb(23, 89, 214); fill-opacity:0.298; stroke:none;" />
 <path d="  M 14,22  L 15,22  L 15,21  L 14,21  Z  " style="fill:rgb(24, 91, 215); fill-opacity:0.184; stroke:none;" />
 <path d="  M 15,23  L 15,22  L 14,22  L 14,23  Z  " style="fill:rgb(25, 92, 216); fill-opacity:0.059; stroke:none;" />
 <path d="  M 14,24  L 15,24  L 15,23  L 14,23  Z  " style="fill:rgb(26, 92, 215); fill-opacity:0.024; stroke:none;" />
 <path d="  M 16,5  L 16,4  L 15,4  L 15,5  Z  " style="fill:rgb(23, 90, 215); fill-opacity:0.290; stroke:none;" />
 <path d="  M 16,5  L 15,5  L 15,6  L 16,6  Z  " style="fill:rgb(22, 89, 215); fill-opacity:0.941; stroke:none;" />
 <path d="  M 15,7  L 15,8  L 16,8  L 16,7  Z  " style="fill:rgb(25, 91, 215); fill-opacity:0.404; stroke:none;" />
 <path d="  M 16,10  L 16,9  L 15,9  L 15,10  Z  " style="fill:rgb(20, 98, 213); fill-opacity:0.008; stroke:none;" />
 <path d="  M 15,11  L 16,11  L 16,10  L 15,10  Z  " style="fill:rgb(24, 93, 216); fill-opacity:0.027; stroke:none;" />
 <path d="  M 15,11  L 15,12  L 16,12  L 16,11  Z  " style="fill:rgb(27, 94, 215); fill-opacity:0.008; stroke:none;" />
 <path d="  M 15,14  L 15,15  L 16,15  L 16,14  Z  " style="fill:rgb(30, 94, 217); fill-opacity:0.016; stroke:none;" />
 <path d="  M 15,15  L 15,16  L 16,16  L 16,15  Z  " style="fill:rgb(42, 107, 220); fill-opacity:0.004; stroke:none;" />
 <path d="  M 16,4  L 16,5  L 17,5  L 17,4  Z  " style="fill:rgb(23, 89, 215); fill-opacity:0.286; stroke:none;" />
 <path d="  M 21,20  L 20,20  L 20,21  L 21,21  Z  " style="fill:rgb(23, 89, 215); fill-opacity:0.286; stroke:none;" />
 <path d="  M 16,5  L 16,6  L 17,6  L 17,5  Z  " style="fill:rgb(23, 90, 215); fill-opacity:0.925; stroke:none;" />
 <path d="  M 17,8  L 17,7  L 16,7  L 16,8  Z  " style="fill:rgb(24, 90, 215); fill-opacity:0.435; stroke:none;" />
 <path d="  M 18,4  L 17,4  L 17,5  L 18,5  Z  " style="fill:rgb(23, 90, 215); fill-opacity:0.333; stroke:none;" />
 <path d="  M 17,6  L 18,6  L 18,5  L 17,5  Z  " style="fill:rgb(23, 90, 215); fill-opacity:0.945; stroke:none;" />
 <path d="  M 17,6  L 17,7  L 18,7  L 18,6  Z  " style="fill:rgb(23, 89, 215); fill-opacity:0.980; stroke:none;" />
 <path d="  M 23,20  L 24,20  L 24,19  L 23,19  Z  " style="fill:rgb(23, 89, 215); fill-opacity:0.980; stroke:none;" />
 <path d="  M 25,6  L 25,5  L 24,5  L 24,6  Z  " style="fill:rgb(23, 89, 215); fill-opacity:0.980; stroke:none;" />
 <path d="  M 17,8  L 18,8  L 18,7  L 17,7  Z  " style="fill:rgb(23, 89, 214); fill-opacity:0.404; stroke:none;" />
 <path d="  M 19,4  L 19,3  L 18,3  L 18,4  Z  " style="fill:rgb(26, 96, 210); fill-opacity:0.008; stroke:none;" />
 <path d="  M 18,5  L 19,5  L 19,4  L 18,4  Z  " style="fill:rgb(23, 90, 215); fill-opacity:0.545; stroke:none;" />
 <path d="  M 19,6  L 18,6  L 18,7  L 19,7  Z  " style="fill:rgb(23, 90, 215); fill-opacity:0.878; stroke:none;" />
 <path d="  M 18,7  L 18,8  L 19,8  L 19,7  Z  " style="fill:rgb(23, 89, 214); fill-opacity:0.247; stroke:none;" />
 <path d="  M 19,4  L 20,4  L 20,3  L 19,3  Z  " style="fill:rgb(25, 90, 214); fill-opacity:0.027; stroke:none;" />
 <path d="  M 20,5  L 20,4  L 19,4  L 19,5  Z  " style="fill:rgb(24, 90, 215); fill-opacity:0.620; stroke:none;" />
 <path d="  M 20,6  L 19,6  L 19,7  L 20,7  Z  " style="fill:rgb(23, 90, 216); fill-opacity:0.796; stroke:none;" />
 <path d="  M 20,8  L 20,7  L 19,7  L 19,8  Z  " style="fill:rgb(23, 90, 215); fill-opacity:0.125; stroke:none;" />
 <path d="  M 19,21  L 19,22  L 20,22  L 20,21  Z  " style="fill:rgb(49, 94, 211); fill-opacity:0.004; stroke:none;" />
 <path d="  M 20,4  L 21,4  L 21,3  L 20,3  Z  " style="fill:rgb(26, 92, 218); fill-opacity:0.027; stroke:none;" />
 <path d="  M 21,7  L 21,6  L 20,6  L 20,7  Z  " style="fill:rgb(23, 90, 215); fill-opacity:0.784; stroke:none;" />
 <path d="  M 22,7  L 20,7  L 20,8  L 22,8  Z  " style="fill:rgb(23, 90, 216); fill-opacity:0.110; stroke:none;" />
 <path d="  M 21,20  L 21,19  L 20,19  L 20,20  Z  " style="fill:rgb(25, 95, 220); fill-opacity:0.008; stroke:none;" />
 <path d="  M 20,21  L 20,22  L 21,22  L 21,21  Z  " style="fill:rgb(23, 89, 215); fill-opacity:0.494; stroke:none;" />
 <path d="  M 21,22  L 20,22  L 20,23  L 21,23  Z  " style="fill:rgb(23, 90, 215); fill-opacity:0.455; stroke:none;" />
 <path d="  M 21,24  L 21,23  L 20,23  L 20,24  Z  " style="fill:rgb(24, 90, 215); fill-opacity:0.357; stroke:none;" />
 <path d="  M 20,24  L 20,25  L 21,25  L 21,24  Z  " style="fill:rgb(24, 89, 215); fill-opacity:0.165; stroke:none;" />
 <path d="  M 21,25  L 20,25  L 20,26  L 21,26  Z  " style="fill:rgb(24, 88, 215); fill-opacity:0.024; stroke:none;" />
 <path d="  M 22,3  L 21,3  L 21,4  L 22,4  Z  " style="fill:rgb(27, 93, 218); fill-opacity:0.031; stroke:none;" />
 <path d="  M 22,6  L 21,6  L 21,7  L 22,7  Z  " style="fill:rgb(23, 89, 215); fill-opacity:0.792; stroke:none;" />
 <path d="  M 22,19  L 22,18  L 21,18  L 21,19  Z  " style="fill:rgb(24, 90, 216); fill-opacity:0.086; stroke:none;" />
 <path d="  M 21,20  L 22,20  L 22,19  L 21,19  Z  " style="fill:rgb(23, 89, 215); fill-opacity:0.318; stroke:none;" />
 <path d="  M 21,20  L 21,21  L 22,21  L 22,20  Z  " style="fill:rgb(23, 89, 215); fill-opacity:0.816; stroke:none;" />
 <path d="  M 21,23  L 22,23  L 22,21  L 21,21  Z  " style="fill:rgb(23, 90, 215); fill-opacity:0.992; stroke:none;" />
 <path d="  M 23,20  L 22,20  L 22,21  L 23,21  Z  " style="fill:rgb(23, 90, 215); fill-opacity:0.992; stroke:none;" />
 <path d="  M 25,6  L 24,6  L 24,7  L 25,7  Z  " style="fill:rgb(23, 90, 215); fill-opacity:0.992; stroke:none;" />
 <path d="  M 22,23  L 21,23  L 21,24  L 22,24  Z  " style="fill:rgb(24, 90, 215); fill-opacity:0.961; stroke:none;" />
 <path d="  M 22,24  L 21,24  L 21,25  L 22,25  Z  " style="fill:rgb(23, 89, 215); fill-opacity:0.863; stroke:none;" />
 <path d="  M 26,8  L 25,8  L 25,9  L 26,9  Z  " style="fill:rgb(23, 89, 215); fill-opacity:0.863; stroke:none;" />
 <path d="  M 22,26  L 22,25  L 21,25  L 21,26  Z  " style="fill:rgb(23, 90, 215); fill-opacity:0.384; stroke:none;" />
 <path d="  M 22,27  L 22,26  L 21,26  L 21,27  Z  " style="fill:rgb(48, 126, 223); fill-opacity:0.004; stroke:none;" />
 <path d="  M 22,4  L 23,4  L 23,3  L 22,3  Z  " style="fill:rgb(27, 94, 218); fill-opacity:0.031; stroke:none;" />
 <path d="  M 22,5  L 23,5  L 23,4  L 22,4  Z  " style="fill:rgb(23, 90, 216); fill-opacity:0.612; stroke:none;" />
 <path d="  M 23,7  L 23,6  L 22,6  L 22,7  Z  " style="fill:rgb(23, 89, 215); fill-opacity:0.824; stroke:none;" />
 <path d="  M 23,7  L 22,7  L 22,8  L 23,8  Z  " style="fill:rgb(23, 90, 215); fill-opacity:0.157; stroke:none;" />
 <path d="  M 22,19  L 23,19  L 23,18  L 22,18  Z  " style="fill:rgb(23, 89, 215); fill-opacity:0.408; stroke:none;" />
 <path d="  M 22,19  L 22,20  L 23,20  L 23,19  Z  " style="fill:rgb(22, 89, 215); fill-opacity:0.906; stroke:none;" />
 <path d="  M 23,25  L 22,25  L 22,26  L 23,26  Z  " style="fill:rgb(24, 90, 215); fill-opacity:0.765; stroke:none;" />
 <path d="  M 23,27  L 23,26  L 22,26  L 22,27  Z  " style="fill:rgb(28, 93, 214); fill-opacity:0.082; stroke:none;" />
 <path d="  M 24,4  L 24,3  L 23,3  L 23,4  Z  " style="fill:rgb(26, 93, 215); fill-opacity:0.027; stroke:none;" />
 <path d="  M 23,4  L 23,5  L 24,5  L 24,4  Z  " style="fill:rgb(23, 90, 215); fill-opacity:0.604; stroke:none;" />
 <path d="  M 23,8  L 24,8  L 24,7  L 23,7  Z  " style="fill:rgb(23, 91, 214); fill-opacity:0.200; stroke:none;" />
 <path d="  M 24,19  L 24,18  L 23,18  L 23,19  Z  " style="fill:rgb(23, 90, 214); fill-opacity:0.404; stroke:none;" />
 <path d="  M 24,26  L 24,25  L 23,25  L 23,26  Z  " style="fill:rgb(23, 90, 215); fill-opacity:0.882; stroke:none;" />
 <path d="  M 23,26  L 23,27  L 24,27  L 24,26  Z  " style="fill:rgb(24, 92, 215); fill-opacity:0.192; stroke:none;" />
 <path d="  M 25,5  L 25,4  L 24,4  L 24,5  Z  " style="fill:rgb(24, 90, 215); fill-opacity:0.416; stroke:none;" />
 <path d="  M 25,8  L 25,7  L 24,7  L 24,8  Z  " style="fill:rgb(24, 91, 216); fill-opacity:0.490; stroke:none;" />
 <path d="  M 25,8  L 24,8  L 24,9  L 25,9  Z  " style="fill:rgb(23, 90, 215); fill-opacity:0.133; stroke:none;" />
 <path d="  M 25,10  L 25,9  L 24,9  L 24,10  Z  " style="fill:rgb(24, 89, 215); fill-opacity:0.153; stroke:none;" />
 <path d="  M 25,11  L 25,10  L 24,10  L 24,11  Z  " style="fill:rgb(24, 89, 214); fill-opacity:0.051; stroke:none;" />
 <path d="  M 25,12  L 25,11  L 24,11  L 24,12  Z  " style="fill:rgb(22, 91, 215); fill-opacity:0.031; stroke:none;" />
 <path d="  M 24,13  L 25,13  L 25,12  L 24,12  Z  " style="fill:rgb(33, 94, 217); fill-opacity:0.008; stroke:none;" />
 <path d="  M 25,16  L 24,16  L 24,17  L 25,17  Z  " style="fill:rgb(28, 94, 211); fill-opacity:0.004; stroke:none;" />
 <path d="  M 24,18  L 25,18  L 25,17  L 24,17  Z  " style="fill:rgb(26, 96, 217); fill-opacity:0.012; stroke:none;" />
 <path d="  M 24,18  L 24,19  L 25,19  L 25,18  Z  " style="fill:rgb(25, 91, 215); fill-opacity:0.408; stroke:none;" />
 <path d="  M 25,26  L 25,25  L 24,25  L 24,26  Z  " style="fill:rgb(23, 90, 215); fill-opacity:0.957; stroke:none;" />
 <path d="  M 28,17  L 28,16  L 27,16  L 27,17  Z  " style="fill:rgb(23, 90, 215); fill-opacity:0.957; stroke:none;" />
 <path d="  M 25,26  L 24,26  L 24,27  L 25,27  Z  " style="fill:rgb(23, 90, 215); fill-opacity:0.329; stroke:none;" />
 <path d="  M 26,5  L 26,4  L 25,4  L 25,5  Z  " style="fill:rgb(24, 89, 215); fill-opacity:0.231; stroke:none;" />
 <path d="  M 25,5  L 25,6  L 26,6  L 26,5  Z  " style="fill:rgb(23, 89, 215); fill-opacity:0.910; stroke:none;" />
 <path d="  M 26,7  L 25,7  L 25,8  L 26,8  Z  " style="fill:rgb(23, 90, 215); fill-opacity:0.890; stroke:none;" />
 <path d="  M 25,10  L 25,11  L 26,11  L 26,10  Z  " style="fill:rgb(23, 90, 215); fill-opacity:0.569; stroke:none;" />
 <path d="  M 25,12  L 25,13  L 26,13  L 26,12  Z  " style="fill:rgb(23, 90, 215); fill-opacity:0.510; stroke:none;" />
 <path d="  M 26,14  L 26,13  L 25,13  L 25,14  Z  " style="fill:rgb(24, 90, 215); fill-opacity:0.227; stroke:none;" />
 <path d="  M 25,15  L 26,15  L 26,14  L 25,14  Z  " style="fill:rgb(25, 90, 216); fill-opacity:0.231; stroke:none;" />
 <path d="  M 26,16  L 26,15  L 25,15  L 25,16  Z  " style="fill:rgb(24, 90, 215); fill-opacity:0.412; stroke:none;" />
 <path d="  M 25,17  L 26,17  L 26,16  L 25,16  Z  " style="fill:rgb(23, 90, 215); fill-opacity:0.467; stroke:none;" />
 <path d="  M 26,18  L 26,17  L 25,17  L 25,18  Z  " style="fill:rgb(23, 90, 215); fill-opacity:0.565; stroke:none;" />
 <path d="  M 27,7  L 27,8  L 28,8  L 28,7  Z  " style="fill:rgb(23, 90, 215); fill-opacity:0.565; stroke:none;" />
 <path d="  M 25,18  L 25,19  L 26,19  L 26,18  Z  " style="fill:rgb(24, 90, 215); fill-opacity:0.871; stroke:none;" />
 <path d="  M 25,25  L 25,26  L 26,26  L 26,25  Z  " style="fill:rgb(23, 89, 215); fill-opacity:0.976; stroke:none;" />
 <path d="  M 26,27  L 26,26  L 25,26  L 25,27  Z  " style="fill:rgb(23, 89, 215); fill-opacity:0.396; stroke:none;" />
 <path d="  M 27,5  L 27,4  L 26,4  L 26,5  Z  " style="fill:rgb(23, 89, 215); fill-opacity:0.129; stroke:none;" />
 <path d="  M 27,5  L 26,5  L 26,6  L 27,6  Z  " style="fill:rgb(22, 89, 215); fill-opacity:0.639; stroke:none;" />
 <path d="  M 27,12  L 26,12  L 26,13  L 27,13  Z  " style="fill:rgb(22, 89, 215); fill-opacity:0.988; stroke:none;" />
 <path d="  M 27,15  L 27,14  L 26,14  L 26,15  Z  " style="fill:rgb(23, 89, 215); fill-opacity:0.878; stroke:none;" />
 <path d="  M 26,17  L 27,17  L 27,16  L 26,16  Z  " style="fill:rgb(23, 89, 215); fill-opacity:0.988; stroke:none;" />
 <path d="  M 26,26  L 27,26  L 27,25  L 26,25  Z  " style="fill:rgb(23, 89, 215); fill-opacity:0.918; stroke:none;" />
 <path d="  M 27,12  L 28,12  L 28,11  L 27,11  Z  " style="fill:rgb(23, 89, 215); fill-opacity:0.918; stroke:none;" />
 <path d="  M 27,27  L 27,26  L 26,26  L 26,27  Z  " style="fill:rgb(23, 90, 214); fill-opacity:0.286; stroke:none;" />
 <path d="  M 28,5  L 28,4  L 27,4  L 27,5  Z  " style="fill:rgb(19, 84, 217); fill-opacity:0.004; stroke:none;" />
 <path d="  M 28,5  L 27,5  L 27,6  L 28,6  Z  " style="fill:rgb(22, 89, 217); fill-opacity:0.059; stroke:none;" />
 <path d="  M 27,7  L 28,7  L 28,6  L 27,6  Z  " style="fill:rgb(23, 90, 216); fill-opacity:0.184; stroke:none;" />
 <path d="  M 28,9  L 28,8  L 27,8  L 27,9  Z  " style="fill:rgb(23, 90, 215); fill-opacity:0.698; stroke:none;" />
 <path d="  M 28,9  L 27,9  L 27,10  L 28,10  Z  " style="fill:rgb(23, 90, 214); fill-opacity:0.588; stroke:none;" />
 <path d="  M 28,10  L 27,10  L 27,11  L 28,11  Z  " style="fill:rgb(23, 89, 215); fill-opacity:0.710; stroke:none;" />
 <path d="  M 27,15  L 28,15  L 28,14  L 27,14  Z  " style="fill:rgb(23, 90, 215); fill-opacity:0.988; stroke:none;" />
 <path d="  M 28,20  L 27,20  L 27,21  L 28,21  Z  " style="fill:rgb(23, 90, 215); fill-opacity:0.988; stroke:none;" />
 <path d="  M 28,17  L 27,17  L 27,18  L 28,18  Z  " style="fill:rgb(24, 90, 215); fill-opacity:0.902; stroke:none;" />
 <path d="  M 27,19  L 28,19  L 28,18  L 27,18  Z  " style="fill:rgb(23, 90, 215); fill-opacity:0.918; stroke:none;" />
 <path d="  M 28,20  L 28,19  L 27,19  L 27,20  Z  " style="fill:rgb(23, 90, 216); fill-opacity:0.961; stroke:none;" />
 <path d="  M 27,24  L 28,24  L 28,23  L 27,23  Z  " style="fill:rgb(23, 90, 215); fill-opacity:0.973; stroke:none;" />
 <path d="  M 28,25  L 28,24  L 27,24  L 27,25  Z  " style="fill:rgb(23, 90, 215); fill-opacity:0.847; stroke:none;" />
 <path d="  M 27,26  L 28,26  L 28,25  L 27,25  Z  " style="fill:rgb(23, 90, 215); fill-opacity:0.478; stroke:none;" />
 <path d="  M 27,27  L 28,27  L 28,26  L 27,26  Z  " style="fill:rgb(22, 89, 215); fill-opacity:0.082; stroke:none;" />
 <path d="  M 28,8  L 29,8  L 29,7  L 28,7  Z  " style="fill:rgb(23, 89, 216); fill-opacity:0.035; stroke:none;" />
 <path d="  M 28,9  L 29,9  L 29,8  L 28,8  Z  " style="fill:rgb(24, 90, 217); fill-opacity:0.047; stroke:none;" />
 <path d="  M 28,10  L 29,10  L 29,9  L 28,9  Z  " style="fill:rgb(22, 89, 214); fill-opacity:0.024; stroke:none;" />
 <path d="  M 29,11  L 29,10  L 28,10  L 28,11  Z  " style="fill:rgb(23, 90, 214); fill-opacity:0.145; stroke:none;" />
 <path d="  M 28,11  L 28,12  L 29,12  L 29,11  Z  " style="fill:rgb(23, 90, 215); fill-opacity:0.247; stroke:none;" />
 <path d="  M 28,13  L 29,13  L 29,12  L 28,12  Z  " style="fill:rgb(24, 90, 216); fill-opacity:0.376; stroke:none;" />
 <path d="  M 28,14  L 29,14  L 29,13  L 28,13  Z  " style="fill:rgb(23, 89, 215); fill-opacity:0.675; stroke:none;" />
 <path d="  M 28,14  L 28,15  L 29,15  L 29,14  Z  " style="fill:rgb(23, 89, 214); fill-opacity:0.537; stroke:none;" />
 <path d="  M 29,16  L 29,15  L 28,15  L 28,16  Z  " style="fill:rgb(24, 90, 214); fill-opacity:0.318; stroke:none;" />
 <path d="  M 28,17  L 29,17  L 29,16  L 28,16  Z  " style="fill:rgb(23, 89, 214); fill-opacity:0.365; stroke:none;" />
 <path d="  M 29,18  L 29,17  L 28,17  L 28,18  Z  " style="fill:rgb(23, 90, 215); fill-opacity:0.239; stroke:none;" />
 <path d="  M 28,19  L 29,19  L 29,18  L 28,18  Z  " style="fill:rgb(23, 90, 216); fill-opacity:0.227; stroke:none;" />
 <path d="  M 29,21  L 29,20  L 28,20  L 28,21  Z  " style="fill:rgb(24, 91, 215); fill-opacity:0.490; stroke:none;" />
 <path d="  M 28,21  L 28,22  L 29,22  L 29,21  Z  " style="fill:rgb(23, 90, 214); fill-opacity:0.529; stroke:none;" />
 <path d="  M 29,23  L 29,22  L 28,22  L 28,23  Z  " style="fill:rgb(23, 89, 215); fill-opacity:0.565; stroke:none;" />
 <path d="  M 28,23  L 28,24  L 29,24  L 29,23  Z  " style="fill:rgb(24, 90, 214); fill-opacity:0.424; stroke:none;" />
 <path d="  M 28,24  L 28,25  L 29,25  L 29,24  Z  " style="fill:rgb(23, 90, 215); fill-opacity:0.153; stroke:none;" />
 <path d="  M 29,26  L 29,25  L 28,25  L 28,26  Z  " style="fill:rgb(22, 88, 217); fill-opacity:0.016; stroke:none;" />
 <path d="  M 29,13  L 29,14  L 30,14  L 30,13  Z  " style="fill:rgb(24, 90, 216); fill-opacity:0.051; stroke:none;" />
 <path d="  M 30,15  L 30,14  L 29,14  L 29,15  Z  " style="fill:rgb(24, 90, 215); fill-opacity:0.024; stroke:none;" />
 <path d="  M 29,21  L 30,21  L 30,20  L 29,20  Z  " style="fill:rgb(40, 93, 208); fill-opacity:0.004; stroke:none;" />
 <path d="  M 29,21  L 29,22  L 30,22  L 30,21  Z  " style="fill:rgb(31, 87, 216); fill-opacity:0.008; stroke:none;" />
 <path d="  M 29,22  L 29,23  L 30,23  L 30,22  Z  " style="fill:rgb(25, 88, 214); fill-opacity:0.016; stroke:none;" />
</svg>
