<?xml version="1.0" encoding="UTF-8" standalone="no"?>
<!DOCTYPE svg PUBLIC "-//W3C//DTD SVG 1.1//EN" 
  "http://www.w3.org/Graphics/SVG/1.1/DTD/svg11.dtd">
<svg width="32" height="32"
	 xmlns="http://www.w3.org/2000/svg" version="1.1">
 <path d="  M 4,17  L 3,17  L 3,18  L 4,18  Z  " style="fill:rgb(158, 64, 20); fill-opacity:0.024; stroke:none;" />
 <path d="  M 3,19  L 4,19  L 4,18  L 3,18  Z  " style="fill:rgb(160, 65, 20); fill-opacity:0.016; stroke:none;" />
 <path d="  M 4,20  L 4,19  L 3,19  L 3,20  Z  " style="fill:rgb(162, 58, 20); fill-opacity:0.031; stroke:none;" />
 <path d="  M 3,20  L 3,21  L 4,21  L 4,20  Z  " style="fill:rgb(161, 64, 19); fill-opacity:0.008; stroke:none;" />
 <path d="  M 4,22  L 4,21  L 3,21  L 3,22  Z  " style="fill:rgb(154, 62, 22); fill-opacity:0.016; stroke:none;" />
 <path d="  M 4,22  L 3,22  L 3,23  L 4,23  Z  " style="fill:rgb(158, 63, 20); fill-opacity:0.047; stroke:none;" />
 <path d="  M 3,24  L 4,24  L 4,23  L 3,23  Z  " style="fill:rgb(157, 65, 21); fill-opacity:0.020; stroke:none;" />
 <path d="  M 4,11  L 5,11  L 5,10  L 4,10  Z  " style="fill:rgb(130, 185, 37); fill-opacity:0.024; stroke:none;" />
 <path d="  M 5,12  L 5,11  L 4,11  L 4,12  Z  " style="fill:rgb(131, 184, 38); fill-opacity:0.031; stroke:none;" />
 <path d="  M 5,13  L 4,13  L 4,14  L 5,14  Z  " style="fill:rgb(158, 61, 20); fill-opacity:0.114; stroke:none;" />
 <path d="  M 5,15  L 5,14  L 4,14  L 4,15  Z  " style="fill:rgb(158, 63, 20); fill-opacity:0.290; stroke:none;" />
 <path d="  M 5,16  L 5,15  L 4,15  L 4,16  Z  " style="fill:rgb(158, 64, 20); fill-opacity:0.255; stroke:none;" />
 <path d="  M 27,27  L 28,27  L 28,26  L 27,26  Z  " style="fill:rgb(158, 64, 20); fill-opacity:0.255; stroke:none;" />
 <path d="  M 4,16  L 4,17  L 5,17  L 5,16  Z  " style="fill:rgb(158, 63, 21); fill-opacity:0.294; stroke:none;" />
 <path d="  M 4,18  L 5,18  L 5,17  L 4,17  Z  " style="fill:rgb(158, 63, 20); fill-opacity:0.533; stroke:none;" />
 <path d="  M 5,19  L 5,18  L 4,18  L 4,19  Z  " style="fill:rgb(158, 63, 20); fill-opacity:0.525; stroke:none;" />
 <path d="  M 4,19  L 4,20  L 5,20  L 5,19  Z  " style="fill:rgb(158, 63, 21); fill-opacity:0.588; stroke:none;" />
 <path d="  M 5,20  L 4,20  L 4,21  L 5,21  Z  " style="fill:rgb(158, 63, 20); fill-opacity:0.506; stroke:none;" />
 <path d="  M 4,21  L 4,22  L 5,22  L 5,21  Z  " style="fill:rgb(158, 63, 20); fill-opacity:0.553; stroke:none;" />
 <path d="  M 22,30  L 22,29  L 21,29  L 21,30  Z  " style="fill:rgb(158, 63, 20); fill-opacity:0.553; stroke:none;" />
 <path d="  M 4,22  L 4,23  L 5,23  L 5,22  Z  " style="fill:rgb(158, 63, 20); fill-opacity:0.678; stroke:none;" />
 <path d="  M 5,24  L 5,23  L 4,23  L 4,24  Z  " style="fill:rgb(158, 63, 20); fill-opacity:0.604; stroke:none;" />
 <path d="  M 4,25  L 5,25  L 5,24  L 4,24  Z  " style="fill:rgb(158, 64, 20); fill-opacity:0.475; stroke:none;" />
 <path d="  M 5,25  L 4,25  L 4,26  L 5,26  Z  " style="fill:rgb(158, 63, 20); fill-opacity:0.388; stroke:none;" />
 <path d="  M 5,26  L 4,26  L 4,27  L 5,27  Z  " style="fill:rgb(158, 63, 19); fill-opacity:0.298; stroke:none;" />
 <path d="  M 5,28  L 5,27  L 4,27  L 4,28  Z  " style="fill:rgb(158, 63, 19); fill-opacity:0.176; stroke:none;" />
 <path d="  M 4,28  L 4,29  L 5,29  L 5,28  Z  " style="fill:rgb(158, 63, 20); fill-opacity:0.039; stroke:none;" />
 <path d="  M 5,9  L 5,10  L 6,10  L 6,9  Z  " style="fill:rgb(130, 185, 36); fill-opacity:0.082; stroke:none;" />
 <path d="  M 5,10  L 5,11  L 6,11  L 6,10  Z  " style="fill:rgb(130, 185, 37); fill-opacity:0.400; stroke:none;" />
 <path d="  M 6,12  L 6,11  L 5,11  L 5,12  Z  " style="fill:rgb(131, 185, 37); fill-opacity:0.502; stroke:none;" />
 <path d="  M 5,12  L 5,13  L 6,13  L 6,12  Z  " style="fill:rgb(134, 167, 36); fill-opacity:0.247; stroke:none;" />
 <path d="  M 6,14  L 6,13  L 5,13  L 5,14  Z  " style="fill:rgb(156, 69, 21); fill-opacity:0.427; stroke:none;" />
 <path d="  M 6,15  L 6,14  L 5,14  L 5,15  Z  " style="fill:rgb(158, 63, 20); fill-opacity:0.871; stroke:none;" />
 <path d="  M 5,15  L 5,16  L 6,16  L 6,15  Z  " style="fill:rgb(158, 64, 20); fill-opacity:0.855; stroke:none;" />
 <path d="  M 5,17  L 6,17  L 6,16  L 5,16  Z  " style="fill:rgb(159, 63, 20); fill-opacity:0.886; stroke:none;" />
 <path d="  M 6,17  L 5,17  L 5,18  L 6,18  Z  " style="fill:rgb(158, 63, 20); fill-opacity:0.969; stroke:none;" />
 <path d="  M 11,30  L 12,30  L 12,29  L 11,29  Z  " style="fill:rgb(158, 63, 20); fill-opacity:0.969; stroke:none;" />
 <path d="  M 19,28  L 19,27  L 18,27  L 18,28  Z  " style="fill:rgb(158, 63, 20); fill-opacity:0.969; stroke:none;" />
 <path d="  M 19,31  L 19,30  L 18,30  L 18,31  Z  " style="fill:rgb(158, 63, 20); fill-opacity:0.969; stroke:none;" />
 <path d="  M 28,22  L 27,22  L 27,23  L 28,23  Z  " style="fill:rgb(158, 63, 20); fill-opacity:0.969; stroke:none;" />
 <path d="  M 28,25  L 28,24  L 27,24  L 27,25  Z  " style="fill:rgb(158, 63, 20); fill-opacity:0.969; stroke:none;" />
 <path d="  M 6,19  L 6,18  L 5,18  L 5,19  Z  " style="fill:rgb(158, 63, 20); fill-opacity:0.973; stroke:none;" />
 <path d="  M 21,28  L 21,29  L 22,29  L 22,28  Z  " style="fill:rgb(158, 63, 20); fill-opacity:0.973; stroke:none;" />
 <path d="  M 6,20  L 6,19  L 5,19  L 5,20  Z  " style="fill:rgb(158, 63, 20); fill-opacity:0.984; stroke:none;" />
 <path d="  M 7,28  L 7,27  L 6,27  L 6,28  Z  " style="fill:rgb(158, 63, 20); fill-opacity:0.984; stroke:none;" />
 <path d="  M 17,31  L 18,31  L 18,30  L 17,30  Z  " style="fill:rgb(158, 63, 20); fill-opacity:0.984; stroke:none;" />
 <path d="  M 23,27  L 23,26  L 22,26  L 22,27  Z  " style="fill:rgb(158, 63, 20); fill-opacity:0.984; stroke:none;" />
 <path d="  M 24,26  L 24,25  L 23,25  L 23,26  Z  " style="fill:rgb(158, 63, 20); fill-opacity:0.984; stroke:none;" />
 <path d="  M 25,20  L 25,19  L 24,19  L 24,20  Z  " style="fill:rgb(158, 63, 20); fill-opacity:0.984; stroke:none;" />
 <path d="  M 26,25  L 26,24  L 25,24  L 25,25  Z  " style="fill:rgb(158, 63, 20); fill-opacity:0.984; stroke:none;" />
 <path d="  M 6,20  L 5,20  L 5,21  L 6,21  Z  " style="fill:rgb(158, 63, 20); fill-opacity:0.988; stroke:none;" />
 <path d="  M 9,22  L 8,22  L 8,23  L 9,23  Z  " style="fill:rgb(158, 63, 20); fill-opacity:0.988; stroke:none;" />
 <path d="  M 10,18  L 9,18  L 9,19  L 10,19  Z  " style="fill:rgb(158, 63, 20); fill-opacity:0.988; stroke:none;" />
 <path d="  M 11,17  L 11,16  L 10,16  L 10,17  Z  " style="fill:rgb(158, 63, 20); fill-opacity:0.988; stroke:none;" />
 <path d="  M 11,24  L 12,24  L 12,22  L 11,22  Z  " style="fill:rgb(158, 63, 20); fill-opacity:0.988; stroke:none;" />
 <path d="  M 14,26  L 14,25  L 13,25  L 13,26  Z  " style="fill:rgb(158, 63, 20); fill-opacity:0.988; stroke:none;" />
 <path d="  M 20,27  L 21,27  L 21,26  L 20,26  Z  " style="fill:rgb(158, 63, 20); fill-opacity:0.988; stroke:none;" />
 <path d="  M 23,27  L 22,27  L 22,28  L 23,28  Z  " style="fill:rgb(158, 63, 20); fill-opacity:0.988; stroke:none;" />
 <path d="  M 24,25  L 25,25  L 25,24  L 24,24  Z  " style="fill:rgb(158, 63, 20); fill-opacity:0.988; stroke:none;" />
 <path d="  M 26,23  L 25,23  L 25,24  L 26,24  Z  " style="fill:rgb(158, 63, 20); fill-opacity:0.988; stroke:none;" />
 <path d="  M 6,22  L 6,21  L 5,21  L 5,22  Z  " style="fill:rgb(158, 63, 20); fill-opacity:0.992; stroke:none;" />
 <path d="  M 7,22  L 7,23  L 8,23  L 8,22  Z  " style="fill:rgb(158, 63, 20); fill-opacity:0.992; stroke:none;" />
 <path d="  M 9,16  L 9,17  L 10,17  L 10,16  Z  " style="fill:rgb(158, 63, 20); fill-opacity:0.992; stroke:none;" />
 <path d="  M 9,19  L 9,20  L 10,20  L 10,19  Z  " style="fill:rgb(158, 63, 20); fill-opacity:0.992; stroke:none;" />
 <path d="  M 11,25  L 11,24  L 10,24  L 10,25  Z  " style="fill:rgb(158, 63, 20); fill-opacity:0.992; stroke:none;" />
 <path d="  M 13,25  L 13,24  L 12,24  L 12,25  Z  " style="fill:rgb(158, 63, 20); fill-opacity:0.992; stroke:none;" />
 <path d="  M 14,28  L 14,29  L 15,29  L 15,28  Z  " style="fill:rgb(158, 63, 20); fill-opacity:0.992; stroke:none;" />
 <path d="  M 18,29  L 17,29  L 17,30  L 18,30  Z  " style="fill:rgb(158, 63, 20); fill-opacity:0.992; stroke:none;" />
 <path d="  M 18,26  L 18,27  L 19,27  L 19,26  Z  " style="fill:rgb(158, 63, 20); fill-opacity:0.992; stroke:none;" />
 <path d="  M 20,22  L 19,22  L 19,23  L 20,23  Z  " style="fill:rgb(158, 63, 20); fill-opacity:0.992; stroke:none;" />
 <path d="  M 21,27  L 20,27  L 20,28  L 21,28  Z  " style="fill:rgb(158, 63, 20); fill-opacity:0.992; stroke:none;" />
 <path d="  M 25,26  L 24,26  L 24,27  L 25,27  Z  " style="fill:rgb(158, 63, 20); fill-opacity:0.992; stroke:none;" />
 <path d="  M 26,19  L 27,19  L 27,18  L 26,18  Z  " style="fill:rgb(158, 63, 20); fill-opacity:0.992; stroke:none;" />
 <path d="  M 28,17  L 28,16  L 27,16  L 27,17  Z  " style="fill:rgb(158, 63, 20); fill-opacity:0.992; stroke:none;" />
 <path d="  M 12,29  L 12,30  L 17,30  L 17,29  L 18,29  L 18,28  L 17,28  L 17,27  L 18,27  L 18,26  L 21,26  L 21,25  L 23,25  L 23,24  L 25,24  L 25,22  L 26,22  L 26,23  L 27,23  L 27,19  L 26,19  L 26,18  L 27,18  L 27,17  L 25,17  L 25,20  L 23,20  L 23,18  L 21,18  L 21,19  L 19,19  L 19,20  L 13,20  L 13,18  L 10,18  L 10,20  L 9,20  L 9,23  L 7,23  L 7,18  L 8,18  L 8,16  L 7,16  L 7,15  L 6,15  L 6,22  L 5,22  L 5,25  L 6,25  L 6,26  L 7,26  L 7,28  L 10,28  L 10,29  Z  M 10,24  L 11,24  L 11,22  L 13,22  L 13,24  L 14,24  L 14,25  L 15,25  L 15,28  L 16,28  L 16,29  L 14,29  L 14,28  L 13,28  L 13,27  L 12,27  L 12,26  L 10,26  Z  M 18,24  L 18,22  L 19,22  L 19,21  L 21,21  L 21,23  L 20,23  L 20,24  Z  M 22,22  L 22,21  L 23,21  L 23,22  Z  " style="fill:rgb(158, 63, 20); fill-opacity:1.000; stroke:none;" />
 <path d="  M 18,29  L 18,30  L 19,30  L 19,29  Z  " style="fill:rgb(158, 63, 20); fill-opacity:1.000; stroke:none;" />
 <path d="  M 21,29  L 21,28  L 20,28  L 20,29  Z  " style="fill:rgb(158, 63, 20); fill-opacity:1.000; stroke:none;" />
 <path d="  M 27,24  L 28,24  L 28,23  L 27,23  Z  " style="fill:rgb(158, 63, 20); fill-opacity:1.000; stroke:none;" />
 <path d="  M 6,25  L 5,25  L 5,26  L 6,26  Z  " style="fill:rgb(158, 63, 20); fill-opacity:0.965; stroke:none;" />
 <path d="  M 27,22  L 28,22  L 28,21  L 27,21  Z  " style="fill:rgb(158, 63, 20); fill-opacity:0.965; stroke:none;" />
 <path d="  M 6,27  L 6,26  L 5,26  L 5,27  Z  " style="fill:rgb(158, 63, 20); fill-opacity:0.867; stroke:none;" />
 <path d="  M 5,28  L 6,28  L 6,27  L 5,27  Z  " style="fill:rgb(158, 63, 20); fill-opacity:0.804; stroke:none;" />
 <path d="  M 6,29  L 6,28  L 5,28  L 5,29  Z  " style="fill:rgb(158, 63, 20); fill-opacity:0.537; stroke:none;" />
 <path d="  M 5,29  L 5,30  L 6,30  L 6,29  Z  " style="fill:rgb(159, 63, 20); fill-opacity:0.161; stroke:none;" />
 <path d="  M 7,9  L 7,8  L 6,8  L 6,9  Z  " style="fill:rgb(130, 185, 39); fill-opacity:0.059; stroke:none;" />
 <path d="  M 7,9  L 6,9  L 6,10  L 7,10  Z  " style="fill:rgb(131, 185, 37); fill-opacity:0.490; stroke:none;" />
 <path d="  M 6,11  L 7,11  L 7,10  L 6,10  Z  " style="fill:rgb(131, 185, 37); fill-opacity:0.855; stroke:none;" />
 <path d="  M 16,4  L 16,5  L 17,5  L 17,4  Z  " style="fill:rgb(131, 185, 37); fill-opacity:0.855; stroke:none;" />
 <path d="  M 7,11  L 6,11  L 6,12  L 7,12  Z  " style="fill:rgb(131, 186, 37); fill-opacity:0.973; stroke:none;" />
 <path d="  M 6,13  L 7,13  L 7,12  L 6,12  Z  " style="fill:rgb(135, 168, 35); fill-opacity:0.871; stroke:none;" />
 <path d="  M 6,13  L 6,14  L 7,14  L 7,13  Z  " style="fill:rgb(153, 86, 24); fill-opacity:0.796; stroke:none;" />
 <path d="  M 7,15  L 7,14  L 6,14  L 6,15  Z  " style="fill:rgb(159, 62, 20); fill-opacity:0.886; stroke:none;" />
 <path d="  M 7,26  L 6,26  L 6,27  L 7,27  Z  " style="fill:rgb(158, 63, 20); fill-opacity:0.996; stroke:none;" />
 <path d="  M 11,18  L 11,17  L 9,17  L 9,16  L 8,16  L 8,18  Z  " style="fill:rgb(158, 63, 20); fill-opacity:0.996; stroke:none;" />
 <path d="  M 13,25  L 10,25  L 10,26  L 12,26  L 12,27  L 13,27  Z  " style="fill:rgb(158, 63, 20); fill-opacity:0.996; stroke:none;" />
 <path d="  M 13,24  L 13,22  L 12,22  L 12,24  Z  " style="fill:rgb(158, 63, 20); fill-opacity:0.996; stroke:none;" />
 <path d="  M 13,24  L 13,25  L 14,25  L 14,24  Z  " style="fill:rgb(158, 63, 20); fill-opacity:0.996; stroke:none;" />
 <path d="  M 15,27  L 13,27  L 13,28  L 15,28  Z  " style="fill:rgb(158, 63, 20); fill-opacity:0.996; stroke:none;" />
 <path d="  M 15,29  L 16,29  L 16,28  L 15,28  Z  " style="fill:rgb(158, 63, 20); fill-opacity:0.996; stroke:none;" />
 <path d="  M 17,28  L 18,28  L 18,27  L 17,27  Z  " style="fill:rgb(158, 63, 20); fill-opacity:0.996; stroke:none;" />
 <path d="  M 20,24  L 20,23  L 19,23  L 19,22  L 18,22  L 18,24  Z  " style="fill:rgb(158, 63, 20); fill-opacity:0.996; stroke:none;" />
 <path d="  M 20,23  L 21,23  L 21,21  L 19,21  L 19,22  L 20,22  Z  " style="fill:rgb(158, 63, 20); fill-opacity:0.996; stroke:none;" />
 <path d="  M 21,19  L 21,18  L 20,18  L 20,19  Z  " style="fill:rgb(158, 63, 20); fill-opacity:0.996; stroke:none;" />
 <path d="  M 21,17  L 21,18  L 22,18  L 22,17  Z  " style="fill:rgb(158, 63, 20); fill-opacity:0.996; stroke:none;" />
 <path d="  M 22,26  L 22,25  L 21,25  L 21,26  Z  " style="fill:rgb(158, 63, 20); fill-opacity:0.996; stroke:none;" />
 <path d="  M 22,27  L 21,27  L 21,28  L 22,28  Z  " style="fill:rgb(158, 63, 20); fill-opacity:0.996; stroke:none;" />
 <path d="  M 23,20  L 24,20  L 24,19  L 23,19  Z  " style="fill:rgb(158, 63, 20); fill-opacity:0.996; stroke:none;" />
 <path d="  M 24,26  L 26,26  L 26,25  L 24,25  Z  " style="fill:rgb(158, 63, 20); fill-opacity:0.996; stroke:none;" />
 <path d="  M 26,17  L 27,17  L 27,16  L 26,16  Z  " style="fill:rgb(158, 63, 20); fill-opacity:0.996; stroke:none;" />
 <path d="  M 26,25  L 27,25  L 27,24  L 26,24  Z  " style="fill:rgb(158, 63, 20); fill-opacity:0.996; stroke:none;" />
 <path d="  M 6,28  L 6,29  L 7,29  L 7,28  Z  " style="fill:rgb(158, 63, 20); fill-opacity:0.839; stroke:none;" />
 <path d="  M 6,30  L 7,30  L 7,29  L 6,29  Z  " style="fill:rgb(158, 63, 20); fill-opacity:0.373; stroke:none;" />
 <path d="  M 8,8  L 8,7  L 7,7  L 7,8  Z  " style="fill:rgb(140, 188, 38); fill-opacity:0.012; stroke:none;" />
 <path d="  M 7,8  L 7,9  L 8,9  L 8,8  Z  " style="fill:rgb(132, 186, 37); fill-opacity:0.310; stroke:none;" />
 <path d="  M 8,10  L 8,9  L 7,9  L 7,10  Z  " style="fill:rgb(131, 185, 37); fill-opacity:0.875; stroke:none;" />
 <path d="  M 23,8  L 21,8  L 21,7  L 20,7  L 20,6  L 18,6  L 18,7  L 19,7  L 19,8  L 17,8  L 17,9  L 19,9  L 19,11  L 16,11  L 16,9  L 15,9  L 15,10  L 13,10  L 13,9  L 12,9  L 12,10  L 11,10  L 11,8  L 10,8  L 10,9  L 9,9  L 9,10  L 7,10  L 7,11  L 8,11  L 8,12  L 11,12  L 11,13  L 12,13  L 12,15  L 14,15  L 14,16  L 15,16  L 15,17  L 16,17  L 16,15  L 18,15  L 18,14  L 20,14  L 20,13  L 23,13  L 23,12  L 24,12  L 24,10  L 23,10  Z  M 20,9  L 22,9  L 22,11  L 21,11  L 21,10  L 20,10  Z  " style="fill:rgb(131, 185, 37); fill-opacity:1.000; stroke:none;" />
 <path d="  M 14,7  L 12,7  L 12,8  L 14,8  Z  " style="fill:rgb(131, 185, 37); fill-opacity:1.000; stroke:none;" />
 <path d="  M 15,7  L 16,7  L 16,6  L 15,6  Z  " style="fill:rgb(131, 185, 37); fill-opacity:1.000; stroke:none;" />
 <path d="  M 17,6  L 18,6  L 18,5  L 17,5  Z  " style="fill:rgb(131, 185, 37); fill-opacity:1.000; stroke:none;" />
 <path d="  M 19,16  L 18,16  L 18,17  L 19,17  Z  " style="fill:rgb(131, 185, 37); fill-opacity:1.000; stroke:none;" />
 <path d="  M 23,14  L 23,15  L 24,15  L 24,14  Z  " style="fill:rgb(131, 185, 37); fill-opacity:1.000; stroke:none;" />
 <path d="  M 25,12  L 25,14  L 26,14  L 26,12  Z  " style="fill:rgb(131, 185, 37); fill-opacity:1.000; stroke:none;" />
 <path d="  M 7,12  L 8,12  L 8,11  L 7,11  Z  " style="fill:rgb(131, 186, 37); fill-opacity:1.000; stroke:none;" />
 <path d="  M 8,13  L 9,13  L 9,12  L 8,12  Z  " style="fill:rgb(131, 186, 37); fill-opacity:1.000; stroke:none;" />
 <path d="  M 13,15  L 13,16  L 14,16  L 14,15  Z  " style="fill:rgb(131, 186, 37); fill-opacity:1.000; stroke:none;" />
 <path d="  M 7,13  L 8,13  L 8,12  L 7,12  Z  " style="fill:rgb(133, 175, 36); fill-opacity:1.000; stroke:none;" />
 <path d="  M 7,13  L 7,14  L 8,14  L 8,13  Z  " style="fill:rgb(144, 125, 29); fill-opacity:0.949; stroke:none;" />
 <path d="  M 8,15  L 8,14  L 7,14  L 7,15  Z  " style="fill:rgb(156, 73, 22); fill-opacity:0.890; stroke:none;" />
 <path d="  M 7,16  L 8,16  L 8,15  L 7,15  Z  " style="fill:rgb(158, 63, 20); fill-opacity:0.980; stroke:none;" />
 <path d="  M 7,19  L 8,19  L 8,18  L 7,18  Z  " style="fill:rgb(158, 63, 20); fill-opacity:0.980; stroke:none;" />
 <path d="  M 11,29  L 10,29  L 10,30  L 11,30  Z  " style="fill:rgb(158, 63, 20); fill-opacity:0.980; stroke:none;" />
 <path d="  M 13,27  L 14,27  L 14,26  L 13,26  Z  " style="fill:rgb(158, 63, 20); fill-opacity:0.980; stroke:none;" />
 <path d="  M 19,19  L 20,19  L 20,18  L 19,18  Z  " style="fill:rgb(158, 63, 20); fill-opacity:0.980; stroke:none;" />
 <path d="  M 22,27  L 22,26  L 21,26  L 21,27  Z  " style="fill:rgb(158, 63, 20); fill-opacity:0.980; stroke:none;" />
 <path d="  M 26,24  L 27,24  L 27,23  L 26,23  Z  " style="fill:rgb(158, 63, 20); fill-opacity:0.980; stroke:none;" />
 <path d="  M 7,20  L 8,20  L 8,19  L 7,19  Z  " style="fill:rgb(158, 63, 20); fill-opacity:0.949; stroke:none;" />
 <path d="  M 9,20  L 8,20  L 8,21  L 9,21  Z  " style="fill:rgb(158, 63, 20); fill-opacity:0.949; stroke:none;" />
 <path d="  M 28,17  L 27,17  L 27,18  L 28,18  Z  " style="fill:rgb(158, 63, 20); fill-opacity:0.949; stroke:none;" />
 <path d="  M 8,20  L 7,20  L 7,21  L 8,21  Z  " style="fill:rgb(157, 63, 20); fill-opacity:0.965; stroke:none;" />
 <path d="  M 8,22  L 8,21  L 7,21  L 7,22  Z  " style="fill:rgb(158, 63, 20); fill-opacity:0.976; stroke:none;" />
 <path d="  M 11,25  L 12,25  L 12,24  L 11,24  Z  " style="fill:rgb(158, 63, 20); fill-opacity:0.976; stroke:none;" />
 <path d="  M 19,28  L 20,28  L 20,27  L 19,27  Z  " style="fill:rgb(158, 63, 20); fill-opacity:0.976; stroke:none;" />
 <path d="  M 23,26  L 23,27  L 24,27  L 24,26  Z  " style="fill:rgb(158, 63, 20); fill-opacity:0.976; stroke:none;" />
 <path d="  M 7,28  L 7,29  L 8,29  L 8,28  Z  " style="fill:rgb(158, 63, 20); fill-opacity:0.847; stroke:none;" />
 <path d="  M 8,30  L 8,29  L 7,29  L 7,30  Z  " style="fill:rgb(158, 63, 20); fill-opacity:0.412; stroke:none;" />
 <path d="  M 7,30  L 7,31  L 8,31  L 8,30  Z  " style="fill:rgb(161, 67, 23); fill-opacity:0.008; stroke:none;" />
 <path d="  M 8,7  L 8,8  L 9,8  L 9,7  Z  " style="fill:rgb(130, 186, 38); fill-opacity:0.157; stroke:none;" />
 <path d="  M 9,8  L 8,8  L 8,9  L 9,9  Z  " style="fill:rgb(131, 185, 37); fill-opacity:0.604; stroke:none;" />
 <path d="  M 9,10  L 9,9  L 8,9  L 8,10  Z  " style="fill:rgb(131, 185, 37); fill-opacity:0.976; stroke:none;" />
 <path d="  M 15,6  L 14,6  L 14,7  L 15,7  Z  " style="fill:rgb(131, 185, 37); fill-opacity:0.976; stroke:none;" />
 <path d="  M 18,10  L 18,9  L 17,9  L 17,10  Z  " style="fill:rgb(131, 185, 37); fill-opacity:0.976; stroke:none;" />
 <path d="  M 8,14  L 9,14  L 9,13  L 8,13  Z  " style="fill:rgb(135, 168, 35); fill-opacity:0.945; stroke:none;" />
 <path d="  M 8,14  L 8,15  L 9,15  L 9,14  Z  " style="fill:rgb(152, 87, 23); fill-opacity:0.933; stroke:none;" />
 <path d="  M 9,15  L 8,15  L 8,16  L 9,16  Z  " style="fill:rgb(158, 62, 20); fill-opacity:0.976; stroke:none;" />
 <path d="  M 8,19  L 9,19  L 9,18  L 8,18  Z  " style="fill:rgb(158, 62, 20); fill-opacity:0.973; stroke:none;" />
 <path d="  M 8,19  L 8,20  L 9,20  L 9,19  Z  " style="fill:rgb(158, 63, 20); fill-opacity:0.937; stroke:none;" />
 <path d="  M 8,22  L 9,22  L 9,21  L 8,21  Z  " style="fill:rgb(158, 63, 20); fill-opacity:0.961; stroke:none;" />
 <path d="  M 24,18  L 24,19  L 25,19  L 25,18  Z  " style="fill:rgb(158, 63, 20); fill-opacity:0.961; stroke:none;" />
 <path d="  M 9,29  L 9,28  L 8,28  L 8,29  Z  " style="fill:rgb(158, 63, 20); fill-opacity:0.953; stroke:none;" />
 <path d="  M 9,29  L 8,29  L 8,30  L 9,30  Z  " style="fill:rgb(158, 63, 20); fill-opacity:0.745; stroke:none;" />
 <path d="  M 9,30  L 8,30  L 8,31  L 9,31  Z  " style="fill:rgb(157, 63, 21); fill-opacity:0.173; stroke:none;" />
 <path d="  M 10,7  L 10,6  L 9,6  L 9,7  Z  " style="fill:rgb(131, 186, 37); fill-opacity:0.035; stroke:none;" />
 <path d="  M 9,7  L 9,8  L 10,8  L 10,7  Z  " style="fill:rgb(131, 185, 37); fill-opacity:0.541; stroke:none;" />
 <path d="  M 10,8  L 9,8  L 9,9  L 10,9  Z  " style="fill:rgb(131, 185, 37); fill-opacity:0.867; stroke:none;" />
 <path d="  M 10,12  L 9,12  L 9,13  L 10,13  Z  " style="fill:rgb(131, 186, 37); fill-opacity:0.976; stroke:none;" />
 <path d="  M 10,13  L 9,13  L 9,14  L 10,14  Z  " style="fill:rgb(139, 152, 32); fill-opacity:0.980; stroke:none;" />
 <path d="  M 10,15  L 10,14  L 9,14  L 9,15  Z  " style="fill:rgb(154, 84, 23); fill-opacity:0.996; stroke:none;" />
 <path d="  M 9,16  L 10,16  L 10,15  L 9,15  Z  " style="fill:rgb(158, 64, 20); fill-opacity:0.996; stroke:none;" />
 <path d="  M 12,17  L 11,17  L 11,18  L 12,18  Z  " style="fill:rgb(158, 64, 20); fill-opacity:0.996; stroke:none;" />
 <path d="  M 9,29  L 10,29  L 10,28  L 9,28  Z  " style="fill:rgb(159, 63, 20); fill-opacity:1.000; stroke:none;" />
 <path d="  M 26,22  L 25,22  L 25,23  L 26,23  Z  " style="fill:rgb(159, 63, 20); fill-opacity:1.000; stroke:none;" />
 <path d="  M 10,30  L 10,29  L 9,29  L 9,30  Z  " style="fill:rgb(158, 63, 20); fill-opacity:0.957; stroke:none;" />
 <path d="  M 26,27  L 26,26  L 25,26  L 25,27  Z  " style="fill:rgb(158, 63, 20); fill-opacity:0.957; stroke:none;" />
 <path d="  M 10,30  L 9,30  L 9,31  L 10,31  Z  " style="fill:rgb(158, 63, 20); fill-opacity:0.376; stroke:none;" />
 <path d="  M 10,7  L 11,7  L 11,6  L 10,6  Z  " style="fill:rgb(131, 185, 36); fill-opacity:0.137; stroke:none;" />
 <path d="  M 10,7  L 10,8  L 11,8  L 11,7  Z  " style="fill:rgb(131, 185, 37); fill-opacity:0.745; stroke:none;" />
 <path d="  M 11,13  L 11,12  L 10,12  L 10,13  Z  " style="fill:rgb(131, 185, 37); fill-opacity:0.988; stroke:none;" />
 <path d="  M 19,16  L 19,15  L 18,15  L 18,16  Z  " style="fill:rgb(131, 185, 37); fill-opacity:0.988; stroke:none;" />
 <path d="  M 10,14  L 11,14  L 11,13  L 10,13  Z  " style="fill:rgb(133, 173, 35); fill-opacity:0.996; stroke:none;" />
 <path d="  M 10,14  L 10,15  L 11,15  L 11,14  Z  " style="fill:rgb(145, 121, 28); fill-opacity:1.000; stroke:none;" />
 <path d="  M 10,15  L 10,16  L 11,16  L 11,15  Z  " style="fill:rgb(153, 83, 23); fill-opacity:0.996; stroke:none;" />
 <path d="  M 10,31  L 11,31  L 11,30  L 10,30  Z  " style="fill:rgb(158, 63, 20); fill-opacity:0.451; stroke:none;" />
 <path d="  M 12,5  L 11,5  L 11,6  L 12,6  Z  " style="fill:rgb(133, 188, 36); fill-opacity:0.035; stroke:none;" />
 <path d="  M 12,6  L 11,6  L 11,7  L 12,7  Z  " style="fill:rgb(131, 185, 37); fill-opacity:0.514; stroke:none;" />
 <path d="  M 11,7  L 11,8  L 12,8  L 12,7  Z  " style="fill:rgb(131, 185, 37); fill-opacity:0.941; stroke:none;" />
 <path d="  M 12,9  L 13,9  L 13,8  L 11,8  L 11,10  L 12,10  Z  " style="fill:rgb(131, 185, 37); fill-opacity:0.996; stroke:none;" />
 <path d="  M 13,10  L 15,10  L 15,9  L 13,9  Z  " style="fill:rgb(131, 185, 37); fill-opacity:0.996; stroke:none;" />
 <path d="  M 15,8  L 15,7  L 14,7  L 14,8  Z  " style="fill:rgb(131, 185, 37); fill-opacity:0.996; stroke:none;" />
 <path d="  M 16,5  L 16,6  L 17,6  L 17,5  Z  " style="fill:rgb(131, 185, 37); fill-opacity:0.996; stroke:none;" />
 <path d="  M 16,17  L 18,17  L 18,16  L 16,16  Z  " style="fill:rgb(131, 185, 37); fill-opacity:0.996; stroke:none;" />
 <path d="  M 19,11  L 19,10  L 18,10  L 18,11  Z  " style="fill:rgb(131, 185, 37); fill-opacity:0.996; stroke:none;" />
 <path d="  M 18,14  L 18,15  L 20,15  L 20,14  Z  " style="fill:rgb(131, 185, 37); fill-opacity:0.996; stroke:none;" />
 <path d="  M 21,10  L 21,9  L 20,9  L 20,10  Z  " style="fill:rgb(131, 185, 37); fill-opacity:0.996; stroke:none;" />
 <path d="  M 21,8  L 22,8  L 22,7  L 21,7  Z  " style="fill:rgb(131, 185, 37); fill-opacity:0.996; stroke:none;" />
 <path d="  M 22,11  L 22,10  L 21,10  L 21,11  Z  " style="fill:rgb(131, 185, 37); fill-opacity:0.996; stroke:none;" />
 <path d="  M 24,13  L 24,14  L 25,14  L 25,11  L 24,11  L 24,12  L 23,12  L 23,13  Z  " style="fill:rgb(131, 185, 37); fill-opacity:0.996; stroke:none;" />
 <path d="  M 12,13  L 11,13  L 11,14  L 12,14  Z  " style="fill:rgb(130, 185, 37); fill-opacity:1.000; stroke:none;" />
 <path d="  M 14,16  L 14,17  L 15,17  L 15,16  Z  " style="fill:rgb(130, 185, 37); fill-opacity:1.000; stroke:none;" />
 <path d="  M 11,14  L 11,15  L 12,15  L 12,14  Z  " style="fill:rgb(132, 181, 37); fill-opacity:1.000; stroke:none;" />
 <path d="  M 12,16  L 12,15  L 11,15  L 11,16  Z  " style="fill:rgb(139, 147, 32); fill-opacity:0.988; stroke:none;" />
 <path d="  M 12,17  L 12,16  L 11,16  L 11,17  Z  " style="fill:rgb(153, 87, 23); fill-opacity:0.988; stroke:none;" />
 <path d="  M 12,31  L 12,30  L 11,30  L 11,31  Z  " style="fill:rgb(158, 63, 20); fill-opacity:0.580; stroke:none;" />
 <path d="  M 11,32  L 12,32  L 12,31  L 11,31  Z  " style="fill:rgb(157, 62, 20); fill-opacity:0.039; stroke:none;" />
 <path d="  M 13,6  L 13,5  L 12,5  L 12,6  Z  " style="fill:rgb(132, 186, 37); fill-opacity:0.184; stroke:none;" />
 <path d="  M 13,6  L 12,6  L 12,7  L 13,7  Z  " style="fill:rgb(131, 185, 37); fill-opacity:0.788; stroke:none;" />
 <path d="  M 12,16  L 13,16  L 13,15  L 12,15  Z  " style="fill:rgb(131, 184, 37); fill-opacity:1.000; stroke:none;" />
 <path d="  M 13,17  L 13,16  L 12,16  L 12,17  Z  " style="fill:rgb(137, 158, 34); fill-opacity:0.988; stroke:none;" />
 <path d="  M 13,17  L 12,17  L 12,18  L 13,18  Z  " style="fill:rgb(153, 83, 23); fill-opacity:0.965; stroke:none;" />
 <path d="  M 12,31  L 13,31  L 13,30  L 12,30  Z  " style="fill:rgb(158, 63, 20); fill-opacity:0.741; stroke:none;" />
 <path d="  M 12,32  L 13,32  L 13,31  L 12,31  Z  " style="fill:rgb(159, 63, 19); fill-opacity:0.090; stroke:none;" />
 <path d="  M 13,5  L 13,6  L 14,6  L 14,5  Z  " style="fill:rgb(131, 185, 37); fill-opacity:0.302; stroke:none;" />
 <path d="  M 14,6  L 13,6  L 13,7  L 14,7  Z  " style="fill:rgb(131, 185, 37); fill-opacity:0.898; stroke:none;" />
 <path d="  M 14,9  L 14,8  L 13,8  L 13,9  Z  " style="fill:rgb(131, 185, 37); fill-opacity:0.984; stroke:none;" />
 <path d="  M 16,8  L 15,8  L 15,9  L 16,9  Z  " style="fill:rgb(131, 185, 37); fill-opacity:0.984; stroke:none;" />
 <path d="  M 18,16  L 18,15  L 16,15  L 16,16  Z  " style="fill:rgb(131, 185, 37); fill-opacity:0.984; stroke:none;" />
 <path d="  M 17,11  L 18,11  L 18,10  L 17,10  Z  " style="fill:rgb(131, 185, 37); fill-opacity:0.984; stroke:none;" />
 <path d="  M 21,7  L 21,6  L 20,6  L 20,7  Z  " style="fill:rgb(131, 185, 37); fill-opacity:0.984; stroke:none;" />
 <path d="  M 23,15  L 23,14  L 22,14  L 22,15  Z  " style="fill:rgb(131, 185, 37); fill-opacity:0.984; stroke:none;" />
 <path d="  M 24,13  L 23,13  L 23,14  L 24,14  Z  " style="fill:rgb(131, 185, 37); fill-opacity:0.984; stroke:none;" />
 <path d="  M 14,16  L 13,16  L 13,17  L 14,17  Z  " style="fill:rgb(131, 183, 37); fill-opacity:1.000; stroke:none;" />
 <path d="  M 13,17  L 13,18  L 14,18  L 14,17  Z  " style="fill:rgb(139, 146, 32); fill-opacity:0.953; stroke:none;" />
 <path d="  M 14,18  L 13,18  L 13,19  L 14,19  Z  " style="fill:rgb(153, 86, 23); fill-opacity:0.839; stroke:none;" />
 <path d="  M 13,19  L 13,20  L 14,20  L 14,19  Z  " style="fill:rgb(158, 62, 20); fill-opacity:0.945; stroke:none;" />
 <path d="  M 14,31  L 14,30  L 13,30  L 13,31  Z  " style="fill:rgb(158, 63, 20); fill-opacity:0.784; stroke:none;" />
 <path d="  M 14,31  L 13,31  L 13,32  L 14,32  Z  " style="fill:rgb(158, 62, 20); fill-opacity:0.129; stroke:none;" />
 <path d="  M 15,5  L 15,4  L 14,4  L 14,5  Z  " style="fill:rgb(130, 187, 39); fill-opacity:0.027; stroke:none;" />
 <path d="  M 14,6  L 15,6  L 15,5  L 14,5  Z  " style="fill:rgb(131, 186, 37); fill-opacity:0.576; stroke:none;" />
 <path d="  M 14,9  L 15,9  L 15,8  L 14,8  Z  " style="fill:rgb(131, 185, 37); fill-opacity:0.980; stroke:none;" />
 <path d="  M 15,7  L 15,8  L 16,8  L 16,7  Z  " style="fill:rgb(131, 185, 37); fill-opacity:0.980; stroke:none;" />
 <path d="  M 17,8  L 18,8  L 18,7  L 17,7  Z  " style="fill:rgb(131, 185, 37); fill-opacity:0.980; stroke:none;" />
 <path d="  M 15,18  L 15,17  L 14,17  L 14,18  Z  " style="fill:rgb(130, 186, 37); fill-opacity:0.957; stroke:none;" />
 <path d="  M 15,18  L 14,18  L 14,19  L 15,19  Z  " style="fill:rgb(138, 153, 33); fill-opacity:0.580; stroke:none;" />
 <path d="  M 15,19  L 14,19  L 14,20  L 15,20  Z  " style="fill:rgb(158, 64, 20); fill-opacity:0.761; stroke:none;" />
 <path d="  M 14,25  L 14,26  L 15,26  L 15,25  Z  " style="fill:rgb(159, 63, 20); fill-opacity:0.988; stroke:none;" />
 <path d="  M 20,29  L 19,29  L 19,30  L 20,30  Z  " style="fill:rgb(159, 63, 20); fill-opacity:0.988; stroke:none;" />
 <path d="  M 15,26  L 14,26  L 14,27  L 15,27  Z  " style="fill:rgb(158, 62, 20); fill-opacity:0.980; stroke:none;" />
 <path d="  M 24,19  L 24,18  L 23,18  L 23,19  Z  " style="fill:rgb(158, 62, 20); fill-opacity:0.980; stroke:none;" />
 <path d="  M 14,30  L 14,31  L 15,31  L 15,30  Z  " style="fill:rgb(158, 63, 20); fill-opacity:0.875; stroke:none;" />
 <path d="  M 15,32  L 15,31  L 14,31  L 14,32  Z  " style="fill:rgb(158, 63, 21); fill-opacity:0.302; stroke:none;" />
 <path d="  M 16,4  L 16,3  L 15,3  L 15,4  Z  " style="fill:rgb(130, 182, 37); fill-opacity:0.043; stroke:none;" />
 <path d="  M 16,5  L 16,4  L 15,4  L 15,5  Z  " style="fill:rgb(131, 185, 37); fill-opacity:0.392; stroke:none;" />
 <path d="  M 16,5  L 15,5  L 15,6  L 16,6  Z  " style="fill:rgb(131, 185, 37); fill-opacity:0.894; stroke:none;" />
 <path d="  M 16,17  L 15,17  L 15,18  L 16,18  Z  " style="fill:rgb(131, 184, 37); fill-opacity:0.992; stroke:none;" />
 <path d="  M 16,18  L 15,18  L 15,19  L 16,19  Z  " style="fill:rgb(145, 123, 29); fill-opacity:0.871; stroke:none;" />
 <path d="  M 15,19  L 15,20  L 16,20  L 16,19  Z  " style="fill:rgb(158, 62, 20); fill-opacity:0.933; stroke:none;" />
 <path d="  M 16,31  L 16,30  L 15,30  L 15,31  Z  " style="fill:rgb(157, 63, 20); fill-opacity:0.788; stroke:none;" />
 <path d="  M 16,32  L 16,31  L 15,31  L 15,32  Z  " style="fill:rgb(158, 63, 20); fill-opacity:0.298; stroke:none;" />
 <path d="  M 17,3  L 16,3  L 16,4  L 17,4  Z  " style="fill:rgb(131, 185, 36); fill-opacity:0.251; stroke:none;" />
 <path d="  M 16,6  L 16,7  L 17,7  L 17,6  Z  " style="fill:rgb(131, 185, 37); fill-opacity:0.992; stroke:none;" />
 <path d="  M 16,11  L 17,11  L 17,8  L 16,8  Z  " style="fill:rgb(131, 185, 37); fill-opacity:0.992; stroke:none;" />
 <path d="  M 18,7  L 18,8  L 19,8  L 19,7  Z  " style="fill:rgb(131, 185, 37); fill-opacity:0.992; stroke:none;" />
 <path d="  M 18,9  L 18,10  L 19,10  L 19,9  Z  " style="fill:rgb(131, 185, 37); fill-opacity:0.992; stroke:none;" />
 <path d="  M 21,13  L 20,13  L 20,14  L 21,14  Z  " style="fill:rgb(131, 185, 37); fill-opacity:0.992; stroke:none;" />
 <path d="  M 21,9  L 21,10  L 22,10  L 22,9  Z  " style="fill:rgb(131, 185, 37); fill-opacity:0.992; stroke:none;" />
 <path d="  M 23,9  L 23,10  L 24,10  L 24,9  Z  " style="fill:rgb(131, 185, 37); fill-opacity:0.992; stroke:none;" />
 <path d="  M 17,8  L 17,7  L 16,7  L 16,8  Z  " style="fill:rgb(131, 185, 37); fill-opacity:0.965; stroke:none;" />
 <path d="  M 21,14  L 22,14  L 22,13  L 21,13  Z  " style="fill:rgb(131, 185, 37); fill-opacity:0.965; stroke:none;" />
 <path d="  M 16,18  L 17,18  L 17,17  L 16,17  Z  " style="fill:rgb(131, 182, 37); fill-opacity:0.973; stroke:none;" />
 <path d="  M 17,19  L 17,18  L 16,18  L 16,19  Z  " style="fill:rgb(148, 108, 26); fill-opacity:0.953; stroke:none;" />
 <path d="  M 16,19  L 16,20  L 17,20  L 17,19  Z  " style="fill:rgb(159, 61, 20); fill-opacity:0.996; stroke:none;" />
 <path d="  M 17,31  L 17,30  L 16,30  L 16,31  Z  " style="fill:rgb(158, 63, 20); fill-opacity:0.851; stroke:none;" />
 <path d="  M 16,32  L 17,32  L 17,31  L 16,31  Z  " style="fill:rgb(158, 63, 20); fill-opacity:0.573; stroke:none;" />
 <path d="  M 18,2  L 17,2  L 17,3  L 18,3  Z  " style="fill:rgb(125, 188, 47); fill-opacity:0.004; stroke:none;" />
 <path d="  M 17,3  L 17,4  L 18,4  L 18,3  Z  " style="fill:rgb(130, 185, 38); fill-opacity:0.302; stroke:none;" />
 <path d="  M 18,4  L 17,4  L 17,5  L 18,5  Z  " style="fill:rgb(131, 185, 37); fill-opacity:0.902; stroke:none;" />
 <path d="  M 17,6  L 17,7  L 18,7  L 18,6  Z  " style="fill:rgb(131, 184, 37); fill-opacity:0.988; stroke:none;" />
 <path d="  M 17,18  L 18,18  L 18,17  L 17,17  Z  " style="fill:rgb(132, 180, 36); fill-opacity:0.918; stroke:none;" />
 <path d="  M 18,19  L 18,18  L 17,18  L 17,19  Z  " style="fill:rgb(150, 99, 25); fill-opacity:0.902; stroke:none;" />
 <path d="  M 17,19  L 17,20  L 19,20  L 19,19  Z  " style="fill:rgb(158, 62, 20); fill-opacity:1.000; stroke:none;" />
 <path d="  M 18,32  L 18,31  L 17,31  L 17,32  Z  " style="fill:rgb(158, 63, 20); fill-opacity:0.800; stroke:none;" />
 <path d="  M 19,4  L 19,3  L 18,3  L 18,4  Z  " style="fill:rgb(131, 186, 37); fill-opacity:0.141; stroke:none;" />
 <path d="  M 18,5  L 19,5  L 19,4  L 18,4  Z  " style="fill:rgb(131, 185, 37); fill-opacity:0.647; stroke:none;" />
 <path d="  M 19,6  L 19,5  L 18,5  L 18,6  Z  " style="fill:rgb(131, 185, 37); fill-opacity:0.973; stroke:none;" />
 <path d="  M 26,12  L 26,11  L 25,11  L 25,12  Z  " style="fill:rgb(131, 185, 37); fill-opacity:0.973; stroke:none;" />
 <path d="  M 18,17  L 18,18  L 19,18  L 19,17  Z  " style="fill:rgb(141, 142, 31); fill-opacity:0.890; stroke:none;" />
 <path d="  M 19,19  L 19,18  L 18,18  L 18,19  Z  " style="fill:rgb(158, 67, 21); fill-opacity:0.929; stroke:none;" />
 <path d="  M 18,29  L 20,29  L 20,28  L 18,28  Z  " style="fill:rgb(159, 63, 20); fill-opacity:0.984; stroke:none;" />
 <path d="  M 19,32  L 19,31  L 18,31  L 18,32  Z  " style="fill:rgb(158, 63, 20); fill-opacity:0.557; stroke:none;" />
 <path d="  M 19,4  L 20,4  L 20,3  L 19,3  Z  " style="fill:rgb(131, 188, 35); fill-opacity:0.008; stroke:none;" />
 <path d="  M 20,5  L 20,4  L 19,4  L 19,5  Z  " style="fill:rgb(131, 185, 37); fill-opacity:0.212; stroke:none;" />
 <path d="  M 19,6  L 20,6  L 20,5  L 19,5  Z  " style="fill:rgb(131, 185, 37); fill-opacity:0.835; stroke:none;" />
 <path d="  M 19,15  L 19,16  L 20,16  L 20,15  Z  " style="fill:rgb(131, 186, 37); fill-opacity:0.996; stroke:none;" />
 <path d="  M 19,17  L 20,17  L 20,16  L 19,16  Z  " style="fill:rgb(133, 173, 35); fill-opacity:1.000; stroke:none;" />
 <path d="  M 20,17  L 19,17  L 19,18  L 20,18  Z  " style="fill:rgb(150, 99, 25); fill-opacity:0.961; stroke:none;" />
 <path d="  M 19,27  L 20,27  L 20,26  L 19,26  Z  " style="fill:rgb(159, 63, 20); fill-opacity:0.992; stroke:none;" />
 <path d="  M 23,25  L 22,25  L 22,26  L 23,26  Z  " style="fill:rgb(159, 63, 20); fill-opacity:0.992; stroke:none;" />
 <path d="  M 19,30  L 19,31  L 20,31  L 20,30  Z  " style="fill:rgb(158, 63, 20); fill-opacity:0.761; stroke:none;" />
 <path d="  M 20,32  L 20,31  L 19,31  L 19,32  Z  " style="fill:rgb(159, 63, 20); fill-opacity:0.196; stroke:none;" />
 <path d="  M 20,4  L 20,5  L 21,5  L 21,4  Z  " style="fill:rgb(130, 188, 37); fill-opacity:0.055; stroke:none;" />
 <path d="  M 21,5  L 20,5  L 20,6  L 21,6  Z  " style="fill:rgb(131, 185, 37); fill-opacity:0.635; stroke:none;" />
 <path d="  M 21,15  L 21,14  L 20,14  L 20,15  Z  " style="fill:rgb(131, 186, 37); fill-opacity:0.941; stroke:none;" />
 <path d="  M 20,16  L 21,16  L 21,15  L 20,15  Z  " style="fill:rgb(132, 182, 36); fill-opacity:0.988; stroke:none;" />
 <path d="  M 20,16  L 20,17  L 21,17  L 21,16  Z  " style="fill:rgb(143, 131, 29); fill-opacity:0.996; stroke:none;" />
 <path d="  M 20,17  L 20,18  L 21,18  L 21,17  Z  " style="fill:rgb(156, 73, 21); fill-opacity:0.976; stroke:none;" />
 <path d="  M 21,29  L 20,29  L 20,30  L 21,30  Z  " style="fill:rgb(159, 63, 20); fill-opacity:0.871; stroke:none;" />
 <path d="  M 21,30  L 20,30  L 20,31  L 21,31  Z  " style="fill:rgb(159, 63, 21); fill-opacity:0.286; stroke:none;" />
 <path d="  M 21,4  L 21,5  L 22,5  L 22,4  Z  " style="fill:rgb(132, 186, 37); fill-opacity:0.012; stroke:none;" />
 <path d="  M 22,5  L 21,5  L 21,6  L 22,6  Z  " style="fill:rgb(130, 185, 38); fill-opacity:0.275; stroke:none;" />
 <path d="  M 22,6  L 21,6  L 21,7  L 22,7  Z  " style="fill:rgb(131, 185, 37); fill-opacity:0.749; stroke:none;" />
 <path d="  M 22,14  L 21,14  L 21,15  L 22,15  Z  " style="fill:rgb(131, 186, 37); fill-opacity:0.906; stroke:none;" />
 <path d="  M 22,16  L 22,15  L 21,15  L 21,16  Z  " style="fill:rgb(133, 179, 36); fill-opacity:0.996; stroke:none;" />
 <path d="  M 21,16  L 21,17  L 22,17  L 22,16  Z  " style="fill:rgb(149, 103, 25); fill-opacity:0.996; stroke:none;" />
 <path d="  M 21,31  L 22,31  L 22,30  L 21,30  Z  " style="fill:rgb(160, 64, 18); fill-opacity:0.024; stroke:none;" />
 <path d="  M 23,7  L 23,6  L 22,6  L 22,7  Z  " style="fill:rgb(130, 185, 37); fill-opacity:0.255; stroke:none;" />
 <path d="  M 23,7  L 22,7  L 22,8  L 23,8  Z  " style="fill:rgb(131, 185, 37); fill-opacity:0.784; stroke:none;" />
 <path d="  M 23,13  L 22,13  L 22,14  L 23,14  Z  " style="fill:rgb(131, 185, 37); fill-opacity:0.969; stroke:none;" />
 <path d="  M 23,15  L 22,15  L 22,16  L 23,16  Z  " style="fill:rgb(132, 180, 36); fill-opacity:0.996; stroke:none;" />
 <path d="  M 22,17  L 23,17  L 23,16  L 22,16  Z  " style="fill:rgb(147, 111, 26); fill-opacity:0.973; stroke:none;" />
 <path d="  M 22,17  L 22,18  L 23,18  L 23,17  Z  " style="fill:rgb(158, 64, 20); fill-opacity:0.965; stroke:none;" />
 <path d="  M 23,22  L 23,21  L 22,21  L 22,22  Z  " style="fill:rgb(157, 63, 20); fill-opacity:1.000; stroke:none;" />
 <path d="  M 23,29  L 23,28  L 22,28  L 22,29  Z  " style="fill:rgb(159, 63, 20); fill-opacity:0.867; stroke:none;" />
 <path d="  M 23,30  L 23,29  L 22,29  L 22,30  Z  " style="fill:rgb(158, 63, 20); fill-opacity:0.286; stroke:none;" />
 <path d="  M 29,16  L 29,15  L 28,15  L 28,16  Z  " style="fill:rgb(158, 63, 20); fill-opacity:0.286; stroke:none;" />
 <path d="  M 23,7  L 24,7  L 24,6  L 23,6  Z  " style="fill:rgb(128, 179, 32); fill-opacity:0.016; stroke:none;" />
 <path d="  M 23,8  L 24,8  L 24,7  L 23,7  Z  " style="fill:rgb(130, 184, 35); fill-opacity:0.282; stroke:none;" />
 <path d="  M 24,8  L 23,8  L 23,9  L 24,9  Z  " style="fill:rgb(131, 185, 37); fill-opacity:0.725; stroke:none;" />
 <path d="  M 24,16  L 24,15  L 23,15  L 23,16  Z  " style="fill:rgb(131, 186, 37); fill-opacity:0.894; stroke:none;" />
 <path d="  M 23,16  L 23,17  L 24,17  L 24,16  Z  " style="fill:rgb(142, 137, 30); fill-opacity:0.584; stroke:none;" />
 <path d="  M 24,18  L 24,17  L 23,17  L 23,18  Z  " style="fill:rgb(158, 64, 21); fill-opacity:0.773; stroke:none;" />
 <path d="  M 23,24  L 23,25  L 24,25  L 24,24  Z  " style="fill:rgb(158, 64, 20); fill-opacity:0.992; stroke:none;" />
 <path d="  M 23,28  L 24,28  L 24,27  L 23,27  Z  " style="fill:rgb(158, 63, 20); fill-opacity:0.894; stroke:none;" />
 <path d="  M 23,29  L 24,29  L 24,28  L 23,28  Z  " style="fill:rgb(159, 63, 20); fill-opacity:0.580; stroke:none;" />
 <path d="  M 23,29  L 23,30  L 24,30  L 24,29  Z  " style="fill:rgb(159, 62, 19); fill-opacity:0.059; stroke:none;" />
 <path d="  M 25,8  L 25,7  L 24,7  L 24,8  Z  " style="fill:rgb(128, 181, 32); fill-opacity:0.012; stroke:none;" />
 <path d="  M 25,8  L 24,8  L 24,9  L 25,9  Z  " style="fill:rgb(131, 185, 37); fill-opacity:0.286; stroke:none;" />
 <path d="  M 25,10  L 25,9  L 24,9  L 24,10  Z  " style="fill:rgb(131, 186, 37); fill-opacity:0.682; stroke:none;" />
 <path d="  M 25,11  L 25,10  L 24,10  L 24,11  Z  " style="fill:rgb(131, 185, 37); fill-opacity:0.882; stroke:none;" />
 <path d="  M 25,15  L 25,14  L 24,14  L 24,15  Z  " style="fill:rgb(131, 186, 37); fill-opacity:0.957; stroke:none;" />
 <path d="  M 25,16  L 25,15  L 24,15  L 24,16  Z  " style="fill:rgb(134, 173, 35); fill-opacity:0.561; stroke:none;" />
 <path d="  M 25,16  L 24,16  L 24,17  L 25,17  Z  " style="fill:rgb(156, 72, 21); fill-opacity:0.537; stroke:none;" />
 <path d="  M 24,18  L 25,18  L 25,17  L 24,17  Z  " style="fill:rgb(158, 62, 20); fill-opacity:0.902; stroke:none;" />
 <path d="  M 25,27  L 24,27  L 24,28  L 25,28  Z  " style="fill:rgb(158, 63, 20); fill-opacity:0.639; stroke:none;" />
 <path d="  M 25,28  L 24,28  L 24,29  L 25,29  Z  " style="fill:rgb(157, 62, 20); fill-opacity:0.114; stroke:none;" />
 <path d="  M 26,8  L 25,8  L 25,9  L 26,9  Z  " style="fill:rgb(128, 187, 36); fill-opacity:0.008; stroke:none;" />
 <path d="  M 26,10  L 26,9  L 25,9  L 25,10  Z  " style="fill:rgb(131, 184, 36); fill-opacity:0.082; stroke:none;" />
 <path d="  M 25,10  L 25,11  L 26,11  L 26,10  Z  " style="fill:rgb(131, 185, 37); fill-opacity:0.576; stroke:none;" />
 <path d="  M 25,15  L 26,15  L 26,14  L 25,14  Z  " style="fill:rgb(132, 178, 36); fill-opacity:0.925; stroke:none;" />
 <path d="  M 26,16  L 26,15  L 25,15  L 25,16  Z  " style="fill:rgb(149, 101, 25); fill-opacity:0.765; stroke:none;" />
 <path d="  M 25,17  L 26,17  L 26,16  L 25,16  Z  " style="fill:rgb(158, 62, 20); fill-opacity:0.937; stroke:none;" />
 <path d="  M 25,27  L 25,28  L 26,28  L 26,27  Z  " style="fill:rgb(158, 63, 20); fill-opacity:0.416; stroke:none;" />
 <path d="  M 27,10  L 27,9  L 26,9  L 26,10  Z  " style="fill:rgb(130, 184, 35); fill-opacity:0.008; stroke:none;" />
 <path d="  M 26,11  L 27,11  L 27,10  L 26,10  Z  " style="fill:rgb(132, 185, 37); fill-opacity:0.302; stroke:none;" />
 <path d="  M 26,12  L 27,12  L 27,11  L 26,11  Z  " style="fill:rgb(131, 185, 37); fill-opacity:0.796; stroke:none;" />
 <path d="  M 27,12  L 26,12  L 26,13  L 27,13  Z  " style="fill:rgb(131, 185, 37); fill-opacity:0.945; stroke:none;" />
 <path d="  M 26,13  L 26,14  L 27,14  L 27,13  Z  " style="fill:rgb(131, 186, 37); fill-opacity:0.839; stroke:none;" />
 <path d="  M 27,15  L 27,14  L 26,14  L 26,15  Z  " style="fill:rgb(141, 140, 30); fill-opacity:0.655; stroke:none;" />
 <path d="  M 27,15  L 26,15  L 26,16  L 27,16  Z  " style="fill:rgb(156, 71, 21); fill-opacity:0.863; stroke:none;" />
 <path d="  M 26,26  L 27,26  L 27,25  L 26,25  Z  " style="fill:rgb(158, 63, 20); fill-opacity:0.914; stroke:none;" />
 <path d="  M 27,27  L 27,26  L 26,26  L 26,27  Z  " style="fill:rgb(158, 63, 20); fill-opacity:0.737; stroke:none;" />
 <path d="  M 26,28  L 27,28  L 27,27  L 26,27  Z  " style="fill:rgb(158, 63, 19); fill-opacity:0.196; stroke:none;" />
 <path d="  M 28,10  L 27,10  L 27,11  L 28,11  Z  " style="fill:rgb(131, 187, 40); fill-opacity:0.024; stroke:none;" />
 <path d="  M 27,12  L 28,12  L 28,11  L 27,11  Z  " style="fill:rgb(130, 185, 37); fill-opacity:0.208; stroke:none;" />
 <path d="  M 28,12  L 27,12  L 27,13  L 28,13  Z  " style="fill:rgb(131, 185, 37); fill-opacity:0.310; stroke:none;" />
 <path d="  M 27,14  L 28,14  L 28,13  L 27,13  Z  " style="fill:rgb(130, 188, 37); fill-opacity:0.247; stroke:none;" />
 <path d="  M 27,15  L 28,15  L 28,14  L 27,14  Z  " style="fill:rgb(156, 75, 21); fill-opacity:0.184; stroke:none;" />
 <path d="  M 27,15  L 27,16  L 28,16  L 28,15  Z  " style="fill:rgb(158, 62, 20); fill-opacity:0.765; stroke:none;" />
 <path d="  M 27,19  L 28,19  L 28,18  L 27,18  Z  " style="fill:rgb(158, 62, 20); fill-opacity:0.753; stroke:none;" />
 <path d="  M 28,20  L 28,19  L 27,19  L 27,20  Z  " style="fill:rgb(159, 63, 20); fill-opacity:0.757; stroke:none;" />
 <path d="  M 28,20  L 27,20  L 27,21  L 28,21  Z  " style="fill:rgb(158, 63, 20); fill-opacity:0.906; stroke:none;" />
 <path d="  M 27,26  L 28,26  L 28,25  L 27,25  Z  " style="fill:rgb(158, 63, 20); fill-opacity:0.682; stroke:none;" />
 <path d="  M 27,27  L 27,28  L 28,28  L 28,27  Z  " style="fill:rgb(157, 63, 19); fill-opacity:0.024; stroke:none;" />
 <path d="  M 28,14  L 28,15  L 29,15  L 29,14  Z  " style="fill:rgb(163, 47, 16); fill-opacity:0.016; stroke:none;" />
 <path d="  M 28,17  L 29,17  L 29,16  L 28,16  Z  " style="fill:rgb(158, 63, 20); fill-opacity:0.490; stroke:none;" />
 <path d="  M 29,18  L 29,17  L 28,17  L 28,18  Z  " style="fill:rgb(159, 63, 21); fill-opacity:0.357; stroke:none;" />
 <path d="  M 28,19  L 29,19  L 29,18  L 28,18  Z  " style="fill:rgb(157, 63, 21); fill-opacity:0.106; stroke:none;" />
 <path d="  M 29,19  L 28,19  L 28,20  L 29,20  Z  " style="fill:rgb(159, 63, 19); fill-opacity:0.102; stroke:none;" />
 <path d="  M 29,21  L 29,20  L 28,20  L 28,21  Z  " style="fill:rgb(160, 63, 21); fill-opacity:0.231; stroke:none;" />
 <path d="  M 28,21  L 28,22  L 29,22  L 29,21  Z  " style="fill:rgb(158, 63, 21); fill-opacity:0.380; stroke:none;" />
 <path d="  M 29,23  L 29,22  L 28,22  L 28,23  Z  " style="fill:rgb(159, 63, 20); fill-opacity:0.541; stroke:none;" />
 <path d="  M 28,23  L 28,24  L 29,24  L 29,23  Z  " style="fill:rgb(158, 63, 20); fill-opacity:0.698; stroke:none;" />
 <path d="  M 28,24  L 28,25  L 29,25  L 29,24  Z  " style="fill:rgb(158, 63, 20); fill-opacity:0.710; stroke:none;" />
 <path d="  M 29,26  L 29,25  L 28,25  L 28,26  Z  " style="fill:rgb(158, 63, 20); fill-opacity:0.400; stroke:none;" />
 <path d="  M 28,27  L 29,27  L 29,26  L 28,26  Z  " style="fill:rgb(158, 62, 18); fill-opacity:0.016; stroke:none;" />
 <path d="  M 30,16  L 29,16  L 29,17  L 30,17  Z  " style="fill:rgb(153, 65, 19); fill-opacity:0.008; stroke:none;" />
 <path d="  M 29,22  L 29,23  L 30,23  L 30,22  Z  " style="fill:rgb(158, 63, 21); fill-opacity:0.027; stroke:none;" />
 <path d="  M 29,23  L 29,24  L 30,24  L 30,23  Z  " style="fill:rgb(157, 64, 21); fill-opacity:0.055; stroke:none;" />
 <path d="  M 29,25  L 30,25  L 30,24  L 29,24  Z  " style="fill:rgb(159, 64, 21); fill-opacity:0.067; stroke:none;" />
 <path d="  M 29,25  L 29,26  L 30,26  L 30,25  Z  " style="fill:rgb(162, 65, 23); fill-opacity:0.031; stroke:none;" />
</svg>
