<?xml version="1.0" encoding="UTF-8" standalone="no"?>
<!DOCTYPE svg PUBLIC "-//W3C//DTD SVG 1.1//EN" 
  "http://www.w3.org/Graphics/SVG/1.1/DTD/svg11.dtd">
<svg width="32" height="32"
	 xmlns="http://www.w3.org/2000/svg" version="1.1">
 <path d="  M 1,3  L 0,3  L 0,4  L 1,4  Z  " style="fill:rgb(102, 150, 20); fill-opacity:0.004; stroke:none;" />
 <path d="  M 2,4  L 2,3  L 1,3  L 1,4  Z  " style="fill:rgb(104, 154, 16); fill-opacity:0.118; stroke:none;" />
 <path d="  M 1,4  L 1,5  L 2,5  L 2,4  Z  " style="fill:rgb(104, 155, 16); fill-opacity:0.137; stroke:none;" />
 <path d="  M 2,3  L 2,4  L 3,4  L 3,3  Z  " style="fill:rgb(104, 154, 16); fill-opacity:0.259; stroke:none;" />
 <path d="  M 3,15  L 2,15  L 2,16  L 3,16  Z  " style="fill:rgb(104, 154, 16); fill-opacity:0.259; stroke:none;" />
 <path d="  M 9,16  L 9,17  L 10,17  L 10,16  Z  " style="fill:rgb(104, 154, 16); fill-opacity:0.259; stroke:none;" />
 <path d="  M 3,5  L 3,4  L 2,4  L 2,5  Z  " style="fill:rgb(104, 154, 16); fill-opacity:0.569; stroke:none;" />
 <path d="  M 3,6  L 3,5  L 2,5  L 2,6  Z  " style="fill:rgb(105, 153, 16); fill-opacity:0.051; stroke:none;" />
 <path d="  M 3,14  L 2,14  L 2,15  L 3,15  Z  " style="fill:rgb(104, 154, 16); fill-opacity:0.031; stroke:none;" />
 <path d="  M 2,17  L 3,17  L 3,16  L 2,16  Z  " style="fill:rgb(104, 154, 16); fill-opacity:0.384; stroke:none;" />
 <path d="  M 3,17  L 2,17  L 2,18  L 3,18  Z  " style="fill:rgb(104, 154, 16); fill-opacity:0.490; stroke:none;" />
 <path d="  M 3,19  L 3,18  L 2,18  L 2,19  Z  " style="fill:rgb(104, 154, 16); fill-opacity:0.498; stroke:none;" />
 <path d="  M 6,14  L 6,13  L 5,13  L 5,14  Z  " style="fill:rgb(104, 154, 16); fill-opacity:0.498; stroke:none;" />
 <path d="  M 3,19  L 2,19  L 2,21  L 3,21  Z  " style="fill:rgb(104, 154, 16); fill-opacity:0.525; stroke:none;" />
 <path d="  M 3,21  L 2,21  L 2,22  L 3,22  Z  " style="fill:rgb(104, 154, 16); fill-opacity:0.494; stroke:none;" />
 <path d="  M 8,27  L 8,28  L 9,28  L 9,27  Z  " style="fill:rgb(104, 154, 16); fill-opacity:0.494; stroke:none;" />
 <path d="  M 11,3  L 10,3  L 10,4  L 11,4  Z  " style="fill:rgb(104, 154, 16); fill-opacity:0.494; stroke:none;" />
 <path d="  M 17,22  L 16,22  L 16,23  L 17,23  Z  " style="fill:rgb(104, 154, 16); fill-opacity:0.494; stroke:none;" />
 <path d="  M 22,19  L 23,19  L 23,18  L 22,18  Z  " style="fill:rgb(104, 154, 16); fill-opacity:0.494; stroke:none;" />
 <path d="  M 2,23  L 3,23  L 3,22  L 2,22  Z  " style="fill:rgb(104, 154, 16); fill-opacity:0.459; stroke:none;" />
 <path d="  M 22,19  L 22,20  L 23,20  L 23,19  Z  " style="fill:rgb(104, 154, 16); fill-opacity:0.459; stroke:none;" />
 <path d="  M 2,23  L 2,24  L 3,24  L 3,23  Z  " style="fill:rgb(104, 154, 16); fill-opacity:0.427; stroke:none;" />
 <path d="  M 10,14  L 11,14  L 11,13  L 10,13  Z  " style="fill:rgb(104, 154, 16); fill-opacity:0.427; stroke:none;" />
 <path d="  M 23,20  L 22,20  L 22,21  L 23,21  Z  " style="fill:rgb(104, 154, 16); fill-opacity:0.427; stroke:none;" />
 <path d="  M 23,27  L 23,26  L 22,26  L 22,27  Z  " style="fill:rgb(104, 154, 16); fill-opacity:0.427; stroke:none;" />
 <path d="  M 3,25  L 3,24  L 2,24  L 2,25  Z  " style="fill:rgb(104, 154, 16); fill-opacity:0.380; stroke:none;" />
 <path d="  M 3,25  L 2,25  L 2,26  L 3,26  Z  " style="fill:rgb(104, 154, 16); fill-opacity:0.235; stroke:none;" />
 <path d="  M 2,26  L 2,27  L 3,27  L 3,26  Z  " style="fill:rgb(104, 153, 16); fill-opacity:0.020; stroke:none;" />
 <path d="  M 3,3  L 3,4  L 4,4  L 4,3  Z  " style="fill:rgb(104, 155, 16); fill-opacity:0.302; stroke:none;" />
 <path d="  M 4,5  L 4,4  L 3,4  L 3,5  Z  " style="fill:rgb(104, 154, 16); fill-opacity:0.894; stroke:none;" />
 <path d="  M 4,25  L 3,25  L 3,26  L 4,26  Z  " style="fill:rgb(104, 154, 16); fill-opacity:0.894; stroke:none;" />
 <path d="  M 11,20  L 10,20  L 10,21  L 11,21  Z  " style="fill:rgb(104, 154, 16); fill-opacity:0.894; stroke:none;" />
 <path d="  M 13,8  L 13,7  L 12,7  L 12,8  Z  " style="fill:rgb(104, 154, 16); fill-opacity:0.894; stroke:none;" />
 <path d="  M 26,3  L 26,4  L 27,4  L 27,3  Z  " style="fill:rgb(104, 154, 16); fill-opacity:0.894; stroke:none;" />
 <path d="  M 3,6  L 4,6  L 4,5  L 3,5  Z  " style="fill:rgb(104, 154, 16); fill-opacity:0.333; stroke:none;" />
 <path d="  M 19,8  L 18,8  L 18,9  L 19,9  Z  " style="fill:rgb(104, 154, 16); fill-opacity:0.333; stroke:none;" />
 <path d="  M 3,15  L 4,15  L 4,14  L 3,14  Z  " style="fill:rgb(104, 154, 16); fill-opacity:0.310; stroke:none;" />
 <path d="  M 12,19  L 11,19  L 11,20  L 12,20  Z  " style="fill:rgb(104, 154, 16); fill-opacity:0.310; stroke:none;" />
 <path d="  M 3,15  L 3,16  L 4,16  L 4,15  Z  " style="fill:rgb(104, 154, 16); fill-opacity:0.910; stroke:none;" />
 <path d="  M 10,15  L 10,14  L 9,14  L 9,15  Z  " style="fill:rgb(104, 154, 16); fill-opacity:0.910; stroke:none;" />
 <path d="  M 3,17  L 4,17  L 4,16  L 3,16  Z  " style="fill:rgb(104, 154, 16); fill-opacity:0.984; stroke:none;" />
 <path d="  M 3,24  L 3,25  L 4,25  L 4,24  Z  " style="fill:rgb(104, 154, 16); fill-opacity:0.984; stroke:none;" />
 <path d="  M 8,22  L 8,21  L 7,21  L 7,22  Z  " style="fill:rgb(104, 154, 16); fill-opacity:0.984; stroke:none;" />
 <path d="  M 20,8  L 20,7  L 19,7  L 19,8  Z  " style="fill:rgb(104, 154, 16); fill-opacity:0.984; stroke:none;" />
 <path d="  M 10,27  L 10,26  L 13,26  L 13,25  L 14,25  L 14,24  L 15,24  L 15,22  L 16,22  L 16,21  L 17,21  L 17,20  L 12,20  L 12,21  L 8,21  L 8,22  L 7,22  L 7,21  L 6,21  L 6,19  L 7,19  L 7,17  L 8,17  L 8,16  L 9,16  L 9,13  L 10,13  L 10,12  L 8,12  L 8,13  L 7,13  L 7,14  L 6,14  L 6,15  L 4,15  L 4,17  L 3,17  L 3,23  L 4,23  L 4,26  L 7,26  L 7,27  Z  " style="fill:rgb(104, 154, 16); fill-opacity:1.000; stroke:none;" />
 <path d="  M 8,4  L 8,5  L 6,5  L 6,6  L 7,6  L 7,7  L 23,7  L 23,20  L 24,20  L 24,25  L 23,25  L 23,26  L 24,26  L 24,29  L 25,29  L 25,30  L 27,30  L 27,31  L 28,31  L 28,30  L 30,30  L 30,10  L 29,10  L 29,4  Z  " style="fill:rgb(104, 154, 16); fill-opacity:1.000; stroke:none;" />
 <path d="  M 3,24  L 4,24  L 4,23  L 3,23  Z  " style="fill:rgb(104, 154, 16); fill-opacity:0.996; stroke:none;" />
 <path d="  M 10,13  L 9,13  L 9,14  L 10,14  Z  " style="fill:rgb(104, 154, 16); fill-opacity:0.996; stroke:none;" />
 <path d="  M 24,20  L 23,20  L 23,21  L 24,21  Z  " style="fill:rgb(104, 154, 16); fill-opacity:0.996; stroke:none;" />
 <path d="  M 23,26  L 23,27  L 24,27  L 24,26  Z  " style="fill:rgb(104, 154, 16); fill-opacity:0.996; stroke:none;" />
 <path d="  M 3,27  L 4,27  L 4,26  L 3,26  Z  " style="fill:rgb(104, 154, 16); fill-opacity:0.447; stroke:none;" />
 <path d="  M 8,3  L 8,4  L 9,4  L 9,3  Z  " style="fill:rgb(104, 154, 16); fill-opacity:0.447; stroke:none;" />
 <path d="  M 23,25  L 22,25  L 22,26  L 23,26  Z  " style="fill:rgb(104, 154, 16); fill-opacity:0.447; stroke:none;" />
 <path d="  M 4,27  L 3,27  L 3,28  L 4,28  Z  " style="fill:rgb(104, 155, 16); fill-opacity:0.039; stroke:none;" />
 <path d="  M 21,9  L 21,10  L 22,10  L 22,9  Z  " style="fill:rgb(104, 155, 16); fill-opacity:0.039; stroke:none;" />
 <path d="  M 5,3  L 4,3  L 4,4  L 5,4  Z  " style="fill:rgb(104, 154, 16); fill-opacity:0.329; stroke:none;" />
 <path d="  M 4,4  L 4,5  L 5,5  L 5,4  Z  " style="fill:rgb(104, 154, 16); fill-opacity:0.976; stroke:none;" />
 <path d="  M 8,17  L 7,17  L 7,18  L 8,18  Z  " style="fill:rgb(104, 154, 16); fill-opacity:0.976; stroke:none;" />
 <path d="  M 30,10  L 30,9  L 29,9  L 29,10  Z  " style="fill:rgb(104, 154, 16); fill-opacity:0.976; stroke:none;" />
 <path d="  M 4,5  L 4,6  L 5,6  L 5,5  Z  " style="fill:rgb(104, 154, 16); fill-opacity:0.722; stroke:none;" />
 <path d="  M 5,7  L 5,6  L 4,6  L 4,7  Z  " style="fill:rgb(104, 154, 16); fill-opacity:0.071; stroke:none;" />
 <path d="  M 9,11  L 9,10  L 8,10  L 8,11  Z  " style="fill:rgb(104, 154, 16); fill-opacity:0.071; stroke:none;" />
 <path d="  M 22,3  L 22,2  L 21,2  L 21,3  Z  " style="fill:rgb(104, 154, 16); fill-opacity:0.071; stroke:none;" />
 <path d="  M 5,13  L 4,13  L 4,14  L 5,14  Z  " style="fill:rgb(104, 154, 16); fill-opacity:0.082; stroke:none;" />
 <path d="  M 5,15  L 5,14  L 4,14  L 4,15  Z  " style="fill:rgb(104, 154, 16); fill-opacity:0.737; stroke:none;" />
 <path d="  M 19,4  L 20,4  L 20,3  L 19,3  Z  " style="fill:rgb(104, 154, 16); fill-opacity:0.737; stroke:none;" />
 <path d="  M 5,26  L 4,26  L 4,27  L 5,27  Z  " style="fill:rgb(104, 154, 16); fill-opacity:0.925; stroke:none;" />
 <path d="  M 15,7  L 15,8  L 16,8  L 16,7  Z  " style="fill:rgb(104, 154, 16); fill-opacity:0.925; stroke:none;" />
 <path d="  M 5,28  L 5,27  L 4,27  L 4,28  Z  " style="fill:rgb(104, 154, 16); fill-opacity:0.263; stroke:none;" />
 <path d="  M 5,3  L 5,4  L 6,4  L 6,3  Z  " style="fill:rgb(104, 154, 16); fill-opacity:0.353; stroke:none;" />
 <path d="  M 5,4  L 5,5  L 6,5  L 6,4  Z  " style="fill:rgb(104, 154, 16); fill-opacity:0.973; stroke:none;" />
 <path d="  M 21,8  L 22,8  L 22,7  L 21,7  Z  " style="fill:rgb(104, 154, 16); fill-opacity:0.973; stroke:none;" />
 <path d="  M 26,31  L 27,31  L 27,30  L 26,30  Z  " style="fill:rgb(104, 154, 16); fill-opacity:0.973; stroke:none;" />
 <path d="  M 5,5  L 5,6  L 6,6  L 6,5  Z  " style="fill:rgb(104, 154, 16); fill-opacity:0.980; stroke:none;" />
 <path d="  M 6,27  L 6,26  L 5,26  L 5,27  Z  " style="fill:rgb(104, 154, 16); fill-opacity:0.980; stroke:none;" />
 <path d="  M 6,4  L 6,5  L 7,5  L 7,4  Z  " style="fill:rgb(104, 154, 16); fill-opacity:0.980; stroke:none;" />
 <path d="  M 21,7  L 20,7  L 20,8  L 21,8  Z  " style="fill:rgb(104, 154, 16); fill-opacity:0.980; stroke:none;" />
 <path d="  M 6,7  L 6,6  L 5,6  L 5,7  Z  " style="fill:rgb(104, 154, 16); fill-opacity:0.455; stroke:none;" />
 <path d="  M 9,4  L 10,4  L 10,3  L 9,3  Z  " style="fill:rgb(104, 154, 16); fill-opacity:0.455; stroke:none;" />
 <path d="  M 30,10  L 30,11  L 31,11  L 31,10  Z  " style="fill:rgb(104, 154, 16); fill-opacity:0.455; stroke:none;" />
 <path d="  M 6,7  L 5,7  L 5,8  L 6,8  Z  " style="fill:rgb(104, 157, 16); fill-opacity:0.004; stroke:none;" />
 <path d="  M 5,12  L 5,13  L 6,13  L 6,12  Z  " style="fill:rgb(104, 153, 16); fill-opacity:0.008; stroke:none;" />
 <path d="  M 6,15  L 6,14  L 5,14  L 5,15  Z  " style="fill:rgb(104, 154, 16); fill-opacity:0.992; stroke:none;" />
 <path d="  M 11,26  L 10,26  L 10,27  L 11,27  Z  " style="fill:rgb(104, 154, 16); fill-opacity:0.992; stroke:none;" />
 <path d="  M 15,22  L 15,23  L 16,23  L 16,22  Z  " style="fill:rgb(104, 154, 16); fill-opacity:0.992; stroke:none;" />
 <path d="  M 23,7  L 22,7  L 22,8  L 23,8  Z  " style="fill:rgb(104, 154, 16); fill-opacity:0.992; stroke:none;" />
 <path d="  M 5,28  L 6,28  L 6,27  L 5,27  Z  " style="fill:rgb(104, 154, 16); fill-opacity:0.373; stroke:none;" />
 <path d="  M 6,4  L 7,4  L 7,3  L 6,3  Z  " style="fill:rgb(104, 154, 16); fill-opacity:0.376; stroke:none;" />
 <path d="  M 21,8  L 20,8  L 20,9  L 21,9  Z  " style="fill:rgb(104, 154, 16); fill-opacity:0.376; stroke:none;" />
 <path d="  M 7,6  L 6,6  L 6,7  L 7,7  Z  " style="fill:rgb(104, 154, 16); fill-opacity:0.878; stroke:none;" />
 <path d="  M 17,22  L 17,21  L 16,21  L 16,22  Z  " style="fill:rgb(104, 154, 16); fill-opacity:0.878; stroke:none;" />
 <path d="  M 30,17  L 30,18  L 31,18  L 31,17  Z  " style="fill:rgb(104, 154, 16); fill-opacity:0.878; stroke:none;" />
 <path d="  M 6,7  L 6,8  L 7,8  L 7,7  Z  " style="fill:rgb(104, 154, 16); fill-opacity:0.212; stroke:none;" />
 <path d="  M 16,8  L 15,8  L 15,9  L 16,9  Z  " style="fill:rgb(104, 154, 16); fill-opacity:0.212; stroke:none;" />
 <path d="  M 6,13  L 7,13  L 7,12  L 6,12  Z  " style="fill:rgb(104, 154, 16); fill-opacity:0.290; stroke:none;" />
 <path d="  M 6,13  L 6,14  L 7,14  L 7,13  Z  " style="fill:rgb(104, 154, 16); fill-opacity:0.922; stroke:none;" />
 <path d="  M 7,19  L 6,19  L 6,20  L 7,20  Z  " style="fill:rgb(104, 154, 16); fill-opacity:0.816; stroke:none;" />
 <path d="  M 6,21  L 7,21  L 7,20  L 6,20  Z  " style="fill:rgb(104, 154, 16); fill-opacity:0.839; stroke:none;" />
 <path d="  M 23,8  L 22,8  L 22,9  L 23,9  Z  " style="fill:rgb(104, 154, 16); fill-opacity:0.839; stroke:none;" />
 <path d="  M 7,26  L 6,26  L 6,27  L 7,27  Z  " style="fill:rgb(104, 154, 16); fill-opacity:0.988; stroke:none;" />
 <path d="  M 7,5  L 8,5  L 8,4  L 7,4  Z  " style="fill:rgb(104, 154, 16); fill-opacity:0.988; stroke:none;" />
 <path d="  M 23,25  L 24,25  L 24,21  L 23,21  Z  " style="fill:rgb(104, 154, 16); fill-opacity:0.988; stroke:none;" />
 <path d="  M 23,28  L 24,28  L 24,27  L 23,27  Z  " style="fill:rgb(104, 154, 16); fill-opacity:0.988; stroke:none;" />
 <path d="  M 29,31  L 29,30  L 28,30  L 28,31  Z  " style="fill:rgb(104, 154, 16); fill-opacity:0.988; stroke:none;" />
 <path d="  M 7,28  L 7,27  L 6,27  L 6,28  Z  " style="fill:rgb(104, 154, 16); fill-opacity:0.408; stroke:none;" />
 <path d="  M 8,3  L 7,3  L 7,4  L 8,4  Z  " style="fill:rgb(104, 154, 16); fill-opacity:0.408; stroke:none;" />
 <path d="  M 22,24  L 22,25  L 23,25  L 23,24  Z  " style="fill:rgb(104, 154, 16); fill-opacity:0.408; stroke:none;" />
 <path d="  M 23,29  L 23,30  L 24,30  L 24,29  Z  " style="fill:rgb(104, 154, 16); fill-opacity:0.408; stroke:none;" />
 <path d="  M 8,8  L 8,7  L 7,7  L 7,8  Z  " style="fill:rgb(104, 154, 16); fill-opacity:0.647; stroke:none;" />
 <path d="  M 17,3  L 16,3  L 16,4  L 17,4  Z  " style="fill:rgb(104, 154, 16); fill-opacity:0.647; stroke:none;" />
 <path d="  M 23,15  L 22,15  L 22,16  L 23,16  Z  " style="fill:rgb(104, 154, 16); fill-opacity:0.647; stroke:none;" />
 <path d="  M 31,14  L 31,13  L 30,13  L 30,14  Z  " style="fill:rgb(104, 154, 16); fill-opacity:0.647; stroke:none;" />
 <path d="  M 7,8  L 7,9  L 8,9  L 8,8  Z  " style="fill:rgb(104, 154, 16); fill-opacity:0.043; stroke:none;" />
 <path d="  M 14,18  L 13,18  L 13,19  L 14,19  Z  " style="fill:rgb(104, 154, 16); fill-opacity:0.043; stroke:none;" />
 <path d="  M 7,12  L 8,12  L 8,11  L 7,11  Z  " style="fill:rgb(104, 154, 16); fill-opacity:0.149; stroke:none;" />
 <path d="  M 7,13  L 8,13  L 8,12  L 7,12  Z  " style="fill:rgb(104, 154, 16); fill-opacity:0.792; stroke:none;" />
 <path d="  M 7,19  L 8,19  L 8,18  L 7,18  Z  " style="fill:rgb(104, 154, 16); fill-opacity:0.616; stroke:none;" />
 <path d="  M 7,20  L 8,20  L 8,19  L 7,19  Z  " style="fill:rgb(104, 154, 16); fill-opacity:0.133; stroke:none;" />
 <path d="  M 8,20  L 7,20  L 7,21  L 8,21  Z  " style="fill:rgb(104, 154, 16); fill-opacity:0.431; stroke:none;" />
 <path d="  M 7,28  L 8,28  L 8,27  L 7,27  Z  " style="fill:rgb(104, 154, 16); fill-opacity:0.451; stroke:none;" />
 <path d="  M 8,17  L 8,18  L 9,18  L 9,17  Z  " style="fill:rgb(104, 154, 16); fill-opacity:0.451; stroke:none;" />
 <path d="  M 8,7  L 8,8  L 9,8  L 9,7  Z  " style="fill:rgb(104, 154, 16); fill-opacity:0.824; stroke:none;" />
 <path d="  M 9,8  L 8,8  L 8,9  L 9,9  Z  " style="fill:rgb(104, 154, 16); fill-opacity:0.086; stroke:none;" />
 <path d="  M 8,12  L 9,12  L 9,11  L 8,11  Z  " style="fill:rgb(104, 154, 16); fill-opacity:0.663; stroke:none;" />
 <path d="  M 8,17  L 9,17  L 9,16  L 8,16  Z  " style="fill:rgb(104, 154, 16); fill-opacity:0.898; stroke:none;" />
 <path d="  M 8,19  L 9,19  L 9,18  L 8,18  Z  " style="fill:rgb(104, 154, 16); fill-opacity:0.047; stroke:none;" />
 <path d="  M 9,19  L 9,20  L 10,20  L 10,19  Z  " style="fill:rgb(104, 154, 16); fill-opacity:0.047; stroke:none;" />
 <path d="  M 31,30  L 31,31  L 32,31  L 32,30  Z  " style="fill:rgb(104, 154, 16); fill-opacity:0.047; stroke:none;" />
 <path d="  M 9,20  L 8,20  L 8,21  L 9,21  Z  " style="fill:rgb(104, 154, 16); fill-opacity:0.514; stroke:none;" />
 <path d="  M 9,7  L 9,8  L 10,8  L 10,7  Z  " style="fill:rgb(104, 154, 16); fill-opacity:0.843; stroke:none;" />
 <path d="  M 10,8  L 9,8  L 9,9  L 10,9  Z  " style="fill:rgb(104, 154, 16); fill-opacity:0.094; stroke:none;" />
 <path d="  M 25,3  L 25,2  L 24,2  L 24,3  Z  " style="fill:rgb(104, 154, 16); fill-opacity:0.094; stroke:none;" />
 <path d="  M 9,11  L 10,11  L 10,10  L 9,10  Z  " style="fill:rgb(104, 154, 16); fill-opacity:0.392; stroke:none;" />
 <path d="  M 21,9  L 22,9  L 22,8  L 21,8  Z  " style="fill:rgb(104, 154, 16); fill-opacity:0.392; stroke:none;" />
 <path d="  M 10,12  L 10,11  L 9,11  L 9,12  Z  " style="fill:rgb(104, 154, 16); fill-opacity:0.945; stroke:none;" />
 <path d="  M 9,16  L 10,16  L 10,15  L 9,15  Z  " style="fill:rgb(104, 154, 16); fill-opacity:0.651; stroke:none;" />
 <path d="  M 9,18  L 10,18  L 10,17  L 9,17  Z  " style="fill:rgb(104, 159, 16); fill-opacity:0.004; stroke:none;" />
 <path d="  M 10,21  L 10,20  L 9,20  L 9,21  Z  " style="fill:rgb(104, 154, 16); fill-opacity:0.710; stroke:none;" />
 <path d="  M 30,14  L 30,15  L 31,15  L 31,14  Z  " style="fill:rgb(104, 154, 16); fill-opacity:0.710; stroke:none;" />
 <path d="  M 10,27  L 9,27  L 9,28  L 10,28  Z  " style="fill:rgb(104, 154, 16); fill-opacity:0.506; stroke:none;" />
 <path d="  M 12,4  L 12,3  L 11,3  L 11,4  Z  " style="fill:rgb(104, 154, 16); fill-opacity:0.506; stroke:none;" />
 <path d="  M 10,7  L 10,8  L 11,8  L 11,7  Z  " style="fill:rgb(104, 154, 16); fill-opacity:0.867; stroke:none;" />
 <path d="  M 10,9  L 11,9  L 11,8  L 10,8  Z  " style="fill:rgb(104, 154, 16); fill-opacity:0.102; stroke:none;" />
 <path d="  M 10,10  L 10,11  L 11,11  L 11,10  Z  " style="fill:rgb(104, 153, 16); fill-opacity:0.098; stroke:none;" />
 <path d="  M 11,12  L 11,11  L 10,11  L 10,12  Z  " style="fill:rgb(104, 154, 16); fill-opacity:0.322; stroke:none;" />
 <path d="  M 11,13  L 11,12  L 10,12  L 10,13  Z  " style="fill:rgb(104, 154, 16); fill-opacity:0.502; stroke:none;" />
 <path d="  M 10,14  L 10,15  L 11,15  L 11,14  Z  " style="fill:rgb(104, 154, 16); fill-opacity:0.208; stroke:none;" />
 <path d="  M 17,19  L 17,18  L 16,18  L 16,19  Z  " style="fill:rgb(104, 154, 16); fill-opacity:0.208; stroke:none;" />
 <path d="  M 10,15  L 10,16  L 11,16  L 11,15  Z  " style="fill:rgb(104, 155, 16); fill-opacity:0.027; stroke:none;" />
 <path d="  M 11,20  L 11,19  L 10,19  L 10,20  Z  " style="fill:rgb(104, 154, 16); fill-opacity:0.157; stroke:none;" />
 <path d="  M 10,27  L 10,28  L 11,28  L 11,27  Z  " style="fill:rgb(104, 154, 16); fill-opacity:0.412; stroke:none;" />
 <path d="  M 11,7  L 11,8  L 12,8  L 12,7  Z  " style="fill:rgb(104, 154, 16); fill-opacity:0.890; stroke:none;" />
 <path d="  M 30,29  L 30,30  L 31,30  L 31,29  Z  " style="fill:rgb(104, 154, 16); fill-opacity:0.890; stroke:none;" />
 <path d="  M 12,9  L 12,8  L 11,8  L 11,9  Z  " style="fill:rgb(104, 154, 16); fill-opacity:0.110; stroke:none;" />
 <path d="  M 12,21  L 12,20  L 11,20  L 11,21  Z  " style="fill:rgb(104, 154, 16); fill-opacity:0.957; stroke:none;" />
 <path d="  M 24,30  L 25,30  L 25,29  L 24,29  Z  " style="fill:rgb(104, 154, 16); fill-opacity:0.957; stroke:none;" />
 <path d="  M 29,31  L 30,31  L 30,30  L 29,30  Z  " style="fill:rgb(104, 154, 16); fill-opacity:0.957; stroke:none;" />
 <path d="  M 12,26  L 11,26  L 11,27  L 12,27  Z  " style="fill:rgb(104, 154, 16); fill-opacity:0.902; stroke:none;" />
 <path d="  M 11,27  L 11,28  L 12,28  L 12,27  Z  " style="fill:rgb(104, 154, 16); fill-opacity:0.169; stroke:none;" />
 <path d="  M 13,3  L 12,3  L 12,4  L 13,4  Z  " style="fill:rgb(104, 154, 16); fill-opacity:0.545; stroke:none;" />
 <path d="  M 30,11  L 30,12  L 31,12  L 31,11  Z  " style="fill:rgb(104, 154, 16); fill-opacity:0.545; stroke:none;" />
 <path d="  M 12,9  L 13,9  L 13,8  L 12,8  Z  " style="fill:rgb(104, 154, 16); fill-opacity:0.114; stroke:none;" />
 <path d="  M 27,3  L 27,2  L 26,2  L 26,3  Z  " style="fill:rgb(104, 154, 16); fill-opacity:0.114; stroke:none;" />
 <path d="  M 13,19  L 12,19  L 12,20  L 13,20  Z  " style="fill:rgb(104, 154, 16); fill-opacity:0.482; stroke:none;" />
 <path d="  M 28,31  L 28,32  L 29,32  L 29,31  Z  " style="fill:rgb(104, 154, 16); fill-opacity:0.482; stroke:none;" />
 <path d="  M 12,27  L 13,27  L 13,26  L 12,26  Z  " style="fill:rgb(104, 154, 16); fill-opacity:0.627; stroke:none;" />
 <path d="  M 30,4  L 30,3  L 29,3  L 29,4  Z  " style="fill:rgb(104, 154, 16); fill-opacity:0.627; stroke:none;" />
 <path d="  M 12,28  L 13,28  L 13,27  L 12,27  Z  " style="fill:rgb(104, 153, 16); fill-opacity:0.031; stroke:none;" />
 <path d="  M 14,4  L 14,3  L 13,3  L 13,4  Z  " style="fill:rgb(104, 154, 16); fill-opacity:0.553; stroke:none;" />
 <path d="  M 13,7  L 13,8  L 14,8  L 14,7  Z  " style="fill:rgb(104, 154, 16); fill-opacity:0.906; stroke:none;" />
 <path d="  M 28,4  L 28,3  L 27,3  L 27,4  Z  " style="fill:rgb(104, 154, 16); fill-opacity:0.906; stroke:none;" />
 <path d="  M 29,8  L 30,8  L 30,7  L 29,7  Z  " style="fill:rgb(104, 154, 16); fill-opacity:0.906; stroke:none;" />
 <path d="  M 14,9  L 14,8  L 13,8  L 13,9  Z  " style="fill:rgb(104, 153, 16); fill-opacity:0.153; stroke:none;" />
 <path d="  M 28,3  L 28,2  L 27,2  L 27,3  Z  " style="fill:rgb(104, 153, 16); fill-opacity:0.153; stroke:none;" />
 <path d="  M 13,19  L 13,20  L 14,20  L 14,19  Z  " style="fill:rgb(104, 154, 16); fill-opacity:0.690; stroke:none;" />
 <path d="  M 23,15  L 23,14  L 22,14  L 22,15  Z  " style="fill:rgb(104, 154, 16); fill-opacity:0.690; stroke:none;" />
 <path d="  M 14,26  L 14,25  L 13,25  L 13,26  Z  " style="fill:rgb(104, 154, 16); fill-opacity:0.769; stroke:none;" />
 <path d="  M 22,3  L 21,3  L 21,4  L 22,4  Z  " style="fill:rgb(104, 154, 16); fill-opacity:0.769; stroke:none;" />
 <path d="  M 13,27  L 14,27  L 14,26  L 13,26  Z  " style="fill:rgb(104, 154, 16); fill-opacity:0.145; stroke:none;" />
 <path d="  M 15,2  L 14,2  L 14,3  L 15,3  Z  " style="fill:rgb(104, 156, 16); fill-opacity:0.012; stroke:none;" />
 <path d="  M 14,4  L 15,4  L 15,3  L 14,3  Z  " style="fill:rgb(104, 154, 16); fill-opacity:0.592; stroke:none;" />
 <path d="  M 15,8  L 15,7  L 14,7  L 14,8  Z  " style="fill:rgb(104, 154, 16); fill-opacity:0.914; stroke:none;" />
 <path d="  M 15,19  L 15,20  L 16,20  L 16,19  Z  " style="fill:rgb(104, 154, 16); fill-opacity:0.914; stroke:none;" />
 <path d="  M 14,9  L 15,9  L 15,8  L 14,8  Z  " style="fill:rgb(104, 154, 16); fill-opacity:0.184; stroke:none;" />
 <path d="  M 28,2  L 28,3  L 29,3  L 29,2  Z  " style="fill:rgb(104, 154, 16); fill-opacity:0.184; stroke:none;" />
 <path d="  M 15,18  L 14,18  L 14,19  L 15,19  Z  " style="fill:rgb(104, 154, 16); fill-opacity:0.098; stroke:none;" />
 <path d="  M 31,17  L 32,17  L 32,16  L 31,16  Z  " style="fill:rgb(104, 154, 16); fill-opacity:0.098; stroke:none;" />
 <path d="  M 15,19  L 14,19  L 14,20  L 15,20  Z  " style="fill:rgb(104, 154, 16); fill-opacity:0.859; stroke:none;" />
 <path d="  M 14,24  L 14,25  L 15,25  L 15,24  Z  " style="fill:rgb(104, 154, 16); fill-opacity:0.808; stroke:none;" />
 <path d="  M 14,25  L 14,26  L 15,26  L 15,25  Z  " style="fill:rgb(104, 154, 16); fill-opacity:0.224; stroke:none;" />
 <path d="  M 16,2  L 15,2  L 15,3  L 16,3  Z  " style="fill:rgb(104, 155, 16); fill-opacity:0.020; stroke:none;" />
 <path d="  M 16,4  L 16,3  L 15,3  L 15,4  Z  " style="fill:rgb(104, 154, 16); fill-opacity:0.624; stroke:none;" />
 <path d="  M 16,18  L 15,18  L 15,19  L 16,19  Z  " style="fill:rgb(104, 154, 16); fill-opacity:0.165; stroke:none;" />
 <path d="  M 16,23  L 15,23  L 15,24  L 16,24  Z  " style="fill:rgb(104, 154, 16); fill-opacity:0.698; stroke:none;" />
 <path d="  M 30,4  L 29,4  L 29,5  L 30,5  Z  " style="fill:rgb(104, 154, 16); fill-opacity:0.698; stroke:none;" />
 <path d="  M 16,25  L 16,24  L 15,24  L 15,25  Z  " style="fill:rgb(104, 154, 16); fill-opacity:0.161; stroke:none;" />
 <path d="  M 16,3  L 17,3  L 17,2  L 16,2  Z  " style="fill:rgb(104, 154, 16); fill-opacity:0.027; stroke:none;" />
 <path d="  M 22,16  L 22,15  L 21,15  L 21,16  Z  " style="fill:rgb(104, 154, 16); fill-opacity:0.027; stroke:none;" />
 <path d="  M 17,8  L 17,7  L 16,7  L 16,8  Z  " style="fill:rgb(104, 154, 16); fill-opacity:0.937; stroke:none;" />
 <path d="  M 17,8  L 16,8  L 16,9  L 17,9  Z  " style="fill:rgb(104, 154, 16); fill-opacity:0.255; stroke:none;" />
 <path d="  M 31,8  L 30,8  L 30,9  L 31,9  Z  " style="fill:rgb(104, 154, 16); fill-opacity:0.255; stroke:none;" />
 <path d="  M 16,19  L 16,20  L 17,20  L 17,19  Z  " style="fill:rgb(104, 154, 16); fill-opacity:0.875; stroke:none;" />
 <path d="  M 17,24  L 17,23  L 16,23  L 16,24  Z  " style="fill:rgb(104, 154, 16); fill-opacity:0.078; stroke:none;" />
 <path d="  M 23,2  L 22,2  L 22,3  L 23,3  Z  " style="fill:rgb(104, 154, 16); fill-opacity:0.078; stroke:none;" />
 <path d="  M 31,16  L 32,16  L 32,15  L 31,15  Z  " style="fill:rgb(104, 154, 16); fill-opacity:0.078; stroke:none;" />
 <path d="  M 18,2  L 17,2  L 17,3  L 18,3  Z  " style="fill:rgb(104, 155, 16); fill-opacity:0.035; stroke:none;" />
 <path d="  M 30,4  L 31,4  L 31,3  L 30,3  Z  " style="fill:rgb(104, 155, 16); fill-opacity:0.035; stroke:none;" />
 <path d="  M 17,3  L 17,4  L 18,4  L 18,3  Z  " style="fill:rgb(104, 154, 16); fill-opacity:0.671; stroke:none;" />
 <path d="  M 17,8  L 18,8  L 18,7  L 17,7  Z  " style="fill:rgb(104, 154, 16); fill-opacity:0.953; stroke:none;" />
 <path d="  M 17,8  L 17,9  L 18,9  L 18,8  Z  " style="fill:rgb(104, 155, 16); fill-opacity:0.298; stroke:none;" />
 <path d="  M 18,19  L 18,18  L 17,18  L 17,19  Z  " style="fill:rgb(104, 154, 16); fill-opacity:0.024; stroke:none;" />
 <path d="  M 31,13  L 32,13  L 32,12  L 31,12  Z  " style="fill:rgb(104, 154, 16); fill-opacity:0.024; stroke:none;" />
 <path d="  M 18,20  L 18,19  L 17,19  L 17,20  Z  " style="fill:rgb(104, 154, 16); fill-opacity:0.239; stroke:none;" />
 <path d="  M 17,20  L 17,21  L 18,21  L 18,20  Z  " style="fill:rgb(104, 154, 16); fill-opacity:0.439; stroke:none;" />
 <path d="  M 17,22  L 18,22  L 18,21  L 17,21  Z  " style="fill:rgb(104, 154, 16); fill-opacity:0.188; stroke:none;" />
 <path d="  M 18,22  L 17,22  L 17,23  L 18,23  Z  " style="fill:rgb(104, 158, 16); fill-opacity:0.004; stroke:none;" />
 <path d="  M 18,2  L 18,3  L 19,3  L 19,2  Z  " style="fill:rgb(104, 155, 16); fill-opacity:0.047; stroke:none;" />
 <path d="  M 19,4  L 19,3  L 18,3  L 18,4  Z  " style="fill:rgb(104, 154, 16); fill-opacity:0.702; stroke:none;" />
 <path d="  M 18,7  L 18,8  L 19,8  L 19,7  Z  " style="fill:rgb(104, 154, 16); fill-opacity:0.965; stroke:none;" />
 <path d="  M 21,2  L 19,2  L 19,3  L 21,3  Z  " style="fill:rgb(104, 154, 16); fill-opacity:0.059; stroke:none;" />
 <path d="  M 31,6  L 31,5  L 30,5  L 30,6  Z  " style="fill:rgb(104, 154, 16); fill-opacity:0.059; stroke:none;" />
 <path d="  M 30,31  L 30,32  L 31,32  L 31,31  Z  " style="fill:rgb(104, 154, 16); fill-opacity:0.059; stroke:none;" />
 <path d="  M 32,15  L 32,14  L 31,14  L 31,15  Z  " style="fill:rgb(104, 154, 16); fill-opacity:0.059; stroke:none;" />
 <path d="  M 19,8  L 19,9  L 20,9  L 20,8  Z  " style="fill:rgb(104, 154, 16); fill-opacity:0.400; stroke:none;" />
 <path d="  M 22,24  L 23,24  L 23,21  L 22,21  Z  " style="fill:rgb(104, 154, 16); fill-opacity:0.400; stroke:none;" />
 <path d="  M 20,4  L 21,4  L 21,3  L 20,3  Z  " style="fill:rgb(104, 154, 16); fill-opacity:0.745; stroke:none;" />
 <path d="  M 21,15  L 22,15  L 22,10  L 21,10  Z  " style="fill:rgb(104, 155, 16); fill-opacity:0.043; stroke:none;" />
 <path d="  M 23,31  L 24,31  L 24,30  L 23,30  Z  " style="fill:rgb(104, 155, 16); fill-opacity:0.043; stroke:none;" />
 <path d="  M 30,4  L 30,5  L 31,5  L 31,4  Z  " style="fill:rgb(104, 155, 16); fill-opacity:0.043; stroke:none;" />
 <path d="  M 21,16  L 21,17  L 22,17  L 22,16  Z  " style="fill:rgb(104, 155, 16); fill-opacity:0.012; stroke:none;" />
 <path d="  M 22,4  L 23,4  L 23,3  L 22,3  Z  " style="fill:rgb(104, 154, 16); fill-opacity:0.800; stroke:none;" />
 <path d="  M 22,10  L 23,10  L 23,9  L 22,9  Z  " style="fill:rgb(104, 154, 16); fill-opacity:0.714; stroke:none;" />
 <path d="  M 23,10  L 22,10  L 22,14  L 23,14  Z  " style="fill:rgb(104, 154, 16); fill-opacity:0.694; stroke:none;" />
 <path d="  M 22,17  L 23,17  L 23,16  L 22,16  Z  " style="fill:rgb(104, 154, 16); fill-opacity:0.600; stroke:none;" />
 <path d="  M 22,17  L 22,18  L 23,18  L 23,17  Z  " style="fill:rgb(104, 154, 16); fill-opacity:0.529; stroke:none;" />
 <path d="  M 23,27  L 22,27  L 22,28  L 23,28  Z  " style="fill:rgb(104, 154, 16); fill-opacity:0.396; stroke:none;" />
 <path d="  M 25,31  L 25,30  L 24,30  L 24,31  Z  " style="fill:rgb(104, 154, 16); fill-opacity:0.396; stroke:none;" />
 <path d="  M 23,29  L 23,28  L 22,28  L 22,29  Z  " style="fill:rgb(104, 154, 16); fill-opacity:0.200; stroke:none;" />
 <path d="  M 23,3  L 24,3  L 24,2  L 23,2  Z  " style="fill:rgb(104, 154, 16); fill-opacity:0.090; stroke:none;" />
 <path d="  M 30,6  L 30,7  L 31,7  L 31,6  Z  " style="fill:rgb(104, 154, 16); fill-opacity:0.090; stroke:none;" />
 <path d="  M 24,4  L 24,3  L 23,3  L 23,4  Z  " style="fill:rgb(104, 154, 16); fill-opacity:0.835; stroke:none;" />
 <path d="  M 23,29  L 24,29  L 24,28  L 23,28  Z  " style="fill:rgb(104, 154, 16); fill-opacity:0.871; stroke:none;" />
 <path d="  M 24,3  L 24,4  L 25,4  L 25,3  Z  " style="fill:rgb(104, 154, 16); fill-opacity:0.847; stroke:none;" />
 <path d="  M 25,2  L 25,3  L 26,3  L 26,2  Z  " style="fill:rgb(104, 154, 16); fill-opacity:0.106; stroke:none;" />
 <path d="  M 26,4  L 26,3  L 25,3  L 25,4  Z  " style="fill:rgb(104, 154, 16); fill-opacity:0.886; stroke:none;" />
 <path d="  M 31,18  L 30,18  L 30,29  L 31,29  Z  " style="fill:rgb(104, 154, 16); fill-opacity:0.886; stroke:none;" />
 <path d="  M 26,30  L 25,30  L 25,31  L 26,31  Z  " style="fill:rgb(104, 154, 16); fill-opacity:0.784; stroke:none;" />
 <path d="  M 25,32  L 26,32  L 26,31  L 25,31  Z  " style="fill:rgb(104, 153, 16); fill-opacity:0.129; stroke:none;" />
 <path d="  M 27,31  L 26,31  L 26,32  L 27,32  Z  " style="fill:rgb(104, 154, 16); fill-opacity:0.435; stroke:none;" />
 <path d="  M 27,32  L 28,32  L 28,31  L 27,31  Z  " style="fill:rgb(104, 154, 16); fill-opacity:0.533; stroke:none;" />
 <path d="  M 28,4  L 29,4  L 29,3  L 28,3  Z  " style="fill:rgb(104, 154, 16); fill-opacity:0.929; stroke:none;" />
 <path d="  M 30,2  L 29,2  L 29,3  L 30,3  Z  " style="fill:rgb(104, 155, 16); fill-opacity:0.165; stroke:none;" />
 <path d="  M 29,5  L 29,6  L 30,6  L 30,5  Z  " style="fill:rgb(104, 154, 16); fill-opacity:0.741; stroke:none;" />
 <path d="  M 30,6  L 29,6  L 29,7  L 30,7  Z  " style="fill:rgb(104, 154, 16); fill-opacity:0.820; stroke:none;" />
 <path d="  M 31,16  L 30,16  L 30,17  L 31,17  Z  " style="fill:rgb(104, 154, 16); fill-opacity:0.820; stroke:none;" />
 <path d="  M 29,8  L 29,9  L 30,9  L 30,8  Z  " style="fill:rgb(104, 154, 16); fill-opacity:0.941; stroke:none;" />
 <path d="  M 30,32  L 30,31  L 29,31  L 29,32  Z  " style="fill:rgb(104, 154, 16); fill-opacity:0.369; stroke:none;" />
 <path d="  M 31,3  L 31,2  L 30,2  L 30,3  Z  " style="fill:rgb(104, 155, 16); fill-opacity:0.016; stroke:none;" />
 <path d="  M 30,7  L 30,8  L 31,8  L 31,7  Z  " style="fill:rgb(104, 153, 16); fill-opacity:0.161; stroke:none;" />
 <path d="  M 31,9  L 30,9  L 30,10  L 31,10  Z  " style="fill:rgb(104, 154, 16); fill-opacity:0.361; stroke:none;" />
 <path d="  M 31,13  L 31,12  L 30,12  L 30,13  Z  " style="fill:rgb(104, 154, 16); fill-opacity:0.612; stroke:none;" />
 <path d="  M 31,15  L 30,15  L 30,16  L 31,16  Z  " style="fill:rgb(104, 154, 16); fill-opacity:0.761; stroke:none;" />
 <path d="  M 31,31  L 31,30  L 30,30  L 30,31  Z  " style="fill:rgb(104, 154, 16); fill-opacity:0.580; stroke:none;" />
 <path d="  M 31,14  L 32,14  L 32,13  L 31,13  Z  " style="fill:rgb(104, 154, 16); fill-opacity:0.035; stroke:none;" />
 <path d="  M 31,30  L 32,30  L 32,17  L 31,17  Z  " style="fill:rgb(104, 154, 16); fill-opacity:0.122; stroke:none;" />
</svg>
