<?xml version="1.0" encoding="UTF-8" standalone="no"?>
<!DOCTYPE svg PUBLIC "-//W3C//DTD SVG 1.1//EN" 
  "http://www.w3.org/Graphics/SVG/1.1/DTD/svg11.dtd">
<svg width="32" height="32"
	 xmlns="http://www.w3.org/2000/svg" version="1.1">
 <path d="  M 32,0  L 0,0  L 0,32  L 32,32  Z  M 5,20  L 6,20  L 6,18  L 5,18  L 5,16  L 6,16  L 6,14  L 7,14  L 7,11  L 8,11  L 8,7  L 9,7  L 9,5  L 10,5  L 10,4  L 11,4  L 11,3  L 15,3  L 15,4  L 16,4  L 16,5  L 17,5  L 17,7  L 18,7  L 18,9  L 19,9  L 19,12  L 20,12  L 20,16  L 21,16  L 21,18  L 22,18  L 22,20  L 23,20  L 23,21  L 24,21  L 24,23  L 25,23  L 25,27  L 24,27  L 24,29  L 20,29  L 20,28  L 18,28  L 18,27  L 17,27  L 17,24  L 15,24  L 15,23  L 14,23  L 14,20  L 12,20  L 12,23  L 11,23  L 11,27  L 10,27  L 10,29  L 8,29  L 8,30  L 7,30  L 7,28  L 5,28  Z  " style="fill:rgb(255, 6, 6); fill-opacity:1.000; stroke:none;" />
 <path d="  M 13,10  L 14,10  L 14,9  L 13,9  Z  " style="fill:rgb(255, 6, 6); fill-opacity:1.000; stroke:none;" />
 <path d="  M 5,17  L 6,17  L 6,16  L 5,16  Z  " style="fill:rgb(255, 5, 5); fill-opacity:1.000; stroke:none;" />
 <path d="  M 6,23  L 6,20  L 5,20  L 5,23  Z  " style="fill:rgb(255, 5, 5); fill-opacity:1.000; stroke:none;" />
 <path d="  M 6,24  L 5,24  L 5,25  L 6,25  Z  " style="fill:rgb(255, 5, 5); fill-opacity:1.000; stroke:none;" />
 <path d="  M 5,28  L 6,28  L 6,26  L 5,26  Z  " style="fill:rgb(255, 5, 5); fill-opacity:1.000; stroke:none;" />
 <path d="  M 6,14  L 6,16  L 7,16  L 7,14  Z  " style="fill:rgb(255, 5, 5); fill-opacity:1.000; stroke:none;" />
 <path d="  M 8,30  L 8,29  L 7,29  L 7,30  Z  " style="fill:rgb(255, 5, 5); fill-opacity:1.000; stroke:none;" />
 <path d="  M 8,7  L 8,8  L 9,8  L 9,7  Z  " style="fill:rgb(255, 5, 5); fill-opacity:1.000; stroke:none;" />
 <path d="  M 9,6  L 10,6  L 10,5  L 9,5  Z  " style="fill:rgb(255, 5, 5); fill-opacity:1.000; stroke:none;" />
 <path d="  M 9,29  L 10,29  L 10,28  L 9,28  Z  " style="fill:rgb(255, 5, 5); fill-opacity:1.000; stroke:none;" />
 <path d="  M 11,25  L 11,24  L 10,24  L 10,25  Z  " style="fill:rgb(255, 5, 5); fill-opacity:1.000; stroke:none;" />
 <path d="  M 12,21  L 11,21  L 11,23  L 12,23  Z  " style="fill:rgb(255, 5, 5); fill-opacity:1.000; stroke:none;" />
 <path d="  M 13,12  L 14,12  L 14,11  L 13,11  Z  " style="fill:rgb(255, 5, 5); fill-opacity:1.000; stroke:none;" />
 <path d="  M 14,4  L 15,4  L 15,3  L 14,3  Z  " style="fill:rgb(255, 5, 5); fill-opacity:1.000; stroke:none;" />
 <path d="  M 15,20  L 14,20  L 14,21  L 15,21  Z  " style="fill:rgb(255, 5, 5); fill-opacity:1.000; stroke:none;" />
 <path d="  M 15,23  L 15,22  L 14,22  L 14,23  Z  " style="fill:rgb(255, 5, 5); fill-opacity:1.000; stroke:none;" />
 <path d="  M 16,5  L 16,4  L 15,4  L 15,5  Z  " style="fill:rgb(255, 5, 5); fill-opacity:1.000; stroke:none;" />
 <path d="  M 16,5  L 16,6  L 17,6  L 17,5  Z  " style="fill:rgb(255, 5, 5); fill-opacity:1.000; stroke:none;" />
 <path d="  M 17,9  L 18,9  L 18,7  L 17,7  Z  " style="fill:rgb(255, 5, 5); fill-opacity:1.000; stroke:none;" />
 <path d="  M 18,27  L 18,26  L 17,26  L 17,27  Z  " style="fill:rgb(255, 5, 5); fill-opacity:1.000; stroke:none;" />
 <path d="  M 18,9  L 18,10  L 19,10  L 19,9  Z  " style="fill:rgb(255, 5, 5); fill-opacity:1.000; stroke:none;" />
 <path d="  M 19,28  L 19,27  L 18,27  L 18,28  Z  " style="fill:rgb(255, 5, 5); fill-opacity:1.000; stroke:none;" />
 <path d="  M 20,12  L 19,12  L 19,14  L 20,14  Z  " style="fill:rgb(255, 5, 5); fill-opacity:1.000; stroke:none;" />
 <path d="  M 20,16  L 20,17  L 21,17  L 21,16  Z  " style="fill:rgb(255, 5, 5); fill-opacity:1.000; stroke:none;" />
 <path d="  M 21,29  L 21,28  L 20,28  L 20,29  Z  " style="fill:rgb(255, 5, 5); fill-opacity:1.000; stroke:none;" />
 <path d="  M 24,21  L 23,21  L 23,22  L 24,22  Z  " style="fill:rgb(255, 5, 5); fill-opacity:1.000; stroke:none;" />
 <path d="  M 23,29  L 24,29  L 24,28  L 23,28  Z  " style="fill:rgb(255, 5, 5); fill-opacity:1.000; stroke:none;" />
 <path d="  M 25,23  L 24,23  L 24,24  L 25,24  Z  " style="fill:rgb(255, 5, 5); fill-opacity:1.000; stroke:none;" />
 <path d="  M 6,17  L 5,17  L 5,18  L 6,18  Z  " style="fill:rgb(255, 4, 4); fill-opacity:1.000; stroke:none;" />
 <path d="  M 5,24  L 6,24  L 6,23  L 5,23  Z  " style="fill:rgb(255, 4, 4); fill-opacity:1.000; stroke:none;" />
 <path d="  M 7,12  L 8,12  L 8,11  L 7,11  Z  " style="fill:rgb(255, 4, 4); fill-opacity:1.000; stroke:none;" />
 <path d="  M 9,10  L 9,8  L 8,8  L 8,10  Z  " style="fill:rgb(255, 4, 4); fill-opacity:1.000; stroke:none;" />
 <path d="  M 11,23  L 10,23  L 10,24  L 11,24  Z  " style="fill:rgb(255, 4, 4); fill-opacity:1.000; stroke:none;" />
 <path d="  M 11,26  L 10,26  L 10,27  L 11,27  Z  " style="fill:rgb(255, 4, 4); fill-opacity:1.000; stroke:none;" />
 <path d="  M 12,21  L 12,20  L 11,20  L 11,21  Z  " style="fill:rgb(255, 4, 4); fill-opacity:1.000; stroke:none;" />
 <path d="  M 13,19  L 13,20  L 14,20  L 14,19  Z  " style="fill:rgb(255, 4, 4); fill-opacity:1.000; stroke:none;" />
 <path d="  M 16,23  L 15,23  L 15,24  L 16,24  Z  " style="fill:rgb(255, 4, 4); fill-opacity:1.000; stroke:none;" />
 <path d="  M 19,11  L 19,10  L 18,10  L 18,11  Z  " style="fill:rgb(255, 4, 4); fill-opacity:1.000; stroke:none;" />
 <path d="  M 19,15  L 19,16  L 20,16  L 20,15  Z  " style="fill:rgb(255, 4, 4); fill-opacity:1.000; stroke:none;" />
 <path d="  M 22,19  L 22,18  L 21,18  L 21,19  Z  " style="fill:rgb(255, 4, 4); fill-opacity:1.000; stroke:none;" />
 <path d="  M 23,20  L 22,20  L 22,21  L 23,21  Z  " style="fill:rgb(255, 4, 4); fill-opacity:1.000; stroke:none;" />
 <path d="  M 23,29  L 23,28  L 22,28  L 22,29  Z  " style="fill:rgb(255, 4, 4); fill-opacity:1.000; stroke:none;" />
 <path d="  M 6,25  L 5,25  L 5,26  L 6,26  Z  " style="fill:rgb(255, 3, 3); fill-opacity:1.000; stroke:none;" />
 <path d="  M 8,12  L 7,12  L 7,14  L 8,14  Z  " style="fill:rgb(255, 3, 3); fill-opacity:1.000; stroke:none;" />
 <path d="  M 10,7  L 10,6  L 9,6  L 9,7  Z  " style="fill:rgb(255, 3, 3); fill-opacity:1.000; stroke:none;" />
 <path d="  M 12,4  L 12,3  L 11,3  L 11,4  Z  " style="fill:rgb(255, 3, 3); fill-opacity:1.000; stroke:none;" />
 <path d="  M 13,19  L 12,19  L 12,20  L 13,20  Z  " style="fill:rgb(255, 3, 3); fill-opacity:1.000; stroke:none;" />
 <path d="  M 14,4  L 14,3  L 13,3  L 13,4  Z  " style="fill:rgb(255, 3, 3); fill-opacity:1.000; stroke:none;" />
 <path d="  M 14,22  L 15,22  L 15,21  L 14,21  Z  " style="fill:rgb(255, 3, 3); fill-opacity:1.000; stroke:none;" />
 <path d="  M 21,20  L 22,20  L 22,19  L 21,19  Z  " style="fill:rgb(255, 3, 3); fill-opacity:1.000; stroke:none;" />
 <path d="  M 21,28  L 21,29  L 22,29  L 22,28  Z  " style="fill:rgb(255, 3, 3); fill-opacity:1.000; stroke:none;" />
 <path d="  M 23,22  L 23,23  L 24,23  L 24,22  Z  " style="fill:rgb(255, 3, 3); fill-opacity:1.000; stroke:none;" />
 <path d="  M 25,24  L 24,24  L 24,27  L 25,27  Z  " style="fill:rgb(255, 3, 3); fill-opacity:1.000; stroke:none;" />
 <path d="  M 6,16  L 6,17  L 7,17  L 7,16  Z  " style="fill:rgb(255, 27, 27); fill-opacity:1.000; stroke:none;" />
 <path d="  M 17,11  L 18,11  L 18,10  L 17,10  Z  " style="fill:rgb(255, 27, 27); fill-opacity:1.000; stroke:none;" />
 <path d="  M 6,18  L 7,18  L 7,17  L 6,17  Z  " style="fill:rgb(255, 45, 45); fill-opacity:1.000; stroke:none;" />
 <path d="  M 7,28  L 7,27  L 6,27  L 6,28  Z  " style="fill:rgb(255, 45, 45); fill-opacity:1.000; stroke:none;" />
 <path d="  M 12,13  L 11,13  L 11,14  L 12,14  Z  " style="fill:rgb(255, 45, 45); fill-opacity:1.000; stroke:none;" />
 <path d="  M 6,18  L 6,19  L 7,19  L 7,18  Z  " style="fill:rgb(255, 7, 7); fill-opacity:1.000; stroke:none;" />
 <path d="  M 16,6  L 16,7  L 17,7  L 17,6  Z  " style="fill:rgb(255, 7, 7); fill-opacity:1.000; stroke:none;" />
 <path d="  M 7,19  L 6,19  L 6,20  L 7,20  Z  " style="fill:rgb(255, 8, 8); fill-opacity:1.000; stroke:none;" />
 <path d="  M 9,29  L 9,28  L 8,28  L 8,29  Z  " style="fill:rgb(255, 8, 8); fill-opacity:1.000; stroke:none;" />
 <path d="  M 11,25  L 10,25  L 10,26  L 11,26  Z  " style="fill:rgb(255, 8, 8); fill-opacity:1.000; stroke:none;" />
 <path d="  M 6,21  L 7,21  L 7,20  L 6,20  Z  " style="fill:rgb(255, 12, 12); fill-opacity:1.000; stroke:none;" />
 <path d="  M 11,5  L 11,4  L 10,4  L 10,5  Z  " style="fill:rgb(255, 12, 12); fill-opacity:1.000; stroke:none;" />
 <path d="  M 18,25  L 17,25  L 17,26  L 18,26  Z  " style="fill:rgb(255, 12, 12); fill-opacity:1.000; stroke:none;" />
 <path d="  M 6,21  L 6,22  L 7,22  L 7,21  Z  " style="fill:rgb(255, 17, 17); fill-opacity:1.000; stroke:none;" />
 <path d="  M 18,13  L 19,13  L 19,12  L 18,12  Z  " style="fill:rgb(255, 17, 17); fill-opacity:1.000; stroke:none;" />
 <path d="  M 6,23  L 7,23  L 7,22  L 6,22  Z  " style="fill:rgb(255, 18, 18); fill-opacity:1.000; stroke:none;" />
 <path d="  M 9,7  L 9,8  L 10,8  L 10,7  Z  " style="fill:rgb(255, 18, 18); fill-opacity:1.000; stroke:none;" />
 <path d="  M 6,23  L 6,24  L 7,24  L 7,23  Z  " style="fill:rgb(255, 42, 42); fill-opacity:1.000; stroke:none;" />
 <path d="  M 11,13  L 12,13  L 12,12  L 11,12  Z  " style="fill:rgb(255, 42, 42); fill-opacity:1.000; stroke:none;" />
 <path d="  M 14,9  L 14,8  L 13,8  L 13,9  Z  " style="fill:rgb(255, 42, 42); fill-opacity:1.000; stroke:none;" />
 <path d="  M 7,24  L 6,24  L 6,25  L 7,25  Z  " style="fill:rgb(255, 24, 24); fill-opacity:1.000; stroke:none;" />
 <path d="  M 7,26  L 7,25  L 6,25  L 6,26  Z  " style="fill:rgb(255, 61, 61); fill-opacity:1.000; stroke:none;" />
 <path d="  M 7,26  L 6,26  L 6,27  L 7,27  Z  " style="fill:rgb(255, 107, 107); fill-opacity:1.000; stroke:none;" />
 <path d="  M 8,15  L 8,14  L 7,14  L 7,15  Z  " style="fill:rgb(255, 10, 10); fill-opacity:1.000; stroke:none;" />
 <path d="  M 19,28  L 20,28  L 20,27  L 19,27  Z  " style="fill:rgb(255, 10, 10); fill-opacity:1.000; stroke:none;" />
 <path d="  M 7,16  L 8,16  L 8,15  L 7,15  Z  " style="fill:rgb(255, 48, 48); fill-opacity:1.000; stroke:none;" />
 <path d="  M 19,14  L 19,13  L 18,13  L 18,14  Z  " style="fill:rgb(255, 48, 48); fill-opacity:1.000; stroke:none;" />
 <path d="  M 8,16  L 7,16  L 7,17  L 8,17  Z  " style="fill:rgb(255, 176, 176); fill-opacity:1.000; stroke:none;" />
 <path d="  M 18,12  L 17,12  L 17,13  L 18,13  Z  " style="fill:rgb(255, 176, 176); fill-opacity:1.000; stroke:none;" />
 <path d="  M 8,17  L 7,17  L 7,18  L 8,18  Z  " style="fill:rgb(255, 206, 206); fill-opacity:1.000; stroke:none;" />
 <path d="  M 7,19  L 8,19  L 8,18  L 7,18  Z  " style="fill:rgb(255, 127, 127); fill-opacity:1.000; stroke:none;" />
 <path d="  M 7,20  L 8,20  L 8,19  L 7,19  Z  " style="fill:rgb(255, 138, 138); fill-opacity:1.000; stroke:none;" />
 <path d="  M 8,20  L 7,20  L 7,21  L 8,21  Z  " style="fill:rgb(255, 158, 158); fill-opacity:1.000; stroke:none;" />
 <path d="  M 8,22  L 8,21  L 7,21  L 7,22  Z  " style="fill:rgb(255, 177, 177); fill-opacity:1.000; stroke:none;" />
 <path d="  M 7,22  L 7,23  L 8,23  L 8,22  Z  " style="fill:rgb(255, 174, 174); fill-opacity:1.000; stroke:none;" />
 <path d="  M 7,24  L 8,24  L 8,23  L 7,23  Z  " style="fill:rgb(255, 208, 208); fill-opacity:1.000; stroke:none;" />
 <path d="  M 16,8  L 15,8  L 15,9  L 16,9  Z  " style="fill:rgb(255, 208, 208); fill-opacity:1.000; stroke:none;" />
 <path d="  M 18,13  L 17,13  L 17,14  L 18,14  Z  " style="fill:rgb(255, 208, 208); fill-opacity:1.000; stroke:none;" />
 <path d="  M 8,25  L 8,24  L 7,24  L 7,25  Z  " style="fill:rgb(255, 192, 192); fill-opacity:1.000; stroke:none;" />
 <path d="  M 7,26  L 8,26  L 8,25  L 7,25  Z  " style="fill:rgb(255, 226, 226); fill-opacity:1.000; stroke:none;" />
 <path d="  M 8,26  L 7,26  L 7,27  L 8,27  Z  " style="fill:rgb(255, 249, 249); fill-opacity:1.000; stroke:none;" />
 <path d="  M 15,12  L 15,13  L 16,13  L 16,12  Z  " style="fill:rgb(255, 249, 249); fill-opacity:1.000; stroke:none;" />
 <path d="  M 20,19  L 19,19  L 19,20  L 20,20  Z  " style="fill:rgb(255, 249, 249); fill-opacity:1.000; stroke:none;" />
 <path d="  M 7,28  L 8,28  L 8,27  L 7,27  Z  " style="fill:rgb(255, 157, 157); fill-opacity:1.000; stroke:none;" />
 <path d="  M 7,28  L 7,29  L 8,29  L 8,28  Z  " style="fill:rgb(255, 16, 16); fill-opacity:1.000; stroke:none;" />
 <path d="  M 11,22  L 11,21  L 10,21  L 10,22  Z  " style="fill:rgb(255, 16, 16); fill-opacity:1.000; stroke:none;" />
 <path d="  M 12,19  L 11,19  L 11,20  L 12,20  Z  " style="fill:rgb(255, 16, 16); fill-opacity:1.000; stroke:none;" />
 <path d="  M 15,22  L 15,23  L 16,23  L 16,22  Z  " style="fill:rgb(255, 16, 16); fill-opacity:1.000; stroke:none;" />
 <path d="  M 9,11  L 9,10  L 8,10  L 8,11  Z  " style="fill:rgb(255, 9, 9); fill-opacity:1.000; stroke:none;" />
 <path d="  M 13,10  L 13,11  L 14,11  L 14,10  Z  " style="fill:rgb(255, 9, 9); fill-opacity:1.000; stroke:none;" />
 <path d="  M 19,12  L 19,11  L 18,11  L 18,12  Z  " style="fill:rgb(255, 9, 9); fill-opacity:1.000; stroke:none;" />
 <path d="  M 18,26  L 18,27  L 19,27  L 19,26  Z  " style="fill:rgb(255, 9, 9); fill-opacity:1.000; stroke:none;" />
 <path d="  M 8,12  L 9,12  L 9,11  L 8,11  Z  " style="fill:rgb(255, 41, 41); fill-opacity:1.000; stroke:none;" />
 <path d="  M 8,13  L 9,13  L 9,12  L 8,12  Z  " style="fill:rgb(255, 93, 93); fill-opacity:1.000; stroke:none;" />
 <path d="  M 8,14  L 9,14  L 9,13  L 8,13  Z  " style="fill:rgb(255, 80, 80); fill-opacity:1.000; stroke:none;" />
 <path d="  M 11,9  L 11,10  L 12,10  L 12,9  Z  " style="fill:rgb(255, 80, 80); fill-opacity:1.000; stroke:none;" />
 <path d="  M 13,4  L 13,5  L 14,5  L 14,4  Z  " style="fill:rgb(255, 80, 80); fill-opacity:1.000; stroke:none;" />
 <path d="  M 8,14  L 8,15  L 9,15  L 9,14  Z  " style="fill:rgb(255, 133, 133); fill-opacity:1.000; stroke:none;" />
 <path d="  M 9,15  L 8,15  L 8,16  L 9,16  Z  " style="fill:rgb(255, 201, 201); fill-opacity:1.000; stroke:none;" />
 <path d="  M 12,5  L 11,5  L 11,6  L 12,6  Z  " style="fill:rgb(255, 201, 201); fill-opacity:1.000; stroke:none;" />
 <path d="  M 8,17  L 9,17  L 9,16  L 8,16  Z  " style="fill:rgb(255, 252, 252); fill-opacity:1.000; stroke:none;" />
 <path d="  M 20,21  L 20,22  L 21,22  L 21,21  Z  " style="fill:rgb(255, 252, 252); fill-opacity:1.000; stroke:none;" />
 <path d="  M 9,18  L 11,18  L 11,17  L 13,17  L 13,16  L 11,16  L 11,15  L 9,15  L 9,17  L 8,17  L 8,23  L 9,23  Z  " style="fill:rgb(255, 255, 255); fill-opacity:1.000; stroke:none;" />
 <path d="  M 13,6  L 13,5  L 12,5  L 12,7  L 14,7  L 14,6  Z  " style="fill:rgb(255, 255, 255); fill-opacity:1.000; stroke:none;" />
 <path d="  M 20,24  L 20,26  L 22,26  L 22,23  L 21,23  L 21,22  L 20,22  L 20,21  L 19,21  L 19,18  L 18,18  L 18,16  L 17,16  L 17,12  L 16,12  L 16,14  L 15,14  L 15,15  L 14,15  L 14,16  L 15,16  L 15,19  L 16,19  L 16,20  L 17,20  L 17,22  L 18,22  L 18,24  Z  " style="fill:rgb(255, 255, 255); fill-opacity:1.000; stroke:none;" />
 <path d="  M 16,9  L 15,9  L 15,11  L 16,11  Z  " style="fill:rgb(255, 255, 255); fill-opacity:1.000; stroke:none;" />
 <path d="  M 9,24  L 9,23  L 8,23  L 8,24  Z  " style="fill:rgb(255, 246, 246); fill-opacity:1.000; stroke:none;" />
 <path d="  M 8,24  L 8,25  L 9,25  L 9,24  Z  " style="fill:rgb(255, 250, 250); fill-opacity:1.000; stroke:none;" />
 <path d="  M 12,17  L 11,17  L 11,18  L 12,18  Z  " style="fill:rgb(255, 250, 250); fill-opacity:1.000; stroke:none;" />
 <path d="  M 16,20  L 16,21  L 17,21  L 17,20  Z  " style="fill:rgb(255, 250, 250); fill-opacity:1.000; stroke:none;" />
 <path d="  M 8,25  L 8,26  L 9,26  L 9,25  Z  " style="fill:rgb(255, 253, 253); fill-opacity:1.000; stroke:none;" />
 <path d="  M 14,16  L 13,16  L 13,17  L 14,17  Z  " style="fill:rgb(255, 253, 253); fill-opacity:1.000; stroke:none;" />
 <path d="  M 15,11  L 15,12  L 16,12  L 16,11  Z  " style="fill:rgb(255, 253, 253); fill-opacity:1.000; stroke:none;" />
 <path d="  M 15,14  L 16,14  L 16,13  L 15,13  Z  " style="fill:rgb(255, 253, 253); fill-opacity:1.000; stroke:none;" />
 <path d="  M 20,25  L 20,24  L 19,24  L 19,25  Z  " style="fill:rgb(255, 253, 253); fill-opacity:1.000; stroke:none;" />
 <path d="  M 23,25  L 22,25  L 22,26  L 23,26  Z  " style="fill:rgb(255, 253, 253); fill-opacity:1.000; stroke:none;" />
 <path d="  M 8,27  L 9,27  L 9,26  L 8,26  Z  " style="fill:rgb(255, 221, 221); fill-opacity:1.000; stroke:none;" />
 <path d="  M 11,13  L 11,12  L 10,12  L 10,13  Z  " style="fill:rgb(255, 221, 221); fill-opacity:1.000; stroke:none;" />
 <path d="  M 15,19  L 15,20  L 16,20  L 16,19  Z  " style="fill:rgb(255, 221, 221); fill-opacity:1.000; stroke:none;" />
 <path d="  M 19,19  L 20,19  L 20,18  L 19,18  Z  " style="fill:rgb(255, 221, 221); fill-opacity:1.000; stroke:none;" />
 <path d="  M 19,25  L 19,26  L 20,26  L 20,25  Z  " style="fill:rgb(255, 221, 221); fill-opacity:1.000; stroke:none;" />
 <path d="  M 8,27  L 8,28  L 9,28  L 9,27  Z  " style="fill:rgb(255, 103, 103); fill-opacity:1.000; stroke:none;" />
 <path d="  M 19,27  L 20,27  L 20,26  L 19,26  Z  " style="fill:rgb(255, 103, 103); fill-opacity:1.000; stroke:none;" />
 <path d="  M 21,20  L 21,19  L 20,19  L 20,20  Z  " style="fill:rgb(255, 103, 103); fill-opacity:1.000; stroke:none;" />
 <path d="  M 10,8  L 9,8  L 9,9  L 10,9  Z  " style="fill:rgb(255, 32, 32); fill-opacity:1.000; stroke:none;" />
 <path d="  M 9,10  L 10,10  L 10,9  L 9,9  Z  " style="fill:rgb(255, 57, 57); fill-opacity:1.000; stroke:none;" />
 <path d="  M 9,27  L 10,27  L 10,26  L 9,26  Z  " style="fill:rgb(255, 57, 57); fill-opacity:1.000; stroke:none;" />
 <path d="  M 9,11  L 10,11  L 10,10  L 9,10  Z  " style="fill:rgb(255, 135, 135); fill-opacity:1.000; stroke:none;" />
 <path d="  M 10,12  L 10,11  L 9,11  L 9,12  Z  " style="fill:rgb(255, 199, 199); fill-opacity:1.000; stroke:none;" />
 <path d="  M 10,12  L 9,12  L 9,13  L 10,13  Z  " style="fill:rgb(255, 245, 245); fill-opacity:1.000; stroke:none;" />
 <path d="  M 10,14  L 10,15  L 11,15  L 11,14  Z  " style="fill:rgb(255, 245, 245); fill-opacity:1.000; stroke:none;" />
 <path d="  M 10,13  L 9,13  L 9,14  L 10,14  Z  " style="fill:rgb(255, 239, 239); fill-opacity:1.000; stroke:none;" />
 <path d="  M 10,15  L 10,14  L 9,14  L 9,15  Z  " style="fill:rgb(255, 251, 251); fill-opacity:1.000; stroke:none;" />
 <path d="  M 18,22  L 17,22  L 17,23  L 18,23  Z  " style="fill:rgb(255, 251, 251); fill-opacity:1.000; stroke:none;" />
 <path d="  M 10,18  L 9,18  L 9,19  L 10,19  Z  " style="fill:rgb(255, 254, 254); fill-opacity:1.000; stroke:none;" />
 <path d="  M 14,16  L 14,17  L 15,17  L 15,16  Z  " style="fill:rgb(255, 254, 254); fill-opacity:1.000; stroke:none;" />
 <path d="  M 17,15  L 17,16  L 18,16  L 18,15  Z  " style="fill:rgb(255, 254, 254); fill-opacity:1.000; stroke:none;" />
 <path d="  M 19,21  L 20,21  L 20,20  L 19,20  Z  " style="fill:rgb(255, 254, 254); fill-opacity:1.000; stroke:none;" />
 <path d="  M 9,19  L 9,20  L 10,20  L 10,19  Z  " style="fill:rgb(255, 218, 218); fill-opacity:1.000; stroke:none;" />
 <path d="  M 10,20  L 9,20  L 9,22  L 10,22  Z  " style="fill:rgb(255, 169, 169); fill-opacity:1.000; stroke:none;" />
 <path d="  M 13,17  L 13,18  L 14,18  L 14,17  Z  " style="fill:rgb(255, 169, 169); fill-opacity:1.000; stroke:none;" />
 <path d="  M 9,23  L 10,23  L 10,22  L 9,22  Z  " style="fill:rgb(255, 163, 163); fill-opacity:1.000; stroke:none;" />
 <path d="  M 10,23  L 9,23  L 9,24  L 10,24  Z  " style="fill:rgb(255, 98, 98); fill-opacity:1.000; stroke:none;" />
 <path d="  M 10,25  L 10,24  L 9,24  L 9,25  Z  " style="fill:rgb(255, 111, 111); fill-opacity:1.000; stroke:none;" />
 <path d="  M 13,4  L 12,4  L 12,5  L 13,5  Z  " style="fill:rgb(255, 111, 111); fill-opacity:1.000; stroke:none;" />
 <path d="  M 10,26  L 10,25  L 9,25  L 9,26  Z  " style="fill:rgb(255, 125, 125); fill-opacity:1.000; stroke:none;" />
 <path d="  M 14,14  L 15,14  L 15,13  L 14,13  Z  " style="fill:rgb(255, 125, 125); fill-opacity:1.000; stroke:none;" />
 <path d="  M 10,27  L 9,27  L 9,28  L 10,28  Z  " style="fill:rgb(255, 11, 11); fill-opacity:1.000; stroke:none;" />
 <path d="  M 16,5  L 15,5  L 15,6  L 16,6  Z  " style="fill:rgb(255, 11, 11); fill-opacity:1.000; stroke:none;" />
 <path d="  M 20,17  L 20,18  L 21,18  L 21,17  Z  " style="fill:rgb(255, 11, 11); fill-opacity:1.000; stroke:none;" />
 <path d="  M 11,5  L 10,5  L 10,6  L 11,6  Z  " style="fill:rgb(255, 30, 30); fill-opacity:1.000; stroke:none;" />
 <path d="  M 10,7  L 11,7  L 11,6  L 10,6  Z  " style="fill:rgb(255, 64, 64); fill-opacity:1.000; stroke:none;" />
 <path d="  M 21,19  L 21,18  L 20,18  L 20,19  Z  " style="fill:rgb(255, 64, 64); fill-opacity:1.000; stroke:none;" />
 <path d="  M 10,7  L 10,8  L 11,8  L 11,7  Z  " style="fill:rgb(255, 154, 154); fill-opacity:1.000; stroke:none;" />
 <path d="  M 10,9  L 11,9  L 11,8  L 10,8  Z  " style="fill:rgb(255, 205, 205); fill-opacity:1.000; stroke:none;" />
 <path d="  M 10,9  L 10,10  L 11,10  L 11,9  Z  " style="fill:rgb(255, 217, 217); fill-opacity:1.000; stroke:none;" />
 <path d="  M 10,10  L 10,12  L 11,12  L 11,10  Z  " style="fill:rgb(255, 243, 243); fill-opacity:1.000; stroke:none;" />
 <path d="  M 10,14  L 11,14  L 11,13  L 10,13  Z  " style="fill:rgb(255, 225, 225); fill-opacity:1.000; stroke:none;" />
 <path d="  M 18,17  L 18,18  L 19,18  L 19,17  Z  " style="fill:rgb(255, 225, 225); fill-opacity:1.000; stroke:none;" />
 <path d="  M 11,18  L 10,18  L 10,19  L 11,19  Z  " style="fill:rgb(255, 224, 224); fill-opacity:1.000; stroke:none;" />
 <path d="  M 23,27  L 23,26  L 22,26  L 22,27  Z  " style="fill:rgb(255, 224, 224); fill-opacity:1.000; stroke:none;" />
 <path d="  M 11,20  L 11,19  L 10,19  L 10,20  Z  " style="fill:rgb(255, 69, 69); fill-opacity:1.000; stroke:none;" />
 <path d="  M 11,20  L 10,20  L 10,21  L 11,21  Z  " style="fill:rgb(255, 13, 13); fill-opacity:1.000; stroke:none;" />
 <path d="  M 17,8  L 17,7  L 16,7  L 16,8  Z  " style="fill:rgb(255, 13, 13); fill-opacity:1.000; stroke:none;" />
 <path d="  M 18,10  L 18,9  L 17,9  L 17,10  Z  " style="fill:rgb(255, 13, 13); fill-opacity:1.000; stroke:none;" />
 <path d="  M 10,22  L 10,23  L 11,23  L 11,22  Z  " style="fill:rgb(255, 20, 20); fill-opacity:1.000; stroke:none;" />
 <path d="  M 11,4  L 11,5  L 12,5  L 12,4  Z  " style="fill:rgb(255, 75, 75); fill-opacity:1.000; stroke:none;" />
 <path d="  M 12,6  L 11,6  L 11,7  L 12,7  Z  " style="fill:rgb(255, 234, 234); fill-opacity:1.000; stroke:none;" />
 <path d="  M 11,7  L 11,8  L 12,8  L 12,7  Z  " style="fill:rgb(255, 237, 237); fill-opacity:1.000; stroke:none;" />
 <path d="  M 13,15  L 13,16  L 14,16  L 14,15  Z  " style="fill:rgb(255, 237, 237); fill-opacity:1.000; stroke:none;" />
 <path d="  M 12,9  L 12,8  L 11,8  L 11,9  Z  " style="fill:rgb(255, 134, 134); fill-opacity:1.000; stroke:none;" />
 <path d="  M 12,10  L 11,10  L 11,11  L 12,11  Z  " style="fill:rgb(255, 99, 99); fill-opacity:1.000; stroke:none;" />
 <path d="  M 12,11  L 11,11  L 11,12  L 12,12  Z  " style="fill:rgb(255, 88, 88); fill-opacity:1.000; stroke:none;" />
 <path d="  M 11,14  L 11,15  L 12,15  L 12,14  Z  " style="fill:rgb(255, 121, 121); fill-opacity:1.000; stroke:none;" />
 <path d="  M 19,16  L 19,15  L 18,15  L 18,16  Z  " style="fill:rgb(255, 121, 121); fill-opacity:1.000; stroke:none;" />
 <path d="  M 12,16  L 12,15  L 11,15  L 11,16  Z  " style="fill:rgb(255, 242, 242); fill-opacity:1.000; stroke:none;" />
 <path d="  M 12,18  L 11,18  L 11,19  L 12,19  Z  " style="fill:rgb(255, 139, 139); fill-opacity:1.000; stroke:none;" />
 <path d="  M 13,3  L 12,3  L 12,4  L 13,4  Z  " style="fill:rgb(255, 2, 2); fill-opacity:1.000; stroke:none;" />
 <path d="  M 19,15  L 20,15  L 20,14  L 19,14  Z  " style="fill:rgb(255, 2, 2); fill-opacity:1.000; stroke:none;" />
 <path d="  M 13,8  L 13,7  L 12,7  L 12,8  Z  " style="fill:rgb(255, 212, 212); fill-opacity:1.000; stroke:none;" />
 <path d="  M 12,9  L 13,9  L 13,8  L 12,8  Z  " style="fill:rgb(255, 29, 29); fill-opacity:1.000; stroke:none;" />
 <path d="  M 12,14  L 14,14  L 14,12  L 13,12  L 13,9  L 12,9  Z  " style="fill:rgb(255, 0, 0); fill-opacity:1.000; stroke:none;" />
 <path d="  M 13,15  L 13,14  L 12,14  L 12,15  Z  " style="fill:rgb(255, 34, 34); fill-opacity:1.000; stroke:none;" />
 <path d="  M 12,16  L 13,16  L 13,15  L 12,15  Z  " style="fill:rgb(255, 198, 198); fill-opacity:1.000; stroke:none;" />
 <path d="  M 13,17  L 12,17  L 12,18  L 13,18  Z  " style="fill:rgb(255, 223, 223); fill-opacity:1.000; stroke:none;" />
 <path d="  M 12,18  L 12,19  L 13,19  L 13,18  Z  " style="fill:rgb(255, 54, 54); fill-opacity:1.000; stroke:none;" />
 <path d="  M 13,5  L 13,6  L 14,6  L 14,5  Z  " style="fill:rgb(255, 235, 235); fill-opacity:1.000; stroke:none;" />
 <path d="  M 13,7  L 13,8  L 14,8  L 14,7  Z  " style="fill:rgb(255, 209, 209); fill-opacity:1.000; stroke:none;" />
 <path d="  M 13,15  L 14,15  L 14,14  L 13,14  Z  " style="fill:rgb(255, 79, 79); fill-opacity:1.000; stroke:none;" />
 <path d="  M 14,18  L 13,18  L 13,19  L 14,19  Z  " style="fill:rgb(255, 28, 28); fill-opacity:1.000; stroke:none;" />
 <path d="  M 15,5  L 15,4  L 14,4  L 14,5  Z  " style="fill:rgb(255, 23, 23); fill-opacity:1.000; stroke:none;" />
 <path d="  M 14,6  L 15,6  L 15,5  L 14,5  Z  " style="fill:rgb(255, 112, 112); fill-opacity:1.000; stroke:none;" />
 <path d="  M 15,6  L 14,6  L 14,7  L 15,7  Z  " style="fill:rgb(255, 227, 227); fill-opacity:1.000; stroke:none;" />
 <path d="  M 15,8  L 15,7  L 14,7  L 14,8  Z  " style="fill:rgb(255, 247, 247); fill-opacity:1.000; stroke:none;" />
 <path d="  M 14,9  L 15,9  L 15,8  L 14,8  Z  " style="fill:rgb(255, 187, 187); fill-opacity:1.000; stroke:none;" />
 <path d="  M 14,10  L 15,10  L 15,9  L 14,9  Z  " style="fill:rgb(255, 149, 149); fill-opacity:1.000; stroke:none;" />
 <path d="  M 14,10  L 14,11  L 15,11  L 15,10  Z  " style="fill:rgb(255, 160, 160); fill-opacity:1.000; stroke:none;" />
 <path d="  M 15,7  L 15,8  L 16,8  L 16,7  Z  " style="fill:rgb(255, 160, 160); fill-opacity:1.000; stroke:none;" />
 <path d="  M 15,11  L 14,11  L 14,12  L 15,12  Z  " style="fill:rgb(255, 128, 128); fill-opacity:1.000; stroke:none;" />
 <path d="  M 15,20  L 15,21  L 16,21  L 16,20  Z  " style="fill:rgb(255, 128, 128); fill-opacity:1.000; stroke:none;" />
 <path d="  M 15,13  L 15,12  L 14,12  L 14,13  Z  " style="fill:rgb(255, 104, 104); fill-opacity:1.000; stroke:none;" />
 <path d="  M 15,14  L 14,14  L 14,15  L 15,15  Z  " style="fill:rgb(255, 194, 194); fill-opacity:1.000; stroke:none;" />
 <path d="  M 15,18  L 15,17  L 14,17  L 14,18  Z  " style="fill:rgb(255, 220, 220); fill-opacity:1.000; stroke:none;" />
 <path d="  M 15,18  L 14,18  L 14,19  L 15,19  Z  " style="fill:rgb(255, 167, 167); fill-opacity:1.000; stroke:none;" />
 <path d="  M 22,21  L 21,21  L 21,22  L 22,22  Z  " style="fill:rgb(255, 167, 167); fill-opacity:1.000; stroke:none;" />
 <path d="  M 15,19  L 14,19  L 14,20  L 15,20  Z  " style="fill:rgb(255, 65, 65); fill-opacity:1.000; stroke:none;" />
 <path d="  M 15,7  L 16,7  L 16,6  L 15,6  Z  " style="fill:rgb(255, 86, 86); fill-opacity:1.000; stroke:none;" />
 <path d="  M 16,22  L 16,21  L 15,21  L 15,22  Z  " style="fill:rgb(255, 74, 74); fill-opacity:1.000; stroke:none;" />
 <path d="  M 17,8  L 16,8  L 16,9  L 17,9  Z  " style="fill:rgb(255, 63, 63); fill-opacity:1.000; stroke:none;" />
 <path d="  M 16,10  L 17,10  L 17,9  L 16,9  Z  " style="fill:rgb(255, 161, 161); fill-opacity:1.000; stroke:none;" />
 <path d="  M 17,11  L 17,10  L 16,10  L 16,11  Z  " style="fill:rgb(255, 200, 200); fill-opacity:1.000; stroke:none;" />
 <path d="  M 17,11  L 16,11  L 16,12  L 17,12  Z  " style="fill:rgb(255, 233, 233); fill-opacity:1.000; stroke:none;" />
 <path d="  M 22,27  L 22,26  L 21,26  L 21,27  Z  " style="fill:rgb(255, 233, 233); fill-opacity:1.000; stroke:none;" />
 <path d="  M 17,22  L 17,21  L 16,21  L 16,22  Z  " style="fill:rgb(255, 232, 232); fill-opacity:1.000; stroke:none;" />
 <path d="  M 17,22  L 16,22  L 16,23  L 17,23  Z  " style="fill:rgb(255, 147, 147); fill-opacity:1.000; stroke:none;" />
 <path d="  M 17,24  L 17,23  L 16,23  L 16,24  Z  " style="fill:rgb(255, 33, 33); fill-opacity:1.000; stroke:none;" />
 <path d="  M 17,11  L 17,12  L 18,12  L 18,11  Z  " style="fill:rgb(255, 91, 91); fill-opacity:1.000; stroke:none;" />
 <path d="  M 18,14  L 17,14  L 17,15  L 18,15  Z  " style="fill:rgb(255, 248, 248); fill-opacity:1.000; stroke:none;" />
 <path d="  M 22,22  L 21,22  L 21,23  L 22,23  Z  " style="fill:rgb(255, 248, 248); fill-opacity:1.000; stroke:none;" />
 <path d="  M 17,23  L 17,24  L 18,24  L 18,23  Z  " style="fill:rgb(255, 195, 195); fill-opacity:1.000; stroke:none;" />
 <path d="  M 17,25  L 18,25  L 18,24  L 17,24  Z  " style="fill:rgb(255, 102, 102); fill-opacity:1.000; stroke:none;" />
 <path d="  M 18,14  L 18,15  L 19,15  L 19,14  Z  " style="fill:rgb(255, 101, 101); fill-opacity:1.000; stroke:none;" />
 <path d="  M 19,16  L 18,16  L 18,17  L 19,17  Z  " style="fill:rgb(255, 162, 162); fill-opacity:1.000; stroke:none;" />
 <path d="  M 18,24  L 18,25  L 19,25  L 19,24  Z  " style="fill:rgb(255, 219, 219); fill-opacity:1.000; stroke:none;" />
 <path d="  M 19,25  L 18,25  L 18,26  L 19,26  Z  " style="fill:rgb(255, 68, 68); fill-opacity:1.000; stroke:none;" />
 <path d="  M 19,17  L 20,17  L 20,16  L 19,16  Z  " style="fill:rgb(255, 14, 14); fill-opacity:1.000; stroke:none;" />
 <path d="  M 23,28  L 24,28  L 24,27  L 23,27  Z  " style="fill:rgb(255, 14, 14); fill-opacity:1.000; stroke:none;" />
 <path d="  M 20,17  L 19,17  L 19,18  L 20,18  Z  " style="fill:rgb(255, 96, 96); fill-opacity:1.000; stroke:none;" />
 <path d="  M 21,20  L 20,20  L 20,21  L 21,21  Z  " style="fill:rgb(255, 186, 186); fill-opacity:1.000; stroke:none;" />
 <path d="  M 20,27  L 21,27  L 21,26  L 20,26  Z  " style="fill:rgb(255, 189, 189); fill-opacity:1.000; stroke:none;" />
 <path d="  M 21,27  L 20,27  L 20,28  L 21,28  Z  " style="fill:rgb(255, 25, 25); fill-opacity:1.000; stroke:none;" />
 <path d="  M 21,20  L 21,21  L 22,21  L 22,20  Z  " style="fill:rgb(255, 37, 37); fill-opacity:1.000; stroke:none;" />
 <path d="  M 22,27  L 21,27  L 21,28  L 22,28  Z  " style="fill:rgb(255, 78, 78); fill-opacity:1.000; stroke:none;" />
 <path d="  M 23,22  L 23,21  L 22,21  L 22,22  Z  " style="fill:rgb(255, 31, 31); fill-opacity:1.000; stroke:none;" />
 <path d="  M 23,23  L 23,22  L 22,22  L 22,23  Z  " style="fill:rgb(255, 97, 97); fill-opacity:1.000; stroke:none;" />
 <path d="  M 22,24  L 23,24  L 23,23  L 22,23  Z  " style="fill:rgb(255, 166, 166); fill-opacity:1.000; stroke:none;" />
 <path d="  M 22,24  L 22,25  L 23,25  L 23,24  Z  " style="fill:rgb(255, 230, 230); fill-opacity:1.000; stroke:none;" />
 <path d="  M 23,27  L 22,27  L 22,28  L 23,28  Z  " style="fill:rgb(255, 73, 73); fill-opacity:1.000; stroke:none;" />
 <path d="  M 23,24  L 23,25  L 24,25  L 24,24  Z  " style="fill:rgb(255, 73, 73); fill-opacity:1.000; stroke:none;" />
 <path d="  M 23,23  L 23,24  L 24,24  L 24,23  Z  " style="fill:rgb(255, 19, 19); fill-opacity:1.000; stroke:none;" />
 <path d="  M 24,26  L 24,25  L 23,25  L 23,26  Z  " style="fill:rgb(255, 109, 109); fill-opacity:1.000; stroke:none;" />
 <path d="  M 23,26  L 23,27  L 24,27  L 24,26  Z  " style="fill:rgb(255, 77, 77); fill-opacity:1.000; stroke:none;" />
</svg>
