<?xml version="1.0" encoding="UTF-8" standalone="no"?>
<!DOCTYPE svg PUBLIC "-//W3C//DTD SVG 1.1//EN" 
  "http://www.w3.org/Graphics/SVG/1.1/DTD/svg11.dtd">
<svg width="32" height="32"
	 xmlns="http://www.w3.org/2000/svg" version="1.1">
 <path d="  M 3,7  L 4,7  L 4,6  L 3,6  Z  " style="fill:rgb(35, 106, 255); fill-opacity:0.047; stroke:none;" />
 <path d="  M 3,8  L 4,8  L 4,7  L 3,7  Z  " style="fill:rgb(34, 105, 255); fill-opacity:0.035; stroke:none;" />
 <path d="  M 4,24  L 3,24  L 3,26  L 4,26  Z  " style="fill:rgb(35, 104, 255); fill-opacity:0.063; stroke:none;" />
 <path d="  M 3,27  L 4,27  L 4,26  L 3,26  Z  " style="fill:rgb(36, 103, 255); fill-opacity:0.016; stroke:none;" />
 <path d="  M 4,4  L 4,5  L 5,5  L 5,4  Z  " style="fill:rgb(31, 107, 255); fill-opacity:0.008; stroke:none;" />
 <path d="  M 4,5  L 4,6  L 5,6  L 5,5  Z  " style="fill:rgb(36, 105, 255); fill-opacity:0.251; stroke:none;" />
 <path d="  M 5,7  L 5,6  L 4,6  L 4,7  Z  " style="fill:rgb(35, 105, 255); fill-opacity:0.647; stroke:none;" />
 <path d="  M 6,23  L 7,23  L 7,22  L 6,22  Z  " style="fill:rgb(35, 105, 255); fill-opacity:0.647; stroke:none;" />
 <path d="  M 5,7  L 4,7  L 4,8  L 5,8  Z  " style="fill:rgb(34, 105, 255); fill-opacity:0.486; stroke:none;" />
 <path d="  M 5,8  L 4,8  L 4,9  L 5,9  Z  " style="fill:rgb(34, 106, 255); fill-opacity:0.137; stroke:none;" />
 <path d="  M 5,24  L 5,23  L 4,23  L 4,24  Z  " style="fill:rgb(36, 105, 255); fill-opacity:0.153; stroke:none;" />
 <path d="  M 4,25  L 5,25  L 5,24  L 4,24  Z  " style="fill:rgb(36, 105, 255); fill-opacity:0.616; stroke:none;" />
 <path d="  M 5,25  L 4,25  L 4,26  L 5,26  Z  " style="fill:rgb(36, 105, 255); fill-opacity:0.678; stroke:none;" />
 <path d="  M 5,26  L 4,26  L 4,27  L 5,27  Z  " style="fill:rgb(36, 105, 255); fill-opacity:0.294; stroke:none;" />
 <path d="  M 5,4  L 5,5  L 6,5  L 6,4  Z  " style="fill:rgb(35, 106, 255); fill-opacity:0.098; stroke:none;" />
 <path d="  M 5,5  L 5,6  L 6,6  L 6,5  Z  " style="fill:rgb(36, 105, 255); fill-opacity:0.698; stroke:none;" />
 <path d="  M 6,7  L 6,6  L 5,6  L 5,7  Z  " style="fill:rgb(36, 105, 255); fill-opacity:0.996; stroke:none;" />
 <path d="  M 8,24  L 8,25  L 9,25  L 9,24  Z  " style="fill:rgb(36, 105, 255); fill-opacity:0.996; stroke:none;" />
 <path d="  M 10,10  L 10,11  L 11,11  L 11,10  Z  " style="fill:rgb(36, 105, 255); fill-opacity:0.996; stroke:none;" />
 <path d="  M 18,13  L 17,13  L 17,14  L 18,14  Z  " style="fill:rgb(36, 105, 255); fill-opacity:0.996; stroke:none;" />
 <path d="  M 22,11  L 22,10  L 21,10  L 21,11  Z  " style="fill:rgb(36, 105, 255); fill-opacity:0.996; stroke:none;" />
 <path d="  M 24,11  L 24,10  L 23,10  L 23,11  Z  " style="fill:rgb(36, 105, 255); fill-opacity:0.996; stroke:none;" />
 <path d="  M 25,21  L 25,20  L 24,20  L 24,21  Z  " style="fill:rgb(36, 105, 255); fill-opacity:0.996; stroke:none;" />
 <path d="  M 25,23  L 25,22  L 24,22  L 24,23  Z  " style="fill:rgb(36, 105, 255); fill-opacity:0.996; stroke:none;" />
 <path d="  M 27,15  L 28,15  L 28,14  L 27,14  Z  " style="fill:rgb(36, 105, 255); fill-opacity:0.996; stroke:none;" />
 <path d="  M 27,19  L 27,21  L 28,21  L 28,19  Z  " style="fill:rgb(36, 105, 255); fill-opacity:0.996; stroke:none;" />
 <path d="  M 6,7  L 5,7  L 5,8  L 6,8  Z  " style="fill:rgb(36, 105, 255); fill-opacity:0.949; stroke:none;" />
 <path d="  M 18,12  L 17,12  L 17,13  L 18,13  Z  " style="fill:rgb(36, 105, 255); fill-opacity:0.949; stroke:none;" />
 <path d="  M 19,12  L 19,11  L 18,11  L 18,12  Z  " style="fill:rgb(36, 105, 255); fill-opacity:0.949; stroke:none;" />
 <path d="  M 27,26  L 28,26  L 28,25  L 27,25  Z  " style="fill:rgb(36, 105, 255); fill-opacity:0.949; stroke:none;" />
 <path d="  M 5,8  L 5,9  L 6,9  L 6,8  Z  " style="fill:rgb(36, 105, 255); fill-opacity:0.729; stroke:none;" />
 <path d="  M 5,9  L 5,10  L 6,10  L 6,9  Z  " style="fill:rgb(36, 105, 255); fill-opacity:0.310; stroke:none;" />
 <path d="  M 21,14  L 22,14  L 22,13  L 21,13  Z  " style="fill:rgb(36, 105, 255); fill-opacity:0.310; stroke:none;" />
 <path d="  M 5,10  L 5,11  L 6,11  L 6,10  Z  " style="fill:rgb(31, 103, 255); fill-opacity:0.016; stroke:none;" />
 <path d="  M 5,23  L 6,23  L 6,22  L 5,22  Z  " style="fill:rgb(35, 104, 255); fill-opacity:0.086; stroke:none;" />
 <path d="  M 5,24  L 6,24  L 6,23  L 5,23  Z  " style="fill:rgb(36, 105, 255); fill-opacity:0.573; stroke:none;" />
 <path d="  M 6,24  L 5,24  L 5,25  L 6,25  Z  " style="fill:rgb(36, 105, 255); fill-opacity:0.965; stroke:none;" />
 <path d="  M 18,20  L 18,19  L 17,19  L 17,20  Z  " style="fill:rgb(36, 105, 255); fill-opacity:0.965; stroke:none;" />
 <path d="  M 21,11  L 21,12  L 22,12  L 22,11  Z  " style="fill:rgb(36, 105, 255); fill-opacity:0.965; stroke:none;" />
 <path d="  M 27,7  L 27,8  L 28,8  L 28,7  Z  " style="fill:rgb(36, 105, 255); fill-opacity:0.965; stroke:none;" />
 <path d="  M 6,25  L 5,25  L 5,26  L 6,26  Z  " style="fill:rgb(36, 105, 255); fill-opacity:0.992; stroke:none;" />
 <path d="  M 9,8  L 8,8  L 8,9  L 9,9  Z  " style="fill:rgb(36, 105, 255); fill-opacity:0.992; stroke:none;" />
 <path d="  M 15,19  L 14,19  L 14,20  L 15,20  Z  " style="fill:rgb(36, 105, 255); fill-opacity:0.992; stroke:none;" />
 <path d="  M 16,15  L 17,15  L 17,14  L 16,14  Z  " style="fill:rgb(36, 105, 255); fill-opacity:0.992; stroke:none;" />
 <path d="  M 19,19  L 19,18  L 18,18  L 18,19  Z  " style="fill:rgb(36, 105, 255); fill-opacity:0.992; stroke:none;" />
 <path d="  M 19,21  L 20,21  L 20,20  L 19,20  Z  " style="fill:rgb(36, 105, 255); fill-opacity:0.992; stroke:none;" />
 <path d="  M 22,24  L 23,24  L 23,22  L 22,22  Z  " style="fill:rgb(36, 105, 255); fill-opacity:0.992; stroke:none;" />
 <path d="  M 24,13  L 23,13  L 23,14  L 24,14  Z  " style="fill:rgb(36, 105, 255); fill-opacity:0.992; stroke:none;" />
 <path d="  M 24,21  L 24,22  L 25,22  L 25,21  Z  " style="fill:rgb(36, 105, 255); fill-opacity:0.992; stroke:none;" />
 <path d="  M 27,14  L 28,14  L 28,13  L 27,13  Z  " style="fill:rgb(36, 105, 255); fill-opacity:0.992; stroke:none;" />
 <path d="  M 6,27  L 6,26  L 5,26  L 5,27  Z  " style="fill:rgb(36, 105, 255); fill-opacity:0.655; stroke:none;" />
 <path d="  M 27,27  L 28,27  L 28,26  L 27,26  Z  " style="fill:rgb(36, 105, 255); fill-opacity:0.655; stroke:none;" />
 <path d="  M 5,28  L 6,28  L 6,27  L 5,27  Z  " style="fill:rgb(34, 106, 255); fill-opacity:0.055; stroke:none;" />
 <path d="  M 6,4  L 6,5  L 7,5  L 7,4  Z  " style="fill:rgb(36, 105, 255); fill-opacity:0.063; stroke:none;" />
 <path d="  M 7,6  L 7,5  L 6,5  L 6,6  Z  " style="fill:rgb(35, 105, 255); fill-opacity:0.690; stroke:none;" />
 <path d="  M 9,14  L 10,14  L 10,15  L 12,15  L 12,16  L 13,16  L 13,18  L 12,18  L 12,19  L 11,19  L 11,20  L 10,20  L 10,21  L 9,21  L 9,22  L 8,22  L 8,23  L 7,23  L 7,24  L 6,24  L 6,25  L 8,25  L 8,24  L 10,24  L 10,23  L 11,23  L 11,22  L 13,22  L 13,21  L 12,21  L 12,20  L 14,20  L 14,19  L 18,19  L 18,18  L 17,18  L 17,16  L 18,16  L 18,15  L 19,15  L 19,13  L 21,13  L 21,10  L 24,10  L 24,20  L 25,20  L 25,23  L 23,23  L 23,25  L 24,25  L 24,26  L 26,26  L 26,25  L 27,25  L 27,19  L 28,19  L 28,15  L 27,15  L 27,11  L 28,11  L 28,10  L 26,10  L 26,9  L 27,9  L 27,7  L 26,7  L 26,5  L 24,5  L 24,6  L 23,6  L 23,8  L 22,8  L 22,9  L 20,9  L 20,11  L 19,11  L 19,12  L 18,12  L 18,14  L 17,14  L 17,15  L 14,15  L 14,14  L 13,14  L 13,13  L 12,13  L 12,12  L 11,12  L 11,11  L 10,11  L 10,10  L 9,10  L 9,9  L 8,9  L 8,7  L 7,7  L 7,6  L 6,6  L 6,9  L 7,9  L 7,10  L 8,10  L 8,12  L 9,12  Z  " style="fill:rgb(36, 105, 255); fill-opacity:1.000; stroke:none;" />
 <path d="  M 20,20  L 20,19  L 18,19  L 18,20  Z  " style="fill:rgb(36, 105, 255); fill-opacity:1.000; stroke:none;" />
 <path d="  M 20,21  L 20,22  L 21,22  L 21,23  L 22,23  L 22,21  Z  " style="fill:rgb(36, 105, 255); fill-opacity:1.000; stroke:none;" />
 <path d="  M 7,9  L 6,9  L 6,10  L 7,10  Z  " style="fill:rgb(35, 105, 255); fill-opacity:0.898; stroke:none;" />
 <path d="  M 6,11  L 7,11  L 7,10  L 6,10  Z  " style="fill:rgb(35, 105, 255); fill-opacity:0.451; stroke:none;" />
 <path d="  M 7,11  L 6,11  L 6,12  L 7,12  Z  " style="fill:rgb(35, 105, 255); fill-opacity:0.102; stroke:none;" />
 <path d="  M 6,13  L 7,13  L 7,12  L 6,12  Z  " style="fill:rgb(34, 102, 255); fill-opacity:0.004; stroke:none;" />
 <path d="  M 6,21  L 6,22  L 7,22  L 7,21  Z  " style="fill:rgb(35, 105, 255); fill-opacity:0.141; stroke:none;" />
 <path d="  M 6,23  L 6,24  L 7,24  L 7,23  Z  " style="fill:rgb(36, 105, 255); fill-opacity:0.976; stroke:none;" />
 <path d="  M 7,26  L 7,25  L 6,25  L 6,26  Z  " style="fill:rgb(36, 105, 255); fill-opacity:0.976; stroke:none;" />
 <path d="  M 12,11  L 11,11  L 11,12  L 12,12  Z  " style="fill:rgb(36, 105, 255); fill-opacity:0.976; stroke:none;" />
 <path d="  M 13,17  L 12,17  L 12,18  L 13,18  Z  " style="fill:rgb(36, 105, 255); fill-opacity:0.976; stroke:none;" />
 <path d="  M 27,5  L 27,4  L 26,4  L 26,5  Z  " style="fill:rgb(36, 105, 255); fill-opacity:0.976; stroke:none;" />
 <path d="  M 27,7  L 28,7  L 28,6  L 27,6  Z  " style="fill:rgb(36, 105, 255); fill-opacity:0.976; stroke:none;" />
 <path d="  M 7,26  L 6,26  L 6,27  L 7,27  Z  " style="fill:rgb(35, 105, 255); fill-opacity:0.604; stroke:none;" />
 <path d="  M 7,28  L 7,27  L 6,27  L 6,28  Z  " style="fill:rgb(35, 105, 255); fill-opacity:0.043; stroke:none;" />
 <path d="  M 7,5  L 8,5  L 8,4  L 7,4  Z  " style="fill:rgb(40, 108, 255); fill-opacity:0.004; stroke:none;" />
 <path d="  M 8,5  L 7,5  L 7,6  L 8,6  Z  " style="fill:rgb(36, 105, 255); fill-opacity:0.302; stroke:none;" />
 <path d="  M 7,7  L 8,7  L 8,6  L 7,6  Z  " style="fill:rgb(36, 105, 255); fill-opacity:0.875; stroke:none;" />
 <path d="  M 21,20  L 21,19  L 20,19  L 20,20  Z  " style="fill:rgb(36, 105, 255); fill-opacity:0.875; stroke:none;" />
 <path d="  M 7,11  L 8,11  L 8,10  L 7,10  Z  " style="fill:rgb(36, 105, 255); fill-opacity:0.929; stroke:none;" />
 <path d="  M 24,5  L 23,5  L 23,6  L 24,6  Z  " style="fill:rgb(36, 105, 255); fill-opacity:0.929; stroke:none;" />
 <path d="  M 7,12  L 8,12  L 8,11  L 7,11  Z  " style="fill:rgb(36, 105, 255); fill-opacity:0.690; stroke:none;" />
 <path d="  M 7,13  L 8,13  L 8,12  L 7,12  Z  " style="fill:rgb(35, 105, 255); fill-opacity:0.420; stroke:none;" />
 <path d="  M 7,13  L 7,14  L 8,14  L 8,13  Z  " style="fill:rgb(35, 106, 255); fill-opacity:0.141; stroke:none;" />
 <path d="  M 8,20  L 7,20  L 7,21  L 8,21  Z  " style="fill:rgb(37, 106, 255); fill-opacity:0.145; stroke:none;" />
 <path d="  M 8,22  L 8,21  L 7,21  L 7,22  Z  " style="fill:rgb(36, 105, 255); fill-opacity:0.675; stroke:none;" />
 <path d="  M 18,17  L 18,18  L 19,18  L 19,17  Z  " style="fill:rgb(36, 105, 255); fill-opacity:0.675; stroke:none;" />
 <path d="  M 7,22  L 7,23  L 8,23  L 8,22  Z  " style="fill:rgb(36, 105, 255); fill-opacity:0.980; stroke:none;" />
 <path d="  M 8,22  L 9,22  L 9,21  L 8,21  Z  " style="fill:rgb(36, 105, 255); fill-opacity:0.980; stroke:none;" />
 <path d="  M 17,18  L 18,18  L 18,17  L 17,17  Z  " style="fill:rgb(36, 105, 255); fill-opacity:0.980; stroke:none;" />
 <path d="  M 19,14  L 20,14  L 20,13  L 19,13  Z  " style="fill:rgb(36, 105, 255); fill-opacity:0.980; stroke:none;" />
 <path d="  M 21,9  L 22,9  L 22,8  L 21,8  Z  " style="fill:rgb(36, 105, 255); fill-opacity:0.980; stroke:none;" />
 <path d="  M 23,7  L 22,7  L 22,8  L 23,8  Z  " style="fill:rgb(36, 105, 255); fill-opacity:0.980; stroke:none;" />
 <path d="  M 23,11  L 23,12  L 24,12  L 24,11  Z  " style="fill:rgb(36, 105, 255); fill-opacity:0.980; stroke:none;" />
 <path d="  M 28,12  L 27,12  L 27,13  L 28,13  Z  " style="fill:rgb(36, 105, 255); fill-opacity:0.980; stroke:none;" />
 <path d="  M 7,26  L 8,26  L 8,25  L 7,25  Z  " style="fill:rgb(36, 105, 255); fill-opacity:0.843; stroke:none;" />
 <path d="  M 22,12  L 23,12  L 23,11  L 22,11  Z  " style="fill:rgb(36, 105, 255); fill-opacity:0.843; stroke:none;" />
 <path d="  M 8,26  L 7,26  L 7,27  L 8,27  Z  " style="fill:rgb(35, 105, 255); fill-opacity:0.216; stroke:none;" />
 <path d="  M 9,7  L 9,6  L 8,6  L 8,7  Z  " style="fill:rgb(36, 105, 255); fill-opacity:0.298; stroke:none;" />
 <path d="  M 22,24  L 21,24  L 21,25  L 22,25  Z  " style="fill:rgb(36, 105, 255); fill-opacity:0.298; stroke:none;" />
 <path d="  M 8,7  L 8,8  L 9,8  L 9,7  Z  " style="fill:rgb(36, 105, 255); fill-opacity:0.733; stroke:none;" />
 <path d="  M 10,9  L 10,10  L 11,10  L 11,9  Z  " style="fill:rgb(36, 105, 255); fill-opacity:0.733; stroke:none;" />
 <path d="  M 23,20  L 24,20  L 24,19  L 23,19  Z  " style="fill:rgb(36, 105, 255); fill-opacity:0.733; stroke:none;" />
 <path d="  M 8,13  L 9,13  L 9,12  L 8,12  Z  " style="fill:rgb(36, 105, 255); fill-opacity:0.957; stroke:none;" />
 <path d="  M 28,9  L 28,8  L 27,8  L 27,9  Z  " style="fill:rgb(36, 105, 255); fill-opacity:0.957; stroke:none;" />
 <path d="  M 8,14  L 9,14  L 9,13  L 8,13  Z  " style="fill:rgb(35, 106, 255); fill-opacity:0.757; stroke:none;" />
 <path d="  M 8,14  L 8,15  L 9,15  L 9,14  Z  " style="fill:rgb(36, 105, 255); fill-opacity:0.376; stroke:none;" />
 <path d="  M 9,15  L 8,15  L 8,16  L 9,16  Z  " style="fill:rgb(37, 106, 255); fill-opacity:0.047; stroke:none;" />
 <path d="  M 8,19  L 8,20  L 9,20  L 9,19  Z  " style="fill:rgb(36, 104, 255); fill-opacity:0.047; stroke:none;" />
 <path d="  M 29,13  L 29,14  L 30,14  L 30,13  Z  " style="fill:rgb(36, 104, 255); fill-opacity:0.047; stroke:none;" />
 <path d="  M 9,20  L 8,20  L 8,21  L 9,21  Z  " style="fill:rgb(37, 105, 255); fill-opacity:0.553; stroke:none;" />
 <path d="  M 8,25  L 8,26  L 9,26  L 9,25  Z  " style="fill:rgb(36, 105, 255); fill-opacity:0.592; stroke:none;" />
 <path d="  M 17,20  L 17,21  L 18,21  L 18,20  Z  " style="fill:rgb(36, 105, 255); fill-opacity:0.592; stroke:none;" />
 <path d="  M 28,10  L 29,10  L 29,9  L 28,9  Z  " style="fill:rgb(36, 105, 255); fill-opacity:0.592; stroke:none;" />
 <path d="  M 8,27  L 9,27  L 9,26  L 8,26  Z  " style="fill:rgb(36, 106, 255); fill-opacity:0.027; stroke:none;" />
 <path d="  M 22,5  L 21,5  L 21,6  L 22,6  Z  " style="fill:rgb(36, 106, 255); fill-opacity:0.027; stroke:none;" />
 <path d="  M 9,7  L 9,8  L 10,8  L 10,7  Z  " style="fill:rgb(36, 108, 255); fill-opacity:0.153; stroke:none;" />
 <path d="  M 10,8  L 9,8  L 9,9  L 10,9  Z  " style="fill:rgb(36, 105, 255); fill-opacity:0.702; stroke:none;" />
 <path d="  M 9,10  L 10,10  L 10,9  L 9,9  Z  " style="fill:rgb(36, 105, 255); fill-opacity:0.973; stroke:none;" />
 <path d="  M 14,21  L 14,20  L 13,20  L 13,21  Z  " style="fill:rgb(36, 105, 255); fill-opacity:0.973; stroke:none;" />
 <path d="  M 23,22  L 23,23  L 24,23  L 24,22  Z  " style="fill:rgb(36, 105, 255); fill-opacity:0.973; stroke:none;" />
 <path d="  M 27,24  L 28,24  L 28,23  L 27,23  Z  " style="fill:rgb(36, 105, 255); fill-opacity:0.973; stroke:none;" />
 <path d="  M 10,15  L 10,14  L 9,14  L 9,15  Z  " style="fill:rgb(36, 105, 255); fill-opacity:0.918; stroke:none;" />
 <path d="  M 10,21  L 10,20  L 9,20  L 9,21  Z  " style="fill:rgb(36, 105, 255); fill-opacity:0.918; stroke:none;" />
 <path d="  M 12,18  L 11,18  L 11,19  L 12,19  Z  " style="fill:rgb(36, 105, 255); fill-opacity:0.918; stroke:none;" />
 <path d="  M 21,20  L 21,21  L 22,21  L 22,20  Z  " style="fill:rgb(36, 105, 255); fill-opacity:0.918; stroke:none;" />
 <path d="  M 9,16  L 10,16  L 10,15  L 9,15  Z  " style="fill:rgb(36, 105, 255); fill-opacity:0.439; stroke:none;" />
 <path d="  M 9,16  L 9,17  L 10,17  L 10,16  Z  " style="fill:rgb(36, 105, 255); fill-opacity:0.020; stroke:none;" />
 <path d="  M 10,18  L 9,18  L 9,19  L 10,19  Z  " style="fill:rgb(36, 106, 255); fill-opacity:0.035; stroke:none;" />
 <path d="  M 9,19  L 9,20  L 10,20  L 10,19  Z  " style="fill:rgb(36, 105, 255); fill-opacity:0.424; stroke:none;" />
 <path d="  M 28,23  L 28,24  L 29,24  L 29,23  Z  " style="fill:rgb(36, 105, 255); fill-opacity:0.424; stroke:none;" />
 <path d="  M 10,25  L 10,24  L 9,24  L 9,25  Z  " style="fill:rgb(36, 105, 255); fill-opacity:0.925; stroke:none;" />
 <path d="  M 10,26  L 10,25  L 9,25  L 9,26  Z  " style="fill:rgb(36, 106, 255); fill-opacity:0.376; stroke:none;" />
 <path d="  M 10,9  L 11,9  L 11,8  L 10,8  Z  " style="fill:rgb(36, 105, 255); fill-opacity:0.204; stroke:none;" />
 <path d="  M 10,15  L 10,16  L 11,16  L 11,15  Z  " style="fill:rgb(35, 104, 255); fill-opacity:0.843; stroke:none;" />
 <path d="  M 11,17  L 11,16  L 10,16  L 10,17  Z  " style="fill:rgb(35, 105, 255); fill-opacity:0.231; stroke:none;" />
 <path d="  M 10,17  L 10,18  L 11,18  L 11,17  Z  " style="fill:rgb(35, 106, 255); fill-opacity:0.090; stroke:none;" />
 <path d="  M 17,11  L 18,11  L 18,10  L 17,10  Z  " style="fill:rgb(35, 106, 255); fill-opacity:0.090; stroke:none;" />
 <path d="  M 11,18  L 10,18  L 10,19  L 11,19  Z  " style="fill:rgb(36, 106, 255); fill-opacity:0.443; stroke:none;" />
 <path d="  M 11,20  L 11,19  L 10,19  L 10,20  Z  " style="fill:rgb(36, 105, 255); fill-opacity:0.878; stroke:none;" />
 <path d="  M 23,18  L 24,18  L 24,16  L 23,16  Z  " style="fill:rgb(36, 105, 255); fill-opacity:0.878; stroke:none;" />
 <path d="  M 11,23  L 10,23  L 10,24  L 11,24  Z  " style="fill:rgb(36, 105, 255); fill-opacity:0.871; stroke:none;" />
 <path d="  M 28,5  L 28,4  L 27,4  L 27,5  Z  " style="fill:rgb(36, 105, 255); fill-opacity:0.871; stroke:none;" />
 <path d="  M 11,25  L 11,24  L 10,24  L 10,25  Z  " style="fill:rgb(36, 104, 255); fill-opacity:0.463; stroke:none;" />
 <path d="  M 11,25  L 10,25  L 10,26  L 11,26  Z  " style="fill:rgb(37, 105, 255); fill-opacity:0.086; stroke:none;" />
 <path d="  M 11,9  L 11,10  L 12,10  L 12,9  Z  " style="fill:rgb(35, 105, 255); fill-opacity:0.310; stroke:none;" />
 <path d="  M 12,10  L 11,10  L 11,11  L 12,11  Z  " style="fill:rgb(36, 105, 255); fill-opacity:0.812; stroke:none;" />
 <path d="  M 24,21  L 23,21  L 23,22  L 24,22  Z  " style="fill:rgb(36, 105, 255); fill-opacity:0.812; stroke:none;" />
 <path d="  M 12,16  L 12,15  L 11,15  L 11,16  Z  " style="fill:rgb(36, 105, 255); fill-opacity:0.984; stroke:none;" />
 <path d="  M 22,10  L 22,11  L 23,11  L 23,10  Z  " style="fill:rgb(36, 105, 255); fill-opacity:0.984; stroke:none;" />
 <path d="  M 24,26  L 24,25  L 23,25  L 23,26  Z  " style="fill:rgb(36, 105, 255); fill-opacity:0.984; stroke:none;" />
 <path d="  M 28,5  L 27,5  L 27,6  L 28,6  Z  " style="fill:rgb(36, 105, 255); fill-opacity:0.984; stroke:none;" />
 <path d="  M 28,22  L 27,22  L 27,23  L 28,23  Z  " style="fill:rgb(36, 105, 255); fill-opacity:0.984; stroke:none;" />
 <path d="  M 28,25  L 28,24  L 27,24  L 27,25  Z  " style="fill:rgb(36, 105, 255); fill-opacity:0.984; stroke:none;" />
 <path d="  M 12,17  L 12,16  L 11,16  L 11,17  Z  " style="fill:rgb(36, 105, 255); fill-opacity:0.761; stroke:none;" />
 <path d="  M 12,17  L 11,17  L 11,18  L 12,18  Z  " style="fill:rgb(36, 105, 255); fill-opacity:0.667; stroke:none;" />
 <path d="  M 15,20  L 14,20  L 14,21  L 15,21  Z  " style="fill:rgb(36, 105, 255); fill-opacity:0.667; stroke:none;" />
 <path d="  M 21,8  L 22,8  L 22,7  L 21,7  Z  " style="fill:rgb(36, 105, 255); fill-opacity:0.667; stroke:none;" />
 <path d="  M 12,22  L 11,22  L 11,23  L 12,23  Z  " style="fill:rgb(36, 105, 255); fill-opacity:0.988; stroke:none;" />
 <path d="  M 13,17  L 13,16  L 12,16  L 12,17  Z  " style="fill:rgb(36, 105, 255); fill-opacity:0.988; stroke:none;" />
 <path d="  M 18,17  L 18,16  L 17,16  L 17,17  Z  " style="fill:rgb(36, 105, 255); fill-opacity:0.988; stroke:none;" />
 <path d="  M 21,20  L 20,20  L 20,21  L 21,21  Z  " style="fill:rgb(36, 105, 255); fill-opacity:0.988; stroke:none;" />
 <path d="  M 23,13  L 24,13  L 24,12  L 23,12  Z  " style="fill:rgb(36, 105, 255); fill-opacity:0.988; stroke:none;" />
 <path d="  M 26,27  L 26,26  L 25,26  L 25,27  Z  " style="fill:rgb(36, 105, 255); fill-opacity:0.988; stroke:none;" />
 <path d="  M 27,22  L 28,22  L 28,21  L 27,21  Z  " style="fill:rgb(36, 105, 255); fill-opacity:0.988; stroke:none;" />
 <path d="  M 11,24  L 12,24  L 12,23  L 11,23  Z  " style="fill:rgb(36, 105, 255); fill-opacity:0.537; stroke:none;" />
 <path d="  M 23,20  L 22,20  L 22,21  L 23,21  Z  " style="fill:rgb(36, 105, 255); fill-opacity:0.537; stroke:none;" />
 <path d="  M 11,25  L 12,25  L 12,24  L 11,24  Z  " style="fill:rgb(37, 100, 253); fill-opacity:0.024; stroke:none;" />
 <path d="  M 13,9  L 12,9  L 12,10  L 13,10  Z  " style="fill:rgb(36, 105, 255); fill-opacity:0.016; stroke:none;" />
 <path d="  M 12,10  L 12,11  L 13,11  L 13,10  Z  " style="fill:rgb(37, 105, 255); fill-opacity:0.196; stroke:none;" />
 <path d="  M 13,11  L 12,11  L 12,12  L 13,12  Z  " style="fill:rgb(36, 105, 255); fill-opacity:0.561; stroke:none;" />
 <path d="  M 13,12  L 12,12  L 12,13  L 13,13  Z  " style="fill:rgb(36, 105, 255); fill-opacity:0.933; stroke:none;" />
 <path d="  M 12,21  L 13,21  L 13,20  L 12,20  Z  " style="fill:rgb(35, 105, 255); fill-opacity:1.000; stroke:none;" />
 <path d="  M 27,5  L 26,5  L 26,7  L 27,7  Z  " style="fill:rgb(35, 105, 255); fill-opacity:1.000; stroke:none;" />
 <path d="  M 27,10  L 27,9  L 26,9  L 26,10  Z  " style="fill:rgb(35, 105, 255); fill-opacity:1.000; stroke:none;" />
 <path d="  M 12,23  L 13,23  L 13,22  L 12,22  Z  " style="fill:rgb(36, 105, 255); fill-opacity:0.859; stroke:none;" />
 <path d="  M 15,14  L 15,15  L 16,15  L 16,14  Z  " style="fill:rgb(36, 105, 255); fill-opacity:0.859; stroke:none;" />
 <path d="  M 12,24  L 13,24  L 13,23  L 12,23  Z  " style="fill:rgb(36, 105, 255); fill-opacity:0.239; stroke:none;" />
 <path d="  M 13,12  L 14,12  L 14,11  L 13,11  Z  " style="fill:rgb(35, 106, 255); fill-opacity:0.086; stroke:none;" />
 <path d="  M 13,12  L 13,13  L 14,13  L 14,12  Z  " style="fill:rgb(35, 105, 255); fill-opacity:0.522; stroke:none;" />
 <path d="  M 14,14  L 14,13  L 13,13  L 13,14  Z  " style="fill:rgb(36, 105, 255); fill-opacity:0.922; stroke:none;" />
 <path d="  M 23,14  L 23,15  L 24,15  L 24,14  Z  " style="fill:rgb(36, 105, 255); fill-opacity:0.922; stroke:none;" />
 <path d="  M 13,22  L 14,22  L 14,21  L 13,21  Z  " style="fill:rgb(36, 105, 255); fill-opacity:0.839; stroke:none;" />
 <path d="  M 13,22  L 13,23  L 14,23  L 14,22  Z  " style="fill:rgb(36, 105, 255); fill-opacity:0.404; stroke:none;" />
 <path d="  M 14,23  L 13,23  L 13,24  L 14,24  Z  " style="fill:rgb(36, 104, 255); fill-opacity:0.024; stroke:none;" />
 <path d="  M 15,13  L 15,12  L 14,12  L 14,13  Z  " style="fill:rgb(36, 104, 255); fill-opacity:0.067; stroke:none;" />
 <path d="  M 14,14  L 15,14  L 15,13  L 14,13  Z  " style="fill:rgb(36, 105, 255); fill-opacity:0.533; stroke:none;" />
 <path d="  M 23,13  L 22,13  L 22,14  L 23,14  Z  " style="fill:rgb(36, 105, 255); fill-opacity:0.533; stroke:none;" />
 <path d="  M 28,17  L 29,17  L 29,16  L 28,16  Z  " style="fill:rgb(36, 105, 255); fill-opacity:0.533; stroke:none;" />
 <path d="  M 15,14  L 14,14  L 14,15  L 15,15  Z  " style="fill:rgb(36, 105, 255); fill-opacity:0.898; stroke:none;" />
 <path d="  M 21,22  L 20,22  L 20,23  L 21,23  Z  " style="fill:rgb(36, 105, 255); fill-opacity:0.898; stroke:none;" />
 <path d="  M 14,22  L 15,22  L 15,21  L 14,21  Z  " style="fill:rgb(36, 105, 255); fill-opacity:0.224; stroke:none;" />
 <path d="  M 15,23  L 15,22  L 14,22  L 14,23  Z  " style="fill:rgb(36, 105, 255); fill-opacity:0.024; stroke:none;" />
 <path d="  M 15,14  L 16,14  L 16,13  L 15,13  Z  " style="fill:rgb(36, 105, 255); fill-opacity:0.345; stroke:none;" />
 <path d="  M 15,19  L 15,20  L 16,20  L 16,19  Z  " style="fill:rgb(36, 105, 255); fill-opacity:0.863; stroke:none;" />
 <path d="  M 15,20  L 15,21  L 16,21  L 16,20  Z  " style="fill:rgb(36, 104, 255); fill-opacity:0.271; stroke:none;" />
 <path d="  M 17,11  L 16,11  L 16,12  L 17,12  Z  " style="fill:rgb(36, 105, 255); fill-opacity:0.102; stroke:none;" />
 <path d="  M 16,12  L 16,13  L 17,13  L 17,12  Z  " style="fill:rgb(36, 105, 255); fill-opacity:0.384; stroke:none;" />
 <path d="  M 17,14  L 17,13  L 16,13  L 16,14  Z  " style="fill:rgb(36, 105, 255); fill-opacity:0.773; stroke:none;" />
 <path d="  M 16,19  L 16,20  L 17,20  L 17,19  Z  " style="fill:rgb(36, 105, 255); fill-opacity:0.788; stroke:none;" />
 <path d="  M 21,12  L 21,13  L 22,13  L 22,12  Z  " style="fill:rgb(36, 105, 255); fill-opacity:0.788; stroke:none;" />
 <path d="  M 16,20  L 16,21  L 17,21  L 17,20  Z  " style="fill:rgb(35, 104, 255); fill-opacity:0.157; stroke:none;" />
 <path d="  M 17,11  L 17,12  L 18,12  L 18,11  Z  " style="fill:rgb(36, 105, 255); fill-opacity:0.659; stroke:none;" />
 <path d="  M 17,22  L 18,22  L 18,21  L 17,21  Z  " style="fill:rgb(36, 105, 255); fill-opacity:0.071; stroke:none;" />
 <path d="  M 19,8  L 18,8  L 18,9  L 19,9  Z  " style="fill:rgb(35, 103, 255); fill-opacity:0.035; stroke:none;" />
 <path d="  M 18,9  L 18,10  L 19,10  L 19,9  Z  " style="fill:rgb(35, 104, 255); fill-opacity:0.129; stroke:none;" />
 <path d="  M 19,11  L 19,10  L 18,10  L 18,11  Z  " style="fill:rgb(35, 105, 255); fill-opacity:0.471; stroke:none;" />
 <path d="  M 19,16  L 19,15  L 18,15  L 18,16  Z  " style="fill:rgb(36, 105, 255); fill-opacity:0.937; stroke:none;" />
 <path d="  M 19,16  L 18,16  L 18,17  L 19,17  Z  " style="fill:rgb(36, 105, 255); fill-opacity:0.620; stroke:none;" />
 <path d="  M 19,21  L 19,20  L 18,20  L 18,21  Z  " style="fill:rgb(36, 105, 255); fill-opacity:0.906; stroke:none;" />
 <path d="  M 23,22  L 23,21  L 22,21  L 22,22  Z  " style="fill:rgb(36, 105, 255); fill-opacity:0.906; stroke:none;" />
 <path d="  M 18,21  L 18,22  L 19,22  L 19,21  Z  " style="fill:rgb(36, 105, 255); fill-opacity:0.275; stroke:none;" />
 <path d="  M 20,8  L 20,7  L 19,7  L 19,8  Z  " style="fill:rgb(37, 103, 255); fill-opacity:0.016; stroke:none;" />
 <path d="  M 19,8  L 19,9  L 20,9  L 20,8  Z  " style="fill:rgb(37, 105, 255); fill-opacity:0.404; stroke:none;" />
 <path d="  M 20,9  L 19,9  L 19,10  L 20,10  Z  " style="fill:rgb(36, 105, 255); fill-opacity:0.780; stroke:none;" />
 <path d="  M 19,11  L 20,11  L 20,10  L 19,10  Z  " style="fill:rgb(36, 105, 255); fill-opacity:0.945; stroke:none;" />
 <path d="  M 19,15  L 20,15  L 20,14  L 19,14  Z  " style="fill:rgb(36, 105, 255); fill-opacity:0.847; stroke:none;" />
 <path d="  M 24,19  L 24,18  L 23,18  L 23,19  Z  " style="fill:rgb(36, 105, 255); fill-opacity:0.847; stroke:none;" />
 <path d="  M 19,15  L 19,16  L 20,16  L 20,15  Z  " style="fill:rgb(36, 105, 255); fill-opacity:0.576; stroke:none;" />
 <path d="  M 19,17  L 20,17  L 20,16  L 19,16  Z  " style="fill:rgb(35, 105, 255); fill-opacity:0.114; stroke:none;" />
 <path d="  M 20,17  L 19,17  L 19,18  L 20,18  Z  " style="fill:rgb(36, 105, 255); fill-opacity:0.235; stroke:none;" />
 <path d="  M 19,19  L 20,19  L 20,18  L 19,18  Z  " style="fill:rgb(36, 105, 255); fill-opacity:0.882; stroke:none;" />
 <path d="  M 19,21  L 19,22  L 20,22  L 20,21  Z  " style="fill:rgb(36, 105, 255); fill-opacity:0.682; stroke:none;" />
 <path d="  M 20,22  L 19,22  L 19,23  L 20,23  Z  " style="fill:rgb(36, 105, 255); fill-opacity:0.306; stroke:none;" />
 <path d="  M 28,5  L 29,5  L 29,4  L 28,4  Z  " style="fill:rgb(36, 105, 255); fill-opacity:0.306; stroke:none;" />
 <path d="  M 19,24  L 20,24  L 20,23  L 19,23  Z  " style="fill:rgb(37, 105, 255); fill-opacity:0.043; stroke:none;" />
 <path d="  M 21,7  L 20,7  L 20,8  L 21,8  Z  " style="fill:rgb(36, 105, 255); fill-opacity:0.169; stroke:none;" />
 <path d="  M 21,8  L 20,8  L 20,9  L 21,9  Z  " style="fill:rgb(36, 105, 255); fill-opacity:0.776; stroke:none;" />
 <path d="  M 21,13  L 20,13  L 20,14  L 21,14  Z  " style="fill:rgb(36, 105, 255); fill-opacity:0.725; stroke:none;" />
 <path d="  M 21,15  L 21,14  L 20,14  L 20,15  Z  " style="fill:rgb(36, 105, 255); fill-opacity:0.196; stroke:none;" />
 <path d="  M 20,16  L 21,16  L 21,15  L 20,15  Z  " style="fill:rgb(34, 105, 255); fill-opacity:0.055; stroke:none;" />
 <path d="  M 20,17  L 20,18  L 21,18  L 21,17  Z  " style="fill:rgb(34, 105, 255); fill-opacity:0.031; stroke:none;" />
 <path d="  M 21,19  L 21,18  L 20,18  L 20,19  Z  " style="fill:rgb(36, 105, 255); fill-opacity:0.475; stroke:none;" />
 <path d="  M 21,24  L 21,23  L 20,23  L 20,24  Z  " style="fill:rgb(36, 105, 255); fill-opacity:0.369; stroke:none;" />
 <path d="  M 20,24  L 20,25  L 21,25  L 21,24  Z  " style="fill:rgb(41, 107, 255); fill-opacity:0.004; stroke:none;" />
 <path d="  M 22,6  L 21,6  L 21,7  L 22,7  Z  " style="fill:rgb(35, 104, 255); fill-opacity:0.133; stroke:none;" />
 <path d="  M 22,19  L 22,18  L 21,18  L 21,19  Z  " style="fill:rgb(37, 106, 255); fill-opacity:0.059; stroke:none;" />
 <path d="  M 21,20  L 22,20  L 22,19  L 21,19  Z  " style="fill:rgb(36, 105, 255); fill-opacity:0.420; stroke:none;" />
 <path d="  M 22,23  L 21,23  L 21,24  L 22,24  Z  " style="fill:rgb(36, 105, 255); fill-opacity:0.800; stroke:none;" />
 <path d="  M 22,26  L 22,25  L 21,25  L 21,26  Z  " style="fill:rgb(36, 106, 255); fill-opacity:0.043; stroke:none;" />
 <path d="  M 22,5  L 23,5  L 23,4  L 22,4  Z  " style="fill:rgb(36, 106, 255); fill-opacity:0.082; stroke:none;" />
 <path d="  M 22,5  L 22,6  L 23,6  L 23,5  Z  " style="fill:rgb(36, 105, 255); fill-opacity:0.490; stroke:none;" />
 <path d="  M 29,23  L 29,22  L 28,22  L 28,23  Z  " style="fill:rgb(36, 105, 255); fill-opacity:0.490; stroke:none;" />
 <path d="  M 23,7  L 23,6  L 22,6  L 22,7  Z  " style="fill:rgb(35, 105, 255); fill-opacity:0.788; stroke:none;" />
 <path d="  M 23,13  L 23,12  L 22,12  L 22,13  Z  " style="fill:rgb(36, 105, 255); fill-opacity:0.651; stroke:none;" />
 <path d="  M 23,15  L 23,14  L 22,14  L 22,15  Z  " style="fill:rgb(36, 104, 255); fill-opacity:0.329; stroke:none;" />
 <path d="  M 23,15  L 22,15  L 22,16  L 23,16  Z  " style="fill:rgb(36, 105, 254); fill-opacity:0.235; stroke:none;" />
 <path d="  M 22,17  L 23,17  L 23,16  L 22,16  Z  " style="fill:rgb(36, 105, 255); fill-opacity:0.243; stroke:none;" />
 <path d="  M 22,17  L 22,18  L 23,18  L 23,17  Z  " style="fill:rgb(37, 105, 254); fill-opacity:0.220; stroke:none;" />
 <path d="  M 22,19  L 23,19  L 23,18  L 22,18  Z  " style="fill:rgb(35, 104, 255); fill-opacity:0.161; stroke:none;" />
 <path d="  M 22,19  L 22,20  L 23,20  L 23,19  Z  " style="fill:rgb(35, 105, 255); fill-opacity:0.176; stroke:none;" />
 <path d="  M 22,24  L 22,25  L 23,25  L 23,24  Z  " style="fill:rgb(36, 105, 255); fill-opacity:0.890; stroke:none;" />
 <path d="  M 23,25  L 22,25  L 22,26  L 23,26  Z  " style="fill:rgb(36, 106, 255); fill-opacity:0.647; stroke:none;" />
 <path d="  M 23,27  L 23,26  L 22,26  L 22,27  Z  " style="fill:rgb(36, 105, 255); fill-opacity:0.231; stroke:none;" />
 <path d="  M 24,4  L 24,3  L 23,3  L 23,4  Z  " style="fill:rgb(38, 103, 255); fill-opacity:0.012; stroke:none;" />
 <path d="  M 23,4  L 23,5  L 24,5  L 24,4  Z  " style="fill:rgb(36, 105, 255); fill-opacity:0.443; stroke:none;" />
 <path d="  M 24,16  L 24,15  L 23,15  L 23,16  Z  " style="fill:rgb(36, 105, 255); fill-opacity:0.851; stroke:none;" />
 <path d="  M 24,20  L 23,20  L 23,21  L 24,21  Z  " style="fill:rgb(35, 105, 255); fill-opacity:0.659; stroke:none;" />
 <path d="  M 23,26  L 23,27  L 24,27  L 24,26  Z  " style="fill:rgb(36, 105, 255); fill-opacity:0.624; stroke:none;" />
 <path d="  M 23,28  L 24,28  L 24,27  L 23,27  Z  " style="fill:rgb(35, 104, 254); fill-opacity:0.055; stroke:none;" />
 <path d="  M 24,3  L 24,4  L 25,4  L 25,3  Z  " style="fill:rgb(36, 104, 255); fill-opacity:0.075; stroke:none;" />
 <path d="  M 25,5  L 25,4  L 24,4  L 24,5  Z  " style="fill:rgb(36, 105, 255); fill-opacity:0.753; stroke:none;" />
 <path d="  M 25,26  L 24,26  L 24,27  L 25,27  Z  " style="fill:rgb(35, 105, 255); fill-opacity:0.910; stroke:none;" />
 <path d="  M 25,27  L 24,27  L 24,28  L 25,28  Z  " style="fill:rgb(35, 105, 255); fill-opacity:0.306; stroke:none;" />
 <path d="  M 26,4  L 26,3  L 25,3  L 25,4  Z  " style="fill:rgb(36, 104, 255); fill-opacity:0.267; stroke:none;" />
 <path d="  M 26,5  L 26,4  L 25,4  L 25,5  Z  " style="fill:rgb(36, 105, 255); fill-opacity:0.894; stroke:none;" />
 <path d="  M 25,27  L 25,28  L 26,28  L 26,27  Z  " style="fill:rgb(36, 105, 255); fill-opacity:0.459; stroke:none;" />
 <path d="  M 27,3  L 27,2  L 26,2  L 26,3  Z  " style="fill:rgb(38, 97, 255); fill-opacity:0.008; stroke:none;" />
 <path d="  M 26,3  L 26,4  L 27,4  L 27,3  Z  " style="fill:rgb(36, 105, 255); fill-opacity:0.486; stroke:none;" />
 <path d="  M 26,26  L 27,26  L 27,25  L 26,25  Z  " style="fill:rgb(36, 106, 255); fill-opacity:1.000; stroke:none;" />
 <path d="  M 27,27  L 27,26  L 26,26  L 26,27  Z  " style="fill:rgb(36, 105, 255); fill-opacity:0.961; stroke:none;" />
 <path d="  M 26,28  L 27,28  L 27,27  L 26,27  Z  " style="fill:rgb(36, 105, 255); fill-opacity:0.514; stroke:none;" />
 <path d="  M 26,29  L 27,29  L 27,28  L 26,28  Z  " style="fill:rgb(33, 105, 255); fill-opacity:0.024; stroke:none;" />
 <path d="  M 28,4  L 28,3  L 27,3  L 27,4  Z  " style="fill:rgb(36, 105, 255); fill-opacity:0.349; stroke:none;" />
 <path d="  M 28,9  L 27,9  L 27,10  L 28,10  Z  " style="fill:rgb(36, 104, 255); fill-opacity:0.976; stroke:none;" />
 <path d="  M 27,12  L 28,12  L 28,11  L 27,11  Z  " style="fill:rgb(35, 105, 255); fill-opacity:0.984; stroke:none;" />
 <path d="  M 27,27  L 27,28  L 28,28  L 28,27  Z  " style="fill:rgb(36, 104, 255); fill-opacity:0.165; stroke:none;" />
 <path d="  M 28,4  L 29,4  L 29,3  L 28,3  Z  " style="fill:rgb(35, 107, 255); fill-opacity:0.059; stroke:none;" />
 <path d="  M 29,5  L 28,5  L 28,6  L 29,6  Z  " style="fill:rgb(36, 106, 255); fill-opacity:0.475; stroke:none;" />
 <path d="  M 28,7  L 29,7  L 29,6  L 28,6  Z  " style="fill:rgb(36, 105, 255); fill-opacity:0.416; stroke:none;" />
 <path d="  M 28,8  L 29,8  L 29,7  L 28,7  Z  " style="fill:rgb(35, 105, 255); fill-opacity:0.424; stroke:none;" />
 <path d="  M 28,9  L 29,9  L 29,8  L 28,8  Z  " style="fill:rgb(36, 105, 255); fill-opacity:0.392; stroke:none;" />
 <path d="  M 29,11  L 29,10  L 28,10  L 28,11  Z  " style="fill:rgb(36, 105, 255); fill-opacity:0.671; stroke:none;" />
 <path d="  M 28,11  L 28,12  L 29,12  L 29,11  Z  " style="fill:rgb(36, 105, 255); fill-opacity:0.588; stroke:none;" />
 <path d="  M 29,16  L 29,15  L 28,15  L 28,16  Z  " style="fill:rgb(36, 105, 255); fill-opacity:0.588; stroke:none;" />
 <path d="  M 28,13  L 29,13  L 29,12  L 28,12  Z  " style="fill:rgb(36, 105, 255); fill-opacity:0.502; stroke:none;" />
 <path d="  M 28,14  L 29,14  L 29,13  L 28,13  Z  " style="fill:rgb(36, 105, 255); fill-opacity:0.627; stroke:none;" />
 <path d="  M 28,14  L 28,15  L 29,15  L 29,14  Z  " style="fill:rgb(35, 105, 255); fill-opacity:0.596; stroke:none;" />
 <path d="  M 29,18  L 29,17  L 28,17  L 28,18  Z  " style="fill:rgb(36, 105, 255); fill-opacity:0.694; stroke:none;" />
 <path d="  M 28,19  L 29,19  L 29,18  L 28,18  Z  " style="fill:rgb(36, 104, 255); fill-opacity:0.729; stroke:none;" />
 <path d="  M 29,19  L 28,19  L 28,20  L 29,20  Z  " style="fill:rgb(36, 105, 255); fill-opacity:0.647; stroke:none;" />
 <path d="  M 29,21  L 29,20  L 28,20  L 28,21  Z  " style="fill:rgb(36, 105, 255); fill-opacity:0.612; stroke:none;" />
 <path d="  M 28,21  L 28,22  L 29,22  L 29,21  Z  " style="fill:rgb(36, 105, 255); fill-opacity:0.510; stroke:none;" />
 <path d="  M 28,24  L 28,25  L 29,25  L 29,24  Z  " style="fill:rgb(36, 105, 255); fill-opacity:0.471; stroke:none;" />
 <path d="  M 29,26  L 29,25  L 28,25  L 28,26  Z  " style="fill:rgb(37, 106, 255); fill-opacity:0.400; stroke:none;" />
 <path d="  M 28,27  L 29,27  L 29,26  L 28,26  Z  " style="fill:rgb(36, 105, 255); fill-opacity:0.122; stroke:none;" />
 <path d="  M 30,10  L 30,9  L 29,9  L 29,10  Z  " style="fill:rgb(36, 105, 255); fill-opacity:0.043; stroke:none;" />
 <path d="  M 29,11  L 30,11  L 30,10  L 29,10  Z  " style="fill:rgb(35, 105, 255); fill-opacity:0.051; stroke:none;" />
 <path d="  M 29,11  L 29,12  L 30,12  L 30,11  Z  " style="fill:rgb(37, 106, 255); fill-opacity:0.035; stroke:none;" />
 <path d="  M 30,12  L 29,12  L 29,13  L 30,13  Z  " style="fill:rgb(38, 105, 255); fill-opacity:0.012; stroke:none;" />
 <path d="  M 30,15  L 30,14  L 29,14  L 29,15  Z  " style="fill:rgb(35, 105, 255); fill-opacity:0.031; stroke:none;" />
 <path d="  M 30,15  L 29,15  L 29,16  L 30,16  Z  " style="fill:rgb(37, 105, 255); fill-opacity:0.024; stroke:none;" />
 <path d="  M 30,16  L 29,16  L 29,17  L 30,17  Z  " style="fill:rgb(35, 105, 255); fill-opacity:0.008; stroke:none;" />
 <path d="  M 29,18  L 30,18  L 30,17  L 29,17  Z  " style="fill:rgb(34, 106, 255); fill-opacity:0.059; stroke:none;" />
 <path d="  M 29,18  L 29,19  L 30,19  L 30,18  Z  " style="fill:rgb(34, 105, 255); fill-opacity:0.082; stroke:none;" />
 <path d="  M 29,19  L 29,20  L 30,20  L 30,19  Z  " style="fill:rgb(36, 104, 255); fill-opacity:0.043; stroke:none;" />
 <path d="  M 29,21  L 30,21  L 30,20  L 29,20  Z  " style="fill:rgb(31, 106, 255); fill-opacity:0.039; stroke:none;" />
 <path d="  M 29,21  L 29,22  L 30,22  L 30,21  Z  " style="fill:rgb(33, 108, 255); fill-opacity:0.016; stroke:none;" />
 <path d="  M 29,22  L 29,23  L 30,23  L 30,22  Z  " style="fill:rgb(35, 102, 255); fill-opacity:0.008; stroke:none;" />
 <path d="  M 29,25  L 30,25  L 30,24  L 29,24  Z  " style="fill:rgb(41, 99, 255); fill-opacity:0.004; stroke:none;" />
</svg>
